<svg width="500" height="500" fill="none" xmlns="http://www.w3.org/2000/svg"><path d="M145.2 227.921c0 14.853-6.8 28.234-17.466 36.932A43.623 43.623 0 0 0 97.6 252.81c-4 0-8 .535-11.6 1.605-5.733-7.359-9.066-16.458-9.066-26.494 0 11.508 9.333 20.741 20.666 20.741 11.334 0 20.667-9.367 20.667-20.741 0-11.374-9.333-20.741-20.667-20.741-2.8 0-5.6.536-8 1.606 7.6-3.747 15.6-4.683 24-4.683 10.267 0 19.867 2.408 28.534 6.69 1.866 5.353 3.066 11.106 3.066 17.128Z" fill="#2CB99C"/><path d="M121.867 186.841c-14.4 4.014-26.934 12.445-35.867 23.952-4.8 3.346-8.133 8.564-8.933 14.719-3.867 8.698-6.134 18.466-6.134 28.636 0 2.542.134 5.085.4 7.627-1.333 1.071-2.666 2.141-3.866 3.212C56.8 256.155 50 242.774 50 227.921c0-26.361 21.333-47.77 47.6-47.77 8.8 0 17.2 2.408 24.267 6.69Z" fill="url(#a)"/><path d="M86 254.416a45.194 45.194 0 0 0-14.667 7.092 73.101 73.101 0 0 1-.4-7.628c0-10.169 2.133-19.67 6-28.368v2.275c-.134 10.17 3.333 19.403 9.066 26.629Z" fill="url(#b)"/><path d="M80 272.346c5.467 2.141 11.333 3.345 17.6 3.345 6.267 0 12.133-1.204 17.6-3.345-4.933-3.613-11.067-5.62-17.6-5.62-6.533 0-12.667 2.007-17.6 5.62Z" fill="#2CB99C"/><path d="M113.467 204.103c10.267 0 19.867 2.408 28.534 6.69-3.867-10.036-11.067-18.466-20.134-23.952-14.133 3.881-26.4 11.909-36 23.952 1.2-.803 2.8-1.739 4-2.141 7.6-3.613 15.467-4.549 23.6-4.549Z" fill="url(#c)"/><path d="M165.067 197.546h30.8c7.6 0 12.8 1.873 16.4 5.486 2.4 2.409 3.867 5.62 3.867 9.768v.134c0 7.092-4 11.24-9.2 13.515 7.333 2.409 11.867 6.557 11.867 14.853v.134c0 10.437-8.4 16.726-22.667 16.726h-31.067v-60.616Zm26.667 24.22c5.067 0 7.867-1.74 7.867-5.353v-.133c0-3.346-2.534-5.219-7.6-5.219h-10.8v10.705h10.533Zm2.4 23.015c5.067 0 8-2.007 8-5.486v-.134c0-3.345-2.533-5.486-8.133-5.486h-12.667v11.24h12.8v-.134ZM239.867 197.546h16l25.6 60.75H263.6l-4.4-10.705H236l-4.267 10.705h-17.466l25.6-60.75Zm14.533 36.932-6.667-17.128-6.8 17.128H254.4Z" fill="#2CB79A"/><path d="M279.732 197.546h28.4c9.2 0 15.467 2.409 19.6 6.557 3.467 3.479 5.334 8.162 5.334 14.184v.133c0 9.233-4.934 15.389-12.4 18.6l14.266 21.142h-19.2l-12.133-18.332h-7.333v18.332h-16.534v-60.616Zm27.6 29.171c5.6 0 8.934-2.81 8.934-7.226v-.134c0-4.817-3.467-7.226-9.067-7.226h-10.933v14.586h11.066Z" fill="#2CB79A"/><path d="M353.733 197.546h16l25.6 60.75h-17.867l-4.4-10.705h-23.2l-4.266 10.705h-17.467l25.6-60.75Zm14.533 36.932L361.6 217.35l-6.8 17.128h13.466ZM386.667 228.055v-.134c0-16.994 13.6-30.642 31.733-30.642 18.134 0 31.6 13.514 31.6 30.508v.134c0 16.994-13.6 30.643-31.733 30.643-18.133 0-31.6-13.515-31.6-30.509Zm46.667 0v-.134c0-8.564-6.134-15.923-15.067-15.923s-14.8 7.226-14.8 15.789v.134c0 8.564 6.133 15.924 15.067 15.924 8.933 0 14.8-7.226 14.8-15.79Z" fill="#2CB79A"/><path d="M225.733 267.663h8.534c7.733 0 13.066 5.353 13.066 12.311v.133c0 6.959-5.333 12.311-13.066 12.311h-8.534v-24.755Zm8.534 22.079c6.266 0 10.133-4.282 10.133-9.635v-.133c0-5.487-4-9.769-10.133-9.769h-5.734v19.537h5.734ZM252.532 267.663h17.734v2.542h-14.934v8.431h13.467v2.542h-13.467v8.564h15.067v2.542h-17.867v-24.621ZM285.066 267.663h2.8l8.934 13.515 8.933-13.515h2.8v24.621h-2.8v-19.938l-8.933 13.248h-.134l-8.933-13.114v19.938h-2.667v-24.755ZM324.001 267.395h2.533l11.2 24.889h-2.933l-2.934-6.557h-13.333l-2.933 6.557h-2.8l11.2-24.889Zm6.8 15.79-5.6-12.578-5.6 12.578h11.2ZM340.667 281.981v-14.318h2.8v14.184c0 5.352 2.8 8.296 7.467 8.296 4.533 0 7.466-2.81 7.466-8.162v-14.318h2.8v14.184c0 7.226-4.133 10.972-10.266 10.972-6.134-.133-10.267-3.88-10.267-10.838ZM375.201 267.395h2.533l11.2 24.889h-2.933l-2.933-6.557h-13.334l-2.933 6.557h-2.8l11.2-24.889Zm6.8 15.79-5.6-12.578-5.6 12.578h11.2Zm-3.2-22.614 2.8 1.204-4 3.212h-2.267l3.467-4.416ZM189.201 309.01c2.267 0 3.333.937 3.867 2.543 0 .133 0 .133-.134.267l-.266.134c-.134 0-.267 0-.267-.134-.4-1.472-1.333-2.141-3.2-2.141-2.133 0-3.2 1.071-3.2 2.944v3.613c0 1.873 1.2 2.944 3.2 2.944s2.8-.803 3.2-2.275c0-.134.133-.134.267-.134l.266.134c.134 0 .134.134.134.268-.534 1.605-1.6 2.676-3.867 2.676-2.533 0-3.867-1.338-3.867-3.613v-3.613c-.133-2.275 1.2-3.613 3.867-3.613ZM205.735 309.412v.267c0 .134 0 .134-.133.134h-5.467v4.148h4.8c.133 0 .133 0 .133.134v.268c0 .133 0 .133-.133.133h-4.8v4.282h5.733c.134 0 .134 0 .134.134v.268c0 .134 0 .134-.134.134h-6.133c-.133 0-.133 0-.133-.134v-10.036c0-.134 0-.134.133-.134h6v.402ZM220.002 309.412v10.036c0 .134 0 .134-.134.134h-.266c-.134 0-.134 0-.267-.134l-5.2-7.36c-.533-.669-.933-1.472-1.2-1.873 0 .535.133 1.472.133 2.409v6.824c0 .134 0 .134-.133.134h-.267c-.133 0-.133 0-.133-.134v-10.036c0-.134 0-.134.133-.134h.267c.133 0 .133 0 .267.134l5.066 7.226c.534.803.934 1.606 1.334 2.141 0-.669-.134-1.606-.134-2.676v-6.557c0-.134 0-.134.134-.134h.266c.134-.268.134-.134.134 0ZM233.469 309.412v.268c0 .134 0 .134-.134.134h-3.2v9.5c0 .134 0 .134-.133.134h-.267c-.133 0-.133 0-.133-.134v-9.5h-3.2c-.133 0-.133 0-.133-.134v-.268c0-.134 0-.134.133-.134h6.933c.134-.133.134 0 .134.134ZM246.935 312.088c0 1.74-.933 2.676-2.533 2.81.533.268.933.535 1.2 1.204l1.6 3.212c.133.134 0 .134-.134.134h-.266c-.267 0-.267 0-.4-.134l-1.467-3.078c-.533-.936-1.067-1.338-2.267-1.338h-2.4v4.416c0 .134 0 .134-.133.134h-.4c-.133 0-.133 0-.133-.134v-10.036c0-.134 0-.134.133-.134h4.133c1.867 0 3.067 1.071 3.067 2.944Zm-3.067-2.275h-3.6v4.55h3.6c1.467 0 2.267-.803 2.267-2.275s-.8-2.275-2.267-2.275ZM257.201 309.01c2.534 0 3.867 1.338 3.867 3.613v3.613c0 2.275-1.333 3.613-3.867 3.613-2.533 0-4-1.338-4-3.613v-3.613c0-2.275 1.467-3.613 4-3.613Zm0 .535c-2.133 0-3.2 1.071-3.2 2.944v3.613c0 1.874 1.2 2.944 3.2 2.944 2.134 0 3.2-1.07 3.2-2.944v-3.613c0-1.739-1.2-2.944-3.2-2.944ZM279.868 319.18c2.133 0 3.2-1.204 3.2-3.078v-6.69c0-.134 0-.134.134-.134h.266c.134 0 .134 0 .134.134v6.69c0 2.275-1.334 3.747-3.867 3.747-2.534 0-3.867-1.472-3.867-3.747v-6.69c0-.134 0-.134.133-.134h.267c.134 0 .133 0 .133.134v6.69c.267 1.874 1.2 3.078 3.467 3.078ZM298.267 309.412v10.036c0 .134 0 .134-.133.134h-.267c-.133 0-.133 0-.266-.134l-5.2-7.36c-.534-.669-.934-1.472-1.2-1.873 0 .535.133 1.472.133 2.409v6.824c0 .134 0 .134-.133.134h-.267c-.133 0-.133 0-.133-.134v-10.036c0-.134 0-.134.133-.134h.267c.133 0 .133 0 .266.134l5.067 7.226c.533.803.933 1.606 1.333 2.141 0-.669-.133-1.606-.133-2.676v-6.557c0-.134 0-.134.133-.134h.267c.133-.268.133-.134.133 0ZM305.468 309.144h.267c.133 0 .133 0 .133.134v10.036c0 .134 0 .134-.133.134h-.267c-.134 0-.134 0-.134-.134v-10.036s0-.134.134-.134ZM320.533 309.412l-3.866 10.036c0 .134-.134.134-.267.134h-.267c-.133 0-.266 0-.266-.134L312 309.412c0-.134 0-.134.133-.134h.267c.267 0 .267 0 .267.134l3.2 8.43c.133.402.266.803.266.937.134-.134.134-.535.267-.937l3.2-8.43c0-.134.133-.134.267-.134h.266c.534-.133.534 0 .4.134ZM332.934 309.412v.267c0 .134 0 .134-.133.134h-5.467v4.148h4.8c.133 0 .133 0 .133.134v.268c0 .133 0 .133-.133.133h-4.8v4.282h5.733c.134 0 .134 0 .134.134v.268c0 .134 0 .134-.134.134h-6.133c-.133 0-.133 0-.133-.134v-10.036c0-.134 0-.134.133-.134h6v.402ZM346.934 312.088c0 1.74-.933 2.676-2.533 2.81.533.268.933.535 1.2 1.204l1.6 3.212c.133.134 0 .134-.133.134h-.267c-.267 0-.267 0-.4-.134l-1.467-3.078c-.533-.936-1.066-1.338-2.266-1.338h-2.4v4.416c0 .134 0 .134-.134.134h-.266c-.134 0-.134 0-.134-.134v-10.036c0-.134 0-.134.134-.134h4.133c1.867 0 2.933 1.071 2.933 2.944Zm-3.066-2.275h-3.6v4.55h3.6c1.466 0 2.266-.803 2.266-2.275.134-1.472-.666-2.275-2.266-2.275ZM356.934 309.01c2 0 3.067.669 3.867 2.275.133.134 0 .268-.134.268l-.266.133c-.134 0-.134 0-.267-.133-.667-1.338-1.6-1.874-3.2-1.874-1.867 0-2.933.803-2.933 2.275 0 1.74 1.6 2.007 3.2 2.141 1.733.268 3.6.535 3.6 2.81 0 1.873-1.334 2.944-3.867 2.944-2 0-3.2-.803-3.867-2.542 0-.134 0-.268.134-.268l.266-.134c.134 0 .134 0 .267.134.667 1.472 1.6 2.141 3.333 2.141 2.134 0 3.2-.803 3.2-2.275 0-1.739-1.466-2.007-3.066-2.141-1.867-.268-3.867-.535-3.867-2.81-.133-1.873 1.2-2.944 3.6-2.944ZM367.601 309.144h.266c.134 0 .134 0 .134.134v10.036c0 .134 0 .134-.134.134h-.266c-.134 0-.134 0-.134-.134v-10.036c-.133 0-.133-.134.134-.134ZM381.469 309.412v.268c0 .134 0 .134-.134.134h-3.2v9.5c0 .134 0 .134-.133.134h-.267c-.133 0-.133 0-.133-.134v-9.5h-3.2c-.133 0-.133 0-.133-.134v-.268c0-.134 0-.134.133-.134h6.933c.134-.133.134 0 .134.134ZM394.002 319.581h-.267c-.266 0-.266 0-.266-.133l-1.334-3.212h-4.8l-1.333 3.212c0 .133-.133.133-.4.133h-.267c-.133 0-.133-.133-.133-.133l4-10.17c0-.134.133-.134.267-.134h.266c.134 0 .267 0 .267.134l4 10.17c.267 0 .133.133 0 .133Zm-4.267-9.768c0 .134 0 .402-.133.669l-2.133 5.219h4.4l-2.134-5.219v-.669Zm1.334-3.345.133.134c.133.134.133.134 0 .267l-2.533 1.472h-.267l-.133-.133c-.134-.134-.134-.134 0-.268l2.4-1.606c.133.134.266 0 .4.134ZM407.468 312.088c0 1.74-.934 2.676-2.534 2.81.534.268.934.535 1.2 1.204l1.6 3.212c.134.134 0 .134-.133.134h-.267c-.266 0-.266 0-.4-.134l-1.466-3.078c-.534-.936-1.067-1.338-2.267-1.338h-2.4v4.416c0 .134 0 .134-.133.134h-.267c-.133 0-.133 0-.133-.134v-10.036c0-.134 0-.134.133-.134h4.133c1.867 0 2.934 1.071 2.934 2.944Zm-2.934-2.275h-3.6v4.55h3.6c1.467 0 2.267-.803 2.267-2.275s-.8-2.275-2.267-2.275ZM414.402 309.144h.267c.133 0 .133 0 .133.134v10.036c0 .134 0 .134-.133.134h-.267c-.134 0-.134 0-.134-.134v-10.036c-.133 0 0-.134.134-.134ZM425.602 309.01c2.533 0 3.866 1.338 3.866 3.613v3.613c0 2.275-1.333 3.613-3.866 3.613-2.534 0-4-1.338-4-3.613v-3.613c0-2.275 1.333-3.613 4-3.613Zm0 .535c-2.134 0-3.2 1.071-3.2 2.944v3.613c0 1.874 1.2 2.944 3.2 2.944 2.133 0 3.2-1.07 3.2-2.944v-3.613c0-1.739-1.2-2.944-3.2-2.944Z" fill="#4E4E4E"/><path d="M344.001 186.975c5.467 2.141 11.333 3.345 17.6 3.345 6.267 0 12.133-1.204 17.6-3.345-4.933-3.613-11.067-5.62-17.6-5.62-6.533 0-12.533 2.007-17.6 5.62Z" fill="#2CB79A"/><defs><linearGradient id="a" x1="874.717" y1="7554.06" x2="5839.02" y2="1053.13" gradientUnits="userSpaceOnUse"><stop offset=".144" stop-color="#20419A"/><stop offset=".22" stop-color="#0054A6"/><stop offset=".374" stop-color="#0074BD"/><stop offset=".485" stop-color="#0088CE"/><stop offset=".542" stop-color="#008FD5"/><stop offset=".613" stop-color="#008DD2"/><stop offset=".705" stop-color="#0086CC"/><stop offset=".809" stop-color="#007AC1"/><stop offset=".921" stop-color="#0B6AB4"/><stop offset=".941" stop-color="#1D67B1"/></linearGradient><linearGradient id="b" x1="717.881" y1="1932.2" x2="1357.17" y2="2315.87" gradientUnits="userSpaceOnUse"><stop stop-color="#20419A"/><stop offset="1" stop-color="#00A9EB"/></linearGradient><linearGradient id="c" x1="90.907" y1="1382.36" x2="5699.22" y2="1382.36" gradientUnits="userSpaceOnUse"><stop offset=".16" stop-color="#20419A"/><stop offset=".31" stop-color="#0053A5"/><stop offset=".644" stop-color="#007BC4"/><stop offset="1" stop-color="#00A9EB"/></linearGradient></defs></svg>