<svg width="500" height="500" fill="none" xmlns="http://www.w3.org/2000/svg"><mask id="a" style="mask-type:luminance" maskUnits="userSpaceOnUse" x="50" y="228" width="400" height="95"><path d="M450 228.468H50v94.06h400v-94.06Z" fill="#fff"/></mask><g mask="url(#a)"><mask id="b" style="mask-type:luminance" maskUnits="userSpaceOnUse" x="50" y="228" width="400" height="95"><path d="M450 228.471H50v94.06h400v-94.06Z" fill="#fff"/></mask><g mask="url(#b)"><path d="M124.905 296.739V230.75h-16.647v44.42c-1.124 1.193-2.464 2.292-4.02 3.297a29.983 29.983 0 0 1-5.031 2.599 32.91 32.91 0 0 1-5.651 1.703c-1.967.412-3.91.615-5.82.615-4.05 0-7.433-.495-10.15-1.482-2.718-.986-4.893-2.374-6.523-4.163-1.63-1.785-2.782-3.938-3.458-6.454-.675-2.513-1.011-5.299-1.011-8.352v-6.762H50v9.11c0 5.179.638 9.788 1.91 13.831 1.272 4.043 3.292 7.448 6.047 10.224 2.756 2.775 6.296 4.886 10.63 6.342 4.329 1.451 9.53 2.179 15.604 2.179 3.71 0 7.629-.522 11.754-1.564 4.122-1.043 8.229-2.776 12.317-5.198v5.644h16.647-.004ZM140.876 230.81h16.646v5.588c4.424-2.494 8.652-4.246 12.679-5.251 4.032-1.005 7.976-1.508 11.838-1.508 5.062 0 9.746.735 14.057 2.206 4.31 1.47 8.04 3.66 11.192 6.563 3.148 2.906 5.613 6.529 7.394 10.865 1.782 4.339 2.673 9.361 2.673 15.058v32.407h-16.59v-29.726c0-3.611-.517-6.844-1.548-9.691-1.03-2.85-2.513-5.25-4.443-7.208-1.932-1.954-4.272-3.447-7.028-4.471-2.755-1.024-5.839-1.537-9.252-1.537-1.8 0-3.646.187-5.537.558a34.63 34.63 0 0 0-5.568 1.595 31.95 31.95 0 0 0-5.258 2.569 27.857 27.857 0 0 0-4.613 3.491v44.42h-16.646v-65.932l.004.004ZM294.787 263.942c0-4.841.89-9.357 2.672-13.55 1.78-4.189 4.385-7.823 7.818-10.895 3.431-3.071 7.628-5.483 12.595-7.234 4.967-1.752 10.638-2.626 17.009-2.626 2.774 0 5.567.169 8.38.503 2.811.334 5.519.81 8.126 1.425a64.735 64.735 0 0 1 7.338 2.179c2.288.84 4.273 1.759 5.961 2.768l-7.704 12.459c-3.635-1.677-7.079-2.907-10.321-3.687a41.848 41.848 0 0 0-9.87-1.174c-3.824 0-7.255.495-10.29 1.482-3.035.986-5.613 2.366-7.734 4.133-2.119 1.77-3.73 3.855-4.835 6.259-1.106 2.404-1.657 5.018-1.657 7.849 0 2.832.589 5.45 1.769 7.85 1.182 2.404 2.85 4.471 5.006 6.203 2.154 1.733 4.759 3.091 7.818 4.077 3.053.986 6.457 1.481 10.207 1.481 4.12 0 8.013-.577 11.665-1.732 3.655-1.155 7.06-2.701 10.207-4.639l7.706 12.462a57.824 57.824 0 0 1-6.466 3.323 56.73 56.73 0 0 1-7.451 2.655 65.727 65.727 0 0 1-8.325 1.759 61.879 61.879 0 0 1-9.024.641c-6.339 0-12.016-.855-17.04-2.569-5.024-1.714-9.277-4.087-12.765-7.122-3.488-3.034-6.158-6.619-8.015-10.756-1.857-4.133-2.785-8.641-2.785-13.52M390.729 275.393c0 1.081.283 2.116.846 3.102.563.986 1.462 1.864 2.699 2.625 1.237.765 2.82 1.377 4.752 1.845 1.929.465 4.266.698 7.002.698 2.925 0 5.754-.259 8.494-.78 2.737-.521 5.284-1.211 7.646-2.067 2.365-.855 4.502-1.841 6.411-2.962 1.913-1.118 3.506-2.269 4.778-3.466v-2.906a99.495 99.495 0 0 0-7.564-1.789 103.434 103.434 0 0 0-7.141-1.144 97.799 97.799 0 0 0-6.411-.585 94.864 94.864 0 0 0-5.257-.169c-3.11 0-5.699.203-7.761.615-2.061.409-3.729.96-5.006 1.647-1.275.69-2.174 1.5-2.699 2.43-.523.934-.789 1.901-.789 2.906Zm-17.543.559c0-3.165.695-6.053 2.079-8.659 1.385-2.607 3.468-4.85 6.244-6.732 2.774-1.88 6.231-3.335 10.376-4.358 4.141-1.024 8.969-1.538 14.479-1.538 4.088 0 8.389.3 12.906.893 4.518.596 9.178 1.507 13.973 2.737a13.162 13.162 0 0 0-1.912-5.783c-1.088-1.77-2.598-3.297-4.527-4.583-1.932-1.286-4.253-2.28-6.972-2.989-2.716-.705-5.802-1.061-9.25-1.061-1.877 0-3.939.112-6.187.334a82.694 82.694 0 0 0-6.972 1.005 76.81 76.81 0 0 0-7.116 1.676 46.168 46.168 0 0 0-6.552 2.404l-5.063-13.576a97.422 97.422 0 0 1 8.07-2.461c2.87-.742 5.802-1.387 8.8-1.928 3-.54 5.998-.959 8.998-1.256a88.736 88.736 0 0 1 8.716-.446c12.407 0 21.633 3.147 27.668 9.443 6.035 6.297 9.055 15.943 9.055 28.942v28.717h-16.646v-6.203a55.705 55.705 0 0 1-5.65 2.85c-2.042.893-4.266 1.677-6.662 2.348-2.4.671-4.976 1.2-7.734 1.594-2.756.39-5.67.585-8.743.585-5.176 0-9.721-.559-13.637-1.676-3.919-1.118-7.192-2.663-9.816-4.64-2.622-1.972-4.6-4.294-5.934-6.957-1.332-2.662-1.995-5.558-1.995-8.689" fill="#000"/><g opacity=".6"><mask id="c" style="mask-type:luminance" maskUnits="userSpaceOnUse" x="229" y="225" width="63" height="73"><path d="M291.752 225.57h-62.18v71.581h62.18V225.57Z" fill="#fff" opacity=".6"/></mask><g mask="url(#c)"><path d="M287.998 296.738v-14.942h-18.337v-53.218h-.053l.053-.109-.068.112-34.41 10.314.487 15.182 16.843-3.803v31.522h-19.202v14.942h54.687Z" fill="#000"/></g></g></g><path d="M50 230.752v25.42l16.59-15.699v-9.721H50Z" fill="#000"/></g><path d="M66.698 177.753v4.816h-9.95v5.202h7.447v4.676h-7.447v9.984h-5.95v-24.678h15.904-.004ZM109.392 198.069h-9.116l-1.461 4.358h-6.228l8.836-24.674h6.889l8.837 24.678h-6.296l-1.461-4.358v-.004Zm-1.529-4.639-3.027-9.035-2.994 9.035h6.021ZM144.739 183.537c1.046-1.909 2.499-3.398 4.367-4.463 1.869-1.065 3.983-1.601 6.349-1.601 2.9 0 5.38.772 7.448 2.321 2.065 1.545 3.446 3.657 4.141 6.327h-6.542c-.487-1.031-1.177-1.815-2.068-2.355-.895-.54-1.91-.81-3.046-.81-1.835 0-3.318.645-4.454 1.935-1.137 1.29-1.707 3.012-1.707 5.168 0 2.157.57 3.878 1.707 5.168 1.136 1.29 2.619 1.935 4.454 1.935 1.136 0 2.151-.27 3.046-.81.894-.54 1.581-1.324 2.068-2.355h6.542c-.695 2.67-2.076 4.774-4.141 6.308-2.065 1.534-4.548 2.303-7.448 2.303-2.366 0-4.484-.533-6.349-1.598-1.868-1.065-3.321-2.55-4.367-4.448-1.042-1.897-1.566-4.065-1.566-6.503 0-2.438.521-4.609 1.566-6.522ZM200.905 177.753v14.762c0 1.477.359 2.614 1.079 3.409.718.795 1.775 1.196 3.167 1.196 1.393 0 2.458-.397 3.201-1.196.744-.795 1.114-1.935 1.114-3.409v-14.762h5.949v14.728c0 2.202-.464 4.065-1.393 5.588-.929 1.523-2.174 2.671-3.741 3.447-1.566.772-3.31 1.159-5.235 1.159-1.925 0-3.65-.379-5.168-1.144-1.521-.762-2.721-1.909-3.601-3.447-.883-1.534-1.321-3.405-1.321-5.607v-14.724h5.949ZM249.886 197.788h7.794v4.639h-13.743v-24.674h5.949v20.035ZM300.802 179.298c1.925 1.032 3.416 2.479 4.473 4.343 1.057 1.864 1.582 4.013 1.582 6.451 0 2.438-.529 4.557-1.582 6.432-1.057 1.875-2.552 3.327-4.488 4.358-1.936 1.031-4.183 1.545-6.734 1.545h-9.15v-24.674h9.15c2.573 0 4.824.514 6.749 1.545Zm-1.879 16.063c1.253-1.241 1.879-3 1.879-5.273 0-2.272-.626-4.043-1.879-5.307-1.255-1.263-3.006-1.897-5.255-1.897h-2.82v14.341h2.82c2.249 0 4-.619 5.255-1.864ZM349.765 198.069h-9.114l-1.461 4.358h-6.229l8.837-24.674h6.888l8.838 24.678h-6.297l-1.462-4.358v-.004Zm-1.527-4.639-3.029-9.035-2.993 9.035h6.022ZM400.455 179.298c1.925 1.032 3.415 2.479 4.472 4.343 1.057 1.864 1.583 4.013 1.583 6.451 0 2.438-.53 4.557-1.583 6.432-1.057 1.875-2.552 3.327-4.488 4.358-1.936 1.031-4.182 1.545-6.734 1.545h-9.149v-24.674h9.149c2.574 0 4.824.514 6.75 1.545Zm-1.882 16.063c1.255-1.241 1.882-3 1.882-5.273 0-2.272-.627-4.043-1.882-5.307-1.253-1.263-3.004-1.897-5.253-1.897h-2.819v14.341h2.819c2.249 0 4-.619 5.253-1.864ZM440.157 182.569v4.992h7.969v4.639h-7.969v5.412h9.011v4.815h-14.965v-24.674h14.965v4.816h-9.011Z" fill="#000"/></svg>