<svg xmlns="http://www.w3.org/2000/svg" width="500" height="500" fill="none"><path fill="#6E7071" fill-rule="evenodd" d="M231.308 327.657v-7.779h4.307c2.607 0 5.208.613 5.208 3.889 0 3.278-2.601 3.89-5.208 3.89h-4.307Zm13.01-3.89c0-3.038-1.578-6.754-7.775-6.754h-8.526v24.157h3.29v-10.647h3.662l6.162 10.647h4.103l-6.879-11.021c3.663-.411 5.963-3.314 5.963-6.382Zm37.342 17.403h3.288v-24.158h-3.288v24.158Zm-23.651-18.019c0-1.5 1.096-3.685 4.722-3.685 1.88 0 3.495.852 4.31 2.114l2.672-2.422c-1.812-2.215-4.348-2.762-6.982-2.762-5.824 0-8.215 3.922-8.215 6.755 0 9.42 11.943 5.969 11.943 11.537 0 2.66-2.665 4.026-4.822 4.026-1.953 0-3.971-.818-5.133-2.594l-2.709 2.32c1.646 2.289 4.618 3.346 7.738 3.346 4.656 0 8.424-2.801 8.424-7.477 0-8.699-11.948-5.048-11.948-11.158Zm108.988 14.95h-4.146V320.08h4.932c7.872 0 9.481 5.936 9.481 9.009 0 5.973-4.723 9.012-10.267 9.012Zm1.028-21.088h-8.456v24.157h7.906c8.662 0 13.281-5.903 13.281-12.081 0-4.471-2.495-12.076-12.731-12.076Zm-31.269-.001-9.553 24.157h3.597l7.387-19.655h.072l7.124 19.656h3.796l-9.346-24.158h-3.077ZM305.968 338.1h-4.141v-18.02h4.927c7.879 0 9.485 5.936 9.485 9.009 0 5.973-4.719 9.011-10.271 9.011Zm1.029-21.087h-8.451v24.157h7.906c8.658 0 13.283-5.903 13.283-12.081 0-4.471-2.502-12.076-12.739-12.076h.001Zm88.614 21.087v-7.746h11.506v-3.072h-11.506v-7.202h12.366v-3.068h-15.648v24.157h16.256V338.1h-12.974Zm-290.144-6.282c0 3.006-1.503 6.896-6.092 6.896-4.587 0-6.094-3.89-6.094-6.896v-14.806H90v15.321c0 5.6 4.075 9.453 9.375 9.453 5.307 0 9.384-3.853 9.384-9.454v-15.32h-3.292v14.806Zm33.652 5.054h-.067l-13.348-19.86h-4.319v24.157h3.292v-19.857h.064l13.491 19.858h4.175v-24.158h-3.288v19.86Zm16.365 4.298h3.28v-24.158h-3.28v24.158Zm48.061-10.816h11.499v-3.072h-11.499v-7.202h12.357v-3.068h-15.645v24.157h16.262V338.1h-12.974v-7.746Zm-24.03 6.313h-.072l-7.118-19.655h-3.801l9.345 24.157h3.085l9.545-24.157h-3.59l-7.394 19.655Zm111.551 15.641-22.574 54.722h12.912l13.762-35.861h.155l13.524 35.861h13.762l-21.881-54.722h-9.66Zm-25.776 0-13.769 35.864h-.148l-13.531-35.864h-13.768l21.888 54.722h9.66l22.573-54.722H265.29Zm74.501 0h-12.058v54.722h24.272l.004-.004h3.291c6.04 0 10.945-4.866 11.018-10.889v-.235h-26.527v-43.594Zm-192.033 32.467H171.5v-11.129h-23.741v-10.202h25.126v-11.136h-37.19v54.721h24.27l.008-.003h3.288c6.047 0 10.953-4.867 11.017-10.89v-.235h-26.519l-.001-11.126ZM90 407.03h12.057v-21.332h22.811v-11.125h-22.811v-11.129h24.666v-11.135H90v54.721Zm103.871-22.256h23.741v-11.129h-23.741v-10.201h25.134v-11.136h-37.191v54.721h24.27v-.003h3.299c6.039 0 10.942-4.867 11.009-10.89v-.235h-26.521v-11.127Zm189.607 11.127v-11.127h23.74v-11.129h-23.74v-10.201h25.137v-11.136h-37.193v54.721h24.27l.008-.003h3.29c6.039 0 10.942-4.867 11.01-10.89v-.235h-26.522Z" clip-rule="evenodd"/><path fill="url(#a)" d="M262.653 167.37h-.018c-12.161 21.282-19.319 47.21-19.319 75.223 0 18.374 3.33 35.847 9.245 51.708.01.012.015.022.015.022.014-.01.014-.01.014-.022 0-.005 0-.005-.014-.005 11.649-82.945 78.472-117.43 91.238-122.844.034-.013.095-.04.13-.06.173-.067-2.022.329-6.776.723-6.168.513-16.641 1.025-31.833.53-12.251-.395-27.66-1.877-42.682-5.275Z"/><path fill="url(#b)" d="M154.012 133.279c1.301 15.865 7.598 52.226 26.665 84.522 15.003 25.372 36.599 52.854 71.884 76.484-5.915-15.865-9.245-33.338-9.245-51.706 0-28.02 7.158-53.951 19.32-75.228a453.516 453.516 0 0 1-18.027-4.489c-52.452-14.282-92.349-35.465-89.128-47.32.102-.357.244-.693.404-1.01-1.63 2.027-2.683 8.877-1.873 18.747Z"/><path fill="url(#c)" d="M252.575 294.274c.01 0 .02.004.028.012 65.857-47.231 88.824-110.24 91.341-122.909-12.49 5.271-79.671 39.72-91.369 122.897Z"/><path fill="url(#d)" d="M161.619 110.021c-1.432.776-4.184 2.295-5.734 4.511 0 0-.018.012-.018.023 0-.008.008-.011.014-.014-.17.323-.3.656-.401 1.001-3.221 11.855 36.676 33.038 89.129 47.32a453.469 453.469 0 0 0 18.026 4.489c18.297-32.002 47.908-53.426 81.675-55.357-9.38-4.666-43.736-18.981-91.684-19.023l-.311-.001c-26.386 0-64.009 3.305-90.696 17.051Z"/><defs><linearGradient id="a" x1="243.316" x2="243.316" y1="167.37" y2="294.322" gradientUnits="userSpaceOnUse"><stop stop-color="#00842C"/><stop offset=".13" stop-color="#00842C"/><stop offset=".48" stop-color="#52A222"/><stop offset=".74" stop-color="#A3C400"/><stop offset=".99" stop-color="#EADF00"/><stop offset="1" stop-color="#EADF00"/></linearGradient><linearGradient id="b" x1="153.732" x2="153.732" y1="114.531" y2="294.284" gradientUnits="userSpaceOnUse"><stop stop-color="#00842C"/><stop offset=".35" stop-color="#007126"/><stop offset="1" stop-color="#005D1F"/></linearGradient><linearGradient id="c" x1="252.574" x2="343.942" y1="171.377" y2="171.377" gradientUnits="userSpaceOnUse"><stop stop-color="#73B61C"/><stop offset=".45" stop-color="#B6CB00"/><stop offset="1" stop-color="#EADF00"/></linearGradient><linearGradient id="d" x1="155.299" x2="155.299" y1="92.969" y2="167.35" gradientUnits="userSpaceOnUse"><stop stop-color="#F8A600"/><stop offset=".15" stop-color="#FCB900"/><stop offset=".53" stop-color="#FFCB00"/><stop offset="1" stop-color="#FFDC00"/></linearGradient></defs></svg>
