<svg xmlns="http://www.w3.org/2000/svg" width="500" height="500" fill="none"><path fill="#DA1530" fill-rule="evenodd" d="m409.755 61.687-.133 319.892-319.41.039-.057-104.818 319.6-215.113Zm.245-1.71L90.435 167.197 90 60.018l320-.041Z" clip-rule="evenodd"/><path fill="#fff" fill-rule="evenodd" d="M378.235 329.501c.752.952 1.852.69 2.752.95 9.607 2.782 15.896 10.728 15.565 19.75-.423 11.546-6.644 18.855-17.965 21.08-4.894.96-9.852 1.223-14.825 1.227l-50.956.061-.019-84.659c17.675.121 37.923.079 55.598.155 4.996.02 9.908.762 14.542 2.726 7.904 3.351 12.058 9.337 12.137 17.961.082 8.597-3.468 15.061-11.483 18.707-1.721.784-3.536 1.356-5.346 2.042Zm-34.881-25.532c4.243.139 9.746-.434 13.914.735 4.221 1.184 5.894 3.469 5.836 7.705-.048 3.603-2.115 6.095-5.961 7.139-4.183 1.135-9.372.541-13.614.674l-.175-16.253Zm-.067 33.777c3.71.17 8.944-.248 12.648.354 5.194.844 7.954 3.467 8.133 7.868.171 4.146-2.416 7.24-7.283 8.47-3.988 1.006-9.294.695-13.358.745l-.14-17.437Zm-196.206-7.687-.107-42.057c22.832.064 50.503.068 73.336-.005l.058 20.412c-12.17-.078-29.635.01-41.806-.09l-.019 11.837c11.371-.109 28.338.039 39.709-.121l.079 20.449c-11.371-.119-28.489-.002-39.861-.105l.038 11.633c12.17-.081 30.392.05 42.56-.112l-.093 20.392c-23.099-.069-50.885-.073-73.984.004-.521.002.09-37.534.09-42.237Zm150.987-18.565c-8.787-2.913-17.485-4.344-26.429-4.134-2.756.067-5.498.288-8.112 1.249-1.931.71-3.498 1.823-3.571 4.123-.073 2.375 1.558 3.436 3.475 4.159 5.085 1.919 10.475 2.588 15.745 3.746 6.828 1.498 13.261 3.65 18.476 8.697 8.312 8.049 9.226 29.162-6.628 37.843-6.445 3.529-13.372 5.119-20.57 5.711-13.456 1.106-28.692-1.246-41.85-4.061l.079-21.043c5.631 2.163 11.211 3.761 17 4.547 6.173.838 12.354 1.383 18.548.281a17.81 17.81 0 0 0 3.804-1.106c1.741-.74 3.407-1.684 3.408-3.959.002-2.223-1.512-3.265-3.272-4.082-2.918-1.352-6.048-1.96-9.175-2.56-5.49-1.055-10.928-2.313-16.115-4.424-8.837-3.597-13.975-10.024-14.763-19.68-.873-10.724 3.063-18.914 12.8-23.926 8.684-4.467 18.136-5.213 27.671-5.448 9.175-.225 20.515 2.404 29.538 3.967l-.059 20.1Zm-162.316 19.305c0 12.966-.046 28.651.048 41.616l-32.365-.003.026-83.834c9.144.125 23.13.121 32.273.002l.018 42.219Z" clip-rule="evenodd"/><path fill="#DA1431" d="M251.243 418.922c-2.019.274-3.362.34-3.411-2.574-.045-2.7 1.209-2.691 2.698-2.681.3.002.609.004.918-.015 2.024-.131 3.079.045 3.105 2.667.027 2.873-1.291 2.935-3.31 2.603Zm77.522-4.93c2.187-.418 3.07.056 3.161 2.605.093 2.655-1.135 2.66-2.703 2.667-.233 0-.473.001-.718.011-2.047.079-3.122-.073-3.16-2.718-.042-2.987 1.487-2.801 3.351-2.574l.069.009Zm60.154 2.588c-.076-2.607-1.056-2.976-3.095-2.611h-.001l-.252-.023c-1.865-.167-3.328-.299-3.278 2.628.049 2.701 1.195 2.747 3.199 2.701.216-.006.428-.006.634-.006 1.625.001 2.871.002 2.793-2.689Zm-57.126 14.364c0 .714-.008 1.428-.017 2.143-.02 1.674-.039 3.348.049 5.018.082 1.551-.506 1.885-1.973 1.894l-.186.001c-2.062.011-3.108.017-3.64-.498-.548-.531-.548-1.615-.548-3.819 0-1.1.014-2.202.027-3.303v-.011c.031-2.61.063-5.221-.082-7.823-.128-2.302.706-3 2.857-2.668.611.094 1.255.073 1.872.002 1.293-.147 1.709.37 1.665 1.638-.061 1.773-.048 3.549-.035 5.324.005.701.01 1.402.011 2.102Zm50.649-2.145c-.005.707-.01 1.413-.01 2.12h-.001c0 .694.011 1.388.022 2.083.025 1.61.049 3.22-.059 4.819-.122 1.817.583 2.384 2.292 2.155a7.098 7.098 0 0 1 1.876 0c1.696.226 2.332-.334 2.267-2.138-.102-2.762-.081-5.527-.061-8.292.008-1.131.017-2.261.017-3.391v-.007c0-2.235 0-3.346-.561-3.88-.555-.528-1.657-.494-3.848-.425l-.217.006c-1.495.048-1.79.602-1.749 1.902.055 1.681.043 3.365.032 5.048Z"/><path fill="#DA1431" fill-rule="evenodd" d="M302.634 423.111h-.001c-.187.213-.378.421-.574.625-.39-2.473-1.737-2.283-3.053-2.098-.547.077-1.088.153-1.553.037-1.252-.314-1.627.28-1.566 1.586.193 4.135.258 8.281.304 12.422l.001.107c.022 2.023.033 3.033.55 3.529.515.494 1.532.476 3.566.441l.207-.004c1.423-.025 1.851-.436 1.79-1.81a84.508 84.508 0 0 1-.002-6.884c.118-3 1.112-4.021 4.118-4.492.132-.013.266-.009.397.011.337.037.677.073.705-.354.026-.371.08-.764.135-1.162.176-1.285.36-2.622-.376-3.446-.897-1.003-2.639-.075-3.835.71-.28.182-.509.44-.813.782Z" clip-rule="evenodd"/><path fill="#DA1431" d="M254.421 430.95v4.492c0 4.488-.767 5.057-5.369 4.303-1.007-.165-1.081-.641-1.081-1.402l.001-.521v-.011c.01-4.932.021-9.864-.012-14.795-.006-1.009.339-1.304 1.367-1.398l.111-.01c2.479-.226 3.724-.339 4.35.222.632.568.632 1.823.632 4.347v4.773h.001Zm-91.24-2.262c-.003.713-.006 1.425-.006 2.138h.134v4.773c0 2.256 0 3.371.564 3.912.551.529 1.64.509 3.794.469l.201-.003c1.429-.025 1.836-.445 1.782-1.812a91.112 91.112 0 0 1 .008-7.148c.103-2.805 1.237-3.917 4.051-4.235.126-.014.282.016.439.045.334.064.668.128.707-.244.034-.315.082-.641.131-.971.206-1.389.422-2.848-.395-3.885-.658-.834-2.342-.047-3.439.559-.301.167-.547.427-.795.688-.123.13-.247.26-.378.379-.233.211-.701.631-.772.174-.35-2.247-1.594-1.968-2.834-1.689-.64.144-1.279.288-1.794.084-1.135-.448-1.45.422-1.423 1.495.042 1.756.034 3.514.025 5.271Zm211.347-4.794c.163-.168.307-.326.442-.473.271-.296.503-.549.767-.764 1.154-.934 2.825-1.75 3.862-.884.934.78.726 2.084.525 3.34-.065.402-.128.8-.153 1.173-.035.535-.521.517-.97.5a3.58 3.58 0 0 0-.359-.002c-2.613.175-3.805 1.63-3.833 4.142-.007.697-.019 1.394-.032 2.091-.029 1.687-.059 3.373-.02 5.058.029 1.285-.237 1.858-1.74 1.904l-.226.007c-2.165.068-3.255.102-3.806-.42-.56-.531-.561-1.638-.564-3.869v-.024c-.002-.989 0-1.978.002-2.967.005-2.987.011-5.974-.077-8.957-.045-1.505.417-2.163 1.916-1.868.429.084.92.03 1.413-.024 1.289-.141 2.592-.284 2.853 2.037Zm-149.972 3.086c.019 1.639.038 3.279-.035 4.915-.231 5.119-3.442 7.967-8.958 8.071-5.323.102-8.975-2.646-9.25-7.504-.185-3.275-.161-6.56-.136-9.847.014-1.845.028-3.69.004-5.534-.016-1.226.553-1.397 1.614-1.463l.093-.006c2.381-.147 3.579-.22 4.183.337.613.565.613 1.78.613 4.227v.007l.001 3.314v.078c.001 2.672.002 5.344-.004 8.015-.004 1.885.548 3.443 2.751 3.452 2.089.006 2.639-1.544 2.662-3.282l.03-2.131c.056-3.887.112-7.775.027-11.659-.042-1.867.543-2.408 2.409-2.373l.272.005c3.8.07 3.802.07 3.802 4.093v5.04h-.096c0 .745.009 1.49.018 2.236v.009Zm19.519-2.832c-1.75-3.552-6.011-3.835-9.78-.557-.342-2.367-1.727-2.184-3.118-2-.578.077-1.158.154-1.663.047-.989-.21-1.392.266-1.377 1.329.071 5.04.109 10.082.065 15.123-.013 1.311.464 1.728 1.706 1.606.71-.07 1.442-.098 2.144.005 1.937.277 2.724-.327 2.575-2.417-.143-1.997-.105-4.007-.067-6.016v-.005c.014-.734.028-1.468.033-2.202.011-1.432.797-2.526 2.172-2.547 1.482-.02 1.669 1.324 1.671 2.541v6.375c0 2.233 0 3.342.56 3.876.553.527 1.653.493 3.839.426l.223-.007c1.487-.046 1.779-.593 1.752-1.895a206.86 206.86 0 0 1-.026-5.044c.005-1.591.011-3.182-.02-4.773-.023-1.308-.088-2.647-.689-3.865Zm-136.239 11.117c.174 2.176.259 3.232-.234 3.783-.465.521-1.442.593-3.342.734-.565.042-1.213.09-1.951.157-5.078.465-9.31-2.194-11.11-6.286-2.189-4.975-1.29-11.993 1.952-15.264 2.93-2.956 9.447-4.237 13.574-2.557 1.744.71 1.402 1.954 1.074 3.146-.117.424-.231.841-.25 1.225-.071 1.496-.812 1.079-1.476.704-.216-.121-.424-.239-.598-.284-3.441-.905-5.897-.285-7.427 1.972-1.904 2.813-1.82 7.089.193 9.771 1.656 2.209 4.29 2.907 7.472 1.968.391-.115.777-.243 1.241-.396l.761-.25c.041.582.083 1.106.121 1.577Z"/><path fill="#DA1431" fill-rule="evenodd" d="M185.349 421.22c-5.703-.047-9.109 3.498-9.078 9.446.029 5.867 3.276 9.234 8.945 9.279 5.763.048 9.107-3.419 9.082-9.414-.023-5.825-3.329-9.265-8.949-9.311Zm2.414 11.586c.058-.642.114-1.279.353-1.774a94.69 94.69 0 0 1-.147-1.069c-.099-.751-.194-1.464-.339-2.166-.227-1.105-.836-2.007-2.074-2.039-1.249-.031-1.91.856-2.141 1.956-.037.174-.077.35-.117.527-.215.955-.44 1.949-.256 2.84.083.402.109.865.136 1.337.089 1.55.184 3.209 2.294 3.214 2.04.003 2.166-1.422 2.291-2.826ZM410 430.562c.027 5.996-3.05 9.286-8.763 9.369-5.805.085-9.132-3.301-9.132-9.292 0-5.887 3.209-9.319 8.806-9.419 5.739-.101 9.064 3.316 9.089 9.342Zm-6.74.994v.001c-.062.716-.125 1.453-.292 2.167-.232.984-.862 1.818-1.995 1.827-1.086.006-1.753-.677-2.061-1.707-.649-2.159-.676-4.303-.046-6.485.306-1.059.946-1.846 1.957-1.881 1.18-.043 1.944.864 2.183 1.975.152.703.203 1.426.256 2.176.024.339.048.683.082 1.033-.032.289-.058.586-.083.885l-.001.004v.005Z" clip-rule="evenodd"/><path fill="#DA1431" d="M145.615 424.098c-1.905-3.6-6.155-3.797-10.013-.262-.147-.31-.143-.669-.14-1.004.006-.569.011-1.07-.72-1.152-1.232-.139-2.489-.083-3.74-.028l-.812.033c-.565.021-.664.503-.616.972.348 3.372.297 6.748.245 10.125-.028 1.836-.056 3.671-.02 5.506.032 1.64.92 1.524 1.789 1.41.329-.043.656-.086.933-.033 2.662.508 3.835-.392 3.518-3.29-.263-2.403-.107-4.868.047-7.297l.007-.123c.084-1.304.882-2.528 2.328-2.441 1.459.087 1.582 1.468 1.591 2.651.005.667.015 1.335.026 2.002v.006c.032 2.076.064 4.152-.06 6.217-.113 1.885.512 2.586 2.38 2.306a7.098 7.098 0 0 1 1.876 0c1.491.185 2.034-.34 1.989-1.889-.069-2.186-.064-4.373-.059-6.561v-.001c.003-1.44.006-2.88-.011-4.32-.011-.955-.049-1.903-.538-2.827Z"/><path fill="#DA1431" fill-rule="evenodd" d="M359.622 437.455c-.435.283-.858.585-1.267.905-.937.711-1.765 1.34-2.941 1.463-3.067.322-5.598-1.032-6.286-3.57-.928-3.432.333-6.096 3.48-7.281 1.773-.669 3.632-.828 5.515-.859.1-.002.211.008.326.018.433.04.911.083.978-.488.054-.454-.204-1.088-.544-1.415-1.319-1.274-2.802-.994-4.319-.707-.317.06-.636.121-.955.167-.249.036-.537.216-.831.4-.685.428-1.401.877-1.724-.437-.029-.117-.061-.24-.095-.368-.354-1.322-.825-3.083 1.678-3.479l.519-.083h.001c2.291-.367 4.552-.728 6.904-.253 3.488.707 5.003 2.154 5.156 5.69.094 2.127.094 4.258.093 6.39 0 1.585-.001 3.171.038 4.755.024 1.053-.324 1.584-1.336 1.354-.444-.1-.964-.037-1.487.026-1.338.162-2.701.329-2.903-2.228Zm-2.095-6.377c.655-.184 1.211-.101 1.243.948.063 1.998-1.421 3.981-3.092 4-1.435.016-2.179-.773-2.101-2.135.135-2.358 1.942-2.625 3.95-2.813Zm-70.511 1.197c.397.003.812.006 1.253.006.545-.145 1.25-.048 1.96.05 1.217.168 2.449.338 2.919-.708.938-2.082.117-4.683-1.217-6.798-1.931-3.067-5.873-4.352-9.67-3.175-3.524 1.095-5.905 5.148-5.631 9.587.284 4.604 2.78 7.801 6.713 8.42 2.475.39 4.952.245 7.429-.241 2.223-.438 1.85-1.953 1.55-3.17-.052-.212-.102-.415-.136-.602-.219-1.215-.964-.798-1.63-.425-.24.134-.47.262-.661.307-2.233.515-4.395.982-6.284-.795-.59-.555-1.125-1.304-.791-2.103.203-.487.701-.427 1.18-.368.177.021.351.042.507.036a47.694 47.694 0 0 1 2.509-.021Zm-3.219-3.231c.457-.036.943-.075 1.319.174.215-.408.678-.327 1.141-.247.662.116 1.322.231 1.252-1.085-.076-1.408-.538-2.872-2.48-2.789-1.739.077-2.56 1.256-2.623 2.757-.054 1.306.628 1.251 1.391 1.19Zm-162.265 3.235c-.334 0-.667-.004-1-.008-.74-.009-1.479-.018-2.216.027a3.354 3.354 0 0 1-.617-.045c-.54-.07-1.093-.142-1.314.404-.354.882.257 1.748.951 2.302 1.949 1.559 4.081 1.037 6.237.509l.129-.032c.158-.039.353-.147.56-.261.62-.342 1.335-.738 1.405.531.015.289.124.621.237.966.34 1.036.718 2.188-1.285 2.644-2.832.648-5.667.872-8.46.187-4.857-1.191-7.317-7.062-5.43-12.609 1.587-4.656 6.641-6.909 11.277-5.026 3.305 1.345 5.654 6.029 4.852 9.483-.195.841-.642.93-1.307.926-1.072-.004-2.142-.001-3.212.001h-.003l-.804.001Zm-3.054-3.047c-.302-.249-.751-.183-1.19-.119-.72.106-1.416.207-1.396-1.083.023-1.636.974-2.886 2.85-2.836 1.715.046 2.237 1.362 2.29 2.744.052 1.356-.648 1.267-1.38 1.174-.428-.054-.867-.11-1.174.12Z" clip-rule="evenodd"/><path fill="#DA1431" d="m273.923 426.244.16-.49 1.351-4.139c-.459 0-.885.018-1.287.034-.818.034-1.535.064-2.222-.067-2.343-.447-3.021.749-3.415 2.738-.401 2.013-.918 4.004-1.483 6.18v.001l-.001.001v.002c-.255.982-.52 2.002-.789 3.079-.108-.334-.189-.578-.251-.766v-.002l-.003-.008-.001-.002c-.103-.312-.154-.466-.194-.624-.218-.839-.433-1.68-.648-2.52l-.001-.004c-.33-1.292-.66-2.583-1.003-3.872-1.182-4.431-1.202-4.431-5.791-4.214l-.197.009c-1.48.07-1.589.527-1.184 1.754.877 2.655 1.706 5.324 2.536 7.994.346 1.115.693 2.23 1.043 3.345 1.689 5.374 1.954 5.525 7.753 5.034.797-.069 1.318-.202 1.582-1.026 1.327-4.114 2.669-8.223 4.045-12.437Zm63.376 5.055c0-.352-.007-.705-.014-1.058-.016-.799-.031-1.599.033-2.392.113-1.395-.202-2.199-1.854-1.999-1.513.181-1.433-.723-1.358-1.56.019-.207.037-.411.03-.593-.005-.13-.016-.269-.027-.41-.074-.899-.155-1.895 1.44-1.662 1.771.258 1.869-.786 1.754-2.067-.082-.92-.052-1.835 1.108-2.08.55-.117 1.098-.343 1.642-.568 1.071-.443 2.131-.881 3.175-.468.692.275.582 1.21.475 2.125-.045.376-.088.748-.076 1.07l.009.29c.026 1.009.05 1.937 1.588 1.68 1.796-.299 1.815.709 1.836 1.833v.001c.002.139.005.28.011.42.059 1.35-.122 2.288-1.824 2.009-1.354-.222-1.666.488-1.616 1.686.048 1.132.04 2.267.031 3.402-.004.636-.009 1.272-.004 1.908.011 1.47.387 2.642 2.229 2.635 1.466-.008 1.337.786 1.211 1.563-.058.354-.115.705-.021.976.313.896-.002 1.546-1.268 1.748-6.334 1.01-8.51-1.111-8.51-8.489Z"/><path fill="#DA1431" fill-rule="evenodd" d="M151.314 433.773c.106 4.504 2.015 6.25 7.061 6.045-.084.011.065.033.186-.014.284-.112.648-.082 1.012-.052.79.065 1.58.13 1.547-1.266-.006-.26.016-.536.039-.813.099-1.207.199-2.425-2.063-2.338-1.287.05-1.438-1.381-1.542-2.365l-.008-.079c-.091-.859-.079-1.729-.067-2.599.011-.722.021-1.445-.028-2.163-.109-1.59.206-2.597 2.13-2.271 1.66.28 1.589-.813 1.523-1.838l-.01-.145c-.012-.201.001-.421.014-.644.053-.91.107-1.85-1.521-1.601-1.92.292-2.223-.675-2.153-2.273.01-.236.044-.486.079-.739.112-.82.23-1.68-.453-2.266-.95-.815-5.797 1.626-5.713 2.88.118 1.763-.31 2.558-2.3 2.451-1.14-.061-1.005.777-.889 1.491.032.198.063.386.064.544.001.164-.029.364-.061.575-.109.729-.238 1.585.84 1.487 2.426-.221 2.378 1.086 2.324 2.553-.005.135-.01.27-.013.407-.039 1.677-.039 3.356.002 5.033Zm7.061 6.045.041-.002.051-.002.032-.001c-.062 0-.101.002-.124.005Z" clip-rule="evenodd"/><path fill="#DA1431" d="M321.858 426.438a38.339 38.339 0 0 1-1.497-.399c-1.225-.345-2.275-.641-3.383-.54-.707.064-1.496.309-1.608 1.156-.096.727.529 1.053 1.128 1.293l.284.115c.894.361 1.789.722 2.694 1.055 2.659.975 3.669 2.895 3.358 5.613-.284 2.495-1.999 4.496-4.508 4.897-1.383.222-2.792.372-4.242.228l-.154-.015c-4.428-.443-4.429-.443-3.92-5.306l.221.078c1.671.581 3.33 1.158 5.126.838.67-.118 1.268-.287 1.422-.953.175-.767-.474-1.037-1.05-1.277l-.029-.012c-.5-.208-1.003-.412-1.506-.615l-.001-.001c-.485-.196-.97-.392-1.453-.592-2.447-1.018-3.62-2.844-3.278-5.451.342-2.61 1.809-4.293 4.462-4.989 2.246-.588 4.504-.455 6.622.156 1.689.489 1.517 1.575 1.329 2.759-.104.652-.212 1.333-.017 1.962Zm38.38-10.169c.373-.678.753-1.37 1.291-1.928-5.039-.737-5.545-.42-6.447 3.226-.279 1.123-.006 1.347 1.062 1.447 2.458.229 3.259-1.226 4.094-2.745Z"/></svg>
