<svg xmlns="http://www.w3.org/2000/svg" width="500" height="500" fill="none"><path fill="#000" d="M126.077 450h-3.984v-34.266h19.078v3.516h-15.094v12.562h14.18v3.493h-14.18V450Zm24.141 0h-3.914v-36.469h3.914V450Zm29.437-25.688V450h-3.187l-.563-3.609h-.211a7.464 7.464 0 0 1-2.062 2.25 8.976 8.976 0 0 1-2.86 1.359 11.693 11.693 0 0 1-3.351.469c-2.031 0-3.734-.328-5.109-.985-1.375-.656-2.415-1.672-3.118-3.046-.687-1.376-1.031-3.141-1.031-5.297v-16.829h3.938v16.547c0 2.141.484 3.743 1.453 4.805.968 1.047 2.445 1.57 4.429 1.57 1.907 0 3.422-.359 4.547-1.078 1.141-.718 1.961-1.773 2.461-3.164.5-1.406.75-3.125.75-5.156v-13.524h3.914Zm36.117-.468c2.829 0 4.961.742 6.399 2.226 1.437 1.469 2.156 3.836 2.156 7.102V450h-3.844v-16.641c0-2.078-.453-3.632-1.359-4.664-.891-1.047-2.219-1.57-3.984-1.57-2.485 0-4.289.719-5.414 2.156-1.125 1.438-1.688 3.555-1.688 6.352V450h-3.867v-16.641c0-1.39-.203-2.547-.609-3.468-.391-.922-.985-1.61-1.782-2.063-.781-.469-1.773-.703-2.976-.703-1.703 0-3.071.352-4.102 1.055-1.031.703-1.781 1.75-2.25 3.14-.453 1.375-.68 3.071-.68 5.086V450h-3.89v-25.688h3.14l.586 3.633h.211a7.735 7.735 0 0 1 1.946-2.25 8.454 8.454 0 0 1 2.625-1.383c.968-.312 2-.468 3.093-.468 1.954 0 3.586.367 4.899 1.101 1.328.719 2.289 1.821 2.883 3.305h.211c.843-1.484 2-2.586 3.468-3.305 1.469-.734 3.078-1.101 4.828-1.101Zm20.438.468V450h-3.891v-25.688h3.891Zm-1.898-9.609c.64 0 1.187.211 1.64.633.469.406.703 1.047.703 1.922 0 .859-.234 1.5-.703 1.922-.453.422-1 .632-1.64.632-.672 0-1.235-.21-1.688-.632-.437-.422-.656-1.063-.656-1.922 0-.875.219-1.516.656-1.922.453-.422 1.016-.633 1.688-.633Zm22.312 9.141c3.047 0 5.352.75 6.914 2.25 1.563 1.484 2.344 3.875 2.344 7.172V450h-3.844v-16.477c0-2.14-.492-3.742-1.476-4.804-.969-1.063-2.461-1.594-4.477-1.594-2.844 0-4.844.805-6 2.414-1.156 1.609-1.734 3.945-1.734 7.008V450h-3.891v-25.688h3.141l.586 3.704h.21a7.654 7.654 0 0 1 2.086-2.274 9.068 9.068 0 0 1 2.836-1.406 11.015 11.015 0 0 1 3.305-.492Zm27.164 0c2.188 0 4.063.484 5.625 1.453 1.563.969 2.758 2.328 3.586 4.078.828 1.734 1.242 3.766 1.242 6.094v2.414h-17.742c.047 3.015.797 5.312 2.25 6.89 1.453 1.579 3.5 2.368 6.141 2.368 1.625 0 3.062-.149 4.312-.446a23.742 23.742 0 0 0 3.891-1.312v3.422c-1.24.56-2.536.984-3.867 1.265-1.266.266-2.766.399-4.5.399-2.469 0-4.625-.5-6.469-1.5-1.828-1.016-3.25-2.5-4.266-4.453-1.015-1.954-1.523-4.344-1.523-7.172 0-2.766.461-5.156 1.383-7.172.937-2.031 2.25-3.594 3.937-4.688 1.703-1.093 3.703-1.64 6-1.64Zm-.047 3.187c-2.078 0-3.734.68-4.969 2.039-1.234 1.36-1.968 3.258-2.203 5.696h13.594c-.016-1.532-.258-2.875-.726-4.032-.454-1.172-1.149-2.078-2.086-2.718-.938-.657-2.141-.985-3.61-.985Zm29.274-3.187c3.047 0 5.351.75 6.914 2.25 1.562 1.484 2.343 3.875 2.343 7.172V450h-3.843v-16.477c0-2.14-.492-3.742-1.477-4.804-.969-1.063-2.461-1.594-4.476-1.594-2.844 0-4.844.805-6 2.414-1.157 1.609-1.735 3.945-1.735 7.008V450h-3.89v-25.688h3.14l.586 3.704h.211a7.629 7.629 0 0 1 2.086-2.274 9.068 9.068 0 0 1 2.836-1.406 10.983 10.983 0 0 1 3.305-.492Zm33.89 19.125c0 1.64-.414 3.023-1.242 4.148-.812 1.11-1.984 1.945-3.516 2.508-1.515.563-3.328.844-5.437.844-1.797 0-3.352-.141-4.664-.422-1.313-.281-2.461-.68-3.445-1.195v-3.586c1.046.515 2.296.984 3.75 1.406 1.453.422 2.937.633 4.453.633 2.218 0 3.828-.36 4.828-1.078 1-.719 1.5-1.696 1.5-2.93 0-.703-.203-1.32-.61-1.852-.39-.547-1.054-1.07-1.992-1.57-.937-.516-2.234-1.078-3.89-1.687-1.641-.626-3.063-1.243-4.266-1.852-1.187-.625-2.109-1.383-2.766-2.274-.64-.89-.961-2.046-.961-3.468 0-2.172.875-3.836 2.625-4.992 1.766-1.172 4.079-1.758 6.938-1.758 1.547 0 2.992.156 4.336.468 1.359.297 2.625.704 3.797 1.219l-1.313 3.117a23.992 23.992 0 0 0-3.398-1.148 14.603 14.603 0 0 0-3.68-.469c-1.797 0-3.18.297-4.148.891-.953.594-1.43 1.406-1.43 2.437 0 .797.219 1.453.656 1.969.453.516 1.172 1 2.157 1.453.984.453 2.281.985 3.89 1.594 1.61.594 3 1.211 4.172 1.852 1.172.625 2.07 1.39 2.695 2.296.641.891.961 2.039.961 3.446Zm16.149-19.125c2.187 0 4.062.484 5.625 1.453 1.562.969 2.758 2.328 3.586 4.078.828 1.734 1.242 3.766 1.242 6.094v2.414h-17.742c.047 3.015.797 5.312 2.25 6.89 1.453 1.579 3.5 2.368 6.14 2.368 1.625 0 3.063-.149 4.313-.446a23.731 23.731 0 0 0 3.89-1.312v3.422c-1.296.578-2.586 1-3.867 1.265-1.265.266-2.765.399-4.5.399-2.469 0-4.625-.5-6.469-1.5-1.828-1.016-3.25-2.5-4.265-4.453-1.016-1.954-1.524-4.344-1.524-7.172 0-2.766.461-5.156 1.383-7.172.938-2.031 2.25-3.594 3.938-4.688 1.703-1.093 3.703-1.64 6-1.64Zm-.047 3.187c-2.078 0-3.735.68-4.969 2.039-1.234 1.36-1.969 3.258-2.203 5.696h13.594c-.016-1.532-.258-2.875-.727-4.032-.453-1.172-1.148-2.078-2.086-2.718-.937-.657-2.14-.985-3.609-.985Z"/><path fill="#369837" d="M273.19 93.51c0 2.46-1.99 4.44-4.44 4.44h-36.78c-2.45 0-4.44-1.98-4.44-4.44V56.73c0-2.45 1.98-4.45 4.44-4.45h36.78c2.45 0 4.44 2 4.44 4.45v36.78Zm54.79 0c0 2.46-1.99 4.44-4.44 4.44h-36.78c-2.46 0-4.45-1.98-4.45-4.44V56.73c0-2.45 1.99-4.45 4.45-4.45h36.78c2.45 0 4.44 2 4.44 4.45v36.78Zm0 109.59c0 2.45-1.99 4.45-4.44 4.45h-36.78c-2.46 0-4.45-1.99-4.45-4.45v-36.77c0-2.46 1.99-4.45 4.45-4.45h36.78c2.45 0 4.44 1.99 4.44 4.45v36.77Zm-109.6-54.83c0 2.46-1.99 4.45-4.44 4.45h-36.78c-2.46 0-4.44-1.98-4.44-4.45v-36.78c0-2.45 1.98-4.44 4.44-4.44h36.78c2.45 0 4.44 1.99 4.44 4.44v36.78Zm54.81 0c0 2.46-1.99 4.45-4.44 4.45h-36.78c-2.45 0-4.44-1.98-4.44-4.45v-36.78c0-2.45 1.98-4.44 4.44-4.44h36.78c2.45 0 4.44 1.99 4.44 4.44v36.78Zm-54.81 54.83c0 2.45-1.99 4.45-4.44 4.45h-36.78c-2.46 0-4.44-1.99-4.44-4.45v-36.77c0-2.46 1.98-4.45 4.44-4.45h36.78c2.45 0 4.44 1.99 4.44 4.45v36.77Zm54.81 0c0 2.45-1.99 4.45-4.44 4.45h-36.78c-2.45 0-4.44-1.99-4.44-4.45v-36.77c0-2.46 1.98-4.45 4.44-4.45h36.78c2.45 0 4.44 1.99 4.44 4.45v36.77Zm-54.81 54.85c0 2.46-1.99 4.45-4.44 4.45h-36.78c-2.46 0-4.44-1.99-4.44-4.45v-36.77c0-2.45 1.98-4.45 4.44-4.45h36.78c2.45 0 4.44 1.99 4.44 4.45v36.77Zm54.81 0c0 2.46-1.99 4.45-4.44 4.45h-36.78c-2.45 0-4.44-1.99-4.44-4.45v-36.77c0-2.45 1.98-4.45 4.44-4.45h36.78c2.45 0 4.44 1.99 4.44 4.45v36.77Z"/><path fill="#C91517" d="M220.67 75.12c0 13.87-11.24 25.12-25.12 25.12-13.87 0-25.11-11.25-25.11-25.12.01-13.87 11.25-25.12 25.12-25.12 13.87 0 25.11 11.25 25.11 25.12Z"/><path fill="#281D16" d="M84.95 294.35h9.65v45.43h-9.65v-45.43Zm61.54 0h-8.69v21.5c0 2.45.15 6.62.47 12.52h-.22l-19.77-34.03h-12.17v45.43h8.62V318.4c0-2.59-.2-6.92-.59-12.99h.28l19.8 34.37h12.27v-45.43Zm36.08 25.31c-1.58-2.04-4.49-4.07-8.74-6.11-3.22-1.53-5.26-2.6-6.12-3.19-.86-.59-1.49-1.2-1.89-1.83-.39-.63-.59-1.37-.59-2.22 0-1.37.49-2.48 1.46-3.33.98-.85 2.37-1.27 4.2-1.27 1.54 0 3.1.2 4.69.59 1.59.39 3.6 1.09 6.02 2.08l3.11-7.49c-2.35-1.01-4.59-1.8-6.74-2.36-2.15-.56-4.4-.84-6.77-.84-4.82 0-8.59 1.15-11.31 3.45-2.73 2.3-4.1 5.46-4.1 9.48 0 2.14.41 4 1.25 5.59.83 1.6 1.94 3 3.33 4.2 1.39 1.2 3.48 2.45 6.26 3.76 2.97 1.41 4.94 2.44 5.9 3.08.97.64 1.7 1.31 2.2 2 .49.7.74 1.49.74 2.38 0 1.6-.57 2.8-1.7 3.61-1.12.81-2.75 1.21-4.87 1.21-1.76 0-3.71-.28-5.84-.84-2.12-.56-4.73-1.53-7.8-2.89v8.95c3.74 1.82 8.03 2.74 12.89 2.74 5.28 0 9.39-1.18 12.34-3.54 2.95-2.36 4.44-5.59 4.44-9.7.01-2.97-.79-5.47-2.36-7.51Zm86.34-17.3h12.36v-8.02H246.9v8.02h12.36v37.41h9.65v-37.41Zm-29.02-8.01h-9.65v45.43h9.65v-45.43Zm-29.01 8.01h12.36v-8.02h-34.37v8.02h12.36v37.41h9.65v-37.41Zm104.99-8.01v27.75c0 3.52-.71 6.1-2.13 7.75-1.42 1.65-3.71 2.47-6.86 2.47-3.26 0-5.59-.82-7-2.45-1.41-1.64-2.12-4.21-2.12-7.71v-27.81h-9.62v29.27c0 5.2 1.62 9.29 4.86 12.29s7.78 4.49 13.63 4.49c3.88 0 7.24-.67 10.09-2.02 2.84-1.35 5.02-3.29 6.52-5.81 1.51-2.53 2.26-5.47 2.26-8.83v-29.4h-9.63v.01Zm38.46 8.01h12.36v-8.01h-34.37v8.01h12.35v37.42h9.66v-37.42Zm30.43 3.16c1.95-2.58 4.84-3.87 8.68-3.87 7.66 0 11.48 5.12 11.48 15.35 0 10.21-3.85 15.32-11.54 15.32-3.84 0-6.73-1.28-8.66-3.85-1.93-2.57-2.89-6.39-2.89-11.47.01-5.07.98-8.9 2.93-11.48Zm24.74-5.86c-3.71-4.02-9.06-6.03-16.05-6.03s-12.36 2-16.11 5.98c-3.75 3.99-5.62 9.76-5.62 17.32 0 7.57 1.87 13.36 5.61 17.4 3.74 4.04 9.09 6.06 16.07 6.06 6.97 0 12.33-2.02 16.06-6.06 3.74-4.04 5.61-9.82 5.61-17.34-.02-7.53-1.87-13.31-5.57-17.33Zm-283.38 76.76h15.44v-7.86h-15.44v-11.71h16.59v-7.9h-26.08v45.43h9.49v-17.96Zm159.03.53 10.87 17.43h10.71c-2.07-2.98-6.54-9.58-13.39-19.8 2.69-1.18 4.79-2.81 6.25-4.9 1.48-2.08 2.21-4.46 2.21-7.13 0-4.58-1.48-7.99-4.45-10.24s-7.55-3.37-13.73-3.37h-13.26v45.44h9.65v-17.43h5.14Zm-5.14-20.11h2.92c3.11 0 5.42.46 6.89 1.37 1.48.91 2.23 2.44 2.23 4.6 0 2.18-.73 3.77-2.18 4.79-1.45 1.01-3.7 1.52-6.75 1.52h-3.11v-12.28Zm-19.14 29.59H244.3v-11.71h15.41v-7.89H244.3v-9.98h16.57v-7.89h-26.22v45.44h26.22v-7.97Zm-59.62 0h-4.14v-29.58h5.14c8.63 0 12.95 4.88 12.95 14.64 0 9.96-4.65 14.94-13.95 14.94Zm17.81-31.6c-4.11-3.92-9.88-5.88-17.31-5.88h-14.29v45.44h12.89c8.05 0 14.21-1.99 18.48-5.97 4.26-3.98 6.39-9.7 6.39-17.18 0-7.03-2.05-12.5-6.16-16.41Zm-41.09 31.6H161.4v-11.71h15.41v-7.89H161.4v-9.98h16.57v-7.89h-26.21v45.44h26.21v-7.97Zm145.1-10.94c3.23-10.46 5.2-17.02 5.88-19.67.16.75.44 1.77.82 3.05.38 1.29 2.1 6.83 5.15 16.63h-11.85v-.01Zm27.86 18.9-16.13-45.62H323l-16.06 45.62h10.4l3.3-10.81h16.6l3.3 10.81h10.39Zm33.97 0v-7.96h-18.46v-37.48h-9.65v45.44h28.11Z"/></svg>
