<svg xmlns="http://www.w3.org/2000/svg" width="500" height="500" fill="none"><path fill="#000" d="M82.865 414.018c2.461 0 4.491.307 6.091.922 1.613.602 2.816 1.525 3.61 2.769.792 1.244 1.19 2.83 1.19 4.758 0 1.586-.288 2.912-.862 3.978-.575 1.053-1.327 1.908-2.256 2.564a11.527 11.527 0 0 1-2.974 1.517L95.888 444h-4.06l-7.343-12.51h-6.234V444h-3.486v-29.982h8.1Zm-.205 3.014h-4.409v11.505h4.758c2.447 0 4.245-.499 5.393-1.497 1.162-.998 1.743-2.468 1.743-4.409 0-2.037-.615-3.48-1.845-4.327-1.217-.848-3.097-1.272-5.64-1.272Zm20.918 4.491V444h-3.404v-22.477h3.404Zm-1.661-8.408c.561 0 1.039.185 1.436.554.41.355.615.916.615 1.682 0 .752-.205 1.312-.615 1.681a2.03 2.03 0 0 1-1.436.554c-.588 0-1.08-.185-1.477-.554-.382-.369-.574-.929-.574-1.681 0-.766.192-1.327.574-1.682.397-.369.889-.554 1.477-.554Zm28.26 19.606c0 1.845-.239 3.493-.718 4.942-.479 1.449-1.169 2.673-2.071 3.671a9.015 9.015 0 0 1-3.282 2.297c-1.271.519-2.713.779-4.327.779-1.504 0-2.884-.26-4.142-.779a9.354 9.354 0 0 1-3.241-2.297c-.902-.998-1.606-2.222-2.112-3.671-.492-1.449-.738-3.097-.738-4.942 0-2.461.417-4.553 1.251-6.276.834-1.736 2.023-3.055 3.568-3.958 1.559-.916 3.411-1.374 5.558-1.374 2.051 0 3.842.458 5.373 1.374 1.545.916 2.741 2.242 3.589 3.979.861 1.722 1.292 3.807 1.292 6.255Zm-17.104 0c0 1.804.239 3.37.718 4.696.479 1.326 1.217 2.352 2.215 3.076.998.725 2.283 1.087 3.855 1.087 1.559 0 2.837-.362 3.835-1.087 1.012-.724 1.757-1.75 2.236-3.076.478-1.326.717-2.892.717-4.696 0-1.791-.239-3.336-.717-4.635-.479-1.313-1.217-2.324-2.215-3.035-.998-.711-2.29-1.067-3.876-1.067-2.338 0-4.054.773-5.148 2.318-1.08 1.545-1.62 3.684-1.62 6.419Zm47.23-4.43h10.479v14.54a29.017 29.017 0 0 1-4.86 1.19c-1.654.259-3.507.389-5.558.389-3.117 0-5.749-.622-7.895-1.866-2.133-1.244-3.753-3.015-4.861-5.312-1.107-2.31-1.661-5.051-1.661-8.223 0-3.104.609-5.811 1.825-8.121 1.231-2.311 3.001-4.102 5.312-5.373 2.324-1.286 5.113-1.928 8.367-1.928 1.668 0 3.247.157 4.737.472 1.504.3 2.899.731 4.184 1.292l-1.333 3.035a24.463 24.463 0 0 0-3.671-1.231 16.467 16.467 0 0 0-4.122-.512c-2.447 0-4.546.505-6.296 1.517-1.736 1.012-3.069 2.441-3.999 4.286-.916 1.846-1.374 4.033-1.374 6.563 0 2.502.403 4.682 1.21 6.542.807 1.845 2.065 3.281 3.774 4.306 1.709 1.026 3.91 1.539 6.603 1.539 1.354 0 2.516-.076 3.486-.226a26.868 26.868 0 0 0 2.646-.574v-9.188h-6.993v-3.117Zm27.439-7.178c.451 0 .923.028 1.415.082.492.041.93.103 1.313.185l-.431 3.158a10.821 10.821 0 0 0-2.502-.308c-.902 0-1.757.185-2.563.554a6.073 6.073 0 0 0-2.092 1.559c-.602.67-1.073 1.483-1.415 2.44-.342.944-.513 1.996-.513 3.158V444h-3.425v-22.477h2.83l.37 4.143h.143a10.996 10.996 0 0 1 1.682-2.276 7.55 7.55 0 0 1 2.276-1.661c.875-.411 1.846-.616 2.912-.616Zm15.381.041c2.68 0 4.669.602 5.968 1.805 1.299 1.203 1.948 3.124 1.948 5.763V444h-2.481l-.657-3.322h-.164c-.629.82-1.285 1.51-1.968 2.071A7.327 7.327 0 0 1 203.39 444c-.889.273-1.983.41-3.282.41-1.367 0-2.584-.239-3.65-.718a5.688 5.688 0 0 1-2.502-2.173c-.602-.971-.902-2.202-.902-3.692 0-2.242.888-3.965 2.666-5.168 1.777-1.203 4.484-1.859 8.121-1.969l3.876-.164v-1.374c0-1.941-.417-3.301-1.251-4.081-.834-.779-2.01-1.169-3.528-1.169a10.964 10.964 0 0 0-3.363.513 23.006 23.006 0 0 0-3.035 1.21l-1.046-2.584c1.012-.52 2.174-.964 3.486-1.333a15.261 15.261 0 0 1 4.143-.554Zm4.553 11.772-3.425.143c-2.803.11-4.778.568-5.927 1.374-1.148.807-1.722 1.949-1.722 3.425 0 1.285.389 2.236 1.169 2.851.779.615 1.811.923 3.096.923 1.996 0 3.63-.554 4.902-1.662 1.271-1.107 1.907-2.768 1.907-4.983v-2.071Zm21.02-11.813c2.666 0 4.683.657 6.05 1.969 1.367 1.299 2.051 3.391 2.051 6.275V444h-3.363v-14.417c0-1.873-.431-3.274-1.292-4.204-.848-.93-2.154-1.395-3.917-1.395-2.489 0-4.239.704-5.25 2.113-1.012 1.408-1.518 3.452-1.518 6.132V444h-3.404v-22.477h2.748l.512 3.241h.185a6.71 6.71 0 0 1 1.825-1.99 7.96 7.96 0 0 1 2.482-1.23 9.636 9.636 0 0 1 2.891-.431Zm23.113 23.297c-2.844 0-5.1-.971-6.768-2.912-1.654-1.941-2.481-4.826-2.481-8.654 0-3.869.847-6.788 2.543-8.757 1.695-1.983 3.951-2.974 6.767-2.974 1.19 0 2.229.158 3.117.472.889.314 1.655.738 2.297 1.271a7.69 7.69 0 0 1 1.62 1.785h.246a35.09 35.09 0 0 1-.164-1.744 25.86 25.86 0 0 1-.082-1.804v-9.003h3.405V444h-2.748l-.513-3.199h-.144a7.831 7.831 0 0 1-1.62 1.825c-.642.547-1.415.984-2.317 1.312-.889.315-1.942.472-3.158.472Zm.533-2.83c2.406 0 4.108-.684 5.106-2.051.998-1.367 1.497-3.397 1.497-6.091v-.615c0-2.857-.478-5.052-1.435-6.583-.944-1.531-2.666-2.297-5.168-2.297-2.092 0-3.657.807-4.696 2.42-1.04 1.6-1.559 3.787-1.559 6.563 0 2.762.513 4.894 1.538 6.398 1.039 1.504 2.611 2.256 4.717 2.256Zm25.84-20.467c1.914 0 3.554.424 4.922 1.272 1.367.847 2.413 2.037 3.137 3.568.725 1.518 1.087 3.295 1.087 5.332v2.112h-15.524c.041 2.639.697 4.649 1.968 6.03 1.272 1.381 3.063 2.071 5.374 2.071 1.421 0 2.679-.13 3.773-.39a20.619 20.619 0 0 0 3.404-1.148v2.994c-1.085.49-2.219.861-3.384 1.108-1.107.232-2.419.348-3.937.348-2.16 0-4.047-.437-5.66-1.312-1.6-.889-2.844-2.188-3.733-3.897-.888-1.709-1.333-3.801-1.333-6.275 0-2.42.404-4.512 1.21-6.276.821-1.777 1.969-3.144 3.446-4.101 1.49-.957 3.24-1.436 5.25-1.436Zm-.041 2.789c-1.819 0-3.268.595-4.348 1.785-1.08 1.189-1.723 2.85-1.928 4.983h11.895c-.014-1.34-.226-2.516-.636-3.527-.396-1.026-1.005-1.819-1.825-2.379-.82-.575-1.873-.862-3.158-.862Zm33.879 20.508c-2.844 0-5.1-.971-6.768-2.912-1.654-1.941-2.481-4.826-2.481-8.654 0-3.869.847-6.788 2.542-8.757 1.696-1.983 3.952-2.974 6.768-2.974 1.19 0 2.229.158 3.117.472.889.314 1.655.738 2.297 1.271a7.69 7.69 0 0 1 1.62 1.785h.246a35.09 35.09 0 0 1-.164-1.744 25.86 25.86 0 0 1-.082-1.804v-9.003h3.405V444h-2.749l-.512-3.199h-.144a7.831 7.831 0 0 1-1.62 1.825c-.642.547-1.415.984-2.317 1.312-.889.315-1.942.472-3.158.472Zm.533-2.83c2.406 0 4.108-.684 5.106-2.051.998-1.367 1.497-3.397 1.497-6.091v-.615c0-2.857-.478-5.052-1.435-6.583-.944-1.531-2.666-2.297-5.168-2.297-2.092 0-3.657.807-4.697 2.42-1.039 1.6-1.558 3.787-1.558 6.563 0 2.762.513 4.894 1.538 6.398 1.039 1.504 2.611 2.256 4.717 2.256Zm36.565-8.859c0 1.845-.239 3.493-.718 4.942-.478 1.449-1.169 2.673-2.071 3.671a9.011 9.011 0 0 1-3.281 2.297c-1.272.519-2.714.779-4.327.779-1.504 0-2.885-.26-4.143-.779a9.35 9.35 0 0 1-3.24-2.297c-.902-.998-1.607-2.222-2.112-3.671-.493-1.449-.739-3.097-.739-4.942 0-2.461.417-4.553 1.251-6.276.834-1.736 2.024-3.055 3.569-3.958 1.558-.916 3.411-1.374 5.557-1.374 2.051 0 3.842.458 5.373 1.374 1.545.916 2.742 2.242 3.589 3.979.862 1.722 1.292 3.807 1.292 6.255Zm-17.103 0c0 1.804.239 3.37.717 4.696.479 1.326 1.217 2.352 2.215 3.076.998.725 2.283 1.087 3.856 1.087 1.558 0 2.837-.362 3.835-1.087 1.011-.724 1.757-1.75 2.235-3.076.479-1.326.718-2.892.718-4.696 0-1.791-.239-3.336-.718-4.635-.478-1.313-1.217-2.324-2.215-3.035-.998-.711-2.29-1.067-3.876-1.067-2.338 0-4.053.773-5.147 2.318-1.08 1.545-1.62 3.684-1.62 6.419Zm51.331 3.301c0 1.778-.445 3.295-1.333 4.553-.875 1.244-2.106 2.195-3.692 2.851-1.586.656-3.452.984-5.598.984a30.125 30.125 0 0 1-3.22-.164 21.946 21.946 0 0 1-2.789-.472 11.914 11.914 0 0 1-2.235-.758v-3.343c1.025.424 2.276.82 3.752 1.189 1.477.356 3.022.534 4.635.534 1.504 0 2.776-.199 3.815-.595 1.039-.41 1.825-.991 2.358-1.743.547-.766.82-1.682.82-2.748 0-1.026-.225-1.88-.676-2.564-.452-.697-1.204-1.326-2.256-1.887-1.039-.574-2.461-1.182-4.266-1.825-1.271-.451-2.392-.943-3.363-1.476-.971-.547-1.784-1.162-2.441-1.846a6.975 6.975 0 0 1-1.497-2.379c-.328-.902-.492-1.935-.492-3.097 0-1.599.403-2.966 1.21-4.101.82-1.149 1.948-2.024 3.384-2.625 1.449-.615 3.11-.923 4.983-.923 1.6 0 3.076.15 4.43.451 1.367.301 2.618.704 3.753 1.21l-1.087 2.994a23.793 23.793 0 0 0-3.445-1.128 15.348 15.348 0 0 0-3.733-.451c-1.285 0-2.372.191-3.26.574-.875.369-1.545.896-2.01 1.579-.465.684-.697 1.497-.697 2.441 0 1.053.218 1.928.656 2.625.451.697 1.162 1.319 2.133 1.866.984.533 2.283 1.094 3.896 1.682 1.764.642 3.261 1.326 4.491 2.05 1.231.711 2.167 1.586 2.81 2.625.642 1.026.964 2.332.964 3.917Zm24.178-14.499V444h-2.789l-.492-3.158h-.184a6.543 6.543 0 0 1-1.805 1.969 7.842 7.842 0 0 1-2.502 1.189c-.916.273-1.894.41-2.933.41-1.777 0-3.267-.287-4.47-.861-1.203-.574-2.113-1.463-2.728-2.666-.601-1.203-.902-2.748-.902-4.635v-14.725h3.445v14.479c0 1.873.424 3.274 1.272 4.204.847.916 2.139 1.374 3.876 1.374 1.667 0 2.994-.314 3.978-.943.998-.629 1.716-1.552 2.153-2.769.438-1.23.657-2.734.657-4.512v-11.833h3.424ZM418.147 444h-3.424v-31.91h3.424V444Z"/><path fill="#369837" d="M273.19 93.51c0 2.46-1.99 4.44-4.44 4.44h-36.78c-2.45 0-4.44-1.98-4.44-4.44V56.73c0-2.45 1.98-4.45 4.44-4.45h36.78c2.45 0 4.44 2 4.44 4.45v36.78Zm54.79 0c0 2.46-1.99 4.44-4.44 4.44h-36.78c-2.46 0-4.45-1.98-4.45-4.44V56.73c0-2.45 1.99-4.45 4.45-4.45h36.78c2.45 0 4.44 2 4.44 4.45v36.78Zm0 109.59c0 2.45-1.99 4.45-4.44 4.45h-36.78c-2.46 0-4.45-1.99-4.45-4.45v-36.77c0-2.46 1.99-4.45 4.45-4.45h36.78c2.45 0 4.44 1.99 4.44 4.45v36.77Zm-109.6-54.83c0 2.46-1.99 4.45-4.44 4.45h-36.78c-2.46 0-4.44-1.98-4.44-4.45v-36.78c0-2.45 1.98-4.44 4.44-4.44h36.78c2.45 0 4.44 1.99 4.44 4.44v36.78Zm54.81 0c0 2.46-1.99 4.45-4.44 4.45h-36.78c-2.45 0-4.44-1.98-4.44-4.45v-36.78c0-2.45 1.98-4.44 4.44-4.44h36.78c2.45 0 4.44 1.99 4.44 4.44v36.78Zm-54.81 54.83c0 2.45-1.99 4.45-4.44 4.45h-36.78c-2.46 0-4.44-1.99-4.44-4.45v-36.77c0-2.46 1.98-4.45 4.44-4.45h36.78c2.45 0 4.44 1.99 4.44 4.45v36.77Zm54.81 0c0 2.45-1.99 4.45-4.44 4.45h-36.78c-2.45 0-4.44-1.99-4.44-4.45v-36.77c0-2.46 1.98-4.45 4.44-4.45h36.78c2.45 0 4.44 1.99 4.44 4.45v36.77Zm-54.81 54.85c0 2.46-1.99 4.45-4.44 4.45h-36.78c-2.46 0-4.44-1.99-4.44-4.45v-36.77c0-2.45 1.98-4.45 4.44-4.45h36.78c2.45 0 4.44 1.99 4.44 4.45v36.77Zm54.81 0c0 2.46-1.99 4.45-4.44 4.45h-36.78c-2.45 0-4.44-1.99-4.44-4.45v-36.77c0-2.45 1.98-4.45 4.44-4.45h36.78c2.45 0 4.44 1.99 4.44 4.45v36.77Z"/><path fill="#C91517" d="M220.67 75.12c0 13.87-11.24 25.12-25.12 25.12-13.87 0-25.11-11.25-25.11-25.12.01-13.87 11.25-25.12 25.12-25.12 13.87 0 25.11 11.25 25.11 25.12Z"/><path fill="#281D16" d="M84.95 294.35h9.65v45.43h-9.65v-45.43Zm61.54 0h-8.69v21.5c0 2.45.15 6.62.47 12.52h-.22l-19.77-34.03h-12.17v45.43h8.62V318.4c0-2.59-.2-6.92-.59-12.99h.28l19.8 34.37h12.27v-45.43Zm36.08 25.31c-1.58-2.04-4.49-4.07-8.74-6.11-3.22-1.53-5.26-2.6-6.12-3.19-.86-.59-1.49-1.2-1.89-1.83-.39-.63-.59-1.37-.59-2.22 0-1.37.49-2.48 1.46-3.33.98-.85 2.37-1.27 4.2-1.27 1.54 0 3.1.2 4.69.59 1.59.39 3.6 1.09 6.02 2.08l3.11-7.49c-2.35-1.01-4.59-1.8-6.74-2.36-2.15-.56-4.4-.84-6.77-.84-4.82 0-8.59 1.15-11.31 3.45-2.73 2.3-4.1 5.46-4.1 9.48 0 2.14.41 4 1.25 5.59.83 1.6 1.94 3 3.33 4.2 1.39 1.2 3.48 2.45 6.26 3.76 2.97 1.41 4.94 2.44 5.9 3.08.97.64 1.7 1.31 2.2 2 .49.7.74 1.49.74 2.38 0 1.6-.57 2.8-1.7 3.61-1.12.81-2.75 1.21-4.87 1.21-1.76 0-3.71-.28-5.84-.84-2.12-.56-4.73-1.53-7.8-2.89v8.95c3.74 1.82 8.03 2.74 12.89 2.74 5.28 0 9.39-1.18 12.34-3.54 2.95-2.36 4.44-5.59 4.44-9.7.01-2.97-.79-5.47-2.36-7.51Zm86.34-17.3h12.36v-8.02H246.9v8.02h12.36v37.41h9.65v-37.41Zm-29.02-8.01h-9.65v45.43h9.65v-45.43Zm-29.01 8.01h12.36v-8.02h-34.37v8.02h12.36v37.41h9.65v-37.41Zm104.99-8.01v27.75c0 3.52-.71 6.1-2.13 7.75-1.42 1.65-3.71 2.47-6.86 2.47-3.26 0-5.59-.82-7-2.45-1.41-1.64-2.12-4.21-2.12-7.71v-27.81h-9.62v29.27c0 5.2 1.62 9.29 4.86 12.29s7.78 4.49 13.63 4.49c3.88 0 7.24-.67 10.09-2.02 2.84-1.35 5.02-3.29 6.52-5.81 1.51-2.53 2.26-5.47 2.26-8.83v-29.4h-9.63v.01Zm38.46 8.01h12.36v-8.01h-34.37v8.01h12.35v37.42h9.66v-37.42Zm30.43 3.16c1.95-2.58 4.84-3.87 8.68-3.87 7.66 0 11.48 5.12 11.48 15.35 0 10.21-3.85 15.32-11.54 15.32-3.84 0-6.73-1.28-8.66-3.85-1.93-2.57-2.89-6.39-2.89-11.47.01-5.07.98-8.9 2.93-11.48Zm24.74-5.86c-3.71-4.02-9.06-6.03-16.05-6.03s-12.36 2-16.11 5.98c-3.75 3.99-5.62 9.76-5.62 17.32 0 7.57 1.87 13.36 5.61 17.4 3.74 4.04 9.09 6.06 16.07 6.06 6.97 0 12.33-2.02 16.06-6.06 3.74-4.04 5.61-9.82 5.61-17.34-.02-7.53-1.87-13.31-5.57-17.33Zm-283.38 76.76h15.44v-7.86h-15.44v-11.71h16.59v-7.9h-26.08v45.43h9.49v-17.96Zm159.03.53 10.87 17.43h10.71c-2.07-2.98-6.54-9.58-13.39-19.8 2.69-1.18 4.79-2.81 6.25-4.9 1.48-2.08 2.21-4.46 2.21-7.13 0-4.58-1.48-7.99-4.45-10.24s-7.55-3.37-13.73-3.37h-13.26v45.44h9.65v-17.43h5.14Zm-5.14-20.11h2.92c3.11 0 5.42.46 6.89 1.37 1.48.91 2.23 2.44 2.23 4.6 0 2.18-.73 3.77-2.18 4.79-1.45 1.01-3.7 1.52-6.75 1.52h-3.11v-12.28Zm-19.14 29.59H244.3v-11.71h15.41v-7.89H244.3v-9.98h16.57v-7.89h-26.22v45.44h26.22v-7.97Zm-59.62 0h-4.14v-29.58h5.14c8.63 0 12.95 4.88 12.95 14.64 0 9.96-4.65 14.94-13.95 14.94Zm17.81-31.6c-4.11-3.92-9.88-5.88-17.31-5.88h-14.29v45.44h12.89c8.05 0 14.21-1.99 18.48-5.97 4.26-3.98 6.39-9.7 6.39-17.18 0-7.03-2.05-12.5-6.16-16.41Zm-41.09 31.6H161.4v-11.71h15.41v-7.89H161.4v-9.98h16.57v-7.89h-26.21v45.44h26.21v-7.97Zm145.1-10.94c3.23-10.46 5.2-17.02 5.88-19.67.16.75.44 1.77.82 3.05.38 1.29 2.1 6.83 5.15 16.63h-11.85v-.01Zm27.86 18.9-16.13-45.62H323l-16.06 45.62h10.4l3.3-10.81h16.6l3.3 10.81h10.39Zm33.97 0v-7.96h-18.46v-37.48h-9.65v45.44h28.11Z"/></svg>
