<svg xmlns="http://www.w3.org/2000/svg" width="500" height="500" fill="none"><path fill="#000" d="M106.593 440.883c0 2.031-.508 3.765-1.524 5.203-1 1.422-2.406 2.508-4.218 3.258-1.813.75-3.946 1.125-6.4 1.125-1.296 0-2.522-.063-3.68-.188a24.907 24.907 0 0 1-3.186-.539c-.97-.234-1.82-.523-2.555-.867v-3.82c1.172.484 2.602.937 4.29 1.359 1.687.406 3.453.609 5.296.609 1.719 0 3.172-.226 4.36-.679 1.187-.469 2.086-1.133 2.695-1.992.625-.875.937-1.922.937-3.141 0-1.172-.257-2.149-.773-2.93-.516-.797-1.375-1.515-2.578-2.156-1.188-.656-2.813-1.352-4.875-2.086-1.453-.516-2.735-1.078-3.844-1.687-1.11-.625-2.04-1.329-2.79-2.11a7.938 7.938 0 0 1-1.71-2.719c-.375-1.031-.562-2.211-.562-3.539 0-1.828.46-3.39 1.382-4.687.938-1.313 2.227-2.313 3.868-3 1.656-.703 3.554-1.055 5.695-1.055 1.828 0 3.515.172 5.062.516 1.563.344 2.993.804 4.289 1.383l-1.242 3.421a27.241 27.241 0 0 0-3.937-1.289 17.528 17.528 0 0 0-4.266-.515c-1.47 0-2.71.219-3.726.656-1 .422-1.766 1.024-2.297 1.805-.532.781-.797 1.711-.797 2.789 0 1.203.25 2.203.75 3 .515.797 1.328 1.508 2.437 2.133 1.125.609 2.61 1.25 4.453 1.921 2.016.735 3.727 1.516 5.133 2.344 1.407.813 2.477 1.813 3.211 3 .735 1.172 1.102 2.664 1.102 4.477Zm16.031-16.992c3.063 0 5.336.687 6.82 2.062 1.485 1.375 2.227 3.57 2.227 6.586V450h-2.836l-.75-3.797h-.188c-.718.938-1.468 1.727-2.25 2.367a8.38 8.38 0 0 1-2.718 1.43c-1.016.312-2.266.469-3.75.469-1.563 0-2.953-.274-4.172-.821a6.495 6.495 0 0 1-2.86-2.484c-.687-1.109-1.031-2.516-1.031-4.219 0-2.562 1.016-4.531 3.047-5.906s5.125-2.125 9.281-2.25l4.43-.187v-1.571c0-2.219-.477-3.773-1.43-4.664-.953-.89-2.297-1.336-4.031-1.336-1.344 0-2.625.196-3.844.586a26.512 26.512 0 0 0-3.468 1.383l-1.196-2.953c1.157-.594 2.485-1.102 3.985-1.524a17.442 17.442 0 0 1 4.734-.632Zm5.203 13.453-3.914.164c-3.203.125-5.461.648-6.773 1.57-1.313.922-1.969 2.227-1.969 3.914 0 1.469.445 2.555 1.336 3.258.89.703 2.07 1.055 3.539 1.055 2.281 0 4.148-.633 5.601-1.899 1.454-1.265 2.18-3.164 2.18-5.695v-2.367Zm24.024-13.5c3.046 0 5.351.75 6.914 2.25 1.562 1.484 2.343 3.875 2.343 7.172V450h-3.843v-16.477c0-2.14-.493-3.742-1.477-4.804-.969-1.063-2.461-1.594-4.476-1.594-2.844 0-4.844.805-6 2.414-1.157 1.609-1.735 3.945-1.735 7.008V450h-3.89v-25.688h3.14l.586 3.704h.211a7.629 7.629 0 0 1 2.086-2.274 9.078 9.078 0 0 1 2.836-1.406 10.983 10.983 0 0 1 3.305-.492Zm25.57 23.437c.641 0 1.297-.054 1.969-.164.672-.109 1.218-.242 1.64-.398v3.023c-.453.203-1.086.375-1.898.516-.797.14-1.578.211-2.344.211-1.359 0-2.594-.235-3.703-.703-1.109-.485-2-1.297-2.672-2.438-.656-1.14-.984-2.719-.984-4.734v-15.235h-3.657v-1.898l3.68-1.523 1.547-5.579h2.344v5.953h7.523v3.047h-7.523v15.118c0 1.609.367 2.812 1.101 3.609.75.797 1.743 1.195 2.977 1.195Zm18.422-23.39c3.062 0 5.336.687 6.82 2.062 1.484 1.375 2.227 3.57 2.227 6.586V450h-2.836l-.75-3.797h-.188c-.719.938-1.469 1.727-2.25 2.367a8.336 8.336 0 0 1-2.719 1.43c-1.015.312-2.265.469-3.75.469-1.562 0-2.953-.274-4.171-.821a6.49 6.49 0 0 1-2.86-2.484c-.687-1.109-1.031-2.516-1.031-4.219 0-2.562 1.016-4.531 3.047-5.906s5.125-2.125 9.281-2.25l4.43-.187v-1.571c0-2.219-.477-3.773-1.43-4.664-.953-.89-2.297-1.336-4.031-1.336-1.344 0-2.625.196-3.844.586a26.47 26.47 0 0 0-3.469 1.383l-1.195-2.953c1.156-.594 2.484-1.102 3.984-1.524 1.5-.421 3.079-.632 4.735-.632Zm5.203 13.453-3.914.164c-3.203.125-5.461.648-6.774 1.57-1.312.922-1.968 2.227-1.968 3.914 0 1.469.445 2.555 1.336 3.258.89.703 2.07 1.055 3.539 1.055 2.281 0 4.148-.633 5.601-1.899 1.453-1.265 2.18-3.164 2.18-5.695v-2.367Zm39.562-18.586c-1.89 0-3.593.328-5.109.984a10.38 10.38 0 0 0-3.844 2.813c-1.047 1.218-1.851 2.695-2.414 4.429-.562 1.735-.844 3.688-.844 5.86 0 2.875.446 5.375 1.336 7.5.907 2.109 2.25 3.742 4.032 4.898 1.797 1.156 4.039 1.735 6.726 1.735 1.531 0 2.969-.125 4.313-.375a39.708 39.708 0 0 0 3.961-.985v3.469c-1.25.469-2.563.812-3.938 1.031-1.375.235-3.008.352-4.898.352-3.485 0-6.399-.719-8.742-2.157-2.329-1.453-4.079-3.5-5.25-6.14-1.157-2.641-1.735-5.758-1.735-9.352 0-2.593.36-4.961 1.078-7.101.735-2.157 1.797-4.016 3.188-5.578 1.406-1.563 3.125-2.766 5.156-3.61 2.047-.859 4.391-1.289 7.031-1.289 1.735 0 3.407.172 5.016.516 1.609.344 3.062.836 4.359 1.476l-1.593 3.375a23.826 23.826 0 0 0-3.61-1.289c-1.297-.375-2.703-.562-4.219-.562Zm24.61 5.133c3.062 0 5.336.687 6.82 2.062 1.484 1.375 2.227 3.57 2.227 6.586V450h-2.836l-.75-3.797h-.188c-.719.938-1.469 1.727-2.25 2.367a8.336 8.336 0 0 1-2.719 1.43c-1.015.312-2.265.469-3.75.469-1.562 0-2.953-.274-4.171-.821a6.49 6.49 0 0 1-2.86-2.484c-.687-1.109-1.031-2.516-1.031-4.219 0-2.562 1.016-4.531 3.047-5.906s5.125-2.125 9.281-2.25l4.43-.187v-1.571c0-2.219-.477-3.773-1.43-4.664-.953-.89-2.297-1.336-4.031-1.336-1.344 0-2.625.196-3.844.586a26.47 26.47 0 0 0-3.469 1.383l-1.195-2.953c1.156-.594 2.484-1.102 3.984-1.524 1.5-.421 3.079-.632 4.735-.632Zm5.203 13.453-3.914.164c-3.203.125-5.461.648-6.774 1.57-1.312.922-1.968 2.227-1.968 3.914 0 1.469.445 2.555 1.336 3.258.89.703 2.07 1.055 3.539 1.055 2.281 0 4.148-.633 5.601-1.899 1.453-1.265 2.18-3.164 2.18-5.695v-2.367Zm20.156 9.937c.641 0 1.297-.054 1.969-.164.672-.109 1.219-.242 1.641-.398v3.023c-.454.203-1.086.375-1.899.516-.797.14-1.578.211-2.344.211-1.359 0-2.593-.235-3.703-.703-1.109-.485-2-1.297-2.672-2.438-.656-1.14-.984-2.719-.984-4.734v-15.235h-3.656v-1.898l3.679-1.523 1.547-5.579h2.344v5.953h7.523v3.047h-7.523v15.118c0 1.609.367 2.812 1.102 3.609.75.797 1.742 1.195 2.976 1.195Zm18.422-23.39c3.063 0 5.336.687 6.82 2.062 1.485 1.375 2.227 3.57 2.227 6.586V450h-2.836l-.75-3.797h-.188c-.718.938-1.468 1.727-2.25 2.367a8.38 8.38 0 0 1-2.718 1.43c-1.016.312-2.266.469-3.75.469-1.563 0-2.953-.274-4.172-.821a6.495 6.495 0 0 1-2.86-2.484c-.687-1.109-1.031-2.516-1.031-4.219 0-2.562 1.016-4.531 3.047-5.906s5.125-2.125 9.281-2.25l4.43-.187v-1.571c0-2.219-.477-3.773-1.43-4.664-.953-.89-2.297-1.336-4.031-1.336-1.344 0-2.625.196-3.844.586a26.512 26.512 0 0 0-3.468 1.383l-1.196-2.953c1.157-.594 2.485-1.102 3.985-1.524a17.442 17.442 0 0 1 4.734-.632Zm5.203 13.453-3.914.164c-3.203.125-5.461.648-6.773 1.57-1.313.922-1.969 2.227-1.969 3.914 0 1.469.445 2.555 1.336 3.258.89.703 2.07 1.055 3.539 1.055 2.281 0 4.148-.633 5.601-1.899 1.454-1.265 2.18-3.164 2.18-5.695v-2.367Zm23.531-13.5c.516 0 1.055.031 1.618.094.504.038 1.005.108 1.5.21l-.493 3.61c-.421-.11-.89-.196-1.406-.258-.515-.062-1-.094-1.453-.094a6.97 6.97 0 0 0-2.93.633c-.906.406-1.703 1-2.39 1.781-.688.766-1.227 1.696-1.617 2.789-.391 1.079-.586 2.282-.586 3.61V450h-3.914v-25.688h3.234l.422 4.735h.164a12.59 12.59 0 0 1 1.922-2.602 8.638 8.638 0 0 1 2.601-1.898c1-.469 2.11-.703 3.328-.703Zm11.86.468V450h-3.891v-25.688h3.891Zm-1.899-9.609c.641 0 1.188.211 1.641.633.469.406.703 1.047.703 1.922 0 .859-.234 1.5-.703 1.922-.453.422-1 .632-1.641.632-.672 0-1.234-.21-1.687-.632-.438-.422-.656-1.063-.656-1.922 0-.875.218-1.516.656-1.922.453-.422 1.015-.633 1.687-.633Zm22.313 9.141c3.047 0 5.351.75 6.914 2.25 1.562 1.484 2.344 3.875 2.344 7.172V450h-3.844v-16.477c0-2.14-.492-3.742-1.477-4.804-.968-1.063-2.461-1.594-4.476-1.594-2.844 0-4.844.805-6 2.414-1.156 1.609-1.735 3.945-1.735 7.008V450h-3.89v-25.688h3.14l.586 3.704h.211a7.629 7.629 0 0 1 2.086-2.274 9.078 9.078 0 0 1 2.836-1.406 11.015 11.015 0 0 1 3.305-.492Zm26.883.047c3.062 0 5.336.687 6.82 2.062 1.484 1.375 2.227 3.57 2.227 6.586V450h-2.836l-.75-3.797h-.188c-.719.938-1.469 1.727-2.25 2.367a8.336 8.336 0 0 1-2.719 1.43c-1.015.312-2.265.469-3.75.469-1.562 0-2.953-.274-4.172-.821a6.487 6.487 0 0 1-2.859-2.484c-.687-1.109-1.031-2.516-1.031-4.219 0-2.562 1.015-4.531 3.047-5.906 2.031-1.375 5.125-2.125 9.281-2.25l4.43-.187v-1.571c0-2.219-.477-3.773-1.43-4.664-.953-.89-2.297-1.336-4.031-1.336-1.344 0-2.625.196-3.844.586a26.47 26.47 0 0 0-3.469 1.383l-1.195-2.953c1.156-.594 2.484-1.102 3.984-1.524 1.5-.421 3.078-.632 4.735-.632Zm5.203 13.453-3.914.164c-3.203.125-5.461.648-6.774 1.57-1.312.922-1.968 2.227-1.968 3.914 0 1.469.445 2.555 1.335 3.258.891.703 2.071 1.055 3.54 1.055 2.281 0 4.148-.633 5.601-1.899 1.453-1.265 2.18-3.164 2.18-5.695v-2.367Z"/><path fill="#369837" d="M273.19 93.51c0 2.46-1.99 4.44-4.44 4.44h-36.78c-2.45 0-4.44-1.98-4.44-4.44V56.73c0-2.45 1.98-4.45 4.44-4.45h36.78c2.45 0 4.44 2 4.44 4.45v36.78Zm54.79 0c0 2.46-1.99 4.44-4.44 4.44h-36.78c-2.46 0-4.45-1.98-4.45-4.44V56.73c0-2.45 1.99-4.45 4.45-4.45h36.78c2.45 0 4.44 2 4.44 4.45v36.78Zm0 109.59c0 2.45-1.99 4.45-4.44 4.45h-36.78c-2.46 0-4.45-1.99-4.45-4.45v-36.77c0-2.46 1.99-4.45 4.45-4.45h36.78c2.45 0 4.44 1.99 4.44 4.45v36.77Zm-109.6-54.83c0 2.46-1.99 4.45-4.44 4.45h-36.78c-2.46 0-4.44-1.98-4.44-4.45v-36.78c0-2.45 1.98-4.44 4.44-4.44h36.78c2.45 0 4.44 1.99 4.44 4.44v36.78Zm54.81 0c0 2.46-1.99 4.45-4.44 4.45h-36.78c-2.45 0-4.44-1.98-4.44-4.45v-36.78c0-2.45 1.98-4.44 4.44-4.44h36.78c2.45 0 4.44 1.99 4.44 4.44v36.78Zm-54.81 54.83c0 2.45-1.99 4.45-4.44 4.45h-36.78c-2.46 0-4.44-1.99-4.44-4.45v-36.77c0-2.46 1.98-4.45 4.44-4.45h36.78c2.45 0 4.44 1.99 4.44 4.45v36.77Zm54.81 0c0 2.45-1.99 4.45-4.44 4.45h-36.78c-2.45 0-4.44-1.99-4.44-4.45v-36.77c0-2.46 1.98-4.45 4.44-4.45h36.78c2.45 0 4.44 1.99 4.44 4.45v36.77Zm-54.81 54.85c0 2.46-1.99 4.45-4.44 4.45h-36.78c-2.46 0-4.44-1.99-4.44-4.45v-36.77c0-2.45 1.98-4.45 4.44-4.45h36.78c2.45 0 4.44 1.99 4.44 4.45v36.77Zm54.81 0c0 2.46-1.99 4.45-4.44 4.45h-36.78c-2.45 0-4.44-1.99-4.44-4.45v-36.77c0-2.45 1.98-4.45 4.44-4.45h36.78c2.45 0 4.44 1.99 4.44 4.45v36.77Z"/><path fill="#C91517" d="M220.67 75.12c0 13.87-11.24 25.12-25.12 25.12-13.87 0-25.11-11.25-25.11-25.12.01-13.87 11.25-25.12 25.12-25.12 13.87 0 25.11 11.25 25.11 25.12Z"/><path fill="#281D16" d="M84.95 294.35h9.65v45.43h-9.65v-45.43Zm61.54 0h-8.69v21.5c0 2.45.15 6.62.47 12.52h-.22l-19.77-34.03h-12.17v45.43h8.62V318.4c0-2.59-.2-6.92-.59-12.99h.28l19.8 34.37h12.27v-45.43Zm36.08 25.31c-1.58-2.04-4.49-4.07-8.74-6.11-3.22-1.53-5.26-2.6-6.12-3.19-.86-.59-1.49-1.2-1.89-1.83-.39-.63-.59-1.37-.59-2.22 0-1.37.49-2.48 1.46-3.33.98-.85 2.37-1.27 4.2-1.27 1.54 0 3.1.2 4.69.59 1.59.39 3.6 1.09 6.02 2.08l3.11-7.49c-2.35-1.01-4.59-1.8-6.74-2.36-2.15-.56-4.4-.84-6.77-.84-4.82 0-8.59 1.15-11.31 3.45-2.73 2.3-4.1 5.46-4.1 9.48 0 2.14.41 4 1.25 5.59.83 1.6 1.94 3 3.33 4.2 1.39 1.2 3.48 2.45 6.26 3.76 2.97 1.41 4.94 2.44 5.9 3.08.97.64 1.7 1.31 2.2 2 .49.7.74 1.49.74 2.38 0 1.6-.57 2.8-1.7 3.61-1.12.81-2.75 1.21-4.87 1.21-1.76 0-3.71-.28-5.84-.84-2.12-.56-4.73-1.53-7.8-2.89v8.95c3.74 1.82 8.03 2.74 12.89 2.74 5.28 0 9.39-1.18 12.34-3.54 2.95-2.36 4.44-5.59 4.44-9.7.01-2.97-.79-5.47-2.36-7.51Zm86.34-17.3h12.36v-8.02H246.9v8.02h12.36v37.41h9.65v-37.41Zm-29.02-8.01h-9.65v45.43h9.65v-45.43Zm-29.01 8.01h12.36v-8.02h-34.37v8.02h12.36v37.41h9.65v-37.41Zm104.99-8.01v27.75c0 3.52-.71 6.1-2.13 7.75-1.42 1.65-3.71 2.47-6.86 2.47-3.26 0-5.59-.82-7-2.45-1.41-1.64-2.12-4.21-2.12-7.71v-27.81h-9.62v29.27c0 5.2 1.62 9.29 4.86 12.29s7.78 4.49 13.63 4.49c3.88 0 7.24-.67 10.09-2.02 2.84-1.35 5.02-3.29 6.52-5.81 1.51-2.53 2.26-5.47 2.26-8.83v-29.4h-9.63v.01Zm38.46 8.01h12.36v-8.01h-34.37v8.01h12.35v37.42h9.66v-37.42Zm30.43 3.16c1.95-2.58 4.84-3.87 8.68-3.87 7.66 0 11.48 5.12 11.48 15.35 0 10.21-3.85 15.32-11.54 15.32-3.84 0-6.73-1.28-8.66-3.85-1.93-2.57-2.89-6.39-2.89-11.47.01-5.07.98-8.9 2.93-11.48Zm24.74-5.86c-3.71-4.02-9.06-6.03-16.05-6.03s-12.36 2-16.11 5.98c-3.75 3.99-5.62 9.76-5.62 17.32 0 7.57 1.87 13.36 5.61 17.4 3.74 4.04 9.09 6.06 16.07 6.06 6.97 0 12.33-2.02 16.06-6.06 3.74-4.04 5.61-9.82 5.61-17.34-.02-7.53-1.87-13.31-5.57-17.33Zm-283.38 76.76h15.44v-7.86h-15.44v-11.71h16.59v-7.9h-26.08v45.43h9.49v-17.96Zm159.03.53 10.87 17.43h10.71c-2.07-2.98-6.54-9.58-13.39-19.8 2.69-1.18 4.79-2.81 6.25-4.9 1.48-2.08 2.21-4.46 2.21-7.13 0-4.58-1.48-7.99-4.45-10.24s-7.55-3.37-13.73-3.37h-13.26v45.44h9.65v-17.43h5.14Zm-5.14-20.11h2.92c3.11 0 5.42.46 6.89 1.37 1.48.91 2.23 2.44 2.23 4.6 0 2.18-.73 3.77-2.18 4.79-1.45 1.01-3.7 1.52-6.75 1.52h-3.11v-12.28Zm-19.14 29.59H244.3v-11.71h15.41v-7.89H244.3v-9.98h16.57v-7.89h-26.22v45.44h26.22v-7.97Zm-59.62 0h-4.14v-29.58h5.14c8.63 0 12.95 4.88 12.95 14.64 0 9.96-4.65 14.94-13.95 14.94Zm17.81-31.6c-4.11-3.92-9.88-5.88-17.31-5.88h-14.29v45.44h12.89c8.05 0 14.21-1.99 18.48-5.97 4.26-3.98 6.39-9.7 6.39-17.18 0-7.03-2.05-12.5-6.16-16.41Zm-41.09 31.6H161.4v-11.71h15.41v-7.89H161.4v-9.98h16.57v-7.89h-26.21v45.44h26.21v-7.97Zm145.1-10.94c3.23-10.46 5.2-17.02 5.88-19.67.16.75.44 1.77.82 3.05.38 1.29 2.1 6.83 5.15 16.63h-11.85v-.01Zm27.86 18.9-16.13-45.62H323l-16.06 45.62h10.4l3.3-10.81h16.6l3.3 10.81h10.39Zm33.97 0v-7.96h-18.46v-37.48h-9.65v45.44h28.11Z"/></svg>
