<svg width="500" height="500" fill="none" xmlns="http://www.w3.org/2000/svg"><path d="M50 401.334v-18.771h8.156v19.55c0 .851.15 1.481.457 1.891.309.404.78.608 1.42.608.65 0 1.128-.204 1.436-.608.308-.41.457-1.04.457-1.891v-19.55h8.199v18.771c0 3.812-.814 6.606-2.431 8.374-1.627 1.769-4.175 2.653-7.661 2.653-3.47 0-6.01-.884-7.624-2.653-1.602-1.768-2.409-4.562-2.409-8.374ZM74.26 411.786v-29.223h8.122l4.5 15.367v-15.367h7.42v29.223h-8.039l-4.542-14.634v14.634h-7.46ZM98.94 382.563h8.155v29.223h-8.156v-29.223ZM109.758 382.563h8.149l3.041 19.091 3.066-19.091h8.122l-6.681 29.222h-9.023l-6.674-29.222ZM134.477 411.786v-29.223h14.509v7.091h-6.311v3.728h5.695v6.843h-5.695v4.02h6.311v7.541h-14.509ZM160.944 388.628v6.969c1.111-.028 1.925-.316 2.431-.877.512-.553.768-1.419.768-2.609 0-1.16-.242-2.036-.727-2.614-.484-.582-1.202-.869-2.15-.869h-.322Zm-8.156 23.157v-29.222h9.385c3.178 0 5.678.806 7.509 2.422 1.825 1.614 2.738 3.805 2.738 6.578 0 1.711-.408 3.172-1.228 4.38-.82 1.204-2.05 2.174-3.692 2.89l5.778 12.952h-8.637l-3.697-11.31v11.31h-8.156ZM175.129 402.071c1.161.921 2.233 1.628 3.214 2.105.983.484 1.834.723 2.572.723.656 0 1.191-.19 1.613-.581.415-.388.626-.873.626-1.462 0-.695-.71-1.706-2.122-3.046a.512.512 0 0 1-.076-.083c-2.445-2.253-4.016-3.995-4.711-5.237a8.102 8.102 0 0 1-1.04-4.016c0-2.476.838-4.505 2.515-6.097 1.672-1.589 3.824-2.389 6.452-2.389 1.025 0 2.091.143 3.192.422 1.108.281 2.239.7 3.417 1.257v7.585c-.979-.771-1.895-1.353-2.749-1.751-.852-.388-1.63-.586-2.34-.586-.617 0-1.108.164-1.484.492-.375.322-.559.745-.559 1.264 0 .751.703 1.666 2.101 2.759.111.097.187.156.239.197 2.435 1.95 4.012 3.552 4.736 4.816.717 1.257 1.081 2.745 1.081 4.456 0 2.848-.905 5.144-2.709 6.871-1.795 1.728-4.185 2.59-7.165 2.59-1.147 0-2.275-.177-3.382-.54-1.104-.364-2.247-.925-3.421-1.683v-8.066ZM195.164 382.563h8.156v29.223h-8.156v-29.223ZM216.146 389.571v14.838h.362c1.24 0 2.123-.534 2.635-1.607.513-1.066.773-2.984.773-5.764 0-2.856-.26-4.815-.786-5.875-.52-1.059-1.421-1.592-2.704-1.592h-.28Zm-8.158-7.011h6.06c2.945 0 5.193.274 6.729.814 1.544.54 2.923 1.457 4.134 2.752 1.069 1.17 1.875 2.693 2.423 4.563.547 1.866.821 4.04.821 6.505 0 4.829-1.032 8.471-3.103 10.916-2.069 2.454-5.136 3.676-9.207 3.676h-7.857V382.56ZM229.252 411.786l6.394-29.223h9.188l6.387 29.223h-7.945l-.623-4.304h-4.823l-.619 4.304h-7.959Zm9.378-10.207h3.244l-1.645-10.828-1.599 10.828ZM261.677 389.571v14.838h.364c1.238 0 2.121-.534 2.634-1.607.512-1.066.772-2.984.772-5.764 0-2.856-.26-4.815-.786-5.875-.518-1.059-1.419-1.592-2.703-1.592h-.281Zm-8.157-7.011h6.059c2.946 0 5.193.274 6.729.814 1.544.54 2.923 1.457 4.134 2.752 1.07 1.17 1.877 2.693 2.424 4.563.547 1.866.821 4.04.821 6.505 0 4.829-1.033 8.471-3.102 10.916-2.071 2.454-5.138 3.676-9.209 3.676h-7.856V382.56ZM276.874 411.786v-29.223h14.509v7.091h-6.311v3.728h5.694v6.843h-5.694v4.02h6.311v7.541h-14.509ZM310.377 411.786v-29.223h14.467v7.091h-6.31v4.219h5.531v6.887h-5.531v11.026h-8.157ZM328.358 411.786v-29.223h14.509v7.091h-6.311v3.728h5.696v6.843h-5.696v4.02h6.311v7.541h-14.509ZM355.273 389.571v14.838h.363c1.24 0 2.123-.534 2.635-1.607.512-1.066.773-2.984.773-5.764 0-2.856-.261-4.815-.786-5.875-.52-1.059-1.421-1.592-2.704-1.592h-.281Zm-8.157-7.011h6.059c2.946 0 5.194.274 6.73.814 1.544.54 2.923 1.457 4.133 2.752 1.07 1.17 1.877 2.693 2.424 4.563.547 1.866.821 4.04.821 6.505 0 4.829-1.033 8.471-3.103 10.916-2.069 2.454-5.136 3.676-9.209 3.676h-7.855V382.56ZM370.876 411.786v-29.223h14.51v7.091h-6.312v3.728h5.695v6.843h-5.695v4.02h6.312v7.541h-14.51ZM397.75 388.628v6.969c1.112-.028 1.926-.316 2.431-.877.512-.553.768-1.419.768-2.609 0-1.16-.243-2.036-.726-2.614-.485-.582-1.203-.869-2.151-.869h-.322Zm-8.156 23.157v-29.222h9.386c3.178 0 5.678.806 7.509 2.422 1.824 1.614 2.737 3.805 2.737 6.578 0 1.711-.407 3.172-1.228 4.38-.82 1.204-2.051 2.174-3.691 2.89l5.779 12.952h-8.638l-3.698-11.31v11.31h-8.156ZM411.188 411.786l6.394-29.223h9.188l6.387 29.223h-7.945l-.623-4.304h-4.822l-.62 4.304h-7.959Zm9.378-10.207h3.248l-1.649-10.828-1.599 10.828ZM435.821 411.786v-29.223h8.197v21.966H450v7.257h-14.179ZM58.403 428.351v14.837h.363c1.239 0 2.122-.534 2.635-1.606.512-1.067.77-2.984.77-5.764 0-2.856-.258-4.816-.784-5.876-.52-1.059-1.42-1.591-2.705-1.591h-.28Zm-8.157-7.011h6.058c2.946 0 5.194.273 6.73.814 1.544.539 2.922 1.457 4.134 2.752 1.07 1.17 1.876 2.693 2.423 4.562.547 1.867.82 4.04.82 6.506 0 4.829-1.031 8.47-3.101 10.915-2.07 2.454-5.138 3.676-9.209 3.676h-7.855V421.34ZM72.618 450.565v-29.222h14.509v7.09h-6.31v3.728h5.694v6.844h-5.695v4.02h6.311v7.54H72.618ZM99.087 450.565l2.085-29.222h9.728l2.547 15.409 2.541-15.409h9.708l2.081 29.222h-7.443l-.624-20.699-3.244 20.699h-6.069l-3.243-20.699-.641 20.699h-7.426ZM128.017 450.565l6.395-29.222h9.187l6.388 29.222h-7.945l-.623-4.303h-4.823l-.62 4.303h-7.959Zm9.378-10.206h3.244l-1.645-10.829-1.599 10.829ZM161.639 450.565h-8.198v-21.807h-4.836v-7.415h17.87v7.415h-4.836v21.807ZM175.568 435.776c0 3.039.197 5.116.599 6.231.405 1.111 1.101 1.672 2.105 1.672.993 0 1.682-.555 2.07-1.651.397-1.102.595-3.186.595-6.252 0-3.068-.198-5.152-.595-6.256-.388-1.109-1.077-1.662-2.07-1.662-1.004 0-1.7.56-2.105 1.682-.402 1.119-.599 3.195-.599 6.236Zm-8.239.197c0-4.83.955-8.573 2.876-11.224 1.912-2.655 4.605-3.981 8.074-3.981 3.465 0 6.141 1.326 8.041 3.967 1.905 2.652 2.854 6.394 2.854 11.238 0 4.829-.949 8.568-2.839 11.203-1.902 2.644-4.584 3.963-8.056 3.963-3.483 0-6.172-1.326-8.087-3.97-1.908-2.649-2.863-6.378-2.863-11.196ZM221.876 433.514v.124c.054 1.119.082 1.953.082 2.5 0 5.089-.841 8.866-2.52 11.317-1.682 2.455-4.258 3.683-7.728 3.683-3.475 0-6.175-1.325-8.079-3.97-1.908-2.649-2.863-6.377-2.863-11.196 0-4.882.962-8.634 2.88-11.262 1.922-2.631 4.666-3.943 8.233-3.943 2.534 0 4.583.575 6.154 1.727 1.565 1.157 2.753 2.954 3.553 5.397l-7.084 2.427c-.321-1.018-.696-1.748-1.121-2.201-.43-.443-.97-.668-1.623-.668-1.018 0-1.736.574-2.14 1.727-.409 1.156-.613 3.292-.613 6.415 0 3.109.197 5.234.598 6.374.406 1.142 1.109 1.713 2.113 1.713.751 0 1.312-.315 1.686-.949.377-.637.561-1.591.561-2.869v-.401h-2.418v-5.945h10.329ZM232.443 427.407v6.969c1.112-.027 1.925-.315 2.43-.876.513-.554.769-1.419.769-2.611 0-1.159-.243-2.035-.728-2.613-.484-.582-1.201-.869-2.149-.869h-.322Zm-8.157 23.157v-29.222h9.386c3.177 0 5.679.807 7.51 2.423 1.824 1.613 2.737 3.805 2.737 6.578 0 1.71-.408 3.171-1.229 4.379-.819 1.205-2.05 2.174-3.691 2.891l5.779 12.951h-8.637l-3.698-11.311v11.311h-8.157ZM253.92 435.776c0 3.039.197 5.116.598 6.231.406 1.111 1.102 1.672 2.106 1.672.993 0 1.681-.555 2.069-1.651.399-1.102.596-3.186.596-6.252 0-3.068-.197-5.152-.596-6.256-.388-1.109-1.076-1.662-2.069-1.662-1.004 0-1.7.56-2.106 1.682-.401 1.119-.598 3.195-.598 6.236Zm-8.24.197c0-4.83.956-8.573 2.877-11.224 1.911-2.655 4.605-3.981 8.074-3.981 3.465 0 6.141 1.326 8.041 3.967 1.904 2.652 2.856 6.394 2.856 11.238 0 4.829-.952 8.568-2.842 11.203-1.901 2.644-4.584 3.963-8.055 3.963-3.483 0-6.173-1.326-8.087-3.97-1.908-2.649-2.864-6.378-2.864-11.196ZM268.962 440.85c1.16.921 2.233 1.627 3.209 2.104.987.486 1.837.725 2.575.725.659 0 1.191-.19 1.614-.582.415-.388.626-.873.626-1.461 0-.696-.709-1.707-2.121-3.046a.577.577 0 0 1-.077-.084c-2.445-2.253-4.016-3.994-4.712-5.237a8.11 8.11 0 0 1-1.038-4.017c0-2.475.837-4.503 2.514-6.096 1.67-1.589 3.825-2.388 6.453-2.388 1.025 0 2.09.141 3.192.422 1.107.281 2.239.699 3.417 1.257v7.585c-.982-.773-1.894-1.354-2.749-1.752-.852-.388-1.631-.585-2.341-.585-.616 0-1.108.163-1.485.492-.374.322-.561.743-.561 1.263 0 .751.706 1.665 2.105 2.759.111.097.184.156.238.198 2.434 1.948 4.013 3.552 4.736 4.815.717 1.257 1.081 2.746 1.081 4.456 0 2.849-.904 5.144-2.707 6.872-1.798 1.727-4.186 2.589-7.166 2.589-1.146 0-2.275-.177-3.383-.54-1.104-.364-2.246-.924-3.42-1.682v-8.067ZM286.791 440.85c1.16.921 2.232 1.627 3.209 2.104.986.486 1.838.725 2.576.725.657 0 1.19-.19 1.613-.582.415-.388.627-.873.627-1.461 0-.696-.71-1.707-2.122-3.046a.577.577 0 0 1-.077-.084c-2.445-2.253-4.016-3.994-4.712-5.237a8.11 8.11 0 0 1-1.039-4.017c0-2.475.839-4.503 2.515-6.096 1.671-1.589 3.825-2.388 6.452-2.388 1.025 0 2.091.141 3.192.422 1.108.281 2.24.699 3.417 1.257v7.585c-.98-.773-1.893-1.354-2.748-1.752-.852-.388-1.632-.585-2.341-.585-.616 0-1.109.163-1.485.492-.373.322-.561.743-.561 1.263 0 .751.706 1.665 2.105 2.759.111.097.187.156.238.198 2.435 1.948 4.013 3.552 4.736 4.815.717 1.257 1.08 2.746 1.08 4.456 0 2.849-.903 5.144-2.707 6.872-1.797 1.727-4.185 2.589-7.165 2.589-1.147 0-2.275-.177-3.383-.54-1.104-.364-2.246-.924-3.42-1.682v-8.067ZM312.893 435.776c0 3.039.197 5.116.599 6.231.405 1.111 1.1 1.672 2.105 1.672.994 0 1.683-.555 2.07-1.651.398-1.102.594-3.186.594-6.252 0-3.068-.196-5.152-.594-6.256-.387-1.109-1.076-1.662-2.07-1.662-1.005 0-1.7.56-2.105 1.682-.402 1.119-.599 3.195-.599 6.236Zm-8.239.197c0-4.83.954-8.573 2.875-11.224 1.912-2.655 4.605-3.981 8.074-3.981 3.465 0 6.141 1.326 8.042 3.967 1.904 2.652 2.857 6.394 2.857 11.238 0 4.829-.953 8.568-2.843 11.203-1.9 2.644-4.584 3.963-8.056 3.963-3.483 0-6.172-1.326-8.087-3.97-1.908-2.649-2.862-6.378-2.862-11.196ZM347.232 428.351v14.837h.363c1.24 0 2.123-.534 2.635-1.606.512-1.067.772-2.984.772-5.764 0-2.856-.26-4.816-.785-5.876-.521-1.059-1.421-1.591-2.704-1.591h-.281Zm-8.157-7.011h6.06c2.945 0 5.191.273 6.729.814 1.544.539 2.922 1.457 4.134 2.752 1.069 1.17 1.876 2.693 2.423 4.562.548 1.867.819 4.04.819 6.506 0 4.829-1.03 8.47-3.1 10.915-2.07 2.454-5.138 3.676-9.209 3.676h-7.856V421.34ZM368.784 435.776c0 3.039.198 5.116.598 6.231.406 1.111 1.102 1.672 2.105 1.672.993 0 1.682-.555 2.071-1.651.397-1.102.595-3.186.595-6.252 0-3.068-.198-5.152-.595-6.256-.389-1.109-1.078-1.662-2.071-1.662-1.003 0-1.699.56-2.105 1.682-.4 1.119-.598 3.195-.598 6.236Zm-8.24.197c0-4.83.956-8.573 2.877-11.224 1.912-2.655 4.604-3.981 8.074-3.981 3.465 0 6.141 1.326 8.042 3.967 1.903 2.652 2.856 6.394 2.856 11.238 0 4.829-.953 8.568-2.842 11.203-1.902 2.644-4.585 3.963-8.056 3.963-3.483 0-6.174-1.326-8.088-3.97-1.907-2.649-2.863-6.378-2.863-11.196ZM393.95 440.85c1.16.921 2.232 1.627 3.209 2.104.987.486 1.838.725 2.576.725.658 0 1.19-.19 1.613-.582.415-.388.626-.873.626-1.461 0-.696-.71-1.707-2.122-3.046-.041-.042-.069-.07-.076-.084-2.444-2.253-4.016-3.994-4.711-5.237a8.1 8.1 0 0 1-1.039-4.017c0-2.475.837-4.503 2.514-6.096 1.671-1.589 3.825-2.388 6.452-2.388 1.026 0 2.091.141 3.193.422 1.108.281 2.24.699 3.417 1.257v7.585c-.98-.773-1.894-1.354-2.75-1.752-.851-.388-1.63-.585-2.34-.585-.616 0-1.108.163-1.484.492-.374.322-.561.743-.561 1.263 0 .751.705 1.665 2.104 2.759.11.097.184.156.239.198 2.434 1.948 4.012 3.552 4.736 4.815.717 1.257 1.08 2.746 1.08 4.456 0 2.849-.904 5.144-2.707 6.872-1.796 1.727-4.186 2.589-7.167 2.589a10.8 10.8 0 0 1-3.382-.54c-1.104-.364-2.246-.924-3.42-1.682v-8.067ZM412.551 440.114v-18.771h8.156v19.549c0 .852.149 1.482.457 1.891.309.404.779.61 1.42.61.65 0 1.128-.206 1.436-.61.308-.409.458-1.039.458-1.891v-19.549h8.198v18.771c0 3.811-.814 6.605-2.431 8.374-1.627 1.769-4.175 2.652-7.661 2.652-3.47 0-6.011-.883-7.623-2.652-1.604-1.769-2.41-4.563-2.41-8.374ZM435.79 450.565v-29.222h8.198v21.965h5.982v7.257h-14.18Z" fill="#0088B7"/><path fill-rule="evenodd" clip-rule="evenodd" d="m147.537 49.12 204.936-.26c6.961-.01 12.663 5.702 12.663 12.664v293.433c0 6.962-5.705 12.657-12.663 12.667l-204.936.26c-6.963.01-12.665-5.698-12.665-12.663V61.783c0-6.965 5.699-12.654 12.665-12.663Z" fill="#FEFEFE"/><path fill-rule="evenodd" clip-rule="evenodd" d="m147.537 49.12 204.936-.26c6.961-.01 12.663 5.702 12.663 12.664v293.433c0 6.962-5.705 12.657-12.663 12.667l-204.936.26c-6.963.01-12.665-5.698-12.665-12.663V61.783c0-6.965 5.699-12.654 12.665-12.663Z" fill="#fff"/><path d="m147.537 49.12 204.936-.26c6.961-.01 12.663 5.702 12.663 12.664v293.433c0 6.962-5.705 12.657-12.663 12.667l-204.936.26c-6.963.01-12.665-5.698-12.665-12.663V61.783c0-6.965 5.699-12.654 12.665-12.663Z" stroke="#0088B7" stroke-width="6.822" stroke-miterlimit="22.926"/><path d="m284.517 355.394-1.956-18.626c-.125-1.436-.249-2.86-.364-4.286a150.707 150.707 0 0 1-.315-4.288 50.662 50.662 0 0 1-.772 4.288 87.852 87.852 0 0 1-1.246 4.834l-5.141 18.078h-9.586l-5.141-18.078a64.912 64.912 0 0 1-1.254-4.834 55.297 55.297 0 0 1-.765-4.288c-.104 1.45-.208 2.887-.325 4.299a744.524 744.524 0 0 1-.353 4.275l-1.956 18.626h-15.8l7.647-47.021h16.631l3.189 11.633c.093.363.249.911.46 1.634 1.346 4.899 2.174 8.935 2.475 12.103h.274a71.197 71.197 0 0 1 1.108-6.359c.487-2.248 1.139-4.768 1.956-7.575l3.341-11.436h16.59l7.107 47.021h-15.804Zm16.714-17.687c2.459 1.609 6.328 2.897 8.253 3.638 1.922.745 3.725 1.122 5.394 1.122 1.177 0 2.101-.208 2.766-.63.679-.415 1.015-.979 1.015-1.7 0-1.25-1.68-2.198-5.048-2.845-1.091-.232-1.939-.399-2.548-.524-3.559-.816-6.283-2.27-8.173-4.35-1.891-2.086-2.837-4.678-2.837-7.783 0-4.823 1.836-8.746 5.501-11.764 3.675-3.023 8.489-4.456 14.437-4.542 3.677-.052 9.223 1.335 11.875 2.301l2.285 14.361c-1.649-1.139-6.575-2.866-8.243-3.472-1.655-.595-3.268-.9-4.837-.9-1.19 0-2.115.19-2.77.563-.657.378-.979.912-.979 1.579 0 1.267 2.381 2.386 7.138 3.338.759.166 1.347.294 1.759.377 3.282.689 5.861 2.112 7.751 4.256 1.89 2.146 2.836 4.738 2.836 7.782 0 4.957-1.901 9.015-5.716 12.161-3.815 3.147-8.772 4.719-14.879 4.719-3.126 0-9.405-.578-12.533-1.416l-2.447-16.271Zm-138.028-4.435v-24.899h16.438v25.017c0 2.911.342 4.917 1.034 6.006.683 1.105 1.857 1.648 3.532 1.648 1.641 0 2.814-.568 3.521-1.69.713-1.135 1.067-3.116 1.067-5.964v-25.017h16.437v24.899c0 3.254-.212 5.941-.641 8.063-.425 2.108-1.108 3.874-2.046 5.297-1.835 2.859-4.335 5.065-7.502 6.584-3.169 1.531-6.782 2.289-10.836 2.289-4.085 0-7.713-.758-10.88-2.289-3.172-1.519-5.665-3.725-7.5-6.584-.916-1.403-1.582-3.147-1.994-5.246-.418-2.086-.63-4.795-.63-8.114Zm45.539 22.157v-47.056h34.817l-2.025 12.762h-14.779v5.463h13.909l-1.914 12.058h-11.995v16.773h-18.013Z" fill="#0088B7"/><path fill-rule="evenodd" clip-rule="evenodd" d="M206.464 74.23h6.767v190.557h-6.767v-4.088l-49.007.19c-4.124 2.381-6.918 5.247-6.939 8.654 0 .065.01.136.014.201l55.932-4.957h6.767l-60.888 8.352c1.122 1.084 2.714 2.102 4.635 3.047l60.664-11.399V74.23h6.768v190.557l-62.273 13.535a85.65 85.65 0 0 0 4.788 1.527l61.895-15.062V74.23h6.768v190.557l-61.338 16.942c2.028.465 4.064.893 6.051 1.281l60.536-18.223V70.863h4.146v193.924l-55.702 19.815c4.465.717 8.032 1.177 9.715 1.389 14.993 1.876 32.417 2.949 51.009 2.949 23.136 0 44.463-1.661 61.545-4.463l.963-.158-54.394-19.532V64.197h4.286v200.59l58.842 17.911c1.845-.38 3.822-.813 5.844-1.301l-60.3-16.61V61.239h3.593v203.548l63.682 14.737a81.41 81.41 0 0 0 4.612-1.538l-63.045-13.199V74.23h6.768v190.557l61.203 11.077c1.815-.935 3.318-1.939 4.349-3.008l-61.166-8.069V74.23h6.768V247.38c21.803 2.323 39.102 6.325 48.998 11.168 5.382 2.635 8.578 5.523 9.107 8.52V272.119h-.007c-.283 12.026-45.684 21.757-101.648 21.757-55.967 0-101.367-9.731-101.65-21.757h-.007V267.067c1.554-9.018 24.462-16.384 58.116-19.805V74.23ZM163.92 257.873l42.544 1.534v-.828l-37.528-2.438a80.076 80.076 0 0 0-5.016 1.732Zm12.985-3.895 29.559 3.759v-.882l-26.274-3.619c-1.063.229-2.16.476-3.285.742Zm10.459-2.136 19.1 4.058v-.828l-16.397-3.687c-.716.117-1.629.27-2.703.457Zm8.54-1.343 10.56 3.589v-4.842c-3.647.363-7.175.782-10.56 1.253Zm153.579 18.951c-.069-3.32-2.541-6.15-6.678-8.561l-49.25-.19v4.088h-.032l55.96 4.663Zm-13.242-11.584a75.97 75.97 0 0 0-5.227-1.725l-37.459 2.432v.83l42.686-1.537Zm-13.585-3.836c-1.132-.25-2.285-.485-3.455-.716l-25.646 3.531v.882l29.101-3.697Zm-10.843-2.026c-.924-.145-1.855-.29-2.79-.428l-15.468 3.478v.827l18.258-3.877Zm-8.59-1.228a352.513 352.513 0 0 0-9.668-1.101v4.389l9.668-3.288Zm-53.849-183.3h4.356v197.311h-4.356V67.477Z" fill="#0088B7"/></svg>