<svg xmlns="http://www.w3.org/2000/svg" width="500" height="500" fill="none"><path fill="#01438F" d="M152.567 298.264c-1.175 1.04-1.425 2.784-.39 3.963 1.039 1.199 2.788 1.158 3.956.126 1.19-1.055 1.418-2.736.372-3.934-1.035-1.173-2.744-1.206-3.938-.155Zm-21.723-37.407-12.985 5.774 2.056 4.667 12.587-5.592c2.325-1.022 4.314-1.354 5.12.482.818 1.844-.755 3.101-3.086 4.141l-12.58 5.582 2.077 4.708 12.985-5.763c4.583-2.046 7.364-5.493 5.128-10.566-2.221-5.048-6.756-5.457-11.302-3.433Zm4.937-12.443-13.284 3.492-.022-.089 12.046-8.454-1.341-5.298-21.856 5.538 1.076 4.277 13.46-3.51.037.085-12.237 8.479 1.37 5.449 21.863-5.526-1.112-4.443Zm-3.765-20.3-22.386 2.707.604 5.117 22.382-2.714-.6-5.11Zm-.582-14.356-22.644-5.453.088 5.552 16.551 2.957v.067l-16.462 3.141.096 5.785 22.467-5.564-.096-6.485Zm2.07-20.178-4.501-.645-.899 6.352-4.826-.693.781-5.497-4.163-.594-.784 5.501-4.376-.634.839-5.969-4.438-.645-1.529 10.817 22.319 3.2 1.577-11.193Zm2.236-8.86-8.62-2.532.424-1.446 9.471-.383 1.503-5.18-10.738.874c-.078-1.56-1.363-3.731-4.583-4.675-4.295-1.261-7.224.545-8.45 4.741l-2.019 6.968 21.638 6.349 1.374-4.716Zm-11.648-4.984-.42 1.441-5.466-1.611.442-1.534c.331-1.142 1.223-2.367 3.414-1.729 1.964.579 2.428 2.05 2.03 3.433Zm1.138-14.172c3.408 1.581 5.648.368 7.762-1.365 1.687-1.371 2.796-2.016 4.13-1.401 1.296.598 1.676 1.833 1.156 2.972-.556 1.18-1.731 2.146-3.054 2.588l2.376 3.982c1.809-.638 3.865-2.293 4.996-4.756 1.539-3.366.703-7.422-3.721-9.457-3.559-1.644-6.163.14-7.953 1.6-1.603 1.272-2.553 1.888-3.82 1.305-1.503-.704-1.658-1.961-1.175-3.004.449-.992 1.366-1.763 2.49-2.083l-2.306-3.986c-1.824.601-3.441 2.065-4.468 4.303-1.367 2.975-.958 7.204 3.587 9.302Zm21.683-7.831-19.358-11.614 2.637-4.409 19.362 11.613-2.641 4.41Zm9.018-13.575c3.96-5.081 2.306-10.117-3.058-14.331-5.463-4.288-10.72-4.712-14.705.387l-3.909 5.007 17.759 13.94 3.913-5.003Zm-14.982-10.246.77-.981c1.514-1.943 4.428-1.839 7.993.948 3.437 2.702 4.251 5.526 2.741 7.469l-.77.988-10.734-8.424Zm25.609-1.902-2.133-3.647 3.702-3.465 3.481 2.381 3.902-3.635-19.362-12.826-4.678 4.372 11.349 20.307 3.739-3.487Zm-9.537-15.282.099-.085 7.854 5.796-2.811 2.632-5.142-8.343Zm26.232 1.541c5.345-3.584 5.345-8.886 1.562-14.578-3.854-5.796-8.698-7.838-14.072-4.244l-5.268 3.536 12.506 18.818 5.272-3.532Zm-9.98-15.142c2.034-1.364 4.778-.354 7.28 3.421 2.427 3.636 2.32 6.592.283 7.96l-1.031.693-7.567-11.377 1.035-.697Zm31.603 3.3-1.934-4.137-5.791 2.743-2.077-4.424 5.01-2.367-1.791-3.82-5.006 2.367-1.893-4.011 5.441-2.58-1.912-4.082-9.847 4.667 9.611 20.466 10.189-4.822Zm15.527-5-2.236-8.712 5.172-1.338-1.098-4.24-5.205 1.353-1.146-4.46 5.666-1.468-1.153-4.487-10.628 2.758 5.629 21.896 4.999-1.302Zm20.371-3.502-.586-4.531-6.343.818-.623-4.855 5.496-.697-.537-4.185-5.493.693-.56-4.394 5.96-.764-.57-4.472-10.794 1.386 2.877 22.428 11.173-1.427Zm20.106-11.216c.154-6.957-2.645-11.429-9.114-11.569L245.43 75l-.486 22.615 6.332.14c6.439.137 9.467-4.206 9.604-11.046Zm-10.385-7.119 1.242.022c2.453.052 4.118 2.456 4.026 6.99-.092 4.38-1.868 6.74-4.314 6.685l-1.245-.026.291-13.67v-.001Zm26.044 16.373-6.306-1.076.817-4.823 5.471.937.711-4.151-5.471-.937.752-4.376 5.934 1.014.752-4.443-10.738-1.836-3.798 22.294 11.114 1.899.762-4.502Zm10.698-1.603 1.433.457.117 9.504 5.121 1.66-.582-10.803c1.554-.033 3.754-1.268 4.778-4.461 1.388-4.288-.332-7.26-4.483-8.601l-6.885-2.227-6.918 21.531 4.667 1.504 2.752-8.564Zm2.858-8.882 1.518.49c1.123.373 2.321 1.298 1.617 3.473-.622 1.962-2.1 2.386-3.459 1.94l-1.426-.461 1.75-5.442Zm10.539 23.721 2.697-3.248 4.498 2.33-1.047 4.078 4.719 2.452 5.456-22.627-5.691-2.934-15.17 17.604 4.538 2.345Zm11.096-14.187.103.07-2.763 9.383-3.422-1.769 6.082-7.684Zm11.368 28.057 2.711-3.856-4.925-3.484 10.259-14.63-4.218-2.986-12.974 18.504 9.147 6.452Zm12.303 11.488c4.402 4.712 9.615 3.838 14.588-.829 5.076-4.76 6.303-9.896 1.875-14.63l-4.34-4.649-16.451 15.459 4.328 4.649Zm12.403-13.269.848.907c1.683 1.803 1.138 4.679-2.166 7.776-3.187 2.994-6.101 3.37-7.788 1.57l-.843-.914 9.949-9.339Zm2.778 32.736 3.75-2.592-3.643-5.283 4.011-2.78 3.15 4.575 3.463-2.404-3.154-4.568 3.64-2.529 3.429 4.974 3.691-2.563-6.196-8.984-18.555 12.856 6.414 9.298Zm7.408 14.419 7.551-3.248.866 2.028c1.311 3.082 4.686 5.312 9.324 3.325 4.943-2.123 5.043-6.201 3.761-9.158l-2.759-6.463-20.725 8.911 1.982 4.605Zm16.768-7.211.641 1.493c.549 1.297.199 2.665-1.636 3.458-1.786.763-3.223.162-3.779-1.132l-.641-1.493 5.415-2.326Zm-9.312 29.557 4.387-1.213-1.702-6.194 4.7-1.305 1.474 5.357 4.045-1.117-1.463-5.368 4.273-1.176 1.588 5.817 4.328-1.198-2.884-10.533-21.738 6.024 2.992 10.906Zm2.328 15.16 4.663-.671-.847-5.984 17.645-2.543-.729-5.133-22.313 3.226 1.581 11.105Zm11.758 2.404c-7.168-.029-12.001 3.27-12.086 8.635-.089 5.357 4.638 8.708 11.806 8.741 7.139.03 11.873-3.274 11.958-8.634.088-5.435-4.542-8.709-11.678-8.742Zm-.199 12.141c-3.927-.026-6.925-1.187-6.885-3.492.034-2.326 3.084-3.428 6.999-3.41 3.92.015 6.863 1.154 6.83 3.473-.051 2.304-3.028 3.444-6.944 3.429Zm5.806 13.811-18.014-2.718-.744 4.97 18.021 2.714-.615 4.103 4.28.649 1.964-13.184-4.281-.634-.611 4.1Zm-20.611 11.215 3.71 2.009-1.389 4.885-4.203-.232-1.462 5.121 23.178.94 1.757-6.175-20.183-11.477-1.408 4.929Zm7.353 3.643 8.683 4.475-.03.126-9.714-.881 1.061-3.72Zm2.645 17.63c-3.43-1.567-5.655-.343-7.776 1.394-1.673 1.371-2.778 2.031-4.108 1.419-1.304-.586-1.69-1.821-1.171-2.968.538-1.18 1.717-2.164 3.043-2.603l-2.384-3.981c-1.808.648-3.86 2.322-4.987 4.792-1.526 3.378-.671 7.422 3.768 9.446 3.558 1.622 6.163-.166 7.935-1.629 1.606-1.283 2.549-1.895 3.823-1.306 1.503.682 1.662 1.947 1.194 2.998-.461.992-1.367 1.77-2.49 2.094l2.32 3.963c1.817-.601 3.43-2.083 4.45-4.313 1.345-2.994.929-7.23-3.617-9.306Zm-31.043 31.099c-1.024 1.19-.814 2.886.391 3.937 1.179 1.021 2.943 1.04 3.963-.151 1.05-1.206.767-2.92-.416-3.956-1.197-1.036-2.899-1.036-3.938.17ZM195.166 329.41c2.195-3.919 1.101-7.178-2.708-9.316l-6.291-3.558-11.037 19.736 4.262 2.407 4.395-7.853 1.311.734-1.761 9.342 4.686 2.644 1.566-10.696c1.536.273 3.949-.501 5.577-3.44Zm-4.524-2.201c-.998 1.777-2.527 1.895-3.779 1.199l-1.301-.73 2.789-4.989 1.392.771c1.017.586 2.012 1.74.899 3.749Zm18.021-.287c-3.069-1.165-7.253-.479-9.021 4.21-1.341 3.521.007 5.693 1.875 7.695 1.473 1.592 2.188 2.65 1.672 4.022-.516 1.349-1.709 1.807-2.877 1.371-1.223-.464-2.266-1.585-2.796-2.875l-3.791 2.647c.756 1.762 2.535 3.709 5.069 4.671 3.445 1.327 7.408.214 9.151-4.361 1.396-3.673-.553-6.154-2.126-7.85-1.363-1.519-2.044-2.429-1.54-3.738.586-1.556 1.842-1.792 2.914-1.39 1.01.391 1.846 1.264 2.233 2.371l3.816-2.574c-.726-1.799-2.284-3.314-4.579-4.199Zm5.061 14.891 5.916 1.548-.961 3.673-5.912-1.549.957-3.672Zm19.605-8-6.693-.952-3.161 22.413 7.412 1.036c3.19.446 6.852-.69 7.529-5.453.446-3.13-1.145-5.103-2.788-5.781l.003-.07c1.658-.505 3.102-1.895 3.474-4.517.682-4.829-3.006-6.286-5.776-6.676Zm.35 15.893c-.25 1.766-1.54 2.493-3.017 2.272l-1.901-.262.767-5.442 1.834.262c1.293.173 2.608 1.176 2.317 3.17Zm.866-9.018c-.251 1.77-1.522 2.308-2.752 2.135l-1.735-.239.685-4.841 1.702.236c1.286.18 2.336.977 2.1 2.709Zm24.474.93c-.066-4.502-2.641-6.755-6.995-6.681l-7.227.114.302 22.615 4.899-.077-.111-9.011 1.492-.033 3.143 8.967 5.381-.089-3.985-10.028c1.451-.538 3.149-2.415 3.101-5.777Zm-7.699 3.329-1.499.022-.077-5.718 1.599-.034c1.171-.014 2.619.465 2.655 2.777.023 2.038-1.237 2.931-2.678 2.953Zm15.94-11.238-1.459 23.216 5.014-.885.202-4.217 4.977-.881 1.628 3.893 5.238-.926-9.301-21.321-6.299 1.121Zm3.621 14.106.21-9.803.125-.015 3.463 9.155-3.798.663Zm21.122-10.762c-2.011-.291-3.109-.556-3.562-1.891-.519-1.574.288-2.562 1.371-2.92 1.031-.358 2.225-.218 3.234.387l1.297-4.424c-1.688-.903-3.865-1.08-6.189-.291-3.105 1.043-5.894 4.247-4.299 8.999 1.197 3.565 3.625 4.38 6.332 4.738 2.148.28 3.378.645 3.846 2.042.461 1.361-.177 2.481-1.348 2.883-1.245.421-2.752.218-3.986-.431l-1.252 4.465c1.705.881 4.324 1.239 6.884.376 3.496-1.184 5.854-4.576 4.303-9.214-1.252-3.727-4.343-4.405-6.631-4.719Zm9.593-14.091 9.456 20.551-4.653 2.145-9.456-20.55 4.653-2.146Zm17.733 10.696-9.062-15.408-4.446 2.648 11.464 19.459 9.622-5.708-2.398-4.077-5.18 3.086Zm33.231-146.987-13.066-.682c.221-1.368.346-2.732.346-4.111 0-2.065-.151-4.144-.442-6.198a41.454 41.454 0 0 0-1.411-6.382l7.408-.903a107.473 107.473 0 0 0-46.009-46.834l-39.331 46.908a37.667 37.667 0 0 0-.443-5.029l-.077-.483-.044-.048c-.107-.623-.251-1.246-.391-1.862l23.665-46.487a106.868 106.868 0 0 0-33.006-5.199 106.755 106.755 0 0 0-33.029 5.214l23.944 47.018a35.69 35.69 0 0 0-2.884 4.907l-37.677-44.928a107.444 107.444 0 0 0-45.984 46.816l28.77 3.535-4.52 13.1-31.407 1.648a107.274 107.274 0 0 0-4.189 29.771c0 12.34 2.078 24.178 5.927 35.213l52.622-36.876-.921 1.221-2.49 3.314h11.28l-15.144 14.139h-9.117l.11 2.164c.089 1.932.284 3.838.542 5.722l-29.249 27.294a109.85 109.85 0 0 0 6.443 10.113 19.138 19.138 0 0 0 10.038 2.857c6.296 0 11.862-3.053 15.372-7.72a19.176 19.176 0 0 0 23.989 5.713 19.18 19.18 0 0 0 6.781-5.687 19.157 19.157 0 0 0 23.985 5.728 19.175 19.175 0 0 0 6.782-5.688 19.198 19.198 0 0 0 15.394 7.75 19.183 19.183 0 0 0 15.405-7.75 19.177 19.177 0 0 0 30.785-.04 19.145 19.145 0 0 0 11.761 7.375c4.704.9 9.574.002 13.649-2.516a103.977 103.977 0 0 0 6.462-10.135l-29.253-27.294c.262-1.884.453-3.786.545-5.722l.115-2.164h-9.11l-15.1-14.091h14.352l46.08 32.293a106.97 106.97 0 0 0 5.934-35.213 107.277 107.277 0 0 0-4.192-29.771Zm-79.786-9.354c-.154 1.527-.261 3.049-.261 4.561 0 .195.015.398.022.593l-7.434-.387v-.037c0-1.253-.077-2.514-.21-3.764l7.883-.966Zm7.103 24.639a53.19 53.19 0 0 0 6.951 7.894 29.862 29.862 0 0 1-8.134-1.397l-11.806-11.006v-4.605l12.989 9.114Zm-42.514-28.385c0-.007.011-.018.011-.018a33.648 33.648 0 0 1 7.043-13.354 3.465 3.465 0 0 0 1.05 4.76 32.915 32.915 0 0 0 3.378-6.703c.107-.291.203-.586.298-.885a32.92 32.92 0 0 0 1.728-8.774 33.213 33.213 0 0 1 6.66 15.167.15.15 0 0 1 .03.048c.3 1.799.453 3.619.456 5.442 0 .634-.033 1.246-.066 1.873a33.945 33.945 0 0 1-.972 6.441 3.414 3.414 0 0 0 3.014.187 3.482 3.482 0 0 0 1.889-1.884c.176-.422.268-.876.269-1.334 0-.066-.019-.121-.019-.188a33.63 33.63 0 0 1-.147 16.075h-6.016a24.617 24.617 0 0 0 2.689-7.385c.092-.553.166-1.058.232-1.541a18.303 18.303 0 0 1-4.534 5.062l-.085.232c-.015-.051-.015-.095-.015-.147a25.359 25.359 0 0 1-.261-3.61c0-1.747.641-5.681.641-5.681.25-1.438.412-2.909.412-4.42 0-4.558-1.253-9.027-3.621-12.919-.298 6.179-3.275 11.971-6.398 15.333a26.611 26.611 0 0 1-1.658-2.743 25.044 25.044 0 0 0-1.654 5.818l-.004.008-.022.195c-.029.144-.059.28-.077.428h.018a24.234 24.234 0 0 0-.25 3.24c0 2.847.493 5.571 1.363 8.119h-5.43a33.423 33.423 0 0 1-1.05-8.34 32.925 32.925 0 0 1 1.098-8.502Zm-2.634 17.764h30.085v4.516h-30.085v-4.516Zm3.341 10.043v-3.842h23.403v3.842H238.07Zm20.71 1.677a231.251 231.251 0 0 0-4.192 30.387h-9.633c-.752-10.202-2.159-20.65-4.203-30.387h18.028Zm-24.383-24.794a37.2 37.2 0 0 0-.21 3.79v.055l-24.021 1.25-2.918-8.428 27.149 3.333Zm-1.757 14.581v4.594l-11.869 11.087a31.95 31.95 0 0 1-3.359-5.011l15.228-10.67Zm-24.253 24.407h-6.288l5.028-6.676-2.505-9.188h-20.039l-2.505 9.188 4.995 6.676h-25.532a33.54 33.54 0 0 0 13.232-15.23l19.826-57.54 19.833 57.551a33.579 33.579 0 0 0 13.224 15.212h-19.273v.007h.004Zm103.973 18.25a62.501 62.501 0 0 1-20.758 43.531 17.045 17.045 0 0 1-9.43-6.331l-1.662-2.204-1.65 2.204a17.018 17.018 0 0 1-13.737 6.924 17.054 17.054 0 0 1-13.747-6.924l-1.647-2.204-1.65 2.204a17.056 17.056 0 0 1-13.718 6.887 16.981 16.981 0 0 1-13.737-6.927l-1.65-2.201-1.654 2.201a17.096 17.096 0 0 1-9.442 6.349 62.665 62.665 0 0 1-20.724-43.509H312.36Zm12.207-23.566c4.089 0 7.998-.771 11.6-2.164h.546v7.528H309.14v-.073c-.048.007-.088.025-.136.04 6.667-4.424 14.521-14.788 16.098-17.582 2.858-5.077 4.542-11.374 4.542-18.191 0-16.875-10.337-30.549-23.094-30.549h-.836c-12.764 0-23.104 13.674-23.104 30.549 0 6.817 1.702 13.11 4.549 18.191 1.57 2.798 9.438 13.154 16.102 17.582-.052-.015-.1-.033-.148-.04v.073h-27.576v-7.528h.556a31.978 31.978 0 0 0 16.028 1.851c-9.493-7.101-17.571-19.069-17.571-29.709 0-2.035.151-4.004.424-5.914 2.353-16.738 14.672-28.543 31.101-28.591h.107c16.426.048 28.751 11.853 31.105 28.591.262 1.91.417 3.879.417 5.914 0 10.64-8.075 22.608-17.557 29.709 1.448.202 2.917.313 4.42.313Zm-39.806-28.816a31.543 31.543 0 0 1-.055-1.656c0-1.935.155-3.83.424-5.659l40.97-5.029a37.165 37.165 0 0 1 1.333 14.582l-42.672-2.238Zm29.308 118.882a18.838 18.838 0 0 1-2.763-2.972 19.18 19.18 0 0 1-23.989 5.733 19.184 19.184 0 0 1-6.788-5.681 19.217 19.217 0 0 1-6.785 5.696 19.188 19.188 0 0 1-24.019-5.696 19.172 19.172 0 0 1-30.766-.052 19.16 19.16 0 0 1-30.766-.033 19.027 19.027 0 0 1-2.771 2.972 106.341 106.341 0 0 0 64.337 21.545 106.46 106.46 0 0 0 64.31-21.512Zm-64.336-1.464 2.523 2.905.015 4.509h-5.01l-.037-4.509 2.509-2.905Zm-4.981 9.107h10.031v2.92h-10.031v-2.92Zm2.509 4.604h5.01v1.081l-1.175 1.076h-2.656l-1.175-1.076-.004-1.081Zm1.171 3.835h2.678v1.253h-2.678v-1.253Z"/><path fill="#01438F" d="M311.306 282.289a19.177 19.177 0 0 1-24.004 5.722 19.137 19.137 0 0 1-6.773-5.685 19.186 19.186 0 0 1-24.02 5.7 19.225 19.225 0 0 1-6.784-5.7 19.124 19.124 0 0 1-15.372 7.72 19.183 19.183 0 0 1-15.394-7.757c-3.514 4.679-9.073 7.72-15.376 7.72-6.303 0-11.895-3.056-15.39-7.757a19.142 19.142 0 0 1-15.373 7.731c-.272 0-.556-.025-.828-.048a106.306 106.306 0 0 0 7.496 7.212 19.316 19.316 0 0 0 8.708-6.526 19.165 19.165 0 0 0 30.77.041 19.16 19.16 0 0 0 30.767.029 19.18 19.18 0 0 0 24.02 5.7 19.194 19.194 0 0 0 6.783-5.7c3.511 4.686 9.077 7.724 15.383 7.724 6.307 0 11.884-3.053 15.402-7.753a19.38 19.38 0 0 0 8.697 6.522 107.924 107.924 0 0 0 7.496-7.215c-.272.014-.548.044-.836.044a19.183 19.183 0 0 1-8.6-2.04 19.199 19.199 0 0 1-6.772-5.684Zm-125.132-87.592h16.86l-8.435-35.412-8.425 35.412Zm12.152-10.718-7.621.399 2.663-11.161 2.468.303 2.49 10.459Z"/><path fill="#01438F" fill-rule="evenodd" d="M150.061 377.854v26.527c0 13.656 7.629 20.619 20.074 20.619 12.453 0 20.332-6.897 20.332-20.957v-26.189h-10.196v26.591c0 7.345-3.787 11.132-10.005 11.132-6.227 0-10.007-3.909-10.007-11.468v-26.255h-10.198Zm80.431 0h-35.317l-.002 46.409h10.212v-17.968h22.116v-9.27h-22.116v-9.881h25.107v-9.29Zm4.711 0h18.941c11.056 0 17.755 6.563 17.755 16.046v.133c0 10.735-8.346 16.319-18.752 16.319h-7.748v13.917h-10.198v-46.415h.002Zm76.383 0h-34.977v46.417h35.304v-9.085h-25.176v-9.747h21.854v-9.089h-21.854v-9.411h24.849v-9.085Zm5.037 0h10.196v37.135h23.12v9.28h-33.32v-46.415h.004Zm-62.25 9.198h-8.978v14.375h8.978a7.187 7.187 0 1 0 0-14.375Z" clip-rule="evenodd"/></svg>
