<svg width="500" height="500" fill="none" xmlns="http://www.w3.org/2000/svg"><path d="M282.292 214.697c-7.407-5.268-14.985-9.886-21.652-16.624-.133-.248-.569-.095-.702-.362-3.096-3.55-6.23-6.89-6.116-12.33a14.518 14.518 0 0 1 2.849-7.634c.508-.672 1.06-1.31 1.652-1.908a16.047 16.047 0 0 1 7.293-4.104 22.133 22.133 0 0 1 7.597-.401c1.274.331 2.486.866 3.59 1.584l.969.878a14.218 14.218 0 0 1 1.899 3.073c.247.725.266 1.412.494 2.157.19.822.19 1.678 0 2.5a112.09 112.09 0 0 1-1.349 11.452 4.012 4.012 0 0 0 2.504 3.934 3.963 3.963 0 0 0 1.617.283c9.098-.133 17.416-1.068 26.4-.744a7.342 7.342 0 0 0 4.585-1.343 7.403 7.403 0 0 0 2.803-3.886c1.28-4.849 2.2-9.787 2.754-14.773.146-1.586.197-3.179.152-4.771 0-.458-.171-.935-.266-1.413l.171-.648a27.18 27.18 0 0 0-4.748-13.895 29.77 29.77 0 0 0-4.274-4.39c-8.945-7.863-20.492-9.123-32.04-9.542a99.15 99.15 0 0 0-11.642.744c-2.849.363-5.698.744-8.414 1.374-1.899.554-3.57.916-5.489 1.47-1.918.553-4.121 1.507-6.324 2.462a74.39 74.39 0 0 0-5.166 2.691l-1.443 1.088c-.247.171-.38 0-.627.114a59.448 59.448 0 0 0-7.597 6.318l-1.595 1.755a3.318 3.318 0 0 1-.836.993c-.228.172-.342.611-.627 1.011-.285.401-.247.191-.494.363s-.342.63-.645 1.031c-.304.401-.418.152-.475.362a64.174 64.174 0 0 0-11.282 41.226c.153 1.788.523 3.55 1.102 5.248a32.111 32.111 0 0 0 1.063 3.111c4.881 11.642 14.511 17.559 23.475 23.819 5.698 4.046 11.813 7.463 17.264 11.91.323.286.57.801.912 1.088 5.432 4.447 9.819 11.661 8.185 20.04-.246 1.087-.645 1.908-.911 3.015a6.285 6.285 0 0 1-1.33 2.252 16.1 16.1 0 0 1-4.196 4.83 16.024 16.024 0 0 1-5.737 2.805c-1.912.58-3.911.826-5.906.725a5.664 5.664 0 0 1-1.9-.363 5.383 5.383 0 0 1-1.899-.343c-.626-.592-1.443-.516-2.051-1.298-.266-.516-.836-.611-1.101-1.126a11.487 11.487 0 0 1-1.729-5.115c-.171-5.058 1.026-10.078 1.102-15.269a3.84 3.84 0 0 0-.505-2.265 3.804 3.804 0 0 0-1.717-1.552 21.158 21.158 0 0 0-6.306 0c-8.546 1.126-16.656 1.202-25.165 2.099a9.179 9.179 0 0 0-4.016 3.068 9.234 9.234 0 0 0-1.795 4.739c0 1.126-.285 1.908-.361 3.13a82.334 82.334 0 0 0-1.9 15.612 26.648 26.648 0 0 0 1.482 7.806c0 .477.304 1.183.513 1.908.147.047.269.15.342.287a17.654 17.654 0 0 0 4.368 7.214v.458a20.09 20.09 0 0 0 4.862 4.352c.703.362 1.348.935 2.07 1.297.511.149.988.395 1.405.726l.551.114c13.504 6.337 28.356 5.192 42.942 2.042a72.356 72.356 0 0 0 9.8-2.939 77.532 77.532 0 0 0 9.496-4.37 10.673 10.673 0 0 1 2.07-1.203c13.105-7.806 24.254-20.536 27.008-36.912l.683-5.344c0-1.126 0-2.042.171-3.149a41.694 41.694 0 0 0-.152-7.634c-.246-1.412-.436-3.054-.683-4.466a67.51 67.51 0 0 0-2.127-6.795 38.99 38.99 0 0 0-4.976-8.016c-5.546-6.451-11.89-10.382-17.929-15.631ZM419.853 144.061c-19.41-2.253-39.276-.611-59.237-.897l-2.051-.21c-1.9 0-3.609 0-5.508.114a118.856 118.856 0 0 0-15.631.172 4.262 4.262 0 0 0-2.697 1.069 18.71 18.71 0 0 0-2.07 2.252 8.165 8.165 0 0 0-1.007 2.157c-3.114 17.711-5.394 35.499-7.255 53.325 0 1.126-.133 2.023-.114 3.149-1.899 19.41-3.798 38.382-5.697 57.773-.342 2.004-.437 3.817-.798 5.726 0 1.126-.19 2.233-.171 3.359-.798 9.39-2.602 18.436-3.191 27.846a4.315 4.315 0 0 0 1.207 3.653 4.265 4.265 0 0 0 3.636 1.214c9.857-1.012 18.993-1.623 28.793-1.909a7.875 7.875 0 0 0 4.837-1.913 7.943 7.943 0 0 0 2.608-4.519c3.285-18.818 5.166-38 7.844-56.875a7.213 7.213 0 0 1 2.132-3.338 7.16 7.16 0 0 1 3.565-1.701c10.332 0 20.531.573 30.787.954a7.253 7.253 0 0 0 3.362-1.221c.721-.382 1.044-1.031 1.519-1.413a8.116 8.116 0 0 0 1.349-2.805c1.082-6.184 2.146-12.387 2.829-18.628a14.057 14.057 0 0 0-.36-2.748 10.767 10.767 0 0 0-2.09-2.462 3.425 3.425 0 0 0-1.367-.592c-10.769-1.126-21.974-.935-32.781-1.622a5.334 5.334 0 0 1-2.946-2.094 5.377 5.377 0 0 1-.947-3.498 331.632 331.632 0 0 1 2.829-19.754 6.836 6.836 0 0 1 1.9-3.187 14.582 14.582 0 0 1 3.057-1.909 3.673 3.673 0 0 1 2.128 0c12.592.191 24.842-1.355 37.415-.935 2.488.248 4.767-1.909 5.697-4.6 1.235-4.6 1.672-9.543 2.906-14.123.43-1.671.653-3.389.665-5.115-.114-.458-.247-.916-.38-1.394a7.86 7.86 0 0 0-2.089-2.462 5.35 5.35 0 0 0-2.678-.839Z" fill="#006B2D"/><path d="M78.388 328.772s64.043-14.295 176.63-19.085c116.841-4.982 146.469 3.817 146.469 3.817a8.421 8.421 0 0 1 3.096 1.527c1.329 1.393 5.204 5.954 1.424 11.318a8.5 8.5 0 0 1-3.161 2.48 8.452 8.452 0 0 1-3.942.745c-2.773-.229-127.933-9.753-193.609-7.462-76.159 2.672-118.645 11.756-125.35 12.043-3.038.038-8.546-2.672-1.557-5.383Z" fill="#006B2D"/><path fill-rule="evenodd" clip-rule="evenodd" d="M300.049 350.95h.475l-.057-.038a3.027 3.027 0 0 0 2.26-.802 3.275 3.275 0 0 0 .779-2.385 4.845 4.845 0 0 0-.209-1.565 1.767 1.767 0 0 0-.608-.878 2.216 2.216 0 0 0-1.063-.401 12.573 12.573 0 0 0-1.577 0v6.069Zm3.529.404a4.84 4.84 0 0 0 2.492-1.435 3.835 3.835 0 0 0 .874-2.653 3.553 3.553 0 0 0-.38-1.736 3.232 3.232 0 0 0-1.672-1.565 3.374 3.374 0 0 0-.74-.229l-1.045-.134h-6.514c0 .954 0 1.909.114 2.882.074.636.051 1.32.026 2.064-.013.395-.026.807-.026 1.238v6.317c0 .954 0 1.909-.114 2.825h3.627c0-.916 0-1.909-.133-2.825-.087-.599-.06-1.296-.031-2.049.015-.398.031-.811.031-1.234v-.916h.19l3.989 7.024h4.007l-2.431-3.817a64.964 64.964 0 0 1-2.264-3.757Zm-10.784-7.618.114-.344h1.709a4.298 4.298 0 0 0 0 .935 4.654 4.654 0 0 0 0 .554v.458h-5.014c-.113.801-.113 1.622-.113 2.424v2.443h2.62l2.431-.115v.573a3.572 3.572 0 0 0 0 .439c-.017.12-.017.242 0 .362v.554c-1.69-.191-3.38-.191-5.051-.191v1.126c0 .43-.016.852-.032 1.256-.029.76-.055 1.46.032 2.046.132.897.132 1.889.132 2.805h-3.551c.152-.916.152-1.87.152-2.824v-6.318c0-.43.004-.842.009-1.237.008-.744.016-1.429-.009-2.064a37.487 37.487 0 0 0-.071-1.173 23.944 23.944 0 0 1-.081-1.709h6.723Zm-17.131 12.501a6.586 6.586 0 0 0 1.083-2.195l-.057.019c.3-1.035.441-2.11.417-3.187a9.117 9.117 0 0 0-.36-2.596 5.866 5.866 0 0 0-.988-1.909 4.224 4.224 0 0 0-1.538-1.24 4.546 4.546 0 0 0-1.9-.439 3.784 3.784 0 0 0-2.032.553 4.727 4.727 0 0 0-1.519 1.489 6.801 6.801 0 0 0-.95 2.195c-.217.88-.325 1.784-.323 2.691a10.595 10.595 0 0 0 .38 3.016 5.33 5.33 0 0 0 1.026 1.908c.404.473.911.845 1.481 1.088a4.721 4.721 0 0 0 1.785.325 4.473 4.473 0 0 0 1.9-.42 4.298 4.298 0 0 0 1.595-1.298Zm.019-12.387a7.594 7.594 0 0 1 2.678 1.47l-.038-.077a6.897 6.897 0 0 1 1.785 2.501 8.695 8.695 0 0 1 .665 3.511 7.655 7.655 0 0 1-.646 3.13 8.066 8.066 0 0 1-1.633 2.615 8.4 8.4 0 0 1-2.678 1.68 9.445 9.445 0 0 1-3.438.591 12.45 12.45 0 0 1-3.304-.419 7.22 7.22 0 0 1-2.678-1.413 6.953 6.953 0 0 1-1.899-2.481 8.967 8.967 0 0 1-.665-3.607 7.769 7.769 0 0 1 .627-3.111 7.633 7.633 0 0 1 1.709-2.539 7.994 7.994 0 0 1 2.697-1.717 9.46 9.46 0 0 1 3.513-.63 10.893 10.893 0 0 1 3.305.496Zm-21.69 9.314c.323-.897.646-1.794.988-2.653.342-.859.703-1.756 1.082-2.653.001 0 0 0 0 0a94.338 94.338 0 0 1 1.388 3.652c.197.547.394 1.097.607 1.654h-4.065Zm8.528 2.653a158.017 158.017 0 0 1-1.614-3.97l-1.633-4.237c-.532-1.45-1.045-2.806-1.52-4.065h-1.69l-1.064 2.748c-.202.544-.4 1.018-.601 1.498-.194.465-.39.935-.595 1.479a52.226 52.226 0 0 1-.762 1.878c-.16.378-.318.752-.473 1.138-.399.993-.778 1.909-1.139 2.767-.165.393-.326.769-.479 1.128-.183.426-.354.828-.509 1.201a47.337 47.337 0 0 1-.599 1.374l-.104.229h2.166c.189-.725.436-1.489.683-2.233.247-.744.532-1.508.817-2.271h5.242l.116.312c.246.655.487 1.3.701 1.959.08.25.161.497.241.743.165.505.327 1.002.48 1.49h3.742c-.4-.821-.834-1.834-1.336-3.006l-.07-.162Zm51.432-4.304c-.204.548-.41 1.099-.608 1.651h4.064l-.968-2.672a127.55 127.55 0 0 1-.183-.486 94.351 94.351 0 0 0-.824-2.148c-.113.267-.227.53-.341.791a34.462 34.462 0 0 0-.76 1.843l-.38 1.021Zm4.691-3.903a179.835 179.835 0 0 0 1.633 4.256 810.523 810.523 0 0 0 1.596 3.951c.512 1.26.987 2.309 1.424 3.168h-3.856c-.227-.725-.474-1.489-.721-2.233a65.355 65.355 0 0 0-.798-2.271h-5.166a64.11 64.11 0 0 0-.816 2.271c-.241.764-.469 1.508-.684 2.233h-2.165c.19-.382.436-.916.721-1.603.095-.229.197-.467.302-.714.211-.495.439-1.029.667-1.615l1.159-2.767 1.215-2.996c.319-.871.638-1.643.957-2.415l.24-.582c.405-.98.766-1.896 1.082-2.748h1.69l.152.403c.432 1.144.892 2.365 1.368 3.662Zm18.422-3.092a5.133 5.133 0 0 0 0-.859l-.019-.019a5.33 5.33 0 0 0 2.014 0c-.029.507-.047.996-.064 1.466-.028.785-.055 1.518-.126 2.199-.114 1.088-.114 2.137-.114 3.092v8.55h-1.767a317.329 317.329 0 0 0-9.724-10.783v10.783h-2.051c.041-.049.036-.153.03-.313a3.736 3.736 0 0 1 .065-.966c.079-.386.081-.803.083-1.261.003-.425.005-.886.069-1.392.133-1.049.133-2.175.133-3.416v-8.035a5.365 5.365 0 0 0 2.013 0l4.596 5.363 4.862 5.306v-9.715Zm64.499 11.719a6.583 6.583 0 0 0 1.082-2.195l-.057.019c.3-1.035.441-2.11.418-3.187a8.48 8.48 0 0 0-.361-2.596 5.864 5.864 0 0 0-.987-1.909 4.227 4.227 0 0 0-1.539-1.24 4.541 4.541 0 0 0-1.899-.439 3.917 3.917 0 0 0-2.032.553 4.73 4.73 0 0 0-1.52 1.489 6.799 6.799 0 0 0-.949 2.195c-.217.88-.326 1.784-.323 2.691a10.595 10.595 0 0 0 .38 3.016c.208.7.557 1.349 1.025 1.908.404.473.911.845 1.482 1.088a4.718 4.718 0 0 0 1.785.325 4.469 4.469 0 0 0 1.899-.42 4.301 4.301 0 0 0 1.596-1.298Zm2.697-10.917a6.885 6.885 0 0 1 1.785 2.5h.076a8.713 8.713 0 0 1 .665 3.512 7.695 7.695 0 0 1-.646 3.13 8.071 8.071 0 0 1-1.748 2.538 8.396 8.396 0 0 1-2.677 1.68 9.449 9.449 0 0 1-3.438.591 12.237 12.237 0 0 1-3.286-.419 7.154 7.154 0 0 1-2.697-1.413 6.964 6.964 0 0 1-1.899-2.481 9 9 0 0 1-.665-3.607 7.786 7.786 0 0 1 .627-3.111 7.648 7.648 0 0 1 1.709-2.539 8.196 8.196 0 0 1 2.697-1.717 9.464 9.464 0 0 1 3.514-.63c1.12-.007 2.235.16 3.305.496a7.594 7.594 0 0 1 2.678 1.47Zm-22.317-.172c-.626.283-1.184.7-1.633 1.221l.057.191a6.275 6.275 0 0 0-1.196 2.119c-.326.99-.48 2.03-.456 3.073a7.81 7.81 0 0 0 .475 2.92 5.476 5.476 0 0 0 1.215 1.908 4.875 4.875 0 0 0 1.671 1.126 5.653 5.653 0 0 0 1.9.344 5.47 5.47 0 0 0 1.082-.115 5.876 5.876 0 0 0 1.083-.343 4.551 4.551 0 0 0 1.006-.515c.306-.194.587-.424.836-.688l.285.172c-.114.306-.209.63-.304.955a4.056 4.056 0 0 0-.171.935 9.793 9.793 0 0 1-4.539.916 10.26 10.26 0 0 1-3.457-.535 7.211 7.211 0 0 1-2.564-1.545 6.43 6.43 0 0 1-1.614-2.348 7.669 7.669 0 0 1-.57-2.958 9.695 9.695 0 0 1 .722-3.932 7.31 7.31 0 0 1 1.899-2.634 7.57 7.57 0 0 1 2.811-1.488 12.102 12.102 0 0 1 3.362-.478c.404-.026.81-.026 1.215 0 .416.053.828.13 1.235.229.393.089.78.204 1.158.344.318.116.623.263.912.439v.001c-.133.362-.266.724-.342 1.106l-.033.164c-.068.331-.138.673-.138 1h-.304a5.253 5.253 0 0 0-1.728-1.527 4.51 4.51 0 0 0-2.089-.458 4.343 4.343 0 0 0-1.786.401Zm-12.288 4.619c.578.264 1.126.59 1.634.973h.095c.494.382.918.847 1.253 1.374.362.638.534 1.367.494 2.1.01.703-.132 1.4-.418 2.042a4.667 4.667 0 0 1-1.196 1.584 5.267 5.267 0 0 1-1.9.992 7.881 7.881 0 0 1-2.412.344 8.174 8.174 0 0 1-2.146-.248 4.167 4.167 0 0 1-1.424-.63c.058-.235.12-.455.18-.666.075-.268.146-.52.2-.765.026-.122.058-.244.091-.369.085-.328.175-.671.175-1.044h.417c.125.655.458 1.251.95 1.699.271.229.58.41.912.534.394.12.804.178 1.215.172a2.522 2.522 0 0 0 1.899-.668 2.187 2.187 0 0 0 .646-1.603 1.905 1.905 0 0 0-.494-1.374 4.747 4.747 0 0 0-1.215-.955 14.097 14.097 0 0 0-1.615-.801 8.046 8.046 0 0 1-1.614-.954 4.705 4.705 0 0 1-1.215-1.375 4.001 4.001 0 0 1-.494-2.08 4.674 4.674 0 0 1 .418-2.061 4.35 4.35 0 0 1 1.101-1.489 4.82 4.82 0 0 1 1.577-.916 5.66 5.66 0 0 1 1.899-.324 6.387 6.387 0 0 1 2.108.305 4.524 4.524 0 0 1 1.538.801c-.034.085-.074.17-.114.256-.113.245-.228.492-.228.718l-.36 1.221h-.342a2.655 2.655 0 0 0-1.008-1.423 2.624 2.624 0 0 0-1.67-.485 2.372 2.372 0 0 0-1.672.591 1.906 1.906 0 0 0-.645 1.413c-.018.499.159.986.494 1.355.377.376.806.697 1.272.954.494.267 1.045.554 1.614.802Zm-21.784-4.714a4.886 4.886 0 0 0-1.633 1.221l.038.191a5.972 5.972 0 0 0-1.178 2.118 9.209 9.209 0 0 0-.456 3.073 8.28 8.28 0 0 0 .456 2.92 6.06 6.06 0 0 0 1.216 1.909 4.95 4.95 0 0 0 1.69 1.126 5.476 5.476 0 0 0 1.899.344c.364-.002.727-.04 1.083-.115a7.227 7.227 0 0 0 2.108-.859c.296-.198.57-.429.817-.687l.304.172c-.128.311-.236.63-.323.954a5.305 5.305 0 0 0-.171.935 9.715 9.715 0 0 1-4.539.916 10.255 10.255 0 0 1-3.457-.534 7.205 7.205 0 0 1-2.564-1.546 6.902 6.902 0 0 1-1.614-2.347 7.964 7.964 0 0 1-.551-2.959 9.358 9.358 0 0 1 .722-3.931 6.88 6.88 0 0 1 1.899-2.634 7.295 7.295 0 0 1 2.792-1.489 12.327 12.327 0 0 1 3.361-.477 9.138 9.138 0 0 1 1.216 0c.421.054.84.131 1.253.229.387.092.767.206 1.14.344.322.119.633.266.931.438a7.65 7.65 0 0 0-.513 2.272h-.323a5.252 5.252 0 0 0-1.728-1.527 4.49 4.49 0 0 0-2.09-.458 4.374 4.374 0 0 0-1.785.401Zm13.105-1.489c-.114.973-.114 1.928-.114 2.882v6.336c0 .423-.002.836-.005 1.234-.004.752-.008 1.45.005 2.049.008.404.031.824.055 1.245.029.533.059 1.068.059 1.58h-3.647c.152-.916.152-1.871.152-2.825v-6.317c0-.431.005-.843.009-1.238.008-.744.016-1.429-.009-2.064a34.67 34.67 0 0 0-.071-1.173c-.04-.572-.081-1.141-.081-1.709h3.647Zm-115.056 6.203a8.75 8.75 0 0 1 1.633.973c.494.382.918.847 1.254 1.374.35.643.52 1.368.494 2.1.01.703-.133 1.4-.418 2.042a4.657 4.657 0 0 1-1.197 1.584 5.424 5.424 0 0 1-1.899.992 7.886 7.886 0 0 1-2.412.344 8.169 8.169 0 0 1-2.146-.248 4.475 4.475 0 0 1-1.444-.63c.048-.168.103-.33.157-.487.116-.341.223-.656.223-.944.123-.464.212-.936.266-1.413h.513a3.4 3.4 0 0 0 .323.935c.171.284.382.541.627.764.265.237.575.419.911.534.388.119.791.177 1.197.172a2.547 2.547 0 0 0 1.899-.668 2.262 2.262 0 0 0 .646-1.603 1.924 1.924 0 0 0-.494-1.374 4.557 4.557 0 0 0-1.235-.955 15.532 15.532 0 0 0-1.595-.801 8.046 8.046 0 0 1-1.614-.954 4.464 4.464 0 0 1-1.216-1.375 3.835 3.835 0 0 1-.494-2.08 4.702 4.702 0 0 1 .418-2.061 4.307 4.307 0 0 1 1.083-1.489 5.118 5.118 0 0 1 1.595-.916 5.665 5.665 0 0 1 1.899-.324 6.45 6.45 0 0 1 2.109.305 4.922 4.922 0 0 1 1.538.801 9.913 9.913 0 0 0-.342.974c-.031.107-.067.223-.105.348-.078.252-.167.541-.256.873h-.304a2.645 2.645 0 0 0-2.678-1.908 2.368 2.368 0 0 0-1.671.591c-.2.177-.361.394-.472.638a1.902 1.902 0 0 0-.174.775c-.018.499.159.986.494 1.355.375.372.796.692 1.254.954.512.267 1.063.554 1.633.802Zm9.04-8.57a1.098 1.098 0 0 0-.664.191h-.076a1.776 1.776 0 0 0-.513.821h-.969c.057-.359.153-.711.285-1.05.125-.317.298-.613.513-.878a2.258 2.258 0 0 1 1.899-.859c.323-.006.645.045.95.153l.854.343c.091.043.179.095.267.146.187.11.369.217.55.217.233.105.486.157.741.153.23.01.457-.058.646-.191.245-.222.428-.505.531-.821h.95a6.029 6.029 0 0 1-.266 1.05 3.444 3.444 0 0 1-.513.897c-.22.25-.484.457-.778.611a2.375 2.375 0 0 1-1.064.229 2.571 2.571 0 0 1-.931-.153 8.275 8.275 0 0 1-.873-.343l-.798-.363a1.905 1.905 0 0 0-.741-.153Zm-150.115 2.399-.001-.013-.171-.019c.058.012.115.022.172.032Zm-.001.865a5.55 5.55 0 0 0 .001-.865c.276.048.555.076.835.082.332-.009.662-.048.988-.114a89.739 89.739 0 0 1-.171 3.664 44.768 44.768 0 0 0-.114 3.092v8.589h-1.785a281.783 281.783 0 0 0-9.687-10.765v10.765h-2.07c.054-.054.053-.169.05-.355a4.556 4.556 0 0 1 .064-.905c.067-.382.067-.787.067-1.229 0-.441 0-.918.066-1.443.133-1.05.133-2.157.133-3.397v-8.035c.325.067.656.105.988.114a5.975 5.975 0 0 0 1.006-.114l4.767 5.306a567.498 567.498 0 0 0 4.862 5.305v-9.695Zm57.452 5.325a8.663 8.663 0 0 1 1.615.973h.152a4.78 4.78 0 0 1 1.253 1.374c.365.63.543 1.352.513 2.081a4.793 4.793 0 0 1-.437 2.042 4.223 4.223 0 0 1-1.196 1.584 5.37 5.37 0 0 1-1.9.992 7.357 7.357 0 0 1-2.412.344 8.174 8.174 0 0 1-2.146-.248 4.167 4.167 0 0 1-1.424-.63c.152-.515.285-1.011.38-1.431.024-.108.054-.22.084-.335.087-.332.182-.69.182-1.059h.417c.111.655.447 1.25.95 1.68.266.237.576.419.912.534.386.125.79.19 1.196.191a2.584 2.584 0 0 0 1.899-.668 2.222 2.222 0 0 0 .646-1.603 2.007 2.007 0 0 0-.494-1.393 4.662 4.662 0 0 0-1.215-.935 20.43 20.43 0 0 0-1.596-.821 7.972 7.972 0 0 1-1.614-.935 5.236 5.236 0 0 1-1.215-1.375 4.052 4.052 0 0 1-.494-2.08 4.97 4.97 0 0 1 .418-2.061 4.35 4.35 0 0 1 1.101-1.489 4.82 4.82 0 0 1 1.577-.916 5.676 5.676 0 0 1 1.899-.305 6.81 6.81 0 0 1 2.089.286c.563.17 1.091.441 1.557.802-.133.343-.247.668-.342.992a27.15 27.15 0 0 1-.189.612l-.19.609h-.361a2.659 2.659 0 0 0-1.008-1.423 2.624 2.624 0 0 0-1.67-.485 2.364 2.364 0 0 0-1.671.592 1.917 1.917 0 0 0-.646 1.412c-.013.493.163.971.494 1.336a5.99 5.99 0 0 0 1.253.954c.529.298 1.075.565 1.633.802Zm9.706-6.203c-.133.973-.133 1.928-.133 2.882h-.095v6.317c0 .431-.016.852-.032 1.256-.029.76-.055 1.46.032 2.046.133.897.133 1.89.133 2.806h-3.533c.133-.897.133-1.833.133-2.806v-6.336c0-.423.016-.829.031-1.22.029-.741.056-1.426-.031-2.063-.133-.973-.133-1.909-.133-2.882h3.628Zm-45.392 5.497a162.997 162.997 0 0 0 1.899-5.497l.038.134c.325.07.655.108.988.114.325-.005.65-.043.968-.114l-1.329 3.168c-.513 1.126-1.045 2.424-1.615 3.817a220.628 220.628 0 0 0-1.671 4.218 141.138 141.138 0 0 0-1.462 4.008h-1.957a58.348 58.348 0 0 0-.377-1.024 76.699 76.699 0 0 1-.42-1.133l-1.026-2.691a67.832 67.832 0 0 0-1.139-2.92 152.58 152.58 0 0 1-1.159-2.882c-.209-.541-.418-1.056-.619-1.554a131.29 131.29 0 0 1-.426-1.061l-.835-2.042h3.95c.247.84.551 1.737.855 2.634.162.478.335.962.513 1.46.155.436.315.882.474 1.346.342.992.684 1.965 1.045 2.901.361.935.722 1.908 1.064 2.843.759-1.908 1.519-3.817 2.241-5.725Zm-12.516-5.497c-.133.973-.133 1.928-.133 2.882v6.317c0 .431-.016.852-.032 1.256-.028.76-.055 1.46.032 2.046.133.897.133 1.89.133 2.806h-3.647c.152-.897.152-1.833.152-2.806v-6.336c0-.423.005-.829.009-1.22.008-.741.016-1.426-.009-2.063-.015-.392-.043-.778-.07-1.163-.041-.57-.082-1.138-.082-1.719h3.647Zm33.483 7.367-.057-.057a2.956 2.956 0 0 0 2.241-.783 3.218 3.218 0 0 0 .779-2.405 4.859 4.859 0 0 0-.19-1.545 1.911 1.911 0 0 0-.608-.898 2.51 2.51 0 0 0-1.082-.381 11.896 11.896 0 0 0-1.557 0v6.069h.474Zm5.527-1.012a4.832 4.832 0 0 1-2.545 1.451l-.209-.095c.544 1.004 1.122 1.94 1.734 2.931.179.289.361.584.545.886a112.884 112.884 0 0 0 2.45 3.817h-3.931l-3.97-7.024h-.075v.916c0 .432-.005.849-.009 1.249-.009.749-.016 1.437.009 2.034.013.336.035.682.057 1.031.037.603.075 1.214.075 1.794h-3.608c.152-.897.152-1.832.152-2.805v-6.337c0-.423.004-.829.009-1.22.008-.74.016-1.426-.009-2.063a33.767 33.767 0 0 0-.071-1.163c-.04-.57-.081-1.138-.081-1.719h6.533c.175.017.339.045.492.07.196.034.374.064.534.064.265.042.521.125.76.248.212.095.416.21.607.343.441.315.805.726 1.064 1.203.261.541.391 1.136.38 1.737a3.926 3.926 0 0 1-.893 2.652Zm-64.574-6.183-.342-.038h1.102v8.359a7.66 7.66 0 0 1-1.672 5.554 6.516 6.516 0 0 1-4.862 1.68c-.894.006-1.786-.09-2.659-.287a5.69 5.69 0 0 1-2.146-1.011 4.747 4.747 0 0 1-1.424-1.794 6.424 6.424 0 0 1-.513-2.691v-9.81h3.647c-.152 1.45-.266 2.729-.266 4.027v3.817a15.353 15.353 0 0 0 .284 3.283c.141.691.433 1.343.855 1.908.354.441.84.756 1.387.897.62.16 1.258.237 1.899.229.754.038 1.495-.2 2.089-.668a4.335 4.335 0 0 0 1.14-1.775c.268-.828.428-1.688.474-2.557v-2.997c0-.345.015-.685.03-1.025.03-.674.059-1.343-.03-2.028-.133-1.031-.133-2.043-.133-3.073h1.14Zm141.892 0 .209-.42h1.728a4.06 4.06 0 0 0 0 .935 4.654 4.654 0 0 0 0 .554v.458h-5.014c-.114.82-.114 1.641-.114 2.443v2.423h2.621l2.431-.114v.592c-.01.139-.01.28 0 .419a1.358 1.358 0 0 0 0 .382v.535c-1.69-.191-3.38-.191-5.052-.191v5.63c.278 0 .558.004.839.008.563.009 1.13.018 1.687-.008.369-.017.74-.063 1.114-.11.475-.059.953-.119 1.431-.119v.439a4.979 4.979 0 0 0 0 .573 4.638 4.638 0 0 0 0 .553 1.255 1.255 0 0 0 0 .324h-8.584c.133-.897.133-1.832.133-2.805v-6.337c0-.422.002-.828.004-1.22.004-.74.008-1.426-.004-2.062a28.25 28.25 0 0 0-.066-1.314c-.033-.52-.067-1.038-.067-1.568h6.704Zm-16.31 13.625a5.007 5.007 0 0 0 1.8-1.315v.229a7.868 7.868 0 0 0 1.462-5.191 7.668 7.668 0 0 0-.36-2.481 5.344 5.344 0 0 0-1.045-1.909 4.271 4.271 0 0 0-1.595-1.183 4.993 4.993 0 0 0-2.09-.42h-2.317v12.673h1.957a4.996 4.996 0 0 0 2.188-.403Zm1.705-13.358a7.292 7.292 0 0 1 2.678 1.164 5.428 5.428 0 0 1 1.766 2.233 8.507 8.507 0 0 1 .627 3.493 8.606 8.606 0 0 1-.627 3.359 7.504 7.504 0 0 1-1.652 2.538 7.072 7.072 0 0 1-2.45 1.623 8.1 8.1 0 0 1-2.963.553h-6.704c.133-.897.133-1.832.133-2.805v-6.337c0-.422.002-.829.004-1.22.004-.74.008-1.426-.004-2.063a28.32 28.32 0 0 0-.066-1.314c-.033-.519-.067-1.038-.067-1.568h5.849a16.428 16.428 0 0 1 3.476.344Zm-32.536 13.361a4.928 4.928 0 0 0 1.787-1.318v.191a9.286 9.286 0 0 0 1.102-7.634 5.615 5.615 0 0 0-1.026-1.909 4.42 4.42 0 0 0-1.595-1.183 4.989 4.989 0 0 0-2.089-.42h-2.317v12.673h1.956a4.911 4.911 0 0 0 2.182-.4Zm1.692-13.361a7.37 7.37 0 0 1 2.697 1.164 5.438 5.438 0 0 1 1.767 2.233 8.868 8.868 0 0 1 .607 3.493 8.969 8.969 0 0 1-.607 3.359 7.634 7.634 0 0 1-1.672 2.538 6.978 6.978 0 0 1-2.431 1.623 8.092 8.092 0 0 1-2.963.553h-6.704c.133-.897.133-1.832.133-2.805v-6.337c0-.422.005-.829.009-1.22.008-.74.016-1.426-.009-2.063-.014-.368-.037-.732-.059-1.093-.037-.594-.074-1.184-.074-1.789h5.831c1.167-.01 2.332.105 3.475.344Zm10.484 6.489a83.407 83.407 0 0 0-1.006 2.653h4.064c-.132-.365-.266-.727-.4-1.088-.195-.524-.389-1.045-.569-1.565a57.637 57.637 0 0 0-1.006-2.653c-.38.897-.741 1.794-1.083 2.653Zm4.292-2.901a179.818 179.818 0 0 0 1.634 4.256l-.057-.095c.469 1.188.925 2.306 1.367 3.39l.228.56c.513 1.26.988 2.31 1.425 3.169h-3.856c-.247-.726-.494-1.47-.741-2.233a52.515 52.515 0 0 0-.797-2.272h-5.147c-.304.764-.57 1.508-.817 2.272l-.121.372c-.205.634-.407 1.254-.582 1.861h-2.146l.722-1.603 1.045-2.214 1.139-2.787c.218-.594.435-1.108.656-1.629.184-.434.37-.873.56-1.367.417-1.088.797-2.024 1.196-2.997.399-.973.76-1.889 1.083-2.729h1.69l1.519 4.046Zm-60.528-3.855-.038-.096c.854-.019 1.424-.038 2.07-.324-.068.307-.1.621-.095.935a4.654 4.654 0 0 0 0 .554v.458h-5.014c-.114.82-.114 1.641-.114 2.443v2.423h2.621l2.412-.114v.592c-.01.139-.01.28 0 .419a2.706 2.706 0 0 0 0 .382c.017.178.017.357 0 .535-1.671-.191-3.362-.191-5.033-.191v5.63h2.526c.368-.017.74-.063 1.114-.11.475-.059.953-.119 1.431-.119v.439a3.914 3.914 0 0 0 0 .573 3.926 3.926 0 0 0 0 .553 1.255 1.255 0 0 0 0 .324h-8.585c.133-.897.133-1.832.133-2.805v-6.337c0-.422.003-.828.005-1.22.004-.74.008-1.426-.005-2.062-.008-.444-.037-.879-.065-1.314-.034-.52-.068-1.038-.068-1.568h6.705Z" fill="#006B2D"/><path d="M173.615 209.067a1.549 1.549 0 0 0-1.064-1.909 1.404 1.404 0 0 0-1.356.827c-.078.173-.12.358-.125.547-.089.379-.03.778.164 1.115.194.337.509.587.88.698.38.016.751-.119 1.032-.377.281-.257.449-.615.469-.997v.096Zm50.558-66.762c0 .668.247 1.088-.931 1.641a30.938 30.938 0 0 0-7.217 4.314 30.049 30.049 0 0 0-5.413 6.47 44.164 44.164 0 0 0-3.798 9.638c-4.559 31.072-7.085 62.143-10.94 93.444a154.644 154.644 0 0 1-2.944 17.005 48.016 48.016 0 0 1-12.839 22.311c-.247.21-.323.63-.589.84-.265.21-.816 1.031-1.329 1.412-2.526 2.195-4.767 3.951-7.255 5.917a22.923 22.923 0 0 1-3.799 2.481 49.413 49.413 0 0 1-9.002 4.142c-.209 0-.304.401-.494.382-.19-.02-.873.114-1.329.286-.797.441-1.637.8-2.507 1.069-2.697.801-5.527 1.374-8.376 1.908-10.427 1.718-20.588 2.1-30.54-.649l-1.234-.133c-.969-.344-1.899-.687-3.153-1.05a45.007 45.007 0 0 1-12.079-6.814 34.974 34.974 0 0 1-5.565-5.84 41.822 41.822 0 0 1-7.597-15.994c-.437-2.08-.664-4.141-.892-6.184v-4.065c.17-1.908.38-4.008.55-6.031.285-2.443.817-4.619 1.197-7.062 5.698-36.95 10.826-71.533 17.663-108.139a44.393 44.393 0 0 1 1.633-7.139 7.64 7.64 0 0 1 2.553-3.682 7.581 7.581 0 0 1 4.17-1.604c5.926-.21 11.282-.287 16.752-.21l23.265-.344 4.217.115s3.001-.229 3.115.439c.113.668.246 1.088-.912 1.66a29.65 29.65 0 0 0-7.217 4.237 29.583 29.583 0 0 0-5.432 6.528 50.846 50.846 0 0 0-4.881 13.741 1279.574 1279.574 0 0 0-3.609 22.426c-1.253 8.321-2.583 16.624-3.798 24.926l-14.13-21.338-2.811 27.541.702 1.221s10.522 11.185 12.402 14.41l.494.84c-1.785 12.997-2.906 25.785-3.988 39.317 0 .897 0 1.794-.114 2.71.013.206.044.41.095.61 0 .21.19 0 .152.306.184.842.519 1.644.987 2.366 3.286 4.676 9.364 4.409 14.587 3.36.272-.06.539-.143.797-.249.39-.126.765-.292 1.121-.496l1.405-.744a11.37 11.37 0 0 0 2.526-2.176c.466-.5.856-1.066 1.159-1.679a32.503 32.503 0 0 0 1.671-4.085c1.235-5.726 2.146-11.318 2.925-17.005a49.613 49.613 0 0 0 10.977 1.775c2.261 0 10.332-1.451 10.731-14.773.399-13.321 1.083-24.41 3.039-30.212a27.887 27.887 0 0 1 6.78-10.23l-6.704-.802c-1.69-.286-2.507-3.817-5.489-4.294a10.043 10.043 0 0 0-6.571.362c-1.235.592-4.122 2.462-5.375 3.283 2.545-18.589 5.223-37.122 8.66-55.73a8.235 8.235 0 0 1 1.206-3.26 8.178 8.178 0 0 1 2.441-2.466 5.16 5.16 0 0 0 1.159-.534 6.41 6.41 0 0 1 1.899-.458l26.057-.306 2.165-.133c.328-.04.66-.04.988 0l11.282-.077 4.235.115s2.982-.21 3.096.439Z" fill="#006B2D"/></svg>