<svg xmlns="http://www.w3.org/2000/svg" width="500" height="500" fill="none"><path fill="#1A1818" d="M238.96 294.623a23.33 23.33 0 0 0-1.97.226l-.006-.002-3.421 19.302a4.6 4.6 0 0 0 .662.068c.242.014.456.014.687.014.231 0 .47-.008.712-.027l.689-.054 3.051-17.179c.51-.073 1.024-.109 1.538-.106.9-.052 1.792.193 2.537.697a2.718 2.718 0 0 1 .917 2.307 4.084 4.084 0 0 1-.297 1.594 5.131 5.131 0 0 1-.769 1.286 5.64 5.64 0 0 1-1.039.991c-.349.258-.714.495-1.092.709a7.811 7.811 0 0 1-.944.456 3.438 3.438 0 0 1-.58.186l-.271.081 3.752 8.981c.484.056.971.083 1.458.081a15.786 15.786 0 0 0 1.568-.081l-3.535-8.202a11.835 11.835 0 0 0 1.525-.86 7.205 7.205 0 0 0 1.511-1.325 7.014 7.014 0 0 0 1.14-1.865c.321-.792.477-1.64.459-2.494a4.532 4.532 0 0 0-.539-2.318 4.231 4.231 0 0 0-1.443-1.488 6.254 6.254 0 0 0-2.064-.803 11.554 11.554 0 0 0-2.375-.243c-.612.002-1.232.025-1.861.068Z"/><path fill="#1A1818" fill-rule="evenodd" d="M252.533 311.389a4.165 4.165 0 0 1-.918-2.708h-.004l1.404-.213a23.31 23.31 0 0 0 3.036-.643 10.219 10.219 0 0 0 2.423-1.02 4.938 4.938 0 0 0 1.606-1.488 3.617 3.617 0 0 0 .579-2.049 2.877 2.877 0 0 0-1.039-2.32 4.248 4.248 0 0 0-2.819-.871 6.69 6.69 0 0 0-3.225.776 8.284 8.284 0 0 0-2.483 2.038 9.146 9.146 0 0 0-1.592 2.855 9.79 9.79 0 0 0-.554 3.23c-.006.74.098 1.476.311 2.185.194.65.535 1.246.997 1.743.496.516 1.106.91 1.781 1.153a7.586 7.586 0 0 0 2.685.415c.396-.002.792-.024 1.187-.067.433-.042.86-.104 1.283-.187.423-.082.828-.176 1.214-.283.337-.089.665-.206.982-.348 0-.378-.037-.755-.108-1.126a2.95 2.95 0 0 0-.35-.966c-.575.214-1.161.398-1.755.551-.67.173-1.36.258-2.051.255a3.346 3.346 0 0 1-2.59-.912Zm3.063-5.507c-.745.241-1.507.424-2.28.549l.01-.001-1.486.269a8.476 8.476 0 0 1 .62-1.676 6.157 6.157 0 0 1 .982-1.447 4.91 4.91 0 0 1 1.309-1.018 3.331 3.331 0 0 1 1.592-.388c.447-.03.89.109 1.241.388a1.301 1.301 0 0 1 .428 1.005c.003.308-.071.612-.215.884a2.243 2.243 0 0 1-.756.763 6.229 6.229 0 0 1-1.445.672Z" clip-rule="evenodd"/><path fill="#1A1818" d="M268.803 309.428a179.977 179.977 0 0 1-1.538 3.376l-.01.011-1.375-12.412a9.26 9.26 0 0 0-2.117-.081c-.23.021-.46.048-.688.081.306 2.306.608 4.603.906 6.891.299 2.287.601 4.575.907 6.862.125.019.251.028.378.027h.889c.153 0 .307-.009.459-.027a19.278 19.278 0 0 1-1.187 2.408c-.281.486-.62.936-1.011 1.341-.25.262-.561.459-.906.575a3.118 3.118 0 0 1-.837.12 3.423 3.423 0 0 1-.647-.067 4.637 4.637 0 0 1-.593-.15c-.203.282-.348.6-.428.938a5.632 5.632 0 0 0-.162 1.126c.594.179 1.213.27 1.834.269a5.842 5.842 0 0 0 1.511-.187c.508-.146.98-.392 1.39-.724.53-.434.998-.939 1.389-1.501a16.44 16.44 0 0 0 1.457-2.549 872.06 872.06 0 0 0 3.114-6.553c.871-1.852 1.739-3.706 2.604-5.561.217-.5.415-1 .595-1.501.17-.446.262-.918.271-1.395v-.215a.913.913 0 0 0-.029-.215h-1.7a7.164 7.164 0 0 0-1.133.081c0 .054.005.107.014.16.011.071.015.143.014.215a3.452 3.452 0 0 1-.08.616c-.059.282-.14.56-.243.83-.268.682-.542 1.361-.823 2.038a262.222 262.222 0 0 1-2.225 5.173Z"/><path fill="#1A1818" fill-rule="evenodd" d="M279.678 311.385a4.164 4.164 0 0 1-.917-2.708h-.003l1.402-.214a23.112 23.112 0 0 0 3.036-.643 10.199 10.199 0 0 0 2.423-1.019 4.932 4.932 0 0 0 1.602-1.49c.396-.61.598-1.324.58-2.049a2.857 2.857 0 0 0-1.039-2.32 4.25 4.25 0 0 0-2.819-.871 6.715 6.715 0 0 0-3.224.776 8.284 8.284 0 0 0-2.483 2.038 9.198 9.198 0 0 0-1.592 2.855 9.791 9.791 0 0 0-.555 3.23c-.006.74.098 1.476.311 2.185.194.65.536 1.246.998 1.744.496.515 1.105.91 1.78 1.152.863.299 1.772.44 2.685.417.397-.002.793-.024 1.188-.067.432-.042.86-.105 1.283-.187.408-.079.813-.173 1.214-.283.337-.09.667-.206.985-.348a6.076 6.076 0 0 0-.108-1.126 2.933 2.933 0 0 0-.353-.966c-.574.214-1.16.398-1.754.551a8.098 8.098 0 0 1-2.05.255 3.344 3.344 0 0 1-1.392-.18 3.348 3.348 0 0 1-1.198-.732Zm3.063-5.508c-.744.241-1.507.425-2.28.55l-1.477.268a8.476 8.476 0 0 1 .62-1.676 6.167 6.167 0 0 1 .982-1.447 4.93 4.93 0 0 1 1.31-1.018 3.331 3.331 0 0 1 1.592-.388c.448-.031.891.107 1.242.388a1.292 1.292 0 0 1 .427 1.005 1.83 1.83 0 0 1-.216.884 2.226 2.226 0 0 1-.756.763c-.45.285-.936.511-1.444.671Z" clip-rule="evenodd"/><path fill="#1A1818" d="M292.089 307.286c.281.149.57.283.865.401l.004.004.863.349c.497.178.962.435 1.375.763a1.542 1.542 0 0 1 .486 1.246c.014.375-.075.746-.257 1.074a1.919 1.919 0 0 1-.687.682 3.315 3.315 0 0 1-1.026.376 6.407 6.407 0 0 1-1.267.12 9.666 9.666 0 0 1-1.754-.174 8.001 8.001 0 0 1-1.647-.469c-.196.317-.346.66-.446 1.018-.1.369-.168.746-.201 1.126.55.225 1.124.387 1.711.482.697.125 1.405.187 2.113.186a9.38 9.38 0 0 0 2.423-.294 5.995 5.995 0 0 0 1.97-.901 4.277 4.277 0 0 0 1.334-1.528 4.67 4.67 0 0 0 .486-2.212 2.932 2.932 0 0 0-.285-1.351 3.152 3.152 0 0 0-.729-.937 4.42 4.42 0 0 0-.998-.657c-.369-.179-.724-.349-1.066-.51l-.595-.269a3.493 3.493 0 0 1-1.31-.79 1.517 1.517 0 0 1-.363-1.033 1.444 1.444 0 0 1 .768-1.395 4.152 4.152 0 0 1 1.93-.402 6.405 6.405 0 0 1 1.726.225c.434.115.859.264 1.27.444.37-.623.634-1.303.781-2.011a7.118 7.118 0 0 0-1.568-.536 8.927 8.927 0 0 0-2.105-.24c-.761-.01-1.52.09-2.253.294a5.328 5.328 0 0 0-1.736.85c-.489.36-.884.831-1.152 1.374a3.757 3.757 0 0 0-.388 1.746c-.012.473.076.943.257 1.38.151.354.366.677.634.953.247.246.529.453.837.616Zm20.058-12.493a8.614 8.614 0 0 0-.768.08l-4.263 19.276c.206.037.413.064.621.081.441.037.883.037 1.323 0 .215-.019.422-.046.62-.081l3.157-14.718 2.423 10.723c.35.054.704.08 1.058.079.37-.003.739-.029 1.106-.079l6.206-10.67-1.996 14.664c.197.038.395.065.595.08.233.019.467.028.701.027.461.002.922-.034 1.377-.107l2.477-19.275a6.354 6.354 0 0 0-.674-.08 9.506 9.506 0 0 0-.755-.028c-.252.001-.513.01-.783.028-.235.014-.469.04-.701.08l-6.88 11.929-2.643-11.929a8.016 8.016 0 0 0-.675-.08 9.31 9.31 0 0 0-.729-.028c-.252 0-.517.011-.797.028Z"/><path fill="#1A1818" fill-rule="evenodd" d="M339.916 311.06c.117-.768.274-1.689.473-2.761l.003.01 1.349-7.667a9.46 9.46 0 0 0-1.74-.416 13.089 13.089 0 0 0-1.957-.15 8.934 8.934 0 0 0-4.021.856 8.694 8.694 0 0 0-2.886 2.266 9.793 9.793 0 0 0-1.755 3.218 11.83 11.83 0 0 0-.594 3.713 5.053 5.053 0 0 0 .907 3.177 3.182 3.182 0 0 0 2.685 1.166 4.532 4.532 0 0 0 1.71-.322 5.873 5.873 0 0 0 1.426-.817 7.02 7.02 0 0 0 1.907-2.297c-.056.268-.107.572-.151.912-.04.267-.063.535-.069.805-.009.457.027.913.109 1.363.205.038.413.065.621.081.413.038.829.038 1.241 0 .217-.016.433-.043.648-.081a4.603 4.603 0 0 1-.069-.495 9.176 9.176 0 0 1-.013-.55c.009-.673.068-1.345.176-2.011Zm-1.741-8.738c.228.016.454.052.676.107h-.013l-.539 2.868c-.17.927-.418 1.837-.742 2.722-.282.783-.657 1.53-1.119 2.224a5.609 5.609 0 0 1-1.425 1.489 2.84 2.84 0 0 1-1.62.535 1.521 1.521 0 0 1-.784-.168 1.514 1.514 0 0 1-.591-.54 3.672 3.672 0 0 1-.459-1.997 8.97 8.97 0 0 1 .403-2.668 7.699 7.699 0 0 1 1.175-2.332 6.048 6.048 0 0 1 1.834-1.651 4.728 4.728 0 0 1 2.423-.616c.261-.001.521.008.781.027Z" clip-rule="evenodd"/><path fill="#1A1818" d="M346.608 297.429a64.48 64.48 0 0 1-.419 2.587l-.005-.003-1.7 9.17c-.072.356-.145.722-.217 1.1-.07.353-.106.712-.108 1.072-.015.488.062.975.226 1.435.135.357.358.675.649.924.289.238.631.404.998.483.421.093.851.138 1.283.133a9.78 9.78 0 0 0 1.147-.068 4.92 4.92 0 0 0 .982-.201c.001-.058.006-.116.014-.173.01-.066.015-.134.014-.201a5.064 5.064 0 0 0-.242-1.662c-.147.032-.322.072-.529.107a3.22 3.22 0 0 1-.999.027.958.958 0 0 1-.417-.15.855.855 0 0 1-.311-.375 1.602 1.602 0 0 1-.121-.684c.006-.243.034-.485.081-.724l2.105-11.313c.054-.286.11-.591.163-.911.052-.32.098-.631.134-.937.035-.306.068-.598.094-.872a8 8 0 0 0 .04-.709v-.509a2.234 2.234 0 0 0-.055-.482 7.237 7.237 0 0 0-1.238-.107c-.197 0-.428.008-.713.026a6.545 6.545 0 0 0-.712.081c.018.198.027.356.027.482v.509c-.024.651-.081 1.3-.171 1.945Z"/><path fill="#1A1818" fill-rule="evenodd" d="M362.948 311.055c.108-.769.261-1.689.458-2.762h-.01l1.701-9.41c.111-.59.205-1.206.285-1.851.073-.524.114-1.053.123-1.582a6.713 6.713 0 0 0-.082-.991 3.944 3.944 0 0 0-.604-.066c-.221-.015-.423-.015-.604-.015-.196 0-.434.009-.713.027a6.563 6.563 0 0 0-.713.081c.019.173.029.331.029.456v.535a14.155 14.155 0 0 1-.163 1.983 60.739 60.739 0 0 1-.459 2.681c-.179-.022-.358-.04-.538-.054a7.125 7.125 0 0 0-.62-.027 8.953 8.953 0 0 0-4.008.858 8.678 8.678 0 0 0-2.901 2.266 9.836 9.836 0 0 0-1.755 3.217 11.858 11.858 0 0 0-.594 3.713 5.007 5.007 0 0 0 .918 3.178 3.226 3.226 0 0 0 2.698 1.166 4.534 4.534 0 0 0 1.711-.322 5.874 5.874 0 0 0 1.443-.831 6.712 6.712 0 0 0 1.134-1.126 8.96 8.96 0 0 0 .809-1.205 6.804 6.804 0 0 0-.204 1.059c-.039.299-.061.6-.067.901-.004.237.01.473.04.708.024.158.056.314.094.469.197.038.395.065.595.08.63.051 1.264.024 1.888-.08a2.748 2.748 0 0 1-.054-.496v-.549c.008-.674.062-1.345.163-2.011Zm-1.784-8.739c.228.017.453.053.675.107h-.013l-.513 2.868c-.17.928-.422 1.839-.756 2.722-.29.783-.67 1.529-1.133 2.225a5.574 5.574 0 0 1-1.425 1.488 2.816 2.816 0 0 1-1.618.535 1.524 1.524 0 0 1-1.375-.708 3.66 3.66 0 0 1-.459-1.996 8.939 8.939 0 0 1 .404-2.668 7.744 7.744 0 0 1 1.173-2.333 6.077 6.077 0 0 1 1.835-1.651 4.747 4.747 0 0 1 2.423-.616c.261-.001.522.008.782.027Zm8.678 11.859a4.892 4.892 0 0 0 2.038.284v.007a6.675 6.675 0 0 0 3.454-.858 7.675 7.675 0 0 0 2.401-2.185 9.472 9.472 0 0 0 1.404-2.937c.298-1.012.452-2.061.459-3.116a5.602 5.602 0 0 0-1.268-3.914 4.88 4.88 0 0 0-3.803-1.393 6.488 6.488 0 0 0-3.414.871 8.065 8.065 0 0 0-2.403 2.199 9.36 9.36 0 0 0-1.415 2.948 11.389 11.389 0 0 0-.459 3.096 5.551 5.551 0 0 0 1.268 3.901 4.874 4.874 0 0 0 1.738 1.097Zm4.481-2.524a3.502 3.502 0 0 1-2.172.684l-.002.001a2.342 2.342 0 0 1-1.929-.804 3.582 3.582 0 0 1-.662-2.332 11 11 0 0 1 .257-2.266c.163-.791.44-1.554.822-2.266a5.529 5.529 0 0 1 1.458-1.742 3.4 3.4 0 0 1 2.16-.697 2.433 2.433 0 0 1 1.957.802c.501.671.746 1.498.688 2.332a10.66 10.66 0 0 1-.271 2.293 8.65 8.65 0 0 1-.836 2.266 5.289 5.289 0 0 1-1.47 1.729Z" clip-rule="evenodd"/><path fill="#1A1818" d="M383.767 303.408c-.118.769-.275 1.69-.473 2.761l-.007.007-1.425 7.962c.21.039.422.066.635.08.445.034.891.034 1.336 0 .252-.018.485-.044.701-.08l.891-5.013c.169-.989.436-1.959.795-2.896a9.813 9.813 0 0 1 1.121-2.125 4.914 4.914 0 0 1 1.322-1.301c.424-.28.919-.433 1.426-.442.487-.024.965.139 1.334.456a1.99 1.99 0 0 1 .499 1.528c0 .196-.013.428-.04.697-.028.271-.068.548-.121.831l-1.459 8.258c.21.039.422.066.635.08.22.018.44.027.661.027a9.194 9.194 0 0 0 1.377-.107l1.528-8.71c.059-.304.106-.621.142-.951.034-.299.052-.6.055-.901a3.485 3.485 0 0 0-.907-2.654 3.517 3.517 0 0 0-2.523-.858 4.45 4.45 0 0 0-1.686.322 6.443 6.443 0 0 0-1.444.804 6.194 6.194 0 0 0-1.133 1.085c-.296.359-.549.75-.755 1.167.056-.286.106-.581.151-.885.046-.32.069-.642.068-.965 0-.304-.01-.551-.027-.738a3.451 3.451 0 0 0-.081-.495 7.037 7.037 0 0 0-1.856-.081 5.864 5.864 0 0 0-.647.081c.031.164.054.329.067.495.014.135.014.319.014.551a13.544 13.544 0 0 1-.174 2.01Z"/><path fill="#1A1818" fill-rule="evenodd" d="M408.32 311.049c.144-.923.302-1.843.473-2.761l.012.004 1.349-7.667a9.458 9.458 0 0 0-1.74-.415 13.089 13.089 0 0 0-1.957-.15 8.913 8.913 0 0 0-4.019.857 8.69 8.69 0 0 0-2.888 2.266 9.789 9.789 0 0 0-1.755 3.217 11.83 11.83 0 0 0-.594 3.713 5.063 5.063 0 0 0 .907 3.178 3.176 3.176 0 0 0 2.683 1.165 4.513 4.513 0 0 0 1.711-.321c.511-.205.991-.48 1.425-.817a6.85 6.85 0 0 0 1.12-1.099c.302-.37.564-.77.782-1.194-.057.268-.107.572-.152.912a6.555 6.555 0 0 0-.068.804 6.93 6.93 0 0 0 .108 1.364c.206.037.413.064.622.081.413.038.828.038 1.241 0 .217-.016.433-.043.647-.081a4.882 4.882 0 0 1-.067-.496c-.014-.134-.014-.317-.014-.549a13.82 13.82 0 0 1 .174-2.011Zm-1.74-8.739c.228.017.454.053.675.108l-.013.001-.538 2.868c-.17.926-.418 1.837-.741 2.722-.283.784-.66 1.53-1.121 2.224a5.578 5.578 0 0 1-1.425 1.489 2.836 2.836 0 0 1-1.618.535 1.526 1.526 0 0 1-1.377-.708 3.68 3.68 0 0 1-.459-1.997 8.908 8.908 0 0 1 .405-2.668 7.693 7.693 0 0 1 1.173-2.332 6.027 6.027 0 0 1 1.835-1.651 4.75 4.75 0 0 1 2.423-.618c.26 0 .521.009.781.027Zm16.759 8.739c.134-.923.287-1.844.459-2.761l-.012-.002 1.701-9.41c.109-.59.203-1.205.285-1.849.071-.525.112-1.053.121-1.582a6.85 6.85 0 0 0-.081-.991c-.2-.038-.402-.06-.605-.067-.222-.014-.423-.014-.604-.014-.196 0-.433.009-.713.027-.239.013-.477.04-.712.08.018.173.028.332.028.456v.536a14.292 14.292 0 0 1-.162 1.982c-.108.749-.26 1.643-.458 2.681a16.116 16.116 0 0 0-.539-.054 7.125 7.125 0 0 0-.62-.027 8.953 8.953 0 0 0-4.008.858 8.674 8.674 0 0 0-2.9 2.266 9.822 9.822 0 0 0-1.755 3.218 11.83 11.83 0 0 0-.594 3.713 4.995 4.995 0 0 0 .918 3.178 3.22 3.22 0 0 0 2.698 1.165 4.55 4.55 0 0 0 1.71-.321 5.934 5.934 0 0 0 1.444-.832 6.7 6.7 0 0 0 1.133-1.125c.303-.379.574-.782.81-1.206a6.956 6.956 0 0 0-.203 1.06 8.474 8.474 0 0 0-.067.9c-.003.237.01.474.04.708.024.158.056.314.094.469.197.038.395.065.595.081.417.033.837.033 1.254 0 .213-.016.424-.043.634-.081a2.748 2.748 0 0 1-.054-.496v-.549c.008-.673.063-1.345.163-2.011Zm-1.783-8.739c.227.017.453.053.674.108h-.012l-.513 2.867a15.672 15.672 0 0 1-.755 2.722c-.29.783-.67 1.529-1.133 2.225a5.578 5.578 0 0 1-1.426 1.488 2.83 2.83 0 0 1-1.619.536 1.54 1.54 0 0 1-1.375-.708 3.661 3.661 0 0 1-.459-1.997 8.908 8.908 0 0 1 .405-2.668 7.693 7.693 0 0 1 1.173-2.332 6.045 6.045 0 0 1 1.834-1.65 4.737 4.737 0 0 1 2.423-.618c.261 0 .522.009.783.027Zm8.677 11.86a4.89 4.89 0 0 0 2.038.283l-.008.022a6.686 6.686 0 0 0 3.453-.858 7.715 7.715 0 0 0 2.412-2.2 9.523 9.523 0 0 0 1.402-2.937c.298-1.012.452-2.061.459-3.115a5.602 5.602 0 0 0-1.268-3.914 4.895 4.895 0 0 0-3.804-1.394 6.476 6.476 0 0 0-3.414.871 8.065 8.065 0 0 0-2.403 2.199 9.312 9.312 0 0 0-1.415 2.949 11.3 11.3 0 0 0-.459 3.095 5.55 5.55 0 0 0 1.27 3.902 4.87 4.87 0 0 0 1.737 1.097Zm4.481-2.525a3.502 3.502 0 0 1-2.172.684v-.003a2.355 2.355 0 0 1-1.93-.801 3.583 3.583 0 0 1-.661-2.332c.007-.762.093-1.522.256-2.266a8.322 8.322 0 0 1 .824-2.266 5.502 5.502 0 0 1 1.457-1.742 3.396 3.396 0 0 1 2.159-.697 2.45 2.45 0 0 1 1.957.803c.501.672.745 1.499.687 2.333-.006.771-.097 1.54-.269 2.292a8.676 8.676 0 0 1-.837 2.266 5.304 5.304 0 0 1-1.471 1.729Z" clip-rule="evenodd"/><path fill="#1A1818" d="M72.232 313.587a5.528 5.528 0 0 0-.593-2.279l-.003-.004a9.172 9.172 0 0 1-1.74.566 9.078 9.078 0 0 1-1.903.187 4.885 4.885 0 0 1-3.706-1.341 5.49 5.49 0 0 1-1.283-3.941 14.871 14.871 0 0 1 .445-3.646 9.905 9.905 0 0 1 1.375-3.151 7.06 7.06 0 0 1 2.388-2.212 6.86 6.86 0 0 1 3.455-.832 9.784 9.784 0 0 1 1.7.142 8.63 8.63 0 0 1 1.538.425c.21-.359.387-.736.529-1.126.125-.369.229-.745.31-1.126a9.004 9.004 0 0 0-1.71-.495 12.644 12.644 0 0 0-2.441-.201 9.58 9.58 0 0 0-4.561 1.045 10.112 10.112 0 0 0-3.306 2.775 12.127 12.127 0 0 0-2.01 3.982 16.163 16.163 0 0 0-.675 4.665 7.576 7.576 0 0 0 1.903 5.469 7.185 7.185 0 0 0 5.436 1.983c.337-.001.717-.019 1.14-.054.423-.036.85-.09 1.283-.161.432-.072.855-.161 1.269-.268a7.43 7.43 0 0 0 1.16-.402Z"/><path fill="#1A1818" fill-rule="evenodd" d="m87.316 300.638-1.35 7.667-.008-.005c-.172.918-.33 1.839-.474 2.762a13.696 13.696 0 0 0-.175 2.011c0 .233.005.416.014.549.014.166.036.332.067.496-.214.038-.43.065-.647.08a6.95 6.95 0 0 1-1.861-.08 5.55 5.55 0 0 1-.081-.601 9.426 9.426 0 0 1-.028-.763 6.76 6.76 0 0 1 .069-.804c.047-.34.098-.644.151-.912-.217.424-.48.824-.782 1.193-.33.409-.705.778-1.12 1.099a5.85 5.85 0 0 1-1.425.817 4.53 4.53 0 0 1-1.71.322 3.188 3.188 0 0 1-2.685-1.166 5.057 5.057 0 0 1-.907-3.177c-.001-1.261.2-2.515.594-3.713a9.782 9.782 0 0 1 1.755-3.218 8.722 8.722 0 0 1 2.885-2.266 8.932 8.932 0 0 1 4.02-.856c.656.001 1.31.051 1.958.15a9.454 9.454 0 0 1 1.74.415Zm-3.562 1.689c.227.017.453.053.674.108l-.013.001-.538 2.868a16.68 16.68 0 0 1-.742 2.722c-.282.784-.659 1.53-1.12 2.224a5.595 5.595 0 0 1-1.425 1.489 2.835 2.835 0 0 1-1.62.535 1.522 1.522 0 0 1-1.375-.708 3.676 3.676 0 0 1-.459-1.997 8.911 8.911 0 0 1 .405-2.668 7.68 7.68 0 0 1 1.173-2.332 6.038 6.038 0 0 1 1.835-1.651 4.726 4.726 0 0 1 2.423-.616c.26-.001.522.007.782.025Z" clip-rule="evenodd"/><path fill="#1A1818" d="M89.29 314.141v.008l-.003-.009.003.001Zm.66-3.556a195.002 195.002 0 0 0-.66 3.556l.888.08h.674c.37 0 .74-.027 1.106-.081l1.108-6.165a8.265 8.265 0 0 1 1.606-3.966 3.704 3.704 0 0 1 2.928-1.287c.148.001.297.01.445.029.113.01.225.028.336.053.212-.358.354-.754.418-1.165.076-.402.117-.81.122-1.219a1.983 1.983 0 0 0-.418-.081 4.672 4.672 0 0 0-.473-.027 4.348 4.348 0 0 0-2.51.75 6.005 6.005 0 0 0-.93.778c-.278.285-.535.59-.769.912.054-.4.08-.803.08-1.207a7.029 7.029 0 0 0-.027-.708 3.323 3.323 0 0 0-.08-.468 3.727 3.727 0 0 0-.606-.068c-.222-.013-.409-.013-.604-.013s-.415.003-.648.013a4.403 4.403 0 0 0-.648.068 4.568 4.568 0 0 1 .083 1.046 16.88 16.88 0 0 1-.217 2.318c-.146.975-.322 2.047-.528 3.218-.215 1.213-.44 2.425-.676 3.634Zm12.09-13.152c-.1.724-.24 1.586-.419 2.587l.002-.003-1.7 9.17c-.072.356-.144.722-.217 1.1-.07.353-.106.712-.108 1.072a3.88 3.88 0 0 0 .231 1.435c.134.357.356.675.647.924.289.238.631.404.998.483.421.093.852.137 1.283.133.381 0 .762-.023 1.14-.068.333-.033.662-.1.982-.201.001-.057.006-.115.014-.172.01-.067.015-.134.014-.201a5.044 5.044 0 0 0-.242-1.663l-.028.006c-.141.031-.307.068-.501.102-.33.059-.667.068-.999.026a.958.958 0 0 1-.416-.15.858.858 0 0 1-.312-.375 1.602 1.602 0 0 1-.121-.684c.007-.243.034-.485.081-.724l2.105-11.313c.054-.286.11-.59.163-.911.052-.32.098-.631.134-.937.035-.306.068-.598.094-.872.024-.235.037-.472.04-.708v-.51c0-.162-.019-.324-.055-.482a6.422 6.422 0 0 0-.634-.08 6.763 6.763 0 0 0-.604-.027c-.195 0-.428.008-.713.027-.239.013-.477.04-.713.08.019.199.029.356.029.482v.51a19.175 19.175 0 0 1-.175 1.944Z"/><path fill="#1A1818" fill-rule="evenodd" d="M110.375 314.18a4.907 4.907 0 0 0 2.038.285l.002.007a6.686 6.686 0 0 0 3.453-.858 7.736 7.736 0 0 0 2.402-2.185 9.522 9.522 0 0 0 1.404-2.938c.297-1.012.452-2.06.459-3.115a5.617 5.617 0 0 0-1.269-3.914 4.885 4.885 0 0 0-3.805-1.394 6.486 6.486 0 0 0-3.414.871 8.053 8.053 0 0 0-2.402 2.2 9.317 9.317 0 0 0-1.415 2.948 11.312 11.312 0 0 0-.459 3.096 5.547 5.547 0 0 0 1.269 3.901 4.86 4.86 0 0 0 1.737 1.096Zm4.48-2.523a3.509 3.509 0 0 1-2.172.684l-.003.001a2.37 2.37 0 0 1-1.929-.804 3.591 3.591 0 0 1-.661-2.333c.007-.762.093-1.521.256-2.266.163-.79.441-1.554.824-2.265a5.489 5.489 0 0 1 1.457-1.742 3.394 3.394 0 0 1 2.159-.697c.365-.022.732.039 1.071.177.339.139.642.353.888.625.502.67.746 1.498.688 2.332-.006.772-.097 1.54-.271 2.293a8.596 8.596 0 0 1-.836 2.265 5.307 5.307 0 0 1-1.471 1.73Z" clip-rule="evenodd"/><path fill="#1A1818" d="M124.798 307.274c.281.148.569.282.864.4l.865.347c.497.178.961.436 1.375.764.168.158.299.352.384.568.084.216.118.447.102.678.014.374-.075.745-.256 1.073a1.946 1.946 0 0 1-.687.683 3.326 3.326 0 0 1-1.025.375 6.287 6.287 0 0 1-1.269.12 9.56 9.56 0 0 1-1.754-.174 8.034 8.034 0 0 1-1.646-.468 3.865 3.865 0 0 0-.445 1.018c-.102.368-.17.745-.203 1.126.55.225 1.124.386 1.711.481.699.126 1.409.188 2.119.187a9.43 9.43 0 0 0 2.423-.295 6.011 6.011 0 0 0 1.97-.9 4.329 4.329 0 0 0 1.336-1.528 4.73 4.73 0 0 0 .484-2.212 2.932 2.932 0 0 0-.285-1.351 3.163 3.163 0 0 0-.73-.938 4.529 4.529 0 0 0-.997-.657c-.369-.178-.724-.348-1.066-.51l-.595-.269a3.445 3.445 0 0 1-1.31-.79 1.506 1.506 0 0 1-.363-1.032 1.442 1.442 0 0 1 .765-1.392 4.122 4.122 0 0 1 1.93-.402 6.337 6.337 0 0 1 1.726.225c.434.115.858.263 1.27.443a6.586 6.586 0 0 0 .781-2.011 7.133 7.133 0 0 0-1.568-.535 8.993 8.993 0 0 0-2.105-.241 8.01 8.01 0 0 0-2.253.295 5.296 5.296 0 0 0-1.738.849 3.77 3.77 0 0 0-1.538 3.123 3.37 3.37 0 0 0 .257 1.381c.15.353.365.677.634.953.247.245.529.452.837.616Z"/><path fill="#1A1818" fill-rule="evenodd" d="M148.293 294.793a7.002 7.002 0 0 0-.855.067h.003l-8.825 19.275c.219.038.44.061.662.068.242.009.489.014.741.014.487.003.973-.024 1.457-.081l1.969-4.531h6.53l.513 4.531c.438.053.88.08 1.321.081.524 0 1.047-.027 1.568-.081l-2.642-19.276a5.93 5.93 0 0 0-.742-.067c-.278-.014-.57-.014-.822-.014s-.544.004-.878.014Zm.302 3.151 1.108 9.303h-5.209l4.101-9.303Z" clip-rule="evenodd"/><path fill="#1A1818" d="M158.917 297.42c-.121.865-.26 1.728-.417 2.587l.005-.004-1.7 9.17c-.073.356-.145.722-.217 1.1-.07.353-.106.712-.108 1.072-.015.488.062.975.227 1.435.134.357.356.675.647.924.289.238.631.403.998.483.421.093.851.137 1.282.133.381 0 .762-.023 1.141-.068.333-.033.662-.1.982-.201 0-.058.005-.115.014-.173.01-.067.015-.134.014-.201a5.034 5.034 0 0 0-.244-1.661c-.145.033-.32.072-.528.108-.329.061-.666.07-.998.027a.998.998 0 0 1-.418-.15.862.862 0 0 1-.31-.376 1.589 1.589 0 0 1-.123-.684c.007-.243.035-.485.081-.723l2.105-11.314c.055-.286.109-.59.163-.91.054-.32.098-.632.134-.938.036-.306.067-.597.094-.872.025-.235.039-.471.041-.708v-.51c0-.162-.018-.323-.054-.481a6.102 6.102 0 0 0-.634-.081 6.763 6.763 0 0 0-.604-.027c-.196 0-.434.009-.713.027a6.1 6.1 0 0 0-.713.081c.019.198.029.355.029.481v.51c-.025.651-.084 1.3-.176 1.944Z"/><path fill="#1A1818" fill-rule="evenodd" d="M166.973 297.42c-.108.724-.243 1.578-.404 2.561l-.003-.006-2.456 13.833c.55.207 1.12.359 1.7.456.676.124 1.362.187 2.05.187a10.38 10.38 0 0 0 4.142-.764 8.362 8.362 0 0 0 2.94-2.064 8.53 8.53 0 0 0 1.755-3.001c.391-1.162.587-2.38.58-3.606a5.572 5.572 0 0 0-1.079-3.659 3.625 3.625 0 0 0-2.945-1.3 5.786 5.786 0 0 0-1.538.187 4.997 4.997 0 0 0-1.213.511 4.604 4.604 0 0 0-.957.751 7.987 7.987 0 0 0-.77.912l.62-3.512c.115-.613.214-1.229.296-1.848.08-.533.124-1.071.134-1.609a8.636 8.636 0 0 0-.054-.991 4.636 4.636 0 0 0-.634-.067 11.13 11.13 0 0 0-1.317.013 6.1 6.1 0 0 0-.713.081c.019.172.027.33.027.456v.535c-.006.651-.06 1.301-.161 1.944Zm.112 14.625h-.003l.001.012.002-.012Zm.725.133a5.435 5.435 0 0 1-.725-.133l.726-4.242c.126-.867.352-1.717.675-2.533a6.275 6.275 0 0 1 .984-1.675 3.515 3.515 0 0 1 1.201-.939 3.224 3.224 0 0 1 1.349-.295 2.078 2.078 0 0 1 1.795.85c.437.683.648 1.484.604 2.292a7.84 7.84 0 0 1-.444 2.68 6.791 6.791 0 0 1-1.215 2.131 5.53 5.53 0 0 1-1.834 1.408c-.72.342-1.51.516-2.308.509a6.617 6.617 0 0 1-.808-.053Zm15.378-.805a4.172 4.172 0 0 1-.912-2.707h-.012l1.404-.214a23.078 23.078 0 0 0 3.036-.643 10.184 10.184 0 0 0 2.423-1.02 4.932 4.932 0 0 0 1.607-1.488c.394-.61.596-1.324.578-2.049a2.856 2.856 0 0 0-1.039-2.32 4.255 4.255 0 0 0-2.819-.871 6.718 6.718 0 0 0-3.224.776 8.296 8.296 0 0 0-2.483 2.038 9.198 9.198 0 0 0-1.592 2.855 9.791 9.791 0 0 0-.555 3.23c-.006.74.099 1.476.311 2.185.194.65.535 1.246.998 1.744.495.515 1.105.91 1.78 1.152.862.299 1.772.44 2.685.415.397-.002.794-.024 1.188-.066.844-.087 1.68-.245 2.497-.471.336-.089.664-.206.982-.348a5.91 5.91 0 0 0-.109-1.126 2.944 2.944 0 0 0-.35-.965c-.575.214-1.16.397-1.755.55a8.001 8.001 0 0 1-2.049.255 3.351 3.351 0 0 1-2.59-.912Zm3.069-5.507c-.745.241-1.508.425-2.281.549l.006-.001-1.484.269c.146-.579.354-1.14.62-1.675a6.167 6.167 0 0 1 .982-1.447 4.97 4.97 0 0 1 1.31-1.019 3.348 3.348 0 0 1 1.592-.388 1.8 1.8 0 0 1 1.241.388 1.286 1.286 0 0 1 .428 1.006c.003.308-.071.611-.215.883a2.229 2.229 0 0 1-.756.764c-.45.285-.935.51-1.443.671Z" clip-rule="evenodd"/><path fill="#1A1818" d="m192.882 314.128-.002.008-.003-.008h.005Zm.659-3.556a203.95 203.95 0 0 0-.659 3.556l.886.08h.674a7.75 7.75 0 0 0 1.108-.08l1.107-6.166a8.263 8.263 0 0 1 1.605-3.965c.359-.42.809-.753 1.316-.976a3.72 3.72 0 0 1 1.612-.312c.149.001.298.011.446.029.113.011.225.029.336.054.211-.36.353-.755.418-1.166.076-.402.116-.81.121-1.219a1.98 1.98 0 0 0-.418-.081 4.67 4.67 0 0 0-.473-.027 4.35 4.35 0 0 0-2.51.751 5.97 5.97 0 0 0-.931.777 8.354 8.354 0 0 0-.768.911 8.998 8.998 0 0 0 .053-1.913 3.381 3.381 0 0 0-.081-.469 3.736 3.736 0 0 0-.605-.068 15.35 15.35 0 0 0-1.251 0c-.218.007-.434.03-.649.068.033.164.056.329.069.495.014.136.014.319.014.551a16.692 16.692 0 0 1-.217 2.319 124.57 124.57 0 0 1-.528 3.217 203.66 203.66 0 0 1-.675 3.634Zm9.429-8.071h2.189l-.007.01-1.187 6.568c-.072.412-.14.81-.203 1.194-.06.358-.092.721-.094 1.085-.02.52.077 1.038.285 1.515.177.37.453.686.797.912.373.235.79.39 1.226.456.522.084 1.05.124 1.579.12.406.002.812-.029 1.213-.093.31-.047.617-.114.918-.201.018-.137.027-.275.027-.414v-.388a4.057 4.057 0 0 0-.054-.696 4.954 4.954 0 0 0-.134-.591 7.568 7.568 0 0 1-.755.174c-.277.047-.557.07-.837.068-.397.02-.79-.089-1.119-.31a1.292 1.292 0 0 1-.419-1.112c.004-.4.04-.799.108-1.193.074-.439.155-.864.244-1.275l1.052-5.819h3.454c.12-.335.211-.681.27-1.032.057-.359.084-.722.082-1.085h-3.481l.162-.831c.13-.681.202-1.371.217-2.063 0-.332-.019-.664-.055-.993a7.604 7.604 0 0 0-1.295.133 4.867 4.867 0 0 0-1.295.402v.425c.001.502-.035 1.004-.109 1.501-.072.48-.153.952-.242 1.416h-2.159a6.01 6.01 0 0 0-.297 1.085 6.479 6.479 0 0 0-.081 1.032Z"/><path fill="#1A1818" fill-rule="evenodd" d="M215.397 314.173a4.914 4.914 0 0 0 2.039.285l.001.005a6.675 6.675 0 0 0 3.454-.858 7.675 7.675 0 0 0 2.401-2.185 9.528 9.528 0 0 0 1.404-2.937c.298-1.012.452-2.061.459-3.115a5.605 5.605 0 0 0-1.268-3.915 4.898 4.898 0 0 0-3.806-1.393 6.488 6.488 0 0 0-3.414.871 8.07 8.07 0 0 0-2.401 2.199 9.384 9.384 0 0 0-1.416 2.948 11.39 11.39 0 0 0-.459 3.097 5.56 5.56 0 0 0 1.269 3.902 4.877 4.877 0 0 0 1.737 1.096Zm4.48-2.524a3.492 3.492 0 0 1-2.172.684l-.004-.001a2.345 2.345 0 0 1-1.059-.176 2.343 2.343 0 0 1-.87-.626 3.595 3.595 0 0 1-.661-2.332c.007-.762.093-1.521.256-2.266.163-.79.44-1.554.823-2.265a5.515 5.515 0 0 1 1.457-1.742 3.397 3.397 0 0 1 2.159-.697 2.435 2.435 0 0 1 1.963.801c.501.672.745 1.499.687 2.333-.007.771-.097 1.54-.27 2.293a8.68 8.68 0 0 1-.836 2.265 5.274 5.274 0 0 1-1.473 1.729ZM62.145 264.406a8.502 8.502 0 0 1 2.548 0l-1.78 10.026c-.18.949-.28 1.911-.297 2.877-.072.771.154 1.54.633 2.151a2.97 2.97 0 0 0 2.19.65 4.22 4.22 0 0 0 1.817-.357c.51-.243.948-.611 1.274-1.069.381-.545.674-1.146.867-1.782.254-.809.452-1.634.593-2.47l1.757-10.026a8.917 8.917 0 0 1 1.943-.073c.203.014.405.038.606.073l-1.88 10.641a17.346 17.346 0 0 1-.856 3.147 7.101 7.101 0 0 1-1.385 2.297 5.507 5.507 0 0 1-2.102 1.402 8.397 8.397 0 0 1-3.005.478 5.294 5.294 0 0 1-3.8-1.203 4.984 4.984 0 0 1-1.25-3.736c.001-.403.026-.804.074-1.204.05-.425.114-.877.198-1.352l1.855-10.47Zm13.43 10.372c.18-.983.323-1.827.427-2.532.1-.609.153-1.224.16-1.841 0-.212 0-.381-.01-.503a4.048 4.048 0 0 0-.063-.454 7.131 7.131 0 0 1 1.745-.074c.186.014.372.039.556.074.036.149.061.301.075.454a7.2 7.2 0 0 1 .025.676c0 .296-.02.593-.063.886-.04.283-.085.548-.142.81a5.81 5.81 0 0 1 3.056-2.802 4.094 4.094 0 0 1 1.546-.295 3.225 3.225 0 0 1 2.314.786 3.226 3.226 0 0 1 .828 2.432c-.002.275-.018.55-.05.824a11.74 11.74 0 0 1-.127.871l-1.41 7.991a7.282 7.282 0 0 1-.642.074 7.828 7.828 0 0 1-1.225 0 5.163 5.163 0 0 1-.58-.074l1.334-7.571c.05-.261.086-.516.111-.763.023-.212.036-.426.038-.639a1.83 1.83 0 0 0-.457-1.4 1.741 1.741 0 0 0-1.224-.425 2.429 2.429 0 0 0-1.31.405 4.5 4.5 0 0 0-1.213 1.192 8.892 8.892 0 0 0-1.026 1.942c-.33.859-.573 1.749-.728 2.655l-.817 4.597a8.45 8.45 0 0 1-1.26.098c-.183 0-.385-.009-.607-.025a5.178 5.178 0 0 1-.582-.073l1.32-7.296Zm13.905-7.913a7.04 7.04 0 0 1 .126-1.351c.085-.426.192-.86.321-1.303a12.08 12.08 0 0 1 1.435-.098c.2 0 .428.009.682.024.253.016.49.041.704.074-.013.458-.06.914-.143 1.365-.082.436-.19.866-.32 1.29a6.825 6.825 0 0 1-.742.062c-.264.008-.495.012-.694.012-.18 0-.404 0-.667-.012a5.206 5.206 0 0 1-.694-.062l-.008-.001Zm.024 4.547H87.97a7.15 7.15 0 0 1 .062-.959c.048-.337.135-.667.26-.984h3.958l-2.226 12.603c-.21.036-.42.057-.633.063-.239.009-.45.013-.633.012-.183 0-.37 0-.57-.012a4.197 4.197 0 0 1-.57-.063l1.887-10.66Zm3.808-1.943a8.691 8.691 0 0 1 2.626 0l1.434 10.127 3.191-6.366c.342-.684.647-1.386.914-2.103.194-.475.319-.975.372-1.485v-.173a9.429 9.429 0 0 1 2.746 0v.126a2.908 2.908 0 0 1-.127.823c-.123.386-.281.76-.47 1.118-.94 1.786-1.9 3.551-2.881 5.295-.98 1.745-1.957 3.494-2.93 5.247-.426.048-.854.072-1.283.074-.182 0-.399 0-.656-.013a4.627 4.627 0 0 1-.654-.062l-2.282-12.608Zm14.841 5.53a14.248 14.248 0 0 0 2.089-.503 5.718 5.718 0 0 0 1.324-.616c.285-.174.523-.415.693-.701.133-.25.202-.529.198-.811a1.167 1.167 0 0 0-.395-.922 1.653 1.653 0 0 0-1.14-.357 3.06 3.06 0 0 0-1.457.357c-.45.241-.856.557-1.2.934a5.737 5.737 0 0 0-.902 1.327 7.8 7.8 0 0 0-.57 1.537l1.36-.245Zm-1.558 2.065c-.021.9.278 1.778.842 2.482a3.08 3.08 0 0 0 2.375.836 7.4 7.4 0 0 0 1.88-.234c.544-.14 1.081-.308 1.608-.503.158.273.266.571.32.881.066.34.099.686.099 1.032a5.834 5.834 0 0 1-.903.32c-.354.1-.725.185-1.113.258-.387.074-.779.132-1.174.171-.362.04-.725.061-1.089.063a6.964 6.964 0 0 1-2.462-.383 4.26 4.26 0 0 1-1.632-1.056 4.06 4.06 0 0 1-.915-1.597 6.8 6.8 0 0 1-.285-2.004 9.02 9.02 0 0 1 .506-2.957 8.391 8.391 0 0 1 1.457-2.618 7.55 7.55 0 0 1 2.28-1.868 6.136 6.136 0 0 1 2.956-.708 3.9 3.9 0 0 1 2.586.797 2.637 2.637 0 0 1 .951 2.124c.015.665-.17 1.32-.533 1.879a4.538 4.538 0 0 1-1.47 1.365 9.372 9.372 0 0 1-2.216.934c-.913.259-1.843.456-2.782.589l-1.286.197Zm8.483 5.016c.183-1.033.385-2.123.606-3.269.222-1.146.428-2.256.62-3.329.19-1.074.351-2.057.482-2.95.115-.703.181-1.412.198-2.124 0-.213 0-.381-.013-.503a3.857 3.857 0 0 0-.062-.455c.196-.033.394-.054.592-.062.214 0 .412-.011.593-.011s.35 0 .556.011c.187.007.374.028.558.062.033.14.058.282.072.425.046.585.03 1.174-.048 1.756.214-.294.45-.573.705-.834.261-.264.547-.501.856-.708a4.14 4.14 0 0 1 2.733-.663c.13.011.259.036.384.074-.005.375-.043.75-.113 1.119-.059.377-.19.739-.383 1.069a2.901 2.901 0 0 0-.31-.05 3.973 3.973 0 0 0-.409-.024 3.397 3.397 0 0 0-2.682 1.18 7.582 7.582 0 0 0-1.472 3.637l-1.014 5.653a7.299 7.299 0 0 1-1.013.073h-.619l-.817-.077Zm11.084-5.927a8.735 8.735 0 0 1-.791-.37 3.109 3.109 0 0 1-.767-.566 2.817 2.817 0 0 1-.582-.872 3.103 3.103 0 0 1-.235-1.266 3.464 3.464 0 0 1 1.41-2.864 4.915 4.915 0 0 1 1.596-.774 7.362 7.362 0 0 1 2.066-.271 8.18 8.18 0 0 1 1.929.222c.496.107.978.272 1.434.492a6.048 6.048 0 0 1-.712 1.841 8.042 8.042 0 0 0-1.163-.405 5.76 5.76 0 0 0-1.584-.21 3.809 3.809 0 0 0-1.769.368 1.321 1.321 0 0 0-.705 1.275c-.011.345.108.681.335.943.339.329.75.577 1.2.725l.544.247c.317.141.64.303.978.467.33.159.638.362.915.602.276.242.503.534.669.861.184.387.273.813.259 1.242a4.304 4.304 0 0 1-.443 2.028 3.922 3.922 0 0 1-1.225 1.4 5.482 5.482 0 0 1-1.804.824 8.719 8.719 0 0 1-2.217.271c-.651 0-1.3-.058-1.941-.173a7.198 7.198 0 0 1-1.568-.44c.031-.35.093-.696.186-1.034.091-.329.228-.643.409-.933.485.195.991.337 1.508.424.53.103 1.068.156 1.607.16.39.002.78-.035 1.162-.111.331-.062.649-.179.941-.345.261-.152.479-.368.633-.628.166-.301.247-.64.235-.983a1.404 1.404 0 0 0-.443-1.143c-.38-.3-.806-.536-1.262-.7l-.805-.304Zm8.632-9.288a7.121 7.121 0 0 1 .126-1.351c.086-.44.193-.875.323-1.303.476-.061.956-.094 1.435-.098.198 0 .427.009.68.024.252.016.49.041.704.074-.013.458-.06.914-.143 1.365-.083.436-.19.866-.32 1.29a6.829 6.829 0 0 1-.743.062c-.264.009-.495.012-.694.012-.2 0-.403 0-.667-.012a5.217 5.217 0 0 1-.694-.062l-.007-.001Zm.025 4.547h-1.533c0-.321.02-.641.062-.959.048-.337.135-.667.26-.984h3.958l-2.228 12.603c-.209.036-.42.057-.633.063-.238.009-.449.013-.633.012-.182 0-.37 0-.57-.012a4.211 4.211 0 0 1-.57-.063l1.887-10.66Zm12.639-.075a3.91 3.91 0 0 0-.619-.098 9.416 9.416 0 0 0-.713-.024 4.343 4.343 0 0 0-2.216.566 5.585 5.585 0 0 0-1.682 1.51 7.108 7.108 0 0 0-1.076 2.14 8.204 8.204 0 0 0-.371 2.445 3.372 3.372 0 0 0 .428 1.831 1.399 1.399 0 0 0 1.261.652 2.594 2.594 0 0 0 1.486-.491c.518-.37.962-.833 1.309-1.366a9.82 9.82 0 0 0 1.04-2.039c.306-.809.537-1.643.692-2.494l.471-2.631-.01-.001Zm1.435 5.381a69.955 69.955 0 0 0-.428 2.531c-.089.61-.137 1.225-.142 1.841v.502c.002.153.018.305.048.455a6.742 6.742 0 0 1-1.732.074 4.77 4.77 0 0 1-.544-.074 4.38 4.38 0 0 1-.086-.425 4.596 4.596 0 0 1-.037-.653 7.56 7.56 0 0 1 .063-.823c.036-.328.099-.653.187-.971a7.985 7.985 0 0 1-.743 1.107 5.964 5.964 0 0 1-1.039 1.031 5.352 5.352 0 0 1-1.323.764 4.157 4.157 0 0 1-1.567.294 2.974 2.974 0 0 1-2.475-1.069 4.59 4.59 0 0 1-.841-2.913c0-1.154.184-2.301.545-3.399a9 9 0 0 1 1.608-2.949 7.93 7.93 0 0 1 2.659-2.076 8.194 8.194 0 0 1 3.673-.786c.181 0 .371.008.57.024.2.015.362.034.495.049.182-.95.325-1.769.428-2.458.09-.602.137-1.21.142-1.818v-.492c0-.113-.008-.252-.024-.418.217-.037.436-.062.656-.075a9.788 9.788 0 0 1 1.211-.012c.187.006.373.026.556.062.047.301.072.605.074.909-.008.485-.046.969-.113 1.45-.073.59-.159 1.157-.259 1.7l-1.562 8.618Zm10.958-5.381a3.886 3.886 0 0 0-.617-.098 9.416 9.416 0 0 0-.713-.024 4.323 4.323 0 0 0-2.216.566 5.574 5.574 0 0 0-1.682 1.51 7.039 7.039 0 0 0-1.076 2.14 8.173 8.173 0 0 0-.372 2.445 3.354 3.354 0 0 0 .427 1.831 1.402 1.402 0 0 0 1.262.652 2.596 2.596 0 0 0 1.485-.491c.518-.37.963-.833 1.31-1.366a9.393 9.393 0 0 0 1.026-2.039c.297-.81.525-1.645.68-2.494l.494-2.631-.008-.001Zm1.411 5.381a69.64 69.64 0 0 0-.428 2.532c-.1.609-.154 1.224-.162 1.841 0 .214 0 .382.013.503.012.152.033.304.062.454-.196.035-.394.06-.593.074a6.17 6.17 0 0 1-1.137 0 5.77 5.77 0 0 1-.57-.074 5.734 5.734 0 0 1-.074-.553 9.078 9.078 0 0 1-.026-.7c.006-.246.027-.492.063-.736.042-.312.089-.59.142-.836a6.427 6.427 0 0 1-1.746 2.1 5.41 5.41 0 0 1-1.31.751 4.157 4.157 0 0 1-1.567.294 2.932 2.932 0 0 1-2.462-1.069 4.638 4.638 0 0 1-.828-2.913c0-1.154.183-2.302.544-3.398a9.005 9.005 0 0 1 1.608-2.95 7.993 7.993 0 0 1 2.647-2.076 8.165 8.165 0 0 1 3.686-.786c.6.003 1.2.05 1.793.141a8.645 8.645 0 0 1 1.596.381l-1.251 7.02Zm11.08-5.381a3.898 3.898 0 0 0-.618-.098 9.416 9.416 0 0 0-.713-.024 4.333 4.333 0 0 0-2.216.566 5.585 5.585 0 0 0-1.682 1.51 7.039 7.039 0 0 0-1.076 2.14 8.173 8.173 0 0 0-.372 2.445 3.354 3.354 0 0 0 .427 1.831c.133.211.32.383.541.498.222.114.471.167.721.154a2.596 2.596 0 0 0 1.485-.491c.519-.37.964-.833 1.311-1.366a9.716 9.716 0 0 0 1.038-2.039c.305-.809.537-1.643.693-2.494l.47-2.631-.009-.001Zm1.434 5.381a63.56 63.56 0 0 0-.42 2.531c-.09.61-.138 1.225-.143 1.841v.502c.003.153.019.305.049.455a6.742 6.742 0 0 1-1.732.074 4.788 4.788 0 0 1-.545-.074 4.376 4.376 0 0 1-.085-.425 4.453 4.453 0 0 1-.037-.653 7.56 7.56 0 0 1 .063-.823c.037-.328.098-.653.185-.971a7.897 7.897 0 0 1-.743 1.107c-.303.384-.651.73-1.037 1.031a5.408 5.408 0 0 1-1.324.764 4.162 4.162 0 0 1-1.568.294 2.95 2.95 0 0 1-2.475-1.069 4.609 4.609 0 0 1-.841-2.913c0-1.154.183-2.301.545-3.399a8.972 8.972 0 0 1 1.608-2.949 7.93 7.93 0 0 1 2.659-2.076 8.194 8.194 0 0 1 3.673-.786c.181 0 .371.008.57.024.2.015.364.034.497.049.181-.95.324-1.769.427-2.458.09-.602.137-1.21.143-1.818v-.492c0-.113-.009-.252-.025-.418.217-.037.435-.062.655-.075.256-.016.475-.024.655-.024.166 0 .351 0 .558.012.186.006.372.026.555.062.048.301.073.605.075.909-.008.485-.045.969-.112 1.45-.07.569-.157 1.136-.26 1.7l-1.57 8.618Zm5.863-1.719a14.248 14.248 0 0 0 2.089-.503 5.718 5.718 0 0 0 1.324-.616c.286-.176.524-.419.694-.708.133-.25.2-.529.197-.811a1.182 1.182 0 0 0-.395-.922 1.641 1.641 0 0 0-1.14-.357 3.043 3.043 0 0 0-1.459.357c-.45.241-.856.557-1.201.934a5.737 5.737 0 0 0-.902 1.327 7.8 7.8 0 0 0-.57 1.537l1.36-.247.003.009Zm-1.558 2.065a3.82 3.82 0 0 0 .841 2.482 3.081 3.081 0 0 0 2.374.836 7.4 7.4 0 0 0 1.88-.234c.545-.14 1.081-.308 1.608-.503.159.273.267.571.321.881.066.34.1.686.1 1.032a5.834 5.834 0 0 1-.903.32c-.355.1-.725.185-1.113.258-.388.074-.78.132-1.176.172-.361.039-.724.06-1.087.062a6.964 6.964 0 0 1-2.462-.383 4.241 4.241 0 0 1-1.632-1.056 4.081 4.081 0 0 1-.916-1.597 6.763 6.763 0 0 1-.285-2.004 8.969 8.969 0 0 1 .506-2.957c.326-.953.82-1.84 1.459-2.618a7.58 7.58 0 0 1 2.281-1.868 6.125 6.125 0 0 1 2.956-.708 3.903 3.903 0 0 1 2.585.797 2.637 2.637 0 0 1 .951 2.124c.016.665-.17 1.32-.533 1.879a4.541 4.541 0 0 1-1.471 1.365 9.29 9.29 0 0 1-2.216.934c-.913.259-1.843.456-2.783.589l-1.285.197Zm22.09-5.727a3.91 3.91 0 0 0-.619-.098 9.416 9.416 0 0 0-.713-.024 4.343 4.343 0 0 0-2.216.566 5.574 5.574 0 0 0-1.682 1.51 7.108 7.108 0 0 0-1.076 2.14 8.204 8.204 0 0 0-.371 2.445 3.372 3.372 0 0 0 .428 1.831 1.392 1.392 0 0 0 1.261.652 2.585 2.585 0 0 0 1.484-.491c.519-.37.964-.833 1.311-1.366a9.768 9.768 0 0 0 1.039-2.039 14.28 14.28 0 0 0 .693-2.494l.47-2.631-.009-.001Zm1.433 5.381c-.158.84-.298 1.684-.42 2.531-.09.61-.138 1.225-.143 1.841v.502c.003.153.02.305.05.455a6.752 6.752 0 0 1-1.733.074 4.77 4.77 0 0 1-.544-.074 4.702 4.702 0 0 1-.086-.425 4.596 4.596 0 0 1-.037-.653 7.56 7.56 0 0 1 .063-.823c.036-.328.098-.653.185-.971a7.897 7.897 0 0 1-.743 1.107 6.07 6.07 0 0 1-1.039 1.031 5.358 5.358 0 0 1-1.324.764 4.162 4.162 0 0 1-1.568.294 2.974 2.974 0 0 1-2.474-1.069 4.597 4.597 0 0 1-.841-2.913c0-1.155.184-2.302.545-3.399a8.974 8.974 0 0 1 1.609-2.949 7.93 7.93 0 0 1 2.659-2.076 8.194 8.194 0 0 1 3.673-.786c.181 0 .371.008.571.024.199.015.363.034.494.049.182-.95.324-1.769.428-2.458.09-.602.137-1.21.142-1.818v-.492c0-.113-.008-.252-.024-.418.217-.037.437-.062.657-.075a10.62 10.62 0 0 1 1.21-.012c.187.006.374.026.558.062.046.301.071.605.074.909-.008.485-.046.969-.113 1.45-.074.59-.161 1.157-.259 1.7l-1.57 8.618Zm6.778 3.715a3.206 3.206 0 0 0 1.995-.629 4.823 4.823 0 0 0 1.349-1.585c.352-.653.61-1.352.766-2.076a9.53 9.53 0 0 0 .248-2.101 3.192 3.192 0 0 0-.632-2.14 2.224 2.224 0 0 0-1.792-.738 3.112 3.112 0 0 0-1.981.639 5.057 5.057 0 0 0-1.336 1.597 7.647 7.647 0 0 0-.755 2.076 10.208 10.208 0 0 0-.234 2.076 3.289 3.289 0 0 0 .606 2.14c.217.251.49.448.797.576.307.128.639.183.972.162l-.003.003Zm-.247 1.941a4.463 4.463 0 0 1-3.462-1.266 5.094 5.094 0 0 1-1.163-3.574c.012-.959.155-1.912.428-2.833a8.542 8.542 0 0 1 1.298-2.706 7.434 7.434 0 0 1 2.202-2.018 5.97 5.97 0 0 1 3.129-.797 4.487 4.487 0 0 1 3.489 1.275 5.133 5.133 0 0 1 1.162 3.587 10.357 10.357 0 0 1-.428 2.852 8.66 8.66 0 0 1-1.283 2.69 7.05 7.05 0 0 1-2.2 2.003 6.144 6.144 0 0 1-3.167.79l-.005-.003Zm15.435-17.968h9.424a6.503 6.503 0 0 1-.396 2.209h-6.877l-.887 5.039h5.491c0 .755-.133 1.503-.395 2.212h-5.495a1453.86 1453.86 0 0 0-.531 3.011c-.173.991-.35 1.995-.532 3.012h7.075l-.127 1.104c-.046.37-.138.734-.272 1.082h-9.595l3.117-17.669Zm11.625 11.747a8.337 8.337 0 0 1-.79-.37 3.104 3.104 0 0 1-.766-.566 2.847 2.847 0 0 1-.582-.872 3.087 3.087 0 0 1-.235-1.266 3.46 3.46 0 0 1 1.411-2.864 4.91 4.91 0 0 1 1.595-.774 7.348 7.348 0 0 1 2.064-.271 8.195 8.195 0 0 1 1.93.222c.496.107.977.272 1.434.492a6.03 6.03 0 0 1-.713 1.841 7.911 7.911 0 0 0-1.162-.405 5.757 5.757 0 0 0-1.583-.21 3.809 3.809 0 0 0-1.769.368c-.231.12-.422.305-.549.531a1.312 1.312 0 0 0-.164.744c-.01.345.109.681.335.943.34.329.75.577 1.2.725l.545.247c.313.141.638.303.978.467.33.159.638.362.915.602.275.242.502.534.668.861.185.387.274.813.26 1.242a4.317 4.317 0 0 1-.444 2.028 3.919 3.919 0 0 1-1.224 1.4 5.442 5.442 0 0 1-1.806.824 8.696 8.696 0 0 1-2.214.271c-.651 0-1.3-.058-1.941-.173a7.198 7.198 0 0 1-1.568-.44c.031-.35.093-.696.186-1.034.091-.329.228-.643.407-.933.487.194.994.337 1.51.424.53.103 1.069.156 1.609.16.39.002.779-.035 1.162-.111a3.03 3.03 0 0 0 .94-.345c.261-.152.479-.368.633-.628.166-.301.248-.64.235-.983a1.404 1.404 0 0 0-.443-1.143 4.466 4.466 0 0 0-1.261-.7l-.803-.304Zm8.435-4.741h-2.004c0-.317.025-.634.076-.948.059-.338.15-.67.272-.991h1.98c.084-.426.158-.859.221-1.301.067-.456.1-.916.099-1.377v-.392a4.467 4.467 0 0 1 1.188-.37 7.068 7.068 0 0 1 1.187-.121c.035.301.051.604.048.907a11.232 11.232 0 0 1-.196 1.892l-.143.762h3.192c.001.332-.024.663-.075.991-.054.323-.137.64-.248.948h-3.167l-.963 5.332c-.085.387-.16.776-.223 1.168a6.906 6.906 0 0 0-.098 1.093 1.196 1.196 0 0 0 .384 1.021c.302.202.662.302 1.026.283.256.002.512-.019.765-.062a6.84 6.84 0 0 0 .694-.16c.114.383.172.78.173 1.18v.357c0 .127-.008.254-.023.38a7.052 7.052 0 0 1-1.954.27 8.786 8.786 0 0 1-1.448-.111 2.932 2.932 0 0 1-1.126-.425 2.062 2.062 0 0 1-.73-.835 3.179 3.179 0 0 1-.259-1.391c.001-.332.03-.664.085-.991.058-.352.12-.717.185-1.093l1.082-6.016Zm14.446-.075a3.886 3.886 0 0 0-.617-.098 9.416 9.416 0 0 0-.713-.024 4.333 4.333 0 0 0-2.216.566 5.582 5.582 0 0 0-1.681 1.51 7.108 7.108 0 0 0-1.076 2.14 8.208 8.208 0 0 0-.37 2.445 3.354 3.354 0 0 0 .427 1.831 1.396 1.396 0 0 0 1.262.652 2.59 2.59 0 0 0 1.483-.491c.519-.37.963-.833 1.31-1.366a9.445 9.445 0 0 0 1.028-2.039c.296-.811.523-1.645.678-2.494l.495-2.631-.01-.001Zm1.41 5.381c-.157.841-.3 1.685-.428 2.532a12.616 12.616 0 0 0-.161 1.841c0 .214 0 .382.011.503.012.152.033.304.063.454-.196.035-.394.06-.593.074a6.17 6.17 0 0 1-1.137 0 5.77 5.77 0 0 1-.57-.074 5.737 5.737 0 0 1-.075-.553 5.862 5.862 0 0 1 .039-1.436c.043-.312.09-.59.142-.836a6.195 6.195 0 0 1-.712 1.093 6.2 6.2 0 0 1-1.028 1.007 5.41 5.41 0 0 1-1.31.751 4.162 4.162 0 0 1-1.568.294 2.926 2.926 0 0 1-2.461-1.069 4.632 4.632 0 0 1-.828-2.913 10.836 10.836 0 0 1 .544-3.398 8.995 8.995 0 0 1 1.608-2.95 7.985 7.985 0 0 1 2.645-2.076 8.179 8.179 0 0 1 3.686-.786c.6.003 1.199.05 1.792.141a8.666 8.666 0 0 1 1.598.381l-1.257 7.02Zm11.08-5.381a3.886 3.886 0 0 0-.617-.098 9.416 9.416 0 0 0-.713-.024 4.343 4.343 0 0 0-2.216.566 5.582 5.582 0 0 0-1.681 1.51 7.108 7.108 0 0 0-1.076 2.14 8.24 8.24 0 0 0-.37 2.445 3.354 3.354 0 0 0 .427 1.831 1.406 1.406 0 0 0 1.263.652 2.593 2.593 0 0 0 1.484-.491c.518-.37.963-.833 1.31-1.366a9.7 9.7 0 0 0 1.04-2.039c.305-.809.537-1.644.693-2.494l.469-2.631-.013-.001Zm1.435 5.381a63.56 63.56 0 0 0-.42 2.531c-.09.61-.138 1.225-.143 1.841v.502c.004.153.02.305.05.455a6.912 6.912 0 0 1-1.73.074 4.788 4.788 0 0 1-.545-.074 4.384 4.384 0 0 1-.087-.425 4.757 4.757 0 0 1-.037-.653c.007-.275.027-.55.063-.823.038-.328.102-.652.19-.971a7.985 7.985 0 0 1-.743 1.107c-.303.384-.651.73-1.038 1.031a5.358 5.358 0 0 1-1.324.764 4.162 4.162 0 0 1-1.568.294 2.974 2.974 0 0 1-2.474-1.069 4.595 4.595 0 0 1-.839-2.913c0-1.155.183-2.302.544-3.399a9 9 0 0 1 1.608-2.949 7.93 7.93 0 0 1 2.659-2.076 8.198 8.198 0 0 1 3.674-.786c.191 0 .381.008.57.024.201.015.363.034.494.049.182-.95.324-1.769.428-2.458.089-.602.137-1.21.142-1.818v-.492c0-.14-.009-.279-.025-.418.217-.037.437-.062.657-.075a9.788 9.788 0 0 1 1.211-.012c.187.006.374.026.558.062.046.301.071.605.074.909-.008.485-.045.969-.111 1.45-.075.59-.161 1.157-.261 1.7l-1.577 8.618Zm6.779 3.715c.717.02 1.42-.202 1.996-.629a4.842 4.842 0 0 0 1.348-1.585 7.896 7.896 0 0 0 .768-2.076c.158-.69.24-1.394.245-2.101a3.198 3.198 0 0 0-.632-2.14 2.246 2.246 0 0 0-1.793-.738 3.106 3.106 0 0 0-1.979.639 5.03 5.03 0 0 0-1.335 1.597 7.6 7.6 0 0 0-.754 2.076 10.21 10.21 0 0 0-.236 2.076 3.289 3.289 0 0 0 .606 2.14c.217.251.49.448.797.576.307.128.64.183.972.162l-.003.003Zm-.246 1.941a4.47 4.47 0 0 1-3.463-1.266 5.095 5.095 0 0 1-1.164-3.574c.012-.959.156-1.912.428-2.833.27-.97.71-1.886 1.299-2.706a7.443 7.443 0 0 1 2.203-2.016 5.957 5.957 0 0 1 3.128-.798c.64-.048 1.282.04 1.884.26.602.219 1.15.565 1.605 1.015a5.132 5.132 0 0 1 1.161 3.587 10.355 10.355 0 0 1-.421 2.852 8.722 8.722 0 0 1-1.283 2.691 7.023 7.023 0 0 1-2.212 1.996 6.104 6.104 0 0 1-3.165.792Zm21.321-11.037a3.923 3.923 0 0 0-.62-.098 9.416 9.416 0 0 0-.713-.024 4.332 4.332 0 0 0-2.213.566 5.528 5.528 0 0 0-1.683 1.51 7.019 7.019 0 0 0-1.077 2.14 8.173 8.173 0 0 0-.372 2.445 3.372 3.372 0 0 0 .428 1.831 1.396 1.396 0 0 0 1.26.652 2.596 2.596 0 0 0 1.485-.491c.52-.37.965-.833 1.313-1.366a9.756 9.756 0 0 0 1.036-2.039c.307-.808.539-1.643.693-2.494l.472-2.631-.009-.001Zm1.433 5.381a61.803 61.803 0 0 0-.421 2.531c-.09.609-.138 1.224-.142 1.841v.502c.003.153.019.305.048.455a6.742 6.742 0 0 1-1.732.074 4.753 4.753 0 0 1-.543-.074 6.04 6.04 0 0 1-.088-.425 4.756 4.756 0 0 1-.036-.653 7.09 7.09 0 0 1 .063-.823c.037-.328.098-.653.185-.971a7.972 7.972 0 0 1-.741 1.107c-.304.384-.653.73-1.04 1.031a5.414 5.414 0 0 1-1.325.764 4.157 4.157 0 0 1-1.567.294 2.951 2.951 0 0 1-2.475-1.069 4.595 4.595 0 0 1-.839-2.913 10.897 10.897 0 0 1 .541-3.399 9.021 9.021 0 0 1 1.609-2.949 7.934 7.934 0 0 1 2.66-2.076 8.194 8.194 0 0 1 3.673-.786c.181 0 .371.008.57.024.2.015.364.034.495.049.181-.95.322-1.769.42-2.458.091-.602.139-1.21.143-1.818v-.492a4.166 4.166 0 0 0-.024-.418c.217-.037.436-.062.655-.075.404-.027.809-.031 1.212-.012.187.006.373.026.557.062.048.301.072.605.074.909-.008.485-.046.969-.112 1.45-.07.569-.157 1.136-.26 1.7l-1.56 8.618Zm5.862-1.719a14.248 14.248 0 0 0 2.089-.503 5.692 5.692 0 0 0 1.323-.616c.285-.174.522-.415.693-.701.133-.25.201-.529.198-.811a1.183 1.183 0 0 0-.395-.921 1.653 1.653 0 0 0-1.14-.357 3.073 3.073 0 0 0-1.457.357c-.45.242-.856.558-1.2.935a5.693 5.693 0 0 0-.904 1.327 7.872 7.872 0 0 0-.57 1.538l1.359-.247.004-.001Zm-1.558 2.065c-.02.9.278 1.778.842 2.482a3.08 3.08 0 0 0 2.375.836 7.391 7.391 0 0 0 1.879-.234c.544-.14 1.081-.308 1.607-.503.158.273.267.571.321.881.066.34.099.686.1 1.032a5.86 5.86 0 0 1-.902.32c-.749.208-1.515.351-2.288.43-.362.039-.726.06-1.09.062a6.962 6.962 0 0 1-2.461-.383 4.246 4.246 0 0 1-1.63-1.053 4.064 4.064 0 0 1-.915-1.598 6.692 6.692 0 0 1-.285-2.003 8.943 8.943 0 0 1 .506-2.957 8.422 8.422 0 0 1 1.459-2.619 7.568 7.568 0 0 1 2.274-1.872 6.148 6.148 0 0 1 2.956-.708c.93-.05 1.847.233 2.585.797a2.632 2.632 0 0 1 .95 2.125 3.3 3.3 0 0 1-.532 1.879 4.524 4.524 0 0 1-1.472 1.365 9.282 9.282 0 0 1-2.212.933c-.914.26-1.845.456-2.787.589l-1.28.199Zm16.698-12.658c.214-.032.449-.056.704-.073.465-.03.933-.03 1.398 0 .215.015.428.041.62.073l2.423 10.937 6.309-10.937c.212-.036.427-.061.642-.073a9.996 9.996 0 0 1 1.406 0c.207.013.414.038.618.073l-2.28 17.671c-.418.067-.84.1-1.263.097-.215 0-.43-.008-.644-.024a5.318 5.318 0 0 1-.545-.073l1.832-13.445-5.69 9.783c-.336.045-.674.07-1.013.073a6.33 6.33 0 0 1-.962-.073l-2.228-9.831-2.895 13.493a6.387 6.387 0 0 1-.57.073 7.27 7.27 0 0 1-1.78-.073l3.918-17.671Zm23.945 6.931a3.923 3.923 0 0 0-.62-.098 9.372 9.372 0 0 0-.712-.024 4.336 4.336 0 0 0-2.214.566 5.577 5.577 0 0 0-1.683 1.51 7.05 7.05 0 0 0-1.076 2.14 8.204 8.204 0 0 0-.371 2.445 3.355 3.355 0 0 0 .428 1.831 1.396 1.396 0 0 0 1.26.652 2.573 2.573 0 0 0 1.483-.491c.52-.37.965-.833 1.313-1.366a9.393 9.393 0 0 0 1.026-2.039c.298-.81.525-1.645.68-2.494l.496-2.631-.01-.001Zm1.411 5.381a74.632 74.632 0 0 0-.427 2.531c-.1.609-.154 1.224-.161 1.841 0 .213 0 .382.011.502.013.153.034.305.063.455-.196.035-.394.06-.593.074a6.18 6.18 0 0 1-1.138 0 5.77 5.77 0 0 1-.57-.074 6.493 6.493 0 0 1-.099-1.253c.007-.247.027-.493.062-.737.042-.311.09-.59.143-.835a6.464 6.464 0 0 1-1.743 2.1c-.401.31-.842.562-1.313.75a4.144 4.144 0 0 1-1.568.295 2.926 2.926 0 0 1-2.462-1.069 4.65 4.65 0 0 1-.828-2.913 10.87 10.87 0 0 1 .543-3.399 9.034 9.034 0 0 1 1.608-2.95 7.993 7.993 0 0 1 2.647-2.076 8.192 8.192 0 0 1 3.686-.786c.601.003 1.201.05 1.794.142a8.635 8.635 0 0 1 1.595.381l-1.25 7.021Zm4.03-5.306h-1.996c0-.317.024-.635.074-.948.06-.338.151-.669.273-.991h1.971c.084-.426.159-.859.222-1.301.067-.456.1-.916.099-1.377v-.392a4.46 4.46 0 0 1 1.187-.37 7.068 7.068 0 0 1 1.187-.121c.035.301.051.604.049.907a11.338 11.338 0 0 1-.197 1.892l-.143.762h3.192c.001.332-.024.663-.074.991-.055.323-.139.64-.25.948h-3.167l-.965 5.332c-.085.387-.159.776-.222 1.168a6.909 6.909 0 0 0-.1 1.093c-.022.188.002.379.068.557.067.177.176.336.317.464.302.202.661.302 1.025.283.257.002.514-.018.768-.062a6.84 6.84 0 0 0 .694-.16c.052.178.093.358.123.541.034.211.05.425.048.639v.357c0 .127-.007.254-.023.38a7.054 7.054 0 0 1-1.955.27 8.774 8.774 0 0 1-1.447-.111 2.932 2.932 0 0 1-1.126-.425 2.057 2.057 0 0 1-.728-.835 3.18 3.18 0 0 1-.261-1.391c.002-.332.031-.664.087-.991.057-.352.119-.717.185-1.093l1.085-6.016Zm10.266 9.021c.717.02 1.42-.202 1.996-.629a4.817 4.817 0 0 0 1.347-1.585 7.86 7.86 0 0 0 .768-2.076c.158-.69.24-1.394.245-2.101a3.197 3.197 0 0 0-.63-2.14 2.21 2.21 0 0 0-1.794-.738 3.118 3.118 0 0 0-1.979.639 5.078 5.078 0 0 0-1.335 1.597 7.678 7.678 0 0 0-.754 2.076c-.15.682-.228 1.378-.235 2.076-.054.761.16 1.517.604 2.14a2.161 2.161 0 0 0 1.77.738l-.003.003Zm-.248 1.941a4.463 4.463 0 0 1-3.462-1.266 5.09 5.09 0 0 1-1.164-3.574c.011-.959.155-1.912.427-2.833.27-.972.71-1.888 1.299-2.706a7.42 7.42 0 0 1 2.202-2.018 5.97 5.97 0 0 1 3.129-.797 4.487 4.487 0 0 1 3.489 1.275 5.132 5.132 0 0 1 1.161 3.587 10.394 10.394 0 0 1-.427 2.852 8.706 8.706 0 0 1-1.283 2.69 7.042 7.042 0 0 1-2.201 2.003 6.144 6.144 0 0 1-3.167.79l-.003-.003Zm23.548-9.416c.199-.032.41-.056.633-.073a8.917 8.917 0 0 1 1.287 0c.205.015.409.041.607.073-.264 1.443-.523 2.873-.778 4.29a768.308 768.308 0 0 0-.757 4.288c-.749.291-1.529.498-2.324.616-.867.144-1.744.218-2.623.221a7.892 7.892 0 0 1-2.869-.493 5.874 5.874 0 0 1-2.128-1.389 5.89 5.89 0 0 1-1.31-2.163 8.299 8.299 0 0 1-.443-2.79 15.21 15.21 0 0 1 .607-4.324 10.94 10.94 0 0 1 1.83-3.65 8.733 8.733 0 0 1 3.206-2.604 8.8 8.8 0 0 1 4.053-.848c.735-.009 1.468.057 2.189.197.546.104 1.08.261 1.595.467-.075.349-.17.694-.285 1.032-.129.358-.29.703-.483 1.031a7.456 7.456 0 0 0-1.384-.392 9.305 9.305 0 0 0-1.608-.122 6.231 6.231 0 0 0-3.153.761 6.512 6.512 0 0 0-2.176 2.029 9.126 9.126 0 0 0-1.263 2.887 13.791 13.791 0 0 0-.407 3.342 4.952 4.952 0 0 0 1.187 3.638 4.456 4.456 0 0 0 3.289 1.179c.411 0 .82-.028 1.226-.085a4.923 4.923 0 0 0 1.051-.258l1.231-6.86Zm3.512 9.122c.193-1.091.395-2.181.607-3.269.224-1.146.43-2.256.619-3.329.19-1.074.351-2.057.482-2.95.115-.703.181-1.412.198-2.124 0-.213 0-.381-.012-.503a3.857 3.857 0 0 0-.062-.455c.196-.033.395-.054.594-.062.214 0 .409-.011.593-.011s.351 0 .557.011c.187.007.373.028.556.062.034.14.059.282.074.425.047.585.03 1.174-.05 1.756.215-.295.45-.573.706-.834.261-.264.547-.501.855-.708a4.143 4.143 0 0 1 2.734-.663c.13.011.259.036.383.074-.004.376-.042.75-.112 1.119-.059.377-.188.74-.381 1.069a3.198 3.198 0 0 0-.311-.05 3.95 3.95 0 0 0-.407-.024 3.384 3.384 0 0 0-1.475.286 3.389 3.389 0 0 0-1.209.894 7.584 7.584 0 0 0-1.471 3.637l-1.013 5.653a7.302 7.302 0 0 1-1.014.073h-.623l-.818-.077Zm12.864-1.647a3.206 3.206 0 0 0 1.995-.629 4.868 4.868 0 0 0 1.349-1.585 7.94 7.94 0 0 0 .766-2.076 9.59 9.59 0 0 0 .247-2.101 3.198 3.198 0 0 0-.633-2.14 2.246 2.246 0 0 0-1.793-.738 3.11 3.11 0 0 0-1.978.639 5.06 5.06 0 0 0-1.337 1.597 7.678 7.678 0 0 0-.754 2.076c-.15.682-.228 1.378-.235 2.076a3.29 3.29 0 0 0 .607 2.14c.217.251.49.448.797.576.307.128.639.183.972.162l-.003.003Zm-.248 1.941a4.48 4.48 0 0 1-3.464-1.266 5.087 5.087 0 0 1-1.161-3.574c.009-.959.151-1.912.42-2.833.27-.97.71-1.886 1.299-2.706a7.427 7.427 0 0 1 2.202-2.016 5.975 5.975 0 0 1 3.127-.798c.64-.048 1.282.04 1.884.26.602.22 1.15.566 1.605 1.015a5.134 5.134 0 0 1 1.163 3.587 10.356 10.356 0 0 1-.427 2.852 8.778 8.778 0 0 1-1.283 2.691 7.062 7.062 0 0 1-2.201 2.002 6.138 6.138 0 0 1-3.166.79l.002-.004Zm11.006-6.221a8.575 8.575 0 0 1-.789-.37 3.125 3.125 0 0 1-.77-.566 2.84 2.84 0 0 1-.58-.872 3.103 3.103 0 0 1-.235-1.266 3.483 3.483 0 0 1 .356-1.604 3.49 3.49 0 0 1 1.053-1.26 4.92 4.92 0 0 1 1.597-.774 7.34 7.34 0 0 1 2.063-.271 8.18 8.18 0 0 1 1.929.222c.497.107.979.272 1.437.492a6.103 6.103 0 0 1-.713 1.841 7.924 7.924 0 0 0-1.163-.405 5.76 5.76 0 0 0-1.584-.21 3.805 3.805 0 0 0-1.768.368c-.229.12-.418.305-.543.532a1.336 1.336 0 0 0-.162.743c-.01.345.108.681.334.943.341.329.752.577 1.203.725l.543.247c.316.141.64.303.978.467.33.159.638.362.915.602.275.242.502.534.668.861.186.387.275.813.261 1.242a4.304 4.304 0 0 1-.443 2.028 3.929 3.929 0 0 1-1.224 1.4 5.467 5.467 0 0 1-1.805.824 8.711 8.711 0 0 1-2.216.271c-.652 0-1.302-.058-1.943-.173a7.198 7.198 0 0 1-1.568-.44c.031-.35.093-.696.187-1.034.091-.329.227-.643.406-.933.488.195.994.337 1.511.424.53.103 1.068.156 1.608.16.39.002.779-.035 1.161-.111.331-.062.648-.178.94-.345.261-.152.479-.368.632-.628.167-.301.248-.64.236-.983a1.42 1.42 0 0 0-.444-1.143 4.442 4.442 0 0 0-1.261-.7l-.807-.304Zm9.5 0a8.24 8.24 0 0 1-.791-.37 3.109 3.109 0 0 1-.767-.566 2.832 2.832 0 0 1-.581-.872 3.068 3.068 0 0 1-.236-1.266 3.471 3.471 0 0 1 1.41-2.864 4.915 4.915 0 0 1 1.596-.774 7.362 7.362 0 0 1 2.066-.271 8.172 8.172 0 0 1 1.928.222c.496.107.977.272 1.434.492a6.03 6.03 0 0 1-.713 1.841 7.94 7.94 0 0 0-1.161-.405 5.798 5.798 0 0 0-1.584-.21 3.809 3.809 0 0 0-1.769.368 1.319 1.319 0 0 0-.705 1.275c-.01.345.108.681.333.943.34.329.75.577 1.2.725l.545.247c.312.141.639.303.978.467.33.159.638.362.915.602.275.242.502.534.668.861.186.387.275.813.261 1.242a4.304 4.304 0 0 1-.443 2.028 3.922 3.922 0 0 1-1.225 1.4 5.482 5.482 0 0 1-1.804.824 8.711 8.711 0 0 1-2.216.271c-.652 0-1.302-.058-1.943-.173a7.198 7.198 0 0 1-1.568-.44c.031-.35.093-.696.185-1.034.092-.329.23-.643.409-.933.486.195.992.337 1.508.424.53.103 1.068.156 1.608.16.391.002.78-.035 1.163-.111.331-.062.649-.179.941-.345.261-.153.479-.369.633-.628.166-.301.247-.64.235-.983a1.404 1.404 0 0 0-.443-1.143c-.38-.3-.806-.536-1.262-.7l-.805-.304Zm11.274 4.28c.717.02 1.42-.202 1.996-.629a4.809 4.809 0 0 0 1.348-1.585c.352-.653.61-1.352.767-2.076a9.65 9.65 0 0 0 .247-2.101 3.198 3.198 0 0 0-.633-2.14 2.237 2.237 0 0 0-1.792-.738 3.111 3.111 0 0 0-1.98.639 5.084 5.084 0 0 0-1.337 1.597 7.606 7.606 0 0 0-.752 2.076c-.15.682-.228 1.378-.235 2.076a3.29 3.29 0 0 0 .607 2.14c.217.251.49.448.797.576.307.128.639.183.972.162l-.005.003Zm-.249 1.941a4.478 4.478 0 0 1-3.462-1.266 5.074 5.074 0 0 1-1.163-3.574c.011-.959.155-1.912.427-2.833.27-.97.709-1.886 1.299-2.706a7.439 7.439 0 0 1 2.2-2.018 5.975 5.975 0 0 1 3.136-.797 4.487 4.487 0 0 1 3.489 1.275 5.128 5.128 0 0 1 1.162 3.587 10.357 10.357 0 0 1-.428 2.852 8.748 8.748 0 0 1-1.282 2.69 7.08 7.08 0 0 1-2.202 2.003 6.138 6.138 0 0 1-3.166.79l-.01-.003Z" clip-rule="evenodd"/><path fill="#001B3B" fill-rule="evenodd" d="M87.036 257.372c-4.828.164-9.64-.63-14.156-2.335a18.393 18.393 0 0 1-8.431-6.736 24.479 24.479 0 0 1-3.706-10.665 66.978 66.978 0 0 1-.091-14.112l3.82-43.393c2.09-.283 3.888-.478 5.39-.583a61.268 61.268 0 0 1 4.286-.159c1.212 0 2.542.053 3.99.159 1.45.105 3.195.3 5.236.583l-3.62 41.165a80.543 80.543 0 0 0-.368 9.018 18.097 18.097 0 0 0 1.017 6.047 6.074 6.074 0 0 0 2.857 3.345 11.462 11.462 0 0 0 5.25 1.01c1.88.063 3.75-.281 5.483-1.01a7.77 7.77 0 0 0 3.5-3.345 19.764 19.764 0 0 0 2.026-6.047c.466-2.474.855-5.48 1.167-9.018l3.625-41.165c2.16-.283 3.975-.478 5.445-.583a56.114 56.114 0 0 1 4.018-.159c1.282 0 2.665.053 4.15.159 1.485.105 3.248.3 5.288.583l-3.821 43.393a70.327 70.327 0 0 1-2.578 14.112 29.678 29.678 0 0 1-5.583 10.665 23.583 23.583 0 0 1-9.616 6.736 39.96 39.96 0 0 1-14.578 2.335Zm43.215-77.24a65.683 65.683 0 0 1 4.325-.637 35.167 35.167 0 0 1 3.756-.211c1.331.004 2.661.093 3.981.266 1.372.179 2.548.373 3.528.584l21.11 41.587 3.663-41.587a91.124 91.124 0 0 1 5.076-.637 43.659 43.659 0 0 1 4.075-.211c1.278.004 2.555.074 3.826.211 1.338.143 2.744.356 4.216.637l-6.778 75.754c-1.037.274-2.09.486-3.153.635a28.762 28.762 0 0 1-4.407.315 27.733 27.733 0 0 1-4.772-.371 82.57 82.57 0 0 1-3.046-.582l-21.237-41.379-3.643 41.379a44.528 44.528 0 0 1-8.628.953 43.587 43.587 0 0 1-8.566-.953l6.674-75.753Zm102.31 36.286a42.171 42.171 0 0 1-1.691 8.276h-20.61l-1.327 15.066h26.805a37.88 37.88 0 0 1 .253 8.063 41.457 41.457 0 0 1-1.7 8.382h-45.708l6.718-76.284h45.065c.145 1.557.23 3.007.253 4.349a36.695 36.695 0 0 1-.122 3.824 51.885 51.885 0 0 1-1.592 8.381h-26.162l-1.028 11.674h20.61a40.75 40.75 0 0 1 .236 8.269Z" clip-rule="evenodd"/><path fill="#1D3B08" fill-rule="evenodd" d="M247.819 180.158c1.512-.211 3.149-.405 4.91-.584a47.96 47.96 0 0 1 4.882-.264c1.544.007 3.087.095 4.622.264 1.655.178 3.186.372 4.592.584l11.688 39.467 19.172-39.467c1.443-.211 2.901-.405 4.376-.584a36.747 36.747 0 0 1 4.349-.264c1.527.002 3.052.09 4.569.264 1.549.178 3.062.372 4.54.584l-3.039 75.753c-1.159.21-2.442.422-3.848.636a38.861 38.861 0 0 1-5.529.32 48.13 48.13 0 0 1-8.779-.955l2.372-43.922-14.29 28.965c-1.302.211-2.6.387-3.893.528a32.02 32.02 0 0 1-3.543.211c-1.067 0-2.166-.053-3.296-.158a25.309 25.309 0 0 1-3.472-.581l-7.95-28.545-5.006 43.502a42.348 42.348 0 0 1-8.627.955 44.854 44.854 0 0 1-8.567-.955l9.767-75.754Zm153.72 16.339h-17.834a40.274 40.274 0 0 1-.224-8.38 42.887 42.887 0 0 1 1.682-8.17h54.57c.145 1.557.229 3.007.254 4.35a36.152 36.152 0 0 1-.122 3.824 51.424 51.424 0 0 1-1.593 8.38H420.44l-5.232 59.417a59.997 59.997 0 0 1-9.483.954 56.075 56.075 0 0 1-9.419-.954l5.233-59.421Zm-34.57-16.445a415.51 415.51 0 0 0-5.453-.531 47.95 47.95 0 0 0-4.419-.211c-1.636 0-3.261.07-4.876.211-1.614.14-3.356.317-5.224.531l-29.751 73.669 18.032-2.568 7.383-18.288c4.523-3.879 9.929-7.826 13.256-7.87a10.527 10.527 0 0 1 4.989 2.423l6.193 23.736 16.248 2.375-16.378-73.477Z" clip-rule="evenodd"/><path fill="#FFBE00" fill-rule="evenodd" d="m356.471 194.398 1.692 11.33 7.555.907-6.146 7.34 2.113 8.497-5.69-4.852-12.505 9.692 5.925-15.167-7.633-8.542 11.624 1.262 3.065-10.467Z" clip-rule="evenodd"/></svg>
