<svg xmlns="http://www.w3.org/2000/svg" width="500" height="500" fill="none"><path fill="#FBAE17" fill-rule="evenodd" d="M241.753 147.187c.19-.189 1.326-1.701 2.178-1.701.852 0 1.136 1.039 1.23 1.606.19 1.323.474 3.213.947 6.237.757 4.441 1.609 9.638 1.609 9.638-4.733.945-16.093 3.591-19.879 4.63 4.07-6.425 11.454-17.292 13.915-20.41Zm32.281 20.127c7.1-.378 14.578-.378 15.241-.378 1.798 0 3.313.189 3.597.945.378 1.039-.473 2.173-1.704 3.118-.284.189-4.544 3.024-9.182 6.142-7.006 4.725-15.809 10.489-15.809 10.489.094.189-3.314-15.308-3.976-19.371 0-.095 5.869-.662 11.833-.945Zm-46.102 45.734s-16.566-13.796-17.512-14.551c0 0 10.507-19.655 13.726-24.663 1.988-.567 17.418-3.402 24.707-4.252 0 0 2.177 11.906 5.396 25.702 0 0-21.299 14.174-26.317 17.764Zm34.363 12.757c-2.555-8.788-5.111-18.615-5.111-18.615l-19.785 13.985s22.909 20.127 27.358 24.001c.094.095 1.041.851 1.42 1.04.757.378 1.42.189 1.704-.378.284-.567.284-1.418 0-2.363-1.231-3.59-3.598-10.772-5.586-17.67Zm-62.667 7.559c5.585-3.779 23.098-16.441 23.098-16.441-3.029-2.646-15.146-12.946-15.146-12.946s-9.845 20.694-12.212 25.986c-.095.283-1.136 2.457-.852 3.779.19.662.663 2.174 3.313.945.284-.283 1.515-1.039 1.799-1.323Zm-5.49-47.719c2.461 1.985 12.495 9.828 12.495 9.828 1.42-2.457 1.42-2.646 4.828-8.694 1.515-2.551 3.597-6.047 6.816-11.528-12.306 2.929-21.3 6.142-23.287 6.898-.19.095-.852.378-1.042.473-.473.378-.757.756-.757 1.134-.189.945.663 1.606.947 1.889Zm88.605 58.114c-1.988-5.481-4.544-12.095-6.627-19.088-3.976-12.945-7.194-25.608-7.194-25.608 2.556-1.7 25.18-17.103 41.557-26.363.284-.189 5.112-2.835 5.585-6.237.095-.945 0-1.795-.284-2.74-.851-2.457-2.934-4.63-8.709-5.008-4.543-.378-12.59-.851-21.394-.378-8.614.283-17.796 1.228-24.707 2.362 0 0-2.745-16.82-3.692-23.812-.094-.472-.568-3.024-1.23-4.158-.758-1.134-1.894-2.173-3.882-2.551-.473-.095-.852-.095-1.23-.095h-.095c-1.42 0-2.461.473-3.218 1.04-1.042.756-2.556 2.835-2.935 3.402-4.355 6.236-16.756 24.473-22.909 34.868 0 0-19.216 5.858-30.955 10.772-3.408 1.417-3.786 3.118-3.881 4.063-.095.662 0 2.457 2.745 4.725 3.408 2.835 14.2 11.717 14.2 11.717-3.787 5.953-18.365 35.718-19.785 43.939-.378 2.362-.378 4.819 1.325 7.087 1.042 1.418 3.03 2.362 5.112 2.457 2.462 0 5.869-2.551 7.289-3.591 11.549-8.315 34.269-25.607 34.269-25.607 8.519 7.654 26.6 24.19 36.067 32.978 1.136 1.039 4.638 4.346 8.046 4.346 6.532.189 8.614-5.386 8.993-7.37.473-4.347-1.799-9.355-2.461-11.15Z" clip-rule="evenodd"/><path fill="#003B71" fill-rule="evenodd" d="M57.862 312.025c-1.417 1.4-3.497 2.241-6.615 2.241-2.93 0-4.915-.747-6.238-1.961-1.701-1.681-2.174-4.109-2.174-6.35v-14.006h3.025v14.006c0 1.494.378 3.175 1.512 4.389.85.84 2.079 1.401 3.97 1.401 2.078 0 3.401-.561 4.347-1.401.945-1.027 1.323-2.521 1.323-4.108v-14.287h3.024v14.38c-.095 2.148-.756 4.202-2.174 5.696Zm16.067 1.961v-9.618c0-1.867-.284-3.922-2.646-3.922-1.796 0-3.403 1.121-4.631 2.241v11.299h-2.93v-15.874h2.457l.378 1.774c1.796-1.307 3.403-2.241 5.67-2.241 2.269 0 4.726 1.588 4.726 5.603v10.551l-3.024.187Zm6.521 0v-15.874h2.93v15.78h-2.93v.094Zm3.497-20.823c0 1.027-.945 1.961-1.985 1.961s-1.984-.84-1.984-1.961a1.984 1.984 0 0 1 3.969 0Zm10.301 20.916h-2.173l-6.332-15.967h3.118l4.348 12.045h.094l4.726-12.045h2.93l-6.711 15.967Zm14.082-13.913c-2.268 0-3.591 1.961-3.591 4.202h7.088c0-2.054-1.134-4.202-3.497-4.202Zm-3.591 6.536c0 2.802 1.796 5.136 5.009 5.136a7.53 7.53 0 0 0 3.875-1.12l.85 1.96c-1.417 1.027-3.402 1.681-5.292 1.681-5.198 0-7.561-4.015-7.561-8.404 0-4.388 2.646-8.03 6.71-8.03s6.616 3.268 6.616 8.124v.747l-10.207-.094Zm21.359-5.695c-.472-.28-1.039-.374-1.701-.374-.945 0-2.363.747-3.308 1.774v11.579h-3.024v-15.874h2.457l.378 1.774c1.985-1.774 3.213-2.147 4.537-2.147.756 0 1.417.28 1.795.56l-1.134 2.708Zm6.521 13.259c-2.457 0-3.969-.561-5.103-1.308l1.039-2.24a7.465 7.465 0 0 0 4.064 1.213c1.89 0 3.119-.84 3.119-2.147 0-3.548-7.277-2.241-7.277-7.75 0-2.428 1.89-4.389 5.576-4.389 1.796 0 3.119.374 4.253.841v2.521c-1.229-.467-2.457-.934-4.159-.934-1.512 0-2.74.56-2.74 1.774 0 3.175 7.466 2.334 7.466 7.563-.095 3.455-2.93 4.856-6.238 4.856Zm9.168-.28v-15.874h2.929v15.78h-2.929v.094Zm3.497-20.823c0 1.027-.946 1.961-1.985 1.961-1.04 0-1.985-.84-1.985-1.961 0-.526.209-1.031.581-1.404a1.989 1.989 0 0 1 2.808 0c.372.373.581.878.581 1.404Zm13.42 7.47c-.567-.187-1.134-.28-2.268-.28-3.025 0-5.576 2.241-5.576 5.789 0 3.362 1.984 5.789 5.765 5.789.756 0 1.606-.186 2.079-.373v-10.925Zm-2.457 13.633c-4.537 0-8.412-2.615-8.412-8.03 0-4.949 3.686-8.497 8.412-8.497 1.039 0 1.795.093 2.362.186v-7.563h3.025v22.783c-1.04.654-3.025 1.121-5.387 1.121Zm17.956-7.844-2.929.094c-2.647.093-3.686.933-3.686 2.614 0 1.494.945 2.708 2.93 2.708 1.89 0 3.024-.84 3.685-1.494v-3.922Zm.851 7.564-.662-1.494c-1.039.933-2.551 1.867-4.82 1.867-2.74 0-5.009-1.867-5.009-4.855 0-2.988 2.363-5.043 6.522-5.136l3.118-.093v-.654c0-2.428-1.417-3.268-3.307-3.268a6.81 6.81 0 0 0-4.159 1.401l-1.134-1.961c1.985-1.401 3.78-1.774 5.86-1.774 3.307 0 5.765 1.4 5.765 5.509v5.322c0 3.735.094 4.855.378 5.416l-2.552-.28Zm15.783-13.353c-.567-.187-1.134-.28-2.268-.28-3.024 0-5.576 2.241-5.576 5.789 0 3.362 1.985 5.789 5.765 5.789.756 0 1.607-.186 2.079-.373v-10.925Zm-2.457 13.633c-4.537 0-8.412-2.615-8.412-8.03 0-4.949 3.686-8.497 8.412-8.497 1.039 0 1.796.093 2.363.186v-7.563h3.024v22.783c-1.04.654-3.024 1.121-5.387 1.121Zm14.932-14.1c-2.268 0-3.591 1.961-3.591 4.202h7.088c0-2.054-1.134-4.202-3.497-4.202Zm-3.497 6.536c0 2.802 1.796 5.136 5.01 5.136a7.536 7.536 0 0 0 3.874-1.12l.851 1.96c-1.418 1.027-3.402 1.681-5.293 1.681-5.198 0-7.56-4.015-7.56-8.404 0-4.575 2.646-8.03 6.804-8.03 4.159 0 6.616 3.268 6.616 8.124v.747l-10.302-.094ZM62.588 369.916c-14.366 0-22.588-9.71-22.588-22.036 0-12.512 9.545-22.69 24.573-22.69 4.536 0 8.6.841 11.53 2.335l-.095 8.123c-3.875-2.241-7.56-3.081-11.057-3.081-10.396 0-14.933 7.19-14.933 14.66 0 8.31 5.387 14.846 14.176 14.846 4.064 0 7.561-1.12 10.963-2.988l2.458 6.349c-5.198 3.269-10.113 4.482-15.027 4.482Zm37.993-23.81c-1.607-.934-3.12-1.12-3.97-1.12-1.89 0-3.591.653-5.86 2.427v21.85H81.68v-31.28h7.655l1.04 3.268c2.835-2.521 5.387-3.922 8.694-3.922 1.513 0 3.403.467 4.82 1.494l-3.308 7.283Zm26.84 23.157-1.417-3.082c-2.174 1.961-5.387 3.735-9.546 3.735-4.158 0-11.152-2.054-11.152-12.605v-19.328h9.073v18.954c0 3.549 1.701 5.976 5.576 5.976 2.079 0 3.875-1.027 5.293-2.054v-22.876h9.072v24.09c0 3.175 0 5.602.568 7.19h-7.467Zm10.68 0 14.176-24.557-11.152.186-1.89-6.909h26.274l-13.988 24.557 13.799-.187v6.91h-27.219Zm43.191-25.491c-3.592 0-5.671 3.268-5.671 6.162h11.436c-.189-2.988-1.89-6.162-5.765-6.162Zm-5.482 12.325c.189 4.202 4.253 6.723 8.411 6.723 3.119 0 5.387-.56 8.506-2.148l2.079 5.696c-3.969 2.615-8.316 3.548-12.097 3.548-11.341 0-16.066-7.936-16.066-16.153 0-8.871 5.387-16.527 14.838-16.527 8.695 0 14.743 6.442 14.743 16.153v2.708H175.81Zm26.085 13.166v-31.28h9.073v31.28h-9.073Zm4.536-35.576c-3.119 0-5.481-2.334-5.481-5.228 0-2.895 2.362-5.229 5.481-5.229 3.119 0 5.482 2.241 5.482 5.229 0 2.987-2.269 5.228-5.482 5.228Zm30.527 12.419a8.113 8.113 0 0 0-4.064-1.12c-1.89 0-3.592.653-5.86 2.427v21.85h-9.073v-31.28h7.656l1.039 3.268c2.835-2.521 5.387-3.922 8.695-3.922 1.512 0 3.402.467 4.82 1.494l-3.213 7.283Zm18.618-1.867c-4.725 0-6.994 4.015-6.994 9.43 0 5.603 2.647 9.431 7.183 9.431 4.82 0 6.994-4.108 6.994-9.431 0-5.602-2.646-9.43-7.183-9.43Zm12.003 21.009c-2.836 2.894-6.994 4.668-11.908 4.668-4.631 0-8.506-1.4-11.247-3.921-3.308-2.895-5.104-7.19-5.104-12.139 0-4.949 1.702-8.964 4.726-11.952 2.835-2.894 6.899-4.668 11.625-4.668 5.198 0 9.356 1.68 12.191 4.668 2.836 2.895 4.253 6.91 4.253 11.485 0 4.576-1.606 8.964-4.536 11.859Zm44.892-20.636c-1.04-.187-1.89-.373-3.403-.373-5.576 0-9.167 3.361-9.167 9.057 0 5.229 3.686 9.15 9.167 9.15 1.229 0 2.458-.093 3.403-.28v-17.554Zm-4.064 25.304c-9.735 0-17.579-5.602-17.579-16.153 0-9.711 7.277-16.527 17.957-16.527 1.418 0 2.552.093 3.686.186v-15.033h9.073v44.913c-3.403 1.681-7.467 2.614-13.137 2.614Zm33.834-25.677c-4.725 0-6.993 4.015-6.993 9.43 0 5.603 2.646 9.431 7.182 9.431 4.82 0 6.994-4.108 6.994-9.431 0-5.602-2.646-9.43-7.183-9.43Zm12.003 21.009c-2.835 2.894-6.994 4.668-11.908 4.668-4.631 0-8.506-1.4-11.247-3.921-3.308-2.895-5.103-7.19-5.103-12.139 0-4.949 1.701-8.964 4.725-11.952 2.835-2.894 6.899-4.668 11.625-4.668 5.198 0 9.356 1.68 12.191 4.668 2.836 2.895 4.253 6.91 4.253 11.485 0 4.576-1.606 8.964-4.536 11.859Zm35.157 4.668c-6.332 0-10.868-2.054-14.081-4.108l3.591-6.536c2.741 1.774 6.143 3.361 10.112 3.361 3.214 0 6.805-1.214 6.805-4.482 0-5.789-10.679-6.723-16.066-12.792-1.702-1.961-2.836-4.388-2.836-7.75 0-6.629 5.293-12.419 15.027-12.419 4.726 0 8.601 1.214 11.152 2.615l-.189 7.843c-3.78-1.961-6.899-3.174-10.49-3.174-3.308 0-5.86 1.494-5.86 3.921 0 7.564 18.997 6.91 18.997 20.542 0 8.031-7.089 12.979-16.162 12.979Zm42.53-.653-1.418-3.082c-2.174 1.961-5.387 3.735-9.545 3.735-4.159 0-11.153-2.054-11.153-12.605v-19.328h9.073v18.954c0 3.549 1.702 5.976 5.671 5.976 2.079 0 3.875-1.027 5.293-2.054v-22.876h9.167v24.09c0 3.175 0 5.602.567 7.19h-7.655Zm21.264.653c-5.67 0-7.844-3.174-7.844-7.283v-40.244h9.073v36.323c0 2.147.284 3.081 1.89 3.081.567 0 1.323-.093 2.552-.28l1.134 6.723c-2.552 1.4-4.82 1.68-6.805 1.68Z" clip-rule="evenodd"/></svg>
