<svg width="500" height="500" fill="none" xmlns="http://www.w3.org/2000/svg"><path fill-rule="evenodd" clip-rule="evenodd" d="M440 256.21c-126.667-32.548-253.332-30.603-380 0 127.882-19.25 254.671-21.131 380 0Z" fill="#FBC707"/><path fill-rule="evenodd" clip-rule="evenodd" d="m212.268 211.505-5.92 4.32 2.255 6.999-5.947-4.311-5.986 4.266 2.255-6.928-5.891-4.374 7.303-.017 2.314-6.93 2.252 6.934 7.365.041ZM368.191 282.992l-.018.535c-.075 3.171-.852 5.413-2.365 6.863-1.643 1.488-4.084 2.221-7.436 2.221h-3.799v-28.587h3.782v-1.968h-31.274v1.968h3.687v28.587h-3.687v1.976h43.071v-11.843l-1.961.248Zm-21.834 9.619h-7.354v-28.587h7.354v28.587Z" fill="#0E3663"/><path fill-rule="evenodd" clip-rule="evenodd" d="M325.763 277.194c-1.444-1.611-3.98-2.797-7.764-3.639-.458-.158-1.103-.308-2.136-.501-2.426-.473-3.378-.898-3.732-1.109-.666-.399-1.172-.881-1.542-1.487-.322-.495-.482-1.167-.482-2.001 0-1.525.506-2.707 1.552-3.618 1.058-.974 2.359-1.443 4.005-1.443 1.972 0 3.663.799 5.172 2.431 1.515 1.587 2.592 3.996 3.131 6.99l.09.517h1.869v-10.936h-1.899l-.069.546c-.074.611-.225.904-.298.985l-.052.046-.037.053c-.028.052-.156.126-.372.126-.277 0-.919-.225-1.896-.857a7.428 7.428 0 0 0-.811-.434c-.16-.083-.303-.152-.378-.209l-.044-.029-.034-.02a16.499 16.499 0 0 0-2.498-1.001l-.034-.011-.035-.005a13.942 13.942 0 0 0-2.61-.239c-2.834 0-5.252.981-7.178 2.903-1.929 2.008-2.906 4.449-2.906 7.265 0 2.709.755 4.918 2.234 6.582 1.409 1.572 3.662 2.759 6.895 3.628.677.174 1.522.356 2.597.581 2.289.474 3.254.865 3.656 1.114.984.66 1.544 1.211 1.851 1.836.408.679.57 1.468.57 2.686 0 1.544-.497 2.819-1.515 3.918-1.053.979-2.357 1.48-3.964 1.48-2.27 0-4.302-.969-6.201-2.94-1.874-2.032-3.163-4.713-3.935-8.193l-.108-.487h-1.859l.006.623.143 10.266h-2.876l-11.961-31.262h-1.507l-9.551 26.956c-.562 1.635-1.247 2.914-1.831 3.42-.082.075-.184.133-.275.202l-.244.126c-.242.135-1.083.403-1.148.408-1.369 0-1.704-2.794-1.771-4.458-.08-.808-.08-1.44-.08-1.821-.175-2.887-1.023-5.034-2.599-6.61-1.053-.986-2.463-1.716-4.143-2.181 1.869-.457 3.425-1.13 4.634-2.016 1.725-1.366 2.59-3.173 2.59-5.392 0-2.611-1.118-4.569-3.42-5.98-1.959-1.216-4.824-1.852-8.757-1.946H246.57v1.967h3.679v28.587h-3.679v1.977h15.926v-1.977H258.4v-14.2c.035-.01.065-.018.104-.026h.491c1.293 0 2.266.095 3.04.299.783.194 1.457.529 1.991 1.003.887.801 1.412 2.471 1.557 4.935l.005.041.01.039c.061.339.061.98.061 1.723.201 3.49.674 5.427 1.602 6.499l-.041-.046c.517.761 1.312 1.421 2.188 1.819.861.411 1.758.61 2.824.61.876 0 1.909-.053 2.941-.445.289-.072.575-.165.856-.274h7.736v-1.902l-.551-.07c-1.399-.172-1.992-.445-2.182-.556-.253-.129-.316-.202-.316-.569 0-.329 0-.604.072-1.041.049-.281.173-.612.311-.995l.063-.167s1.323-3.529 1.775-4.728h7.706l2.917 8.051h-3.434v2.018h16.947l.065-.505c.054-.427.119-.869.273-1.055.054-.053.253-.145.568-.156.176.058.809.282 2.963 1.137a16.696 16.696 0 0 0 6.337 1.257c3.172 0 5.704-.985 7.736-2.998 1.981-1.892 2.995-4.551 2.995-7.89 0-3.183-.737-5.543-2.247-7.225Zm-61.129-2.18c-.536.654-1.41 1.113-2.562 1.332-.534.078-1.131.154-1.71.154H258.4v-12.476h1.549c.854 0 1.528 0 2.086.147 1.248.244 2.106.61 2.718 1.155.809.787 1.241 2.437 1.241 4.743 0 2.308-.456 3.973-1.36 4.945Zm18.986 7.572 3.127-8.88 3.124 8.88h-6.251ZM157.657 258.624v1.932l.596.034c1.633.074 2.53.301 2.916.743l.032.023.03.034c.341.305.752 1.202.752 3.786v14.425c0 2.969-.199 5.396-.54 6.831-.373 1.314-.941 2.352-1.787 3.247-.702.786-1.567 1.395-2.665 1.869a9.167 9.167 0 0 1-3.45.673c-1.419 0-2.596-.282-3.714-.897-1.082-.487-1.968-1.258-2.757-2.377-.515-.851-.835-1.654-1.02-2.571-.094-.565-.315-2.261-.315-5.16V260.59h4.164v-1.966h-17.21v1.966h4.094v20.71c0 3.089.355 5.403 1.085 7.067.841 1.733 2.157 3.222 3.92 4.431 1.274.846 2.661 1.49 4.267 1.992 1.575.452 3.253.68 5.007.68 2.182 0 4.207-.366 6.007-1.089 1.899-.783 3.406-1.811 4.483-3.067.992-1.145 1.69-2.484 2.138-4.083.438-1.553.653-4.118.653-7.63v-14.425c0-2.493.429-3.449.707-3.804.534-.453 1.564-.721 3.05-.782l.595-.034v-1.932h-11.038Z" fill="#0E3663"/><path fill-rule="evenodd" clip-rule="evenodd" d="M243.325 277.769c-1.512-1.276-3.467-2.146-5.907-2.643 1.846-.551 3.326-1.31 4.409-2.263 1.653-1.412 2.532-3.291 2.532-5.442 0-2.945-1.27-5.183-3.765-6.635-1.977-1.199-4.719-1.93-7.906-2.098-.805-.064-1.635-.064-2.435-.064h-15.068v1.966h4.094v31.985h-7.699v-28.551h3.608v-1.967h-25.425v1.967h.623c1.165 0 2.112.237 2.63.646.4.441.605 1.548.605 3.307v14.779l-16.009-20.699h-10.238v1.967h1.931l1.765 2.173v22.389c0 2.301-.344 3.125-.63 3.41-.429.377-1.421.615-2.608.615h-.621v1.977h9.998v-1.942l-.596-.035c-1.413-.064-2.293-.288-2.614-.659l-.032-.036-.032-.03c-.175-.161-.588-.783-.588-3.3v-19.479l19.938 26.2h2.624v-27.33c0-2.359.362-3.02.576-3.196l.03-.022.02-.028c.441-.453 1.397-.707 2.692-.707h4.111v28.587h-3.691v1.977h33.01c4.245-.088 7.464-.974 9.837-2.698 2.559-1.69 3.868-4.126 3.868-7.232 0-2.785-1.048-5.161-3.037-6.889Zm-15.093-17.179h1.205c1.285 0 2.344.282 3.006.522.844.335 1.386.689 1.72 1.146l.03.031.033.041c1.05 1.036 1.583 2.812 1.583 5.241 0 2.515-.49 4.346-1.449 5.45a5.351 5.351 0 0 1-1.917 1.192c-.81.228-1.896.36-3.006.36h-1.205V260.59Zm7.032 29.975a5.656 5.656 0 0 1-2.769 1.671c-.612.208-1.313.3-2.168.3h-2.095v-15.921h1.205c1.216 0 2.193.098 3.073.311 1.188.297 2.114.815 2.834 1.578 1.113 1.212 1.661 3.333 1.661 6.476 0 2.411-.592 4.286-1.741 5.585Z" fill="#0E3663"/></svg>