<svg xmlns="http://www.w3.org/2000/svg" width="500" height="500" fill="none"><path fill="#7B7979" fill-rule="evenodd" d="M298.14 237.128c-36.034 51.287-135.292 31.565-125.752-58.28-15.729 52.454 20.605 105.974 76.301 105.974 45.693 0 82.735-36.879 82.735-82.374 0-.631-.011-1.262-.024-1.889.06-.23.092-.478.092-.754v-43.987c0-3.17-2.63-5.461-5.804-5.699l-.851-.065h-14.005c-3.183 0-4.756 1.489-4.756 4.657v45.522c0 11.078.467 24.934-7.936 36.895Z" clip-rule="evenodd"/><path fill="#7B7979" fill-rule="evenodd" d="M266.662 250.363c-32.706 10.769-67.036-10.907-68.057-45.633-.837-28.491 21.682-52.264 50.298-53.098 17.756-.516 33.684 7.92 43.418 21.203 1.394 1.068 3.182 4.105 3.919 5.296.359.581.657 1.101.897 1.575h-17.442c-2.331-3.017-5.173-5.947-8.874-8.467-16.053-10.931-38.045-6.267-50.134 8.424-21.905 26.619-5.627 77.656 45.975 70.7Z" clip-rule="evenodd"/><path fill="#7B7979" fill-rule="evenodd" d="M297.596 224.292c.204-.377.372-.718.505-1.027h-16.298c-5.177 9.556-14.562 20.468-38.072 21.151-7.349.214 6.058 3.3 14.051 3.067 20.2-.589 25.372-13.735 35.609-17.294 1.397-.485 3.434-4.467 4.205-5.897Z" clip-rule="evenodd"/><path fill="#0B629E" fill-rule="evenodd" d="M263.683 153.319c-33.282-8.847-66.106 16.474-65.085 51.201.837 28.491 24.714 50.911 53.329 50.078 20.962-.611 38.651-13.529 46.286-31.594-7.83 11.339-21.826 17.974-36.7 18.407-62.453 1.818-67.622-83.589-10.872-88.303 3.592-.298 7.391-.38 11.479.011.523.046 1.045.112 1.563.2Z" clip-rule="evenodd"/><path fill="url(#a)" fill-rule="evenodd" d="M252.269 178.966a23.527 23.527 0 0 1 16.596 6.844 23.312 23.312 0 0 1 6.874 16.523c0 6.197-2.473 12.14-6.874 16.522a23.519 23.519 0 0 1-16.596 6.844 23.515 23.515 0 0 1-16.595-6.844 23.31 23.31 0 0 1-6.874-16.522 23.303 23.303 0 0 1 6.874-16.523 23.523 23.523 0 0 1 16.595-6.844Z" clip-rule="evenodd"/><path fill="#0B629E" fill-rule="evenodd" d="M331.313 177.673c.184 20.054 1.473 36.792-4.651 53.233-11.46 30.768-41.006 53.917-77.635 53.917-45.693 0-82.224-36.855-82.224-82.349l.004-8.754v-38.942c0-3.053 1.603-4.778 4.669-4.778h15.305c3.065 0 5.576 2.498 5.576 5.553v49.216c.61 13.179 2.6 18.578 4.707 23.321 27.956 49.719 99.276 47.375 123.884 1.678 8.004-14.863 9.846-35.407 10.366-52.094" clip-rule="evenodd"/><path fill="#E9E9E9" d="M298.525 222.809c-20.485 29.675-69.422 24.867-83.662-8.358-5.548-12.949-5.286-28.389 1.506-40.835 3.614-6.623 8.961-12.052 16.153-15.7 4.532-2.296 9.772-3.992 15.797-4.728 3.581-.437 11.912-.79 15.38.131-4.548-.67-10.728-.366-15.224.34-12.281 1.93-22.161 7.922-28.413 17.16-7.638 11.289-9.868 27.434-3.277 42.817 14.26 33.277 59.053 34.156 81.74 9.173Z"/><path fill="url(#b)" d="M190.685 154.715c.26 43.155-7.151 85.526 40.672 106.192 19.14 8.271 39.64 8.554 58.912.374 48.219-20.458 41.496-63.841 41.56-106.586 0-3.347-2.093-4.741-7.439-4.638 4.034.132 3.714 3.984 3.722 4.654.224 25.586 3.029 51.61-5.923 72.371-5.29 10.366-12.853 18.964-21.864 25.243a78.294 78.294 0 0 1-11.361 5.904c-18.599 7.893-37.655 7.71-56.33-.358-46.279-20-38.576-61.526-38.456-103.16-.1-2.431-.928-4.63-7.563-4.71 2.657.116 4.066 1.686 4.07 4.714Z"/><path fill="#7B7979" d="M89.764 347.465c-9.575 2.513-32.534 4.602-39.655-3.475-3.313-3.762-4.191-8.996-4.191-13.988V291.23h13.01v37.346c0 10.479 7.82 12.104 17.827 10.805v-47.728h13.009v55.812Zm6.35-38.833c2.018-.581 4.618-1.122 7.802-1.624 3.184-.502 6.526-.754 10.03-.754 3.554 0 6.512.464 8.874 1.388 2.36.926 4.232 2.232 5.612 3.924 1.379 1.689 2.361 3.696 2.945 6.022.583 2.324.875 4.913.875 7.766v23.538h-11.861v-22.111c0-3.804-.503-6.499-1.512-8.084-1.007-1.585-2.891-2.378-5.65-2.378-.85 0-1.751.041-2.707.12-.955.079-1.805.172-2.546.277v32.176H96.115l-.001-40.26Zm53.952 40.26h-11.861v-41.685h11.861v41.685Zm1.114-53.731c0 2.165-.703 3.868-2.11 5.111-1.405 1.241-3.063 1.862-4.974 1.862-1.91 0-3.568-.621-4.975-1.862-1.406-1.243-2.108-2.946-2.108-5.111 0-2.166.702-3.871 2.108-5.112 1.407-1.243 3.065-1.861 4.975-1.861 1.911 0 3.569.618 4.974 1.861 1.407 1.241 2.11 2.946 2.11 5.112Z"/><path fill="#0B4F84" d="M183.438 350c-8.968 0-15.8-2.483-20.496-7.449-4.695-4.965-7.044-12.02-7.044-21.159 0-4.545.717-8.598 2.149-12.166 1.432-3.565 3.396-6.577 5.891-9.033 2.493-2.457 5.464-4.32 8.914-5.586 3.449-1.27 7.19-1.903 11.224-1.903 2.334 0 4.457.172 6.367.515 1.912.344 3.582.74 5.015 1.188 1.432.449 2.626.911 3.582 1.388.955.475 1.645.845 2.069 1.109l-3.581 9.984c-1.697-.897-3.675-1.662-5.931-2.297-2.256-.634-4.816-.952-7.681-.952-1.91 0-3.78.318-5.611.952a12.696 12.696 0 0 0-4.856 3.051c-1.405 1.4-2.534 3.209-3.383 5.428-.849 2.22-1.272 4.914-1.272 8.085 0 2.535.278 4.899.834 7.092.558 2.192 1.459 4.081 2.707 5.666 1.248 1.584 2.879 2.841 4.896 3.763 2.017.926 4.456 1.389 7.322 1.389 1.804 0 3.422-.106 4.855-.317 1.432-.213 2.707-.462 3.821-.753a20.34 20.34 0 0 0 2.945-.99c.849-.371 1.619-.715 2.309-1.031l3.422 9.906c-1.751 1.056-4.219 2.008-7.403 2.852-3.184.846-6.872 1.268-11.064 1.268Z"/><path fill="#0B4F84" d="M201.006 328.366c0-3.7.572-6.934 1.713-9.709 1.139-2.773 2.639-5.084 4.496-6.934a18.75 18.75 0 0 1 6.407-4.2 20.159 20.159 0 0 1 7.443-1.427c5.944 0 10.64 1.81 14.089 5.43 3.45 3.618 5.173 8.94 5.173 15.967 0 .688-.023 1.441-.078 2.26-.055.818-.109 1.544-.16 2.179h-26.904c.266 2.43 1.406 4.358 3.422 5.784 2.016 1.427 4.723 2.141 8.12 2.141 2.174 0 4.311-.198 6.407-.594 2.097-.396 3.808-.886 5.134-1.466l1.593 9.588c-.638.318-1.486.635-2.549.952a33.549 33.549 0 0 1-3.54.831c-1.386.25-2.78.449-4.18.595a42.003 42.003 0 0 1-4.457.237c-3.768 0-7.044-.554-9.829-1.663-2.787-1.11-5.095-2.628-6.927-4.557-1.83-1.929-3.183-4.214-4.059-6.856-.875-2.64-1.313-5.494-1.313-8.558h-.001Zm27.859-4.517a12.327 12.327 0 0 0-.516-2.933 7.315 7.315 0 0 0-1.354-2.536c-.61-.739-1.38-1.347-2.308-1.823-.928-.474-2.083-.712-3.462-.712-1.327 0-2.469.224-3.423.673-.956.449-1.752 1.044-2.389 1.782a7.981 7.981 0 0 0-1.472 2.576c-.345.977-.596 1.97-.756 2.973h15.68Zm29.454 16.562c2.176 0 3.714-.211 4.617-.633.902-.423 1.352-1.243 1.352-2.457 0-.952-.583-1.783-1.751-2.496-1.167-.715-2.946-1.52-5.334-2.417a54.691 54.691 0 0 1-5.053-2.142c-1.514-.738-2.8-1.622-3.86-2.653a10.735 10.735 0 0 1-2.468-3.686c-.583-1.426-.875-3.142-.875-5.15 0-3.911 1.459-7 4.377-9.273 2.918-2.272 6.925-3.408 12.019-3.408 2.548 0 4.989.225 7.323.675 2.334.449 4.193.936 5.571 1.465l-2.07 9.193a43.29 43.29 0 0 0-4.496-1.267c-1.619-.37-3.436-.555-5.453-.555-3.714 0-5.571 1.031-5.571 3.09 0 .476.08.898.239 1.269.159.369.476.725.955 1.069.478.344 1.127.714 1.95 1.109.822.41 1.87.846 3.145 1.321 2.6.965 4.748 1.902 6.447 2.841 1.697.924 3.037 1.941 4.019 3.01.982 1.084 1.672 2.286 2.07 3.606.396 1.322.596 2.84.596 4.584 0 4.107-1.552 7.225-4.656 9.338-3.104 2.099-7.496 3.156-13.174 3.156-3.713 0-6.804-.316-9.272-.95-2.468-.634-4.179-1.162-5.135-1.585l1.991-9.588a39.038 39.038 0 0 0 6.209 1.861c2.066.443 4.174.668 6.288.673Zm58.068 7.054c-2.016.581-4.616 1.123-7.8 1.625-3.184.5-6.527.753-10.03.753-3.555 0-6.513-.477-8.874-1.427-2.361-.951-4.233-2.286-5.611-4.003-1.381-1.717-2.363-3.763-2.946-6.143-.583-2.376-.875-4.99-.875-7.844v-23.219h11.86v21.792c0 3.805.504 6.551 1.512 8.243 1.008 1.689 2.891 2.536 5.651 2.536.849 0 1.752-.04 2.707-.118.851-.07 1.7-.163 2.546-.279v-32.175h11.86v40.259Zm29.355-20.684c0-3.804-.49-6.499-1.473-8.084-.98-1.585-2.665-2.378-5.054-2.378-.743 0-1.513.041-2.308.12-.771.076-1.541.168-2.308.277v32.176h-11.861v-40.26c1.01-.263 2.19-.541 3.543-.831a76.425 76.425 0 0 1 4.299-.792 62.746 62.746 0 0 1 4.656-.555 56.18 56.18 0 0 1 4.696-.199c3.024 0 5.48.383 7.363 1.149 1.884.767 3.437 1.678 4.656 2.735 1.699-1.216 3.648-2.167 5.851-2.854 2.202-.686 4.231-1.03 6.089-1.03 3.343 0 6.089.463 8.238 1.387 2.15.926 3.861 2.232 5.134 3.924 1.273 1.689 2.148 3.696 2.626 6.022.478 2.324.717 4.913.717 7.766v23.538h-11.86v-22.111c0-3.804-.49-6.499-1.472-8.084s-2.668-2.378-5.055-2.378c-.636 0-1.525.159-2.667.477-1.141.316-2.082.713-2.825 1.188.371 1.216.61 2.496.717 3.844.106 1.347.158 2.787.158 4.318v22.746h-11.86v-22.111Zm57.355 13.869c1.114 0 2.228-.027 3.342-.081 1.062-.052 1.91-.13 2.548-.237v-8.954c-.478-.108-1.195-.213-2.151-.317-.954-.107-1.83-.16-2.626-.16-1.113 0-2.162.067-3.143.198-.983.133-1.845.383-2.588.754-.742.37-1.327.871-1.751 1.506-.424.633-.636 1.426-.636 2.377 0 1.85.623 3.131 1.87 3.842 1.247.714 2.96 1.072 5.135 1.072Zm-.956-34.554c3.502 0 6.42.398 8.755 1.189 2.334.793 4.205 1.93 5.612 3.408 1.407 1.48 2.401 3.276 2.986 5.389.584 2.114.875 4.464.875 7.054v24.567c-1.699.37-4.059.804-7.084 1.307-3.027.501-6.688.753-10.985.753-2.705 0-5.16-.238-7.363-.713-2.201-.476-4.099-1.255-5.69-2.337a10.72 10.72 0 0 1-3.662-4.24c-.849-1.744-1.274-3.885-1.274-6.42 0-2.43.49-4.491 1.472-6.183a11.32 11.32 0 0 1 3.941-4.041c1.645-1.003 3.528-1.73 5.651-2.178a31.73 31.73 0 0 1 6.606-.674c1.539 0 2.907.066 4.1.198 1.194.132 2.163.303 2.906.515v-1.108c0-2.009-.611-3.62-1.831-4.836-1.221-1.215-3.343-1.822-6.368-1.822-2.017 0-4.007.145-5.97.436-1.963.291-3.661.699-5.094 1.228l-1.512-9.51a37.76 37.76 0 0 1 2.586-.674 46.192 46.192 0 0 1 3.383-.633 71.496 71.496 0 0 1 3.861-.477 42.493 42.493 0 0 1 4.099-.198Zm49.951 11.571a88.514 88.514 0 0 0-3.741-.832 23.231 23.231 0 0 0-4.617-.436c-.743 0-1.632.065-2.667.199-1.034.131-1.817.276-2.347.435v31.859h-11.861v-39.466c2.123-.741 4.63-1.44 7.522-2.101 2.891-.661 6.115-.99 9.67-.99.638 0 1.406.04 2.309.118 1.818.163 3.625.427 5.413.792.902.185 1.672.41 2.308.675l-1.989 9.747Z"/><defs><radialGradient id="a" cx="0" cy="0" r="1" gradientTransform="matrix(42.7123 0 0 42.5258 259.78 191.583)" gradientUnits="userSpaceOnUse"><stop stop-color="#99DEF9"/><stop offset=".37" stop-color="#0994DC"/><stop offset="1" stop-color="#0C487C"/></radialGradient><linearGradient id="b" x1="359.642" x2="336.124" y1="199.244" y2="66.608" gradientUnits="userSpaceOnUse"><stop stop-color="#E9E9E9"/><stop offset="1" stop-color="#fff"/></linearGradient></defs></svg>
