<svg width="500" height="500" fill="none" xmlns="http://www.w3.org/2000/svg"><path d="M162.956 255.23c-.1-.1-.1-.299 0-.399l3.303-2.39c.2-.1.2-.299 0-.399l-3.203-2.59c-.1-.099-.2-.299 0-.498l3.103-2.69c.1-.099.1-.298 0-.398l-3.403-2.291c-.2-.1-.2-.299 0-.399l2.802-2.888c.1-.1.1-.299-.1-.399l-3.603-1.992c-.2-.1-.2-.299-.1-.399l2.602-3.187c.1-.1.1-.299-.1-.399l-3.703-1.693c-.2-.1-.2-.299-.1-.399l2.302-3.386c.1-.2 0-.299-.1-.399l-3.903-1.295c-.2-.099-.3-.299-.2-.398l2.001-3.586c.1-.2 0-.299-.2-.399l-4.003-.996c-.2 0-.3-.199-.2-.398l1.601-3.686c.1-.199 0-.299-.2-.399l-4.003-.597c-.201 0-.301-.2-.201-.399l1.301-3.885c.101-.199 0-.299-.2-.398l-4.103-.199c-.2 0-.3-.2-.3-.399l.901-3.984c0-.2-.101-.299-.301-.299l-4.103.099c-.2 0-.3-.099-.3-.298l.6-3.985c0-.199-.1-.299-.3-.299l-4.103.498c-.2 0-.3-.099-.3-.299l.2-4.084c0-.199-.1-.299-.3-.299l-4.004.797c-.2 0-.3-.099-.4-.299l-.2-4.084c0-.199-.2-.299-.3-.199l-3.903 1.195c-.201.1-.401-.099-.401-.199l-.5-4.084c0-.199-.2-.299-.4-.199l-3.804 1.494c-.2.1-.4 0-.4-.199l-.901-3.985c0-.199-.2-.299-.4-.199l-3.603 1.893c-.2.099-.4 0-.4-.2l-1.201-3.885c-.1-.199-.2-.199-.4-.099l-3.403 2.191c-.2.1-.4 0-.4-.099l-1.602-3.985c-.1-.199-.3-.199-.4-.099l-3.202 2.49c-.201.099-.401.099-.401-.1l-1.901-3.586c-.1-.199-.3-.199-.401-.099l-3.002 2.789c-.1.099-.3.099-.4-.1l-2.202-3.387c-.1-.199-.3-.199-.4 0l-2.702 2.989c-.101.099-.301.099-.5 0l-2.503-3.188c-.1-.199-.3-.1-.4 0l-2.702 3.287c-.1.2-.3.2-.4 0l-2.803-2.988c-.1-.1-.3-.1-.4 0l-2.202 3.486c-.1.2-.3.2-.4.1l-3.203-2.69c-.1-.099-.3-.099-.4.1l-1.802 3.686c-.1.199-.3.199-.4.099l-3.302-2.39c-.2-.1-.3-.1-.4.099l-1.502 3.786c-.1.199-.3.199-.4.099l-3.503-2.092c-.2-.099-.3 0-.4.199l-1.201 3.885c-.1.2-.2.299-.4.2l-3.703-1.793c-.2-.1-.3 0-.4.199l-.802 3.984c0 .2-.2.299-.4.2l-3.803-1.495c-.2-.099-.3 0-.4.2l-.4 4.084c0 .199-.2.299-.4.299l-3.904-1.096c-.2-.1-.3.1-.3.299l-.1 4.084c0 .199-.2.299-.3.299l-4.004-.797c-.2 0-.3.099-.3.299l.3 4.084c0 .199-.1.299-.3.299l-4.103-.399c-.2 0-.3.1-.3.299l.7 3.985c0 .199-.1.298-.3.298h-4.103c-.2 0-.3.2-.3.299l1 3.985c0 .199-.1.398-.3.398l-4.103.299c-.2 0-.3.199-.2.399l1.4 3.885c.1.199 0 .398-.2.398l-4.002.697c-.2 0-.3.2-.2.399l1.7 3.686c.1.199 0 .398-.2.398l-3.903 1.096c-.2 0-.3.199-.2.398l2.002 3.487c.1.199 0 .398-.2.398l-3.803 1.395c-.2.099-.2.299-.1.398l2.301 3.287c.1.2.1.399-.1.399l-3.703 1.793c-.2.1-.2.299-.1.398l2.602 3.088c.1.1.1.299-.1.399l-3.502 2.092c-.2.099-.2.299-.1.398l2.902 2.889c.1.1.1.299 0 .398l-3.303 2.391c-.2.1-.2.299 0 .399l3.203 2.59c.1.099.2.298 0 .498l-3.103 2.689c-.1.1-.1.299 0 .399l3.403 2.291c.2.099.2.299 0 .398l-2.802 2.989c-.1.099-.1.299.1.398l3.603 1.992c.2.1.2.299.1.399l-2.602 3.188c-.1.099-.1.298.1.398l3.703 1.693c.2.1.2.299.1.399l-2.302 3.486c-.1.2 0 .299.1.399l3.903 1.295c.2.099.3.299.2.398l-2.001 3.586c-.1.2 0 .299.2.399l4.003.996c.2 0 .3.199.2.398l-1.601 3.786c-.1.199 0 .299.2.398l4.003.598c.2 0 .3.199.2.398l-1.3 3.885c-.1.2 0 .299.2.399l4.103.299c.2 0 .3.199.3.398l-.9 3.985c0 .199.1.298.3.298l4.103-.099c.2 0 .3.099.3.299l-.6 3.984c0 .2.1.299.3.299l4.103-.498c.2 0 .3.1.3.299l-.2 4.084c0 .199.1.299.3.299l4.004-.797c.2 0 .3.1.4.299l.2 4.084c0 .199.2.299.3.199l3.903-1.195c.2-.1.4.099.4.199l.501 4.084c0 .199.2.299.4.199l3.803-1.494c.2-.099.4 0 .4.2l.901 3.984c0 .199.2.299.4.199l3.604-1.892c.2-.1.4 0 .4.199l1.2 3.885c.1.199.2.199.401.099l3.403-2.191c.2-.1.4 0 .4.1l1.601 3.785c.1.199.3.199.4.099l3.203-2.49c.2-.099.4-.1.4.1l1.902 3.586c.1.199.3.199.4.099l3.003-2.789c.1-.099.3-.099.4.1l2.202 3.387c.1.199.3.199.4 0l2.702-2.989c.1-.099.3-.099.5 0l2.503 3.188c.1.199.3.1.4 0l2.502-3.287c.1-.2.3-.2.5 0l2.803 2.988c.1.1.3.1.4 0l2.202-3.486c.1-.2.3-.2.4-.1l3.102 2.69c.1.099.301.099.401-.1l1.801-3.686c.1-.199.3-.199.4-.099l3.303 2.39c.2.1.3.1.4-.099l1.502-3.786c.1-.199.3-.199.4-.099l3.503 2.092c.2.099.3 0 .4-.2l1.101-3.884c.1-.2.2-.299.4-.2l3.703 1.793c.2.1.3 0 .4-.199l.801-3.984c0-.2.2-.299.4-.2l3.803 1.495c.201.099.301 0 .401-.2l.4-4.084c0-.199.2-.299.4-.299l3.903 1.096c.201.1.301-.1.301-.299l.1-4.084c0-.199.2-.299.3-.299l4.003.797c.2 0 .3-.099.3-.299l-.3-4.084c0-.199.1-.299.3-.299l4.104.399c.2 0 .3-.1.3-.299l-.701-3.985c0-.199.1-.298.301-.298h4.103c.2 0 .3-.2.3-.299l-1.001-3.985c0-.199.1-.398.3-.398l4.104-.299c.2 0 .3-.199.2-.399l-1.401-3.785c-.1-.199 0-.398.2-.398l4.003-.698c.2 0 .3-.199.2-.398l-1.701-3.686c-.1-.199 0-.398.2-.398l3.903-1.096c.2-.1.3-.199.2-.399l-2.001-3.486c-.1-.199 0-.399.2-.399l3.803-1.394c.2-.1.2-.199.1-.399l-2.402-3.287c-.1-.199-.1-.398.1-.398l3.703-1.793c.2-.1.2-.299.1-.399l-2.602-3.088c-.1-.099-.1-.299.1-.398l3.503-2.092c.2-.1.2-.299.1-.399l-2.502-3.187Z" fill="#2F2B62"/><path d="M97.805 310.814c-33.827 0-61.149-27.294-61.149-60.864 0-33.669 27.422-60.864 61.149-60.864 33.826 0 61.148 27.294 61.148 60.864 0 33.57-27.422 60.864-61.148 60.864Z" fill="#E3B42C"/><path d="M48.065 262.402c.4-.1.7-.199 1-.299.3-.099.5-.299.701-.398.2-.199.3-.399.3-.598.1-.199 0-.498 0-.797-.2-.697-.5-1.096-1-1.295-.3-.099-.601-.099-.901-.099-.3 0-.7.099-1.201.199l-1.601.398c-.801.199-1.502.399-1.902.498-.5.1-.8.299-.9.399 0 .099-.1.099-.1.199v.398c0 .1-.1.1-.2.1-.201 0-.301-.1-.301-.299 0-.099 0-.199-.1-.398 0-.199-.1-.299-.1-.598 0-.199-.1-.299-.1-.498-.1-.1-.1-.299-.1-.398v-.299c0-.1.1-.1.2-.1h.2s.1.1.1.199c0 .1 0 .2.1.2 0 .099.1.099.2.199.2.099.5.099 1.001 0 .5-.1 1.1-.199 2.002-.399l1.5-.099c.501-.1 1.002-.2 1.302-.299.4-.1.7 0 1.1.099.401.1.701.399.901.698.3.299.4.797.6 1.295.1.597.201 1.096.1 1.494-.1.398-.2.797-.5 1.096-.2.199-.5.398-.8.498-.3.099-.7.199-1.101.299l-4.403.996c-.2 0-.3.099-.4.199-.1.1-.1.199-.1.299v.299c0 .099-.1.099-.201.199-.2 0-.3 0-.3-.199 0-.1 0-.2-.1-.399 0-.199-.1-.597-.2-.996-.1-.398-.2-.697-.3-.896-.1-.2-.1-.399-.1-.399 0-.199 0-.299.2-.299h.2s.1.1.1.299c.1.199.2.299.3.399.1.099.3.099.5 0l4.404-.897ZM48.966 248.456c.4 0 .6.1.6.299 0 .099 0 .199-.1.299-.1.099-.2.199-.4.298l-6.205 4.184c.1 0 0 .1 0 .1h.2l4.404-.1c.4 0 .7 0 .9-.099.2 0 .3-.2.4-.299 0-.1.1-.199.1-.299v-.398s.1-.1.2-.1c.201 0 .301.1.301.299v.996c0 .199 0 .398.1.598v.298c0 .2-.1.299-.3.299h-.2l-.1-.099v-.2c0-.099 0-.199-.1-.199-.1-.099-.2-.199-.4-.299-.2 0-.501-.099-1.002 0l-4.803.1c-.3 0-.5 0-.7.1-.201 0-.301.099-.301.199v.398c0 .1 0 .1-.1.1 0 0-.1.099-.2.099-.2 0-.3-.099-.3-.199v-2.291l.2-.199 4.503-3.088.1-.1c0-.099-.1-.099-.2-.099l-2.702.099c-.4 0-.7 0-.9.1-.2.099-.301.199-.401.299 0 .099-.1.199-.1.299v.199c0 .099 0 .099-.1.199 0 0-.1.1-.2.1-.2 0-.3-.1-.3-.299v-1.793c0-.2.1-.299.3-.299h.1s0 .099.1.099v.2c0 .099 0 .199.1.199.1.1.2.199.4.299.2 0 .5.099 1.001 0l6.105-.299ZM48.766 242.579h.4c.1-.1.2-.199.2-.299 0-.1.1-.299.1-.299 0-.099.1-.099.2-.099.2 0 .3.099.3.298 0 .1 0 .2-.1.399s-.1.598-.2.996-.1.797-.1.996v.498c0 .199-.1.199-.3.199-.1 0-.2-.099-.2-.099v-.299c0-.199-.1-.299-.1-.399-.1-.099-.2-.099-.4-.199l-6.005-.797h-.4c-.1 0-.2.1-.2.299 0 .1-.1.199-.1.299 0 .1-.1.1-.2.1-.2 0-.3-.1-.2-.299 0-.1 0-.199.1-.399.1-.199.1-.597.2-.996.1-.398.1-.797.1-.996v-.398c0-.2.1-.2.3-.2.1 0 .2 0 .2.1v.299c0 .199 0 .299.1.398.1.1.2.1.5.2l5.805.697ZM48.566 235.207c.1 0 .1 0 .1-.099 0-.1 0-.1-.1-.1l-3.202-2.191c-.2-.1-.3-.2-.4-.2-.1-.099-.2-.099-.3-.099h-.301l-.2.199c-.1.1-.1.199-.2.199-.1.1-.1.1-.3.1-.2 0-.2-.199-.2-.399 0-.099.1-.199.1-.299.1-.099.1-.298.2-.498.1-.199.1-.298.1-.498 0-.099 0-.299.1-.299.1-.199.2-.298.3-.199.1 0 .1.1.2.1 0 0 0 .099.1.199v.199c0 .1 0 .1.1.2.1.199.2.298.5.498.2.199.601.398 1.001.697l3.403 2.391.9.597c.2.2.401.299.601.399.2.099.3.199.3.299.1.099.1.199.1.298 0 .1-.1.2-.2.2s-.2.099-.4.099h-1.501l-5.004.2h-.9c-.201 0-.401.099-.501.099-.1 0-.1.1-.2.1 0 .099-.1.099-.1.099l-.1.1h-.2c-.1 0-.1-.1-.2-.1v-.199c0-.099.1-.199.2-.398.1-.2.2-.498.3-.897.1-.398.2-.697.2-.896 0-.2.1-.399.1-.498.1-.2.2-.2.3-.2.1 0 .2.1.2.2v.597c0 .1.1.1.1.199h.2l4.804-.199ZM49.265 223.553c.1.099.2.099.3.199.1 0 .1.099 0 .199s-.2.199-.3.199c-.2 0-.4 0-.7.1-.4.099-.7.299-1.001.797-.2.299-.2.597-.2.797.1.199.2.298.4.398l1.701.797c.1.1.2.1.3 0 .1-.1.2-.199.3-.398.101-.2.201-.399.201-.598 0-.199 0-.299-.1-.399l-.3-.298c-.1-.1-.2-.1-.2-.2-.1-.099-.1-.099-.1-.199v-.199c0-.1.1-.1.1-.1h.2s.1.1.3.199c.1.1.4.2.6.299.3.1.6.299.801.399.2.099.4.199.5.199.2.1.2.199.2.299-.1.099-.2.199-.3.099h-.5c-.2 0-.4 0-.6.1-.1.1-.3.199-.4.498 0 0 0 .1-.1.1 0 0 0 .099-.1.199v.1c0 .099 0 .199.1.199l1.9.896c.2.1.401.2.501.2.2.099.3.099.4.099.1 0 .2-.099.4-.199.1-.1.2-.299.3-.498.101-.199.201-.498.201-.697 0-.299-.1-.498-.2-.698-.1-.199-.2-.299-.3-.398-.1-.1-.2-.199-.2-.299-.1-.1-.1-.199-.1-.199v-.199c.1-.2.2-.2.5 0 .1.099.2.099.3.199l.9.597.2.2v.299c0 .099-.2.398-.5.796-.3.499-.6 1.096-1.1 1.993-.3.498-.4.896-.5 1.295-.1.299-.2.498-.2.597-.101.2-.201.2-.401.1-.1 0-.1-.1-.1-.199 0-.1 0-.199.1-.299.1-.199.1-.299 0-.498 0-.1-.2-.199-.4-.299l-5.205-2.49c-.2-.1-.3-.1-.4-.1-.1 0-.2.1-.3.199-.1.1-.2.299-.2.299-.1.1-.1.1-.2 0-.2-.099-.2-.199-.1-.398 0 0 .1-.2.3-.498.2-.299.4-.797.7-1.395.3-.697.6-1.295.8-1.693.201-.498.301-.797.401-.897.1-.1.1-.199.2-.199h.2l1.001.598ZM56.372 217.874h.7l2.502.499c.2 0 .3.099.5 0 .1 0 .2-.1.3-.1.1 0 .201-.1.201-.1h.2c.1 0 .1.1.1.2v.199c0 .099-.1.099-.2.199l-.4.398c-.1.1-.2.299-.3.399-.1.099-.2.299-.2.398-.1.1-.1.2-.2.2s-.201 0-.401-.1l-2.902-.697c-.6-.2-1.001-.1-1.101.099l-.1.1c-.1.099 0 .199.1.199l2.201 1.594c.2.1.3.199.4.199.1 0 .2 0 .301-.199l.2-.199h.2c.2.099.2.199.1.398 0 0-.1.199-.3.299-.2.199-.4.398-.6.797-.3.398-.4.598-.6.797-.1.199-.201.299-.201.398-.1.1-.2.1-.4 0-.1-.099-.1-.099-.1-.199s0-.199.1-.299c.1-.199.1-.299.1-.398 0-.1-.1-.199-.3-.299l-4.904-3.487c-.2-.099-.3-.199-.4-.199-.1 0-.2 0-.3.1-.101.099-.201.199-.301.199-.1.1-.1 0-.2 0-.2-.1-.2-.299 0-.498.1-.1.1-.199.2-.299.1-.099.2-.199.3-.398.3-.399.6-.797.8-1.196.2-.398.401-.697.601-.896.5-.598 1.001-.996 1.501-1.096.5-.1 1.001 0 1.602.398.4.299.7.698.8 1.196.1.498 0 .996-.3 1.594.3-.1.5-.2.7-.2Zm-2.302 1.196c.2.099.3.199.4.199.1 0 .2 0 .3-.199.3-.399.4-.697.3-1.096-.1-.398-.3-.697-.7-.996l-.6-.299c-.2-.1-.4-.1-.6-.1-.201 0-.401 0-.501.1-.2.1-.3.199-.4.299-.2.199-.2.398-.1.498l.5.498 1.4 1.096ZM60.975 209.308c.1.099.1.199.1.299-.1.099-.2.099-.3 0-.1-.1-.3-.1-.5-.2-.3-.199-.6-.298-.9-.298-.201 0-.501.099-.701.298-.2.2-.3.498-.3.797 0 .299.1.598.3.797.2.199.3.299.5.299.1 0 .3.1.5 0 .2 0 .3-.1.5-.1.201-.099.401-.099.601-.199.4-.099.7-.199 1.001-.199h.9c.301 0 .501.1.801.299.2.099.5.299.701.498.3.299.5.598.7.996.1.398.2.697.2 1.096 0 .398-.1.697-.2 1.096-.1.398-.4.697-.7.996-.2.099-.3.299-.5.398-.2.1-.3.199-.5.299-.2.1-.301.1-.401.199-.1 0-.2.1-.3.1-.1 0-.2 0-.3-.1l-.4-.398-.802-.797c-.1-.1-.1-.299 0-.399.1-.099.2-.099.4 0 .1.1.401.2.601.399.8.398 1.401.398 1.902-.1.3-.299.5-.597.5-.996 0-.398-.1-.697-.4-.996-.2-.199-.3-.299-.5-.299-.2-.1-.3-.099-.5-.099-.201 0-.401-.001-.601.099-.2 0-.5.1-.801.199-.3.1-.6.2-.9.2h-.801c-.2 0-.5-.1-.701-.2-.2-.099-.4-.298-.7-.498-.3-.299-.5-.597-.601-.896-.1-.299-.2-.698-.2-.996 0-.299.1-.698.2-.997.1-.298.3-.597.6-.796.3-.299.5-.399.801-.598.3-.1.5-.199.6-.199.1 0 .2 0 .2.099.1 0 .1.1.2.199l.101.1.6.598ZM69.483 209.407c.1.199.2.299.3.299h.4c.1-.1.2-.1.3-.1.1 0 .1 0 .2.1.1.199.1.299 0 .399-.1 0-.2.099-.4.199-.2.099-.5.299-.9.597-.4.299-.6.499-.801.698l-.3.299c-.1.099-.3.099-.4-.1-.1-.1-.1-.1 0-.199 0-.1.1-.1.2-.199.1-.1.2-.299.2-.399 0-.1-.1-.199-.2-.398l-3.503-4.881c-.1-.2-.2-.299-.3-.299h-.4c-.1.099-.201.099-.301.099-.1 0-.2 0-.2-.099-.1-.2-.1-.299 0-.399l.4-.199c.2-.1.5-.299.9-.598.401-.299.601-.498.802-.597l.3-.299c.1-.1.3-.1.4.099.1.1.1.1 0 .2 0 .099-.1.099-.2.199-.1.099-.2.299-.2.398 0 .1 0 .299.2.399l3.503 4.781ZM70.384 201.737c-.1-.299-.3-.398-.6-.299 0 0-.101.1-.201.1s-.1.099-.2.099-.2 0-.2-.099c0-.1 0-.199.1-.399.1-.199.3-.299.5-.498s.5-.398.8-.597c.301-.2.701-.399 1.102-.598a6.39 6.39 0 0 1 1.801-.598c.6-.099 1.201 0 1.701.199.5.2 1.001.399 1.401.797.4.399.801.897 1.101 1.495.3.498.4 1.095.5 1.593.1.598 0 1.096-.2 1.594s-.4.996-.8 1.395c-.4.398-.9.797-1.501 1.096-.3.199-.7.298-.9.398-.301.1-.501.199-.701.299-.3.099-.5.299-.701.398-.2.1-.3.199-.4.299-.2.1-.3 0-.4-.1v-.199l.2-.199.3-.299c0-.099 0-.299-.1-.498l-2.602-5.379Zm4.503 4.881c.2.1.4.1.7 0 .3-.1.501-.398.701-.598.2-.298.3-.597.4-.996.1-.398 0-.797 0-1.295-.1-.498-.3-.996-.5-1.494-.3-.498-.5-.996-.9-1.295-.3-.398-.601-.598-1.001-.797a1.94 1.94 0 0 0-1.001-.299c-.3 0-.7 0-1 .2-.201.099-.301.199-.401.298-.1.1-.1.2-.2.2v.298c0 .1.1.2.1.299l2.502 4.981c.2.1.4.398.6.498ZM86.496 201.339c.3.498.6.796.9.896H87.996s.1.1.1.199v.2s-.1.099-.2.099-.3.1-.5.1-.5.099-.9.199c-.3.1-.6.199-.801.299-.2.099-.4.199-.6.199-.2.1-.3 0-.4-.199v-.299c.1-.1.1-.1.2-.1s.1-.099.2-.099c.1-.1.1-.1 0-.299 0-.1-.1-.1-.1-.199l-.801-1.295c-.2-.1-.3-.2-.4-.2-.2 0-.4.1-.901.2-.2.099-.4.099-.5.199-.1 0-.2.1-.3.1-.101 0-.101.099-.101.199v.199c0 .598 0 .996.1 1.195 0 .2.1.299.2.399.1.099.2.099.4.099h.501c.1 0 .2.1.2.2 0 .199 0 .298-.2.298 0 0-.1 0-.3.1-.2 0-.5.1-.8.199-.301.1-.501.2-.601.2-.1.099-.2.099-.2.099-.2 0-.3 0-.3-.199 0-.1 0-.199.1-.299.1-.1.2-.1.3-.199.1-.1.1-.199.2-.299 0-.1.1-.299.1-.498l.3-7.073c0-.199 0-.398.1-.498.1-.099.1-.099.3-.199h.3c.1 0 .2.199.3.399l3.504 5.678Zm-4.404-3.288V200.641s.1.1.1 0l1.301-.398c.1 0 .1-.1.1-.1 0-.099 0-.099-.1-.099l-1.3-1.793c-.1-.1-.1-.2-.1-.2ZM89.898 195.162c0-.298-.2-.498-.4-.398h-.4c-.1 0-.1-.1-.2-.199 0-.1.1-.199.2-.299.2-.1.4-.199.7-.299.3-.1.6-.199 1.001-.299.4-.099.8-.099 1.301-.199.7-.1 1.301 0 1.901.1.601.199 1.101.398 1.502.797.4.298.8.796 1 1.295.3.498.4 1.095.5 1.693.101.598 0 1.195-.2 1.693s-.4.997-.7 1.395c-.3.398-.8.797-1.3.996-.501.299-1.102.399-1.802.498H91.2c-.301 0-.601.1-.801.1-.2.099-.4.099-.5.099-.2 0-.301-.099-.301-.298 0-.1 0-.2.1-.2s.2-.099.3-.099c.2-.1.3-.1.3-.2.1-.099.1-.199.1-.498l-.5-5.678Zm2.402 6.077c.1.199.3.199.7.199.3 0 .601-.1.901-.299.3-.199.5-.498.701-.797.2-.298.3-.697.4-1.195.1-.498.1-.996.1-1.594-.1-.598-.2-1.096-.3-1.594-.2-.498-.4-.797-.6-1.095-.2-.299-.5-.498-.801-.698-.3-.099-.6-.199-1-.199-.2 0-.401 0-.501.1-.1 0-.2.099-.2.199-.1.1-.1.199-.1.199v.299l.5 5.479c0 .498.1.896.2.996ZM105.91 195.561c0 .1 0 .199-.1.299 0 .099-.1.099-.2.099s-.2-.099-.3-.298l-.301-.598c-.2-.399-.6-.598-1.1-.598-.401 0-.601 0-.801.1-.1.099-.2.299-.2.498l-.2 1.893c0 .099 0 .199.1.298.1.1.2.1.4.1h.601c.2 0 .3-.1.4-.199.1-.1.2-.199.2-.299 0-.1.1-.199.1-.299 0-.099.1-.099.1-.199 0 0 .1-.1.2-.1s.1 0 .2.1c0 .1.101.1 0 .199 0 .1 0 .199-.1.299 0 .199-.1.398-.1.697 0 .299-.1.598-.1.797v.598c0 .199-.1.299-.3.299-.1 0-.2-.1-.2-.199 0-.1-.1-.299-.1-.499-.1-.199-.2-.398-.3-.498-.101-.099-.301-.199-.601-.199h-.4.1c-.1 0-.2.1-.2.199l-.201 2.092v.598c0 .199 0 .299.101.398.1.1.1.2.3.299.1.1.3.1.5.1.3 0 .501 0 .801-.1.2-.099.4-.199.6-.398.1-.1.2-.299.301-.399.1-.099.1-.199.2-.299.1-.099.1-.199.2-.199.1-.099.1-.099.2-.099.2 0 .2.199.2.398 0 .1-.1.199-.1.299l-.3 1.096c0 .099-.1.199-.1.299-.1.099-.2.099-.3.099-.101 0-.401-.099-1.001-.199-.501-.1-1.301-.199-2.202-.299-.6-.1-1.001-.1-1.401-.1h-.6c-.2 0-.3-.099-.2-.298 0-.1 0-.2.1-.2h.3c.2 0 .3-.099.4-.099.1-.1.1-.199.2-.399l.601-5.977v-.398c-.101-.1-.201-.199-.301-.199-.2-.1-.3-.1-.4-.1-.1 0-.1-.099-.1-.199 0-.199.1-.299.3-.199 0 0 .2 0 .601.099.3.1.9.1 1.601.2.801.099 1.401.099 1.901.099h1.001c.1 0 .2 0 .3.1 0 0 .101.099 0 .199l-.3 1.295ZM117.22 202.634c0 .099 0 .099.1.099h.1l2.502-2.988c.1-.1.2-.299.3-.399.1-.099.1-.199.1-.298v-.299c-.1-.1-.1-.2-.2-.2l-.2-.199c-.1-.099-.1-.199 0-.299.1-.199.2-.199.4-.099.1 0 .2.099.301.199.1.1.3.1.5.199.2.1.3.1.4.1.1 0 .2.099.3.099.201.1.301.2.201.399 0 .1-.1.099-.1.199h-.601c-.2 0-.3.199-.6.399a8.05 8.05 0 0 0-.801.896l-2.702 3.088c-.3.299-.501.598-.701.797-.2.199-.3.398-.5.598l-.3.299c-.1.099-.201.099-.301 0-.1 0-.2-.1-.2-.2v-.996c0-.299 0-.597.1-.896l.2-4.981v-.897c0-.199 0-.398-.1-.498 0-.099-.1-.099-.1-.199l-.1-.099-.1-.1v-.199c0-.1.1-.1.1-.1h.2l.401.199c.2.1.5.2.9.399.401.099.701.299.901.299.2.099.4.099.501.099.2.1.2.199.2.299 0 .1-.1.199-.2.199h-.601c-.1 0-.1 0-.2.1v.199l-.1 4.782ZM123.324 207.714c-.1.199-.1.299-.1.398 0 .1.1.2.2.299l.2.199v.2c-.1.199-.2.199-.4.099-.1 0-.2-.099-.4-.299-.2-.199-.501-.298-.901-.597-.4-.2-.701-.399-.901-.498-.2-.1-.4-.1-.4-.2-.1-.099-.2-.199-.1-.398 0-.1.1-.1.2-.1s.2 0 .3.1c.2.1.301.1.401 0 .1 0 .2-.199.3-.399l3.002-5.179c.1-.2.1-.299.1-.399 0-.1-.1-.199-.2-.299-.1-.099-.2-.199-.3-.199-.1-.1-.1-.1 0-.199.1-.199.2-.199.4-.1 0 0 .2.1.401.299.2.1.5.299.9.598.401.199.701.398.901.498l.4.199c.1.1.2.199.1.398 0 .1-.1.1-.2.1s-.1 0-.3-.1c-.2-.099-.3-.099-.4-.099-.1 0-.2.199-.301.398l-2.902 5.28ZM128.628 210.802c-.3.299-.4.598-.4.797 0 .199.1.398.3.598l.601.298c.2.1.5.1.7 0 .2 0 .3-.099.401-.099.1-.1.3-.1.4-.199.1 0 .2-.1.3-.1h.2l.1.1c0 .099 0 .099-.1.199l-.3.299-.801.797c-.1.099-.2.199-.3.199-.1 0-.2 0-.3-.1-.2-.099-.4-.398-.801-.697-.4-.399-.9-.797-1.601-1.295-.4-.299-.6-.498-.801-.598-.2-.099-.3-.199-.4-.199-.1-.1-.1-.199 0-.399.1-.099.1-.099.2-.099s.2.099.3.099c.201.1.301.1.401.1.1 0 .2-.1.4-.299l3.703-4.682c.1-.199.2-.298.2-.398 0-.1 0-.199-.1-.299-.1-.1-.2-.199-.2-.299v-.199c.1-.1.2-.199.4-.1l.3.299c.201.199.401.399.801.698.4.298.601.498.901.597.2.1.4.199.4.299.1.1.2.199 0 .399-.1.099-.1.099-.2.099s-.2-.099-.3-.099c-.2-.1-.3-.2-.501-.1-.1 0-.3.1-.4.299l-3.503 4.084ZM136.636 218.472c-.301.498-.401.897-.401 1.195 0 .1 0 .1.1.2 0 .099.1.099.1.199v.199c0 .1 0 .1-.1.199-.1.1-.1.1-.2.1s-.1-.1-.2-.199c-.1-.1-.2-.199-.3-.399-.1-.199-.3-.398-.601-.697-.2-.299-.4-.498-.6-.598-.2-.199-.4-.299-.501-.398-.1-.199-.1-.299 0-.399.101-.099.201-.099.301-.099.1 0 .1.099.2.099.1.1.1.1.2.1s.2 0 .3-.1l.2-.199.801-1.295c.1-.099.1-.299 0-.398-.1-.1-.3-.399-.6-.698l-.401-.398-.2-.199h-.2c-.1 0-.1 0-.2.099-.601.299-.901.498-1.101.598-.1.1-.2.199-.2.299 0 .1 0 .299.1.498s.1.299.2.398c.1.1 0 .2-.1.299-.1.1-.3.1-.4 0 0 0-.1-.099-.201-.299-.1-.199-.3-.398-.5-.697-.2-.199-.3-.398-.5-.398-.1-.1-.2-.1-.2-.2-.101-.099-.101-.298 0-.398.1-.1.2-.1.3-.1.1 0 .2.1.3.1.1 0 .2.1.4 0 .1 0 .301-.1.501-.199l6.505-2.889c.2-.1.4-.1.5-.1.1 0 .2.1.3.2.101.099.201.199.101.298 0 .1-.101.2-.201.399l-3.502 5.877Zm1-5.379h-.2l-2.001.996h-.1v.1l.9.996c.1.099.1.099.1 0l.1-.1 1.101-1.892c.1 0 .1 0 .1-.1ZM144.141 227.936s-.1.099 0 .099c0 .1.1.1.1.1l3.803-.498c.2 0 .3-.1.501-.1.1 0 .2-.099.3-.099.1-.1.2-.1.2-.2v-.597c0-.1.1-.2.2-.2.2-.099.3 0 .4.2 0 .099.101.199.101.298 0 .1.1.299.2.499.1.199.2.298.2.398.1.1.1.199.2.299.1.199.1.299-.1.398-.1 0-.1.1-.2 0-.1 0-.1 0-.1-.099l-.1-.1c-.1-.1-.1-.1-.201-.1-.1-.099-.4-.099-.7-.099-.3 0-.701.099-1.201.099l-4.103.498c-.401 0-.701.1-1.001.1-.3 0-.501.1-.701.1h-.4c-.1 0-.2-.1-.2-.2v-.298c0-.1.1-.2.2-.299l.4-.399c.2-.199.401-.398.701-.597l3.503-3.487c.2-.199.4-.498.6-.598.2-.199.2-.298.3-.398V222.058l.1-.099h.201c.1 0 .1.099.1.099s.1.2.1.399c.1.199.2.498.4.896.2.399.3.598.5.797.101.199.201.299.301.399.1.199 0 .299-.1.398-.1.1-.201.1-.301 0-.1-.099-.2-.099-.2-.199l-.2-.199c-.1-.1-.1-.1-.2 0 0 0-.1 0-.1.099l-.1.1-3.403 3.188ZM151.447 237.1c-.1 0-.2.1-.3.1-.1 0-.1 0-.2-.1 0-.1 0-.199.1-.299l.501-.498c.3-.299.3-.697.2-1.295-.1-.398-.2-.598-.401-.697-.2-.1-.3-.1-.6 0l-1.802.498c-.1 0-.2.1-.2.199 0 .1 0 .199.1.399.1.298.201.498.201.597l.3.299c.2 0 .3.1.4.1h.501c.1 0 .1.099.1.099v.2c0 .099-.1.099-.201.099-.1 0-.2 0-.3.1-.2 0-.4.099-.7.199-.301.1-.601.199-.801.299-.2.099-.4.099-.6.199-.201.1-.301 0-.301-.1 0-.099 0-.199.1-.298.1-.1.301-.2.401-.299.2-.199.3-.299.4-.498.1-.2 0-.399 0-.598v-.199c0-.1 0-.1-.1-.199l-.1-.1c0-.1-.1-.1-.2-.1l-2.002.598c-.2.1-.4.1-.6.199-.201.1-.301.1-.401.199-.1.1-.1.2-.2.399 0 .1 0 .299.1.598.1.298.2.498.401.697.2.199.4.299.6.398.2.1.3.1.5.1.101 0 .301 0 .401.1.1 0 .2 0 .3.099.1 0 .1.1.1.1 0 .199-.1.299-.3.398h-.3l-1.101.2h-.301c-.1 0-.1-.1-.2-.2 0-.099-.1-.398-.2-.896s-.3-1.295-.6-2.192c-.2-.597-.301-.996-.401-1.295-.1-.299-.2-.498-.2-.597-.1-.2 0-.299.2-.399h.201c0 .1.1.199.2.299.1.199.2.299.3.299h.5l5.805-1.694c.2-.099.3-.099.4-.199.1-.099.1-.199.1-.398v-.399c0-.099 0-.199.2-.199.201-.1.301 0 .301.199 0 0 .1.199.1.598.1.299.2.797.4 1.494s.4 1.395.601 1.793c.2.498.3.797.3.996v.299c0 .1-.1.1-.2.1l-1.502.199ZM147.444 243.973c-.4.1-.701.1-.801.2-.1.099-.2.298-.2.597 0 .199.1.399.2.598.1.199.301.398.501.498.1.1.3.199.4.199.1.1.3.1.4.1.1 0 .201.099.301.099.1 0 .1.1.1.2v.099s-.1.1-.2.1h-1.502c-.2 0-.3 0-.3-.1-.1 0-.1-.099-.1-.299 0-.199 0-.597-.1-1.095 0-.498-.1-1.196-.2-2.092-.1-.399-.1-.797-.2-.996-.1-.2-.1-.399-.1-.399 0-.199.1-.299.3-.299.1 0 .2 0 .2.1s.1.1.1.299c.1.199.1.299.2.299.1.099.2.099.501 0l6.004-.698c.201 0 .301-.099.401-.099.1-.1.1-.199.2-.299v-.399c0-.099.1-.099.2-.099.2 0 .3 0 .3.199v.399c0 .199 0 .597.1.996.1.398.1.797.2 1.095.101.299.101.399.101.498 0 .2-.101.299-.301.299-.1 0-.2 0-.2-.099 0-.1-.1-.1-.1-.299-.1-.199-.1-.399-.2-.399-.1-.099-.3-.099-.5-.099l-5.705.896ZM151.147 252.042c-.1 0-.2 0-.2.1l-.1 2.191c0 .1.1.199.2.199l2.202.1c.2 0 .3 0 .4-.1.1-.099.2-.199.2-.298 0-.1.1-.299.1-.299 0-.1.1-.1.2-.1.201 0 .301.1.301.299 0 .1 0 .199-.1.398 0 .2-.101.598-.101.996v1.395c0 .199-.1.199-.3.199-.1 0-.2 0-.2-.099 0-.1 0-.2-.1-.299 0-.199-.1-.299-.1-.399-.1-.099-.2-.099-.501-.099l-6.004-.399c-.2 0-.301 0-.401.1-.1 0-.2.1-.2.299 0 .199-.1.299-.1.299 0 .099-.1.099-.2.099-.2 0-.3-.099-.3-.299 0-.099 0-.199.1-.398s.1-.598.1-.996v-1.494c0-.2.1-.2.3-.2.1 0 .2 0 .2.1v.299c0 .199.1.299.1.398.1.1.201.1.501.1l2.902.199c.1 0 .2 0 .2-.099l.1-2.192c0-.1-.1-.199-.2-.199l-2.902-.199c-.2 0-.3 0-.4.099-.101.1-.201.199-.201.299 0 .1-.1.299-.1.299 0 .099-.1.099-.2.099-.2 0-.3-.099-.3-.298 0-.1 0-.2.1-.399s.1-.598.1-.996v-1.494c0-.199.1-.199.3-.199.1 0 .2 0 .2.099 0 .1 0 .199.101.299 0 .199.1.299.1.398.1.1.2.1.5.1l6.005.399c.2 0 .3 0 .4-.1.1 0 .2-.1.2-.299 0-.099.1-.299.1-.299 0-.099.1-.099.201-.099.2 0 .3.099.3.298 0 .1 0 .2-.1.399 0 .199-.1.598-.1.996v1.395c0 .199-.1.199-.301.199-.1 0-.2 0-.2-.1v-.299c0-.199-.1-.298-.2-.398-.1-.1-.2-.1-.5-.1l-2.102.1ZM145.542 264.992c-.6 0-1.001.099-1.201.299 0 0-.1.099-.1.199s-.1.1-.1.199c0 .1-.1.1-.1.1h-.2c-.1 0-.1-.1-.2-.1v-.299c0-.099.1-.199.2-.498.1-.199.2-.498.3-.896.1-.299.1-.598.2-.897 0-.299.1-.498.1-.597.1-.2.2-.299.301-.2.1 0 .2.1.2.2v.597c0 .1.1.1.2.199h.2l1.501-.099c.2 0 .3-.1.3-.199.1-.1.1-.399.301-.797.1-.2.1-.399.1-.498v-.299c0-.1 0-.1-.1-.199 0 0-.1-.1-.201-.1-.5-.299-.9-.498-1.1-.598h-.401c-.1 0-.2.1-.3.299-.1.199-.2.299-.3.399-.1.099-.2.099-.3.099-.201 0-.201-.199-.201-.299 0 0 .101-.099.101-.299.1-.199.2-.498.3-.796.1-.299.1-.499.1-.598v-.299c0-.199.1-.199.3-.199.1 0 .2.099.2.199s0 .199.1.398c0 .1.1.2.2.299.101.1.201.2.401.299l5.904 3.785c.201.1.301.2.401.299v.299c0 .199-.1.199-.2.299-.1 0-.201.1-.501.1l-6.405.199Zm5.004-2.092s0-.1-.1-.1l-1.901-1.195h-.101s-.1 0-.1.1l-.3 1.295v.099h.1l2.202-.099.2-.1ZM53.168 274.156l.6 2.092h2.203l-1.702 1.196.6 2.092-1.7-1.295-1.802 1.295.7-2.092-1.7-1.196h2.1l.701-2.092ZM143.04 274.156l.701 2.092h2.102l-1.702 1.196.701 2.092-1.802-1.295-1.701 1.295.601-2.092-1.702-1.196h2.202l.6-2.092ZM101.207 300.853h-2.802l-.9-2.69c0-.099-.201-.199-.301-.199-.1 0-.2 0-.3.199l-.901 2.69h-2.802c-.3 0-.4.398-.2.498.2.1 2.301 1.693 2.301 1.693l-.9 2.69c-.1.299.2.498.4.299s2.302-1.694 2.302-1.694 2.102 1.495 2.302 1.694c.2.099.5 0 .4-.299l-.9-2.69s2.101-1.494 2.301-1.693c.4-.1.3-.498 0-.498ZM80.491 299.757c3.403 1.096 7.006 1.893 10.709 2.391.5.099.4-.199.2-.399-.2-.099-.5-.398-.7-.498-.1-.099-.301-.099-.401-.199-3.203-.398-5.905-1.096-8.907-2.092-.3-.099-.4 0-.5.1-.1.099-.2.199-.3.199-.301.199-.301.299-.1.498ZM118.421 296.968c-4.503 1.992-9.107 3.287-14.111 3.985-.1 0-.4.099-.601.199-.2.099-.4.299-.6.498-.4.299-.1.398.2.398 5.504-.597 10.709-2.092 15.612-4.283.301-.199.101-.498.101-.498l-.201-.299c0 .1-.2-.1-.4 0ZM59.274 288.202c-.3.299-.5.598-.7.797-.2.299-.3.498-.4.697-.1.199 0 .498 0 .697.1.2.2.399.5.698.5.498 1 .597 1.601.498.3-.1.5-.199.8-.399.2-.199.501-.498.901-.797l1.101-1.195c.6-.598 1.001-1.096 1.301-1.494.3-.399.5-.697.5-.897 0-.099 0-.199-.1-.199l-.2-.199c-.1-.1-.1-.1-.1-.199 0-.1 0-.1.1-.2.1-.099.3-.099.4.1l.3.299c.101.1.201.299.401.398.1.1.3.2.4.299l.3.299c.1.1.1.199.201.199 0 .1 0 .1-.1.2-.1.099-.1.099-.2.099s-.1 0-.2-.099l-.2-.2c-.1-.099-.2-.099-.2-.099-.2 0-.501.199-.801.498-.4.299-.801.797-1.402 1.394l-1.1 1.096c-.4.399-.7.697-1.001.897-.3.298-.6.398-1.001.498-.4.099-.8.099-1.2-.1-.401-.1-.801-.398-1.202-.797-.4-.398-.8-.797-.9-1.195-.2-.399-.3-.797-.2-1.196 0-.298.2-.597.4-.896.2-.299.4-.498.7-.797l3.103-3.287c.1-.1.2-.299.2-.399 0-.099 0-.199-.1-.398-.1-.1-.1-.199-.2-.299 0-.1 0-.1.1-.199.1-.1.3-.199.4 0 0 0 .1.199.3.299.2.199.4.398.7.796.3.299.501.499.701.598.2.1.3.199.3.299.1.1.1.199 0 .398-.1.1-.1.1-.2.1s-.1-.1-.2-.1c-.2-.099-.3-.199-.4-.199-.1 0-.2.1-.4.299l-3.003 3.387ZM67.38 294.777v.099h.2l3.103-2.291c.1-.1.3-.199.4-.299l.2-.199c.1-.1.1-.199.1-.299 0-.099-.1-.199-.1-.299-.1-.099-.1-.199-.2-.199v-.299c.1-.099.2-.199.4 0 .1.1.2.1.3.199.1.1.2.2.4.299.1.1.301.2.401.2.1.099.2.099.3.199.2.099.2.299.1.398-.1.1-.1.1-.2.1h-.2c-.1 0-.1 0-.2-.1h-.2c-.2 0-.4.1-.6.299-.301.199-.601.399-1.002.697l-3.302 2.491c-.3.199-.6.398-.8.597-.2.2-.401.299-.601.399-.2.099-.3.199-.4.199h-.3c-.1-.1-.1-.1-.1-.199 0-.1 0-.199.1-.399 0-.199.1-.398.2-.597.1-.2.2-.498.3-.897l1.3-4.781c.1-.299.2-.598.2-.797.1-.199.1-.399 0-.498 0-.1-.1-.1-.1-.2 0-.099-.1-.099-.1-.199 0 0 0-.099-.1-.099 0-.1 0-.1.1-.2 0-.099.1-.099.2-.099h.2l.301.299c.2.199.4.298.8.597.301.2.601.399.801.498l.4.2c.2.099.2.199.1.398-.1.1-.2.199-.2.1-.1 0-.2 0-.3-.1-.1 0-.2-.1-.3-.1-.1 0-.2 0-.2.1 0 0 0 .1-.1.1v.099l-1.301 4.583Z" fill="#2F2B62"/><path d="M74.386 298.761v.1h.1l2.702-2.79c.1-.099.2-.298.3-.398.1-.1.1-.199.2-.199.1-.1.1-.199 0-.299 0-.1-.1-.199-.2-.199l-.2-.2c-.1-.099-.1-.199 0-.298.1-.2.2-.2.4-.1.1 0 .2.1.3.199.1.1.3.199.401.199.2.1.3.1.4.2.1 0 .2.099.3.099.2.1.3.2.2.399 0 .099-.1.099-.1.099H78.59c-.2 0-.4.1-.6.399-.2.199-.5.498-.901.797l-2.902 2.889-.7.697-.501.498c-.1.1-.3.199-.4.299h-.3c-.1 0-.1-.1-.201-.199v-.399c0-.199 0-.398.1-.598 0-.298.1-.597.1-.896l.6-4.881c0-.299.1-.598.1-.797v-.498c0-.1-.1-.1-.1-.199l-.1-.1-.1-.1v-.199c0-.099.1-.099.1-.099h.2s.2.099.3.199c.201.099.501.299.902.498.4.199.7.299.9.398.2.1.4.1.5.2.2.099.2.199.1.298-.1.1-.1.2-.2.2h-.6c-.1 0-.2 0-.2.099v.199l-.3 4.483ZM126.828 291.091c.1.099.1.199.1.298 0 .1 0 .1-.1.2-.1.099-.2 0-.4 0-.1-.1-.401-.2-.601-.299-.4-.199-.801-.1-1.301.199-.3.199-.5.399-.5.598 0 .199 0 .398.1.498l1.001 1.594c.1.099.1.199.2.199s.2-.1.4-.199c.2-.1.4-.299.5-.399.101-.099.201-.199.201-.398v-.399c0-.099-.1-.199-.1-.299v-.199c0-.099 0-.099.1-.099h.2c.1 0 .1.099.2.199 0 0 .1.099.2.299.1.199.2.398.4.597.201.299.301.498.501.698.1.199.2.398.3.498.1.199.1.299 0 .398-.1.1-.2.1-.3 0-.1-.099-.2-.199-.401-.299-.2-.099-.4-.199-.5-.199-.2 0-.4.1-.6.199l-.1.1-.101.1-.1.099c-.1.1-.1.199 0 .199l1.101 1.793c.1.2.2.299.3.499l.301.298c.1.1.2.1.4.1.1 0 .3-.1.5-.199.201-.1.401-.299.501-.498.1-.2.2-.399.2-.698v-1.195c0-.1 0-.1.1-.199.1-.1.3 0 .4.199 0 .1.1.199.1.299l.501.996c.1.1.1.199.1.299 0 .099-.1.199-.2.199-.1.1-.401.199-.901.399-.5.199-1.101.597-2.002 1.095-.5.299-.9.598-1.1.797-.301.199-.401.299-.501.399-.2.099-.3.099-.4-.1-.1-.1-.1-.199 0-.199 0-.1.1-.1.2-.199.2-.1.2-.299.3-.399 0-.099 0-.299-.2-.398l-3.202-5.081c-.101-.199-.201-.298-.301-.298h-.4c-.2.099-.3.099-.4.099-.1 0-.2 0-.2-.099-.101-.2-.101-.299.1-.399 0 0 .2-.1.5-.299.3-.199.801-.398 1.301-.797.701-.398 1.201-.797 1.601-1.095.401-.299.701-.499.801-.598.1-.1.2-.1.3-.1.1 0 .1 0 .2.1l.701 1.096ZM132.232 287.106c.1.1.1.299 0 .299-.1.1-.2.1-.3 0-.101-.1-.301-.199-.501-.299-.3-.199-.6-.299-.901-.398-.2 0-.5 0-.8.299-.2.199-.401.498-.401.796 0 .299.101.598.301.797.2.2.3.299.4.299.1.1.3.1.5.1.201 0 .301 0 .501-.1.2-.099.4-.099.6-.099.401-.1.701-.1 1.001-.1.3 0 .601 0 .901.1.3.099.5.199.7.298.201.1.501.299.701.598.3.299.5.697.6.996.1.399.201.698.1 1.096 0 .398-.1.697-.3 1.096-.2.299-.4.597-.7.896-.2.1-.301.299-.501.399-.2.099-.3.199-.5.199-.2.1-.3.1-.4.1h-.301c-.1 0-.2-.1-.3-.1l-.4-.399-.701-.796c-.1-.1-.1-.299 0-.399.1-.099.2-.099.3.1.101.099.301.299.601.398.7.498 1.401.498 1.901.1.301-.299.501-.598.601-.996 0-.399-.1-.698-.3-.996-.1-.2-.301-.299-.501-.399-.2-.1-.3-.1-.5-.199h-.601c-.2 0-.5.099-.8.099-.3.1-.601.1-.901.1h-.801c-.2-.1-.5-.1-.7-.299-.2-.099-.4-.299-.601-.498-.2-.299-.4-.598-.5-.896-.1-.299-.1-.698-.1-.996 0-.299.1-.598.3-.997.2-.298.4-.597.601-.797.3-.199.5-.398.8-.498.3-.099.501-.199.601-.199.1 0 .2 0 .2.1.1 0 .1.099.2.199l.1.1.801.896ZM55.771 276.049H53.87s-.5-1.594-.6-1.793c0-.1-.1-.1-.2-.1s-.101 0-.201.1c-.1.199-.6 1.793-.6 1.793h-1.902c-.2 0-.2.299-.1.299.1.099 1.501 1.096 1.501 1.096s-.5 1.593-.6 1.793c0 .199.1.299.3.199.1-.1 1.501-1.096 1.501-1.096s1.401.996 1.501 1.096c.1.1.3 0 .3-.199-.1-.2-.6-1.793-.6-1.793s1.401-.997 1.501-1.096c.3 0 .3-.299.1-.299ZM145.642 276.049h-1.901s-.501-1.594-.601-1.793c0-.1-.1-.1-.2-.1s-.1 0-.2.1c-.1.199-.6 1.793-.6 1.793h-1.902c-.2 0-.2.299-.1.299.1.099 1.501 1.096 1.501 1.096s-.5 1.593-.6 1.793c0 .199.1.299.3.199.1-.1 1.501-1.096 1.501-1.096s1.401.996 1.501 1.096c.1.1.301 0 .301-.199-.101-.2-.601-1.793-.601-1.793s1.401-.997 1.501-1.096c.401 0 .301-.299.1-.299ZM141.338 249.95c0 24.007-19.515 43.432-43.634 43.432-24.12 0-43.635-19.425-43.635-43.432s19.516-43.431 43.635-43.431 43.634 19.424 43.634 43.431Z" fill="#2F2B62"/><mask id="a" style="mask-type:luminance" maskUnits="userSpaceOnUse" x="54" y="206" width="88" height="88"><path d="M54.172 249.95c0 24.007 19.515 43.432 43.634 43.432 24.12 0 43.635-19.425 43.635-43.432s-19.616-43.431-43.635-43.431c-24.119 0-43.634 19.424-43.634 43.431Z" fill="#fff"/></mask><g mask="url(#a)"><path d="M98.106 228.932s-.2-.1-.2-.2v-.597c0-.199-.1-.299-.3-.299h-.3c-.2 0-.3-.199-.3-.299v-1.295c0-.099-.1-.299-.3-.299h-.601c-.2 0-.3.1-.3.299v1.295c0 .1-.1.299-.3.299h-.3c-.101 0-.301.1-.301.299v.597c0 .1-.1.2-.2.2-.2.099-.4.299-.4.498s.1.398.3.498c.1 0 .2.099.2.199v1.395c0 .199-.3.099-.3 0 0-.996-1.101-1.495-1.802-1.196-.4.2-.8 0-.9-.099-.1-.1 0-.1 0-.2.5-1.095-.1-2.191-.501-2.689-.4-.598-1.1-.897-1.901-.897-.601.1-.901.498-1.001.698-.1.099-.2.099-.3 0-.5-.598-.601-1.495-.2-2.092.1-.1 0-.199 0-.199s-1.002-.997-1.102-.997c0 0-.1-.099-.1-.199v-5.279c0-.1.1-.299.3-.299H89.9c.1 0 .3-.1.3-.299v-.996c0-.1-.1-.299-.3-.299h-2.202c-.1 0-.3-.1-.3-.299v-2.092c0-.099-.1-.299-.3-.299h-1.001c-.1 0-.3.1-.3.299v2.092c0 .1-.1.299-.3.299h-2.202c-.2 0-.3.1-.3.299v.996c0 .1.1.299.3.299h2.201c.2 0 .3.099.3.299v5.379c0 .099 0 .099-.1.199l-1.1.996s-.1.1 0 .199c.4.698.3 1.495-.2 2.092-.1.1-.2.1-.3 0-.1-.199-.401-.697-1.002-.697-.7-.1-1.4.299-1.901.897-.4.498-1 1.593-.5 2.689v.199c-.1.1-.5.299-.901.1-.7-.299-1.802.1-1.802 1.195 0 .2-.2.2-.3 0v-1.394c0-.1.1-.2.2-.2.2-.099.3-.298.3-.498 0-.199-.2-.398-.4-.498 0 0-.2-.099-.2-.199v-.598c0-.199-.1-.298-.3-.298h-.3c-.2 0-.3-.2-.3-.299v-1.295c0-.1-.1-.299-.3-.299h-.601c-.2 0-.3.1-.3.299v1.295c0 .099-.1.299-.3.299h-.301c-.1 0-.3.099-.3.298v.498c0 .1-.1.2-.2.2-.2.099-.4.299-.4.498s.1.398.3.498c.1 0 .2.099.2.199v2.889c0 .1.1.1.1.1H85.597c.1 0 .2-.2.1-.2-.3-.199-.6-.498-.6-.896 0-.598.7-1.096 1.6-1.096.901 0 1.602.498 1.602 1.096 0 .299-.2.597-.6.896-.1.1-.1.2.1.2H97.905c.1 0 .1 0 .1-.1v-2.889c0-.1.1-.199.2-.199.2-.1.3-.299.3-.498s-.2-.399-.4-.498Z" fill="#fff"/></g><mask id="b" style="mask-type:luminance" maskUnits="userSpaceOnUse" x="54" y="206" width="88" height="88"><path d="M54.172 249.95c0 24.007 19.515 43.432 43.634 43.432 24.12 0 43.635-19.425 43.635-43.432s-19.616-43.431-43.635-43.431c-24.119 0-43.634 19.424-43.634 43.431Z" fill="#fff"/></mask><g mask="url(#b)"><path d="M98.106 234.809c0-.299.1-.598.2-.897 0-.099 0-.199-.1-.199H75.087c-.1 0-.1.1-.1.199.1.299.2.598.2.897 0 .299-.1.598-.2.896 0 .1 0 .2.1.2h23.219c.1 0 .1-.1.1-.2-.2-.298-.3-.597-.3-.896Z" fill="#fff"/></g><mask id="c" style="mask-type:luminance" maskUnits="userSpaceOnUse" x="54" y="206" width="88" height="88"><path d="M54.172 249.95c0 24.007 19.515 43.432 43.634 43.432 24.12 0 43.635-19.425 43.635-43.432s-19.616-43.431-43.635-43.431c-24.119 0-43.634 19.424-43.634 43.431Z" fill="#fff"/></mask><g mask="url(#c)"><path d="M108.014 228.334h-2.102c-.2 0-.4-.1-.5-.399-.2-.597-.801-1.294-1.802-1.294-1.1 0-1.701.796-1.801 1.294-.1.2-.3.399-.5.399h-2.202c-.1 0-.1.1-.1.1v5.877c0 .099.1.099.1.099h2.902c.1 0 .1-.099.1-.099v-4.582c0-.797.601-1.395 1.401-1.395.801 0 1.402.598 1.402 1.395v4.582c0 .099 0 .099.1.099h2.902c.1 0 .1-.099.1-.099v-5.877c.1-.1.1-.1 0-.1Z" fill="#fff"/></g><mask id="d" style="mask-type:luminance" maskUnits="userSpaceOnUse" x="54" y="206" width="88" height="88"><path d="M54.172 249.95c0 24.007 19.515 43.432 43.634 43.432 24.12 0 43.635-19.425 43.635-43.432s-19.616-43.431-43.635-43.431c-24.119 0-43.634 19.424-43.634 43.431Z" fill="#fff"/></mask><g mask="url(#d)"><path d="M108.815 226.143h-.901s-.1 0-.1-.1v-1.494c0-.1-.1-.299-.3-.299h-.601c-.2 0-.3.099-.3.299v1.095c0 .1-.1.2-.2.1-.2-.1-.4-.199-.601-.398-.7-.498-1.401-.897-2.401-.897-1.001 0-1.802.399-2.402.897-.2.199-.401.298-.601.398-.1 0-.2 0-.2-.1v-1.095c0-.1-.1-.299-.3-.299h-.6c-.2 0-.3.099-.3.299v1.494c0 .1-.101.1-.101.1h-.9c-.2 0-.3.199-.3.298.1.399.3.997.9 1.395h2.202c.2 0 .2-.1.3-.199.2-.598 1.001-1.494 2.201-1.494 1.201 0 1.902.796 2.202 1.494 0 .099.1.199.3.199h2.202c.601-.398.901-.996.901-1.395.2-.099.1-.298-.1-.298Z" fill="#fff"/></g><mask id="e" style="mask-type:luminance" maskUnits="userSpaceOnUse" x="54" y="206" width="88" height="88"><path d="M54.172 249.95c0 24.007 19.515 43.432 43.634 43.432 24.12 0 43.635-19.425 43.635-43.432s-19.616-43.431-43.635-43.431c-24.119 0-43.634 19.424-43.634 43.431Z" fill="#fff"/></mask><g mask="url(#e)"><path d="M96.805 236.502h-.8c-.2 0-.3.1-.3.299v1.196c0 .099.1.298.3.298h.8c.1 0 .3-.099.3-.298v-1.196c0-.199-.1-.299-.3-.299Z" fill="#fff"/></g><mask id="f" style="mask-type:luminance" maskUnits="userSpaceOnUse" x="54" y="206" width="88" height="88"><path d="M54.172 249.95c0 24.007 19.515 43.432 43.634 43.432 24.12 0 43.635-19.425 43.635-43.432s-19.616-43.431-43.635-43.431c-24.119 0-43.634 19.424-43.634 43.431Z" fill="#fff"/></mask><g mask="url(#f)"><path d="M94.403 236.502h-.801c-.2 0-.3.1-.3.299v1.196c0 .099.1.298.3.298h.8c.1 0 .3-.099.3-.298v-1.196c-.1-.199-.2-.299-.3-.299Z" fill="#fff"/></g><mask id="g" style="mask-type:luminance" maskUnits="userSpaceOnUse" x="54" y="206" width="88" height="88"><path d="M54.172 249.95c0 24.007 19.515 43.432 43.634 43.432 24.12 0 43.635-19.425 43.635-43.432s-19.616-43.431-43.635-43.431c-24.119 0-43.634 19.424-43.634 43.431Z" fill="#fff"/></mask><g mask="url(#g)"><path d="M91.9 236.502h-.8c-.2 0-.3.1-.3.299v1.196c0 .099.1.298.3.298h.8c.1 0 .3-.099.3-.298v-1.196c0-.199-.1-.299-.3-.299Z" fill="#fff"/></g><mask id="h" style="mask-type:luminance" maskUnits="userSpaceOnUse" x="54" y="206" width="88" height="88"><path d="M54.172 249.95c0 24.007 19.515 43.432 43.634 43.432 24.12 0 43.635-19.425 43.635-43.432s-19.616-43.431-43.635-43.431c-24.119 0-43.634 19.424-43.634 43.431Z" fill="#fff"/></mask><g mask="url(#h)"><path d="M89.5 236.502h-.801c-.2 0-.3.1-.3.299v1.196c0 .099.1.298.3.298h.8c.1 0 .3-.099.3-.298v-1.196c0-.199-.1-.299-.3-.299Z" fill="#fff"/></g><mask id="i" style="mask-type:luminance" maskUnits="userSpaceOnUse" x="54" y="206" width="88" height="88"><path d="M54.172 249.95c0 24.007 19.515 43.432 43.634 43.432 24.12 0 43.635-19.425 43.635-43.432s-19.616-43.431-43.635-43.431c-24.119 0-43.634 19.424-43.634 43.431Z" fill="#fff"/></mask><g mask="url(#i)"><path d="M87.097 236.502h-.8c-.2 0-.3.1-.3.299v1.196c0 .099.1.298.3.298h.8c.1 0 .3-.099.3-.298v-1.196c-.1-.199-.2-.299-.3-.299Z" fill="#fff"/></g><mask id="j" style="mask-type:luminance" maskUnits="userSpaceOnUse" x="54" y="206" width="88" height="88"><path d="M54.172 249.95c0 24.007 19.515 43.432 43.634 43.432 24.12 0 43.635-19.425 43.635-43.432s-19.616-43.431-43.635-43.431c-24.119 0-43.634 19.424-43.634 43.431Z" fill="#fff"/></mask><g mask="url(#j)"><path d="M84.595 236.502h-.8c-.2 0-.3.1-.3.299v1.196c0 .099.1.298.3.298h.8c.1 0 .3-.099.3-.298v-1.196c0-.199-.1-.299-.3-.299Z" fill="#fff"/></g><mask id="k" style="mask-type:luminance" maskUnits="userSpaceOnUse" x="54" y="206" width="88" height="88"><path d="M54.172 249.95c0 24.007 19.515 43.432 43.634 43.432 24.12 0 43.635-19.425 43.635-43.432s-19.616-43.431-43.635-43.431c-24.119 0-43.634 19.424-43.634 43.431Z" fill="#fff"/></mask><g mask="url(#k)"><path d="M82.194 236.502h-.801c-.2 0-.3.1-.3.299v1.196c0 .099.1.298.3.298h.8c.1 0 .3-.099.3-.298v-1.196c0-.199-.2-.299-.3-.299Z" fill="#fff"/></g><mask id="l" style="mask-type:luminance" maskUnits="userSpaceOnUse" x="54" y="206" width="88" height="88"><path d="M54.172 249.95c0 24.007 19.515 43.432 43.634 43.432 24.12 0 43.635-19.425 43.635-43.432s-19.616-43.431-43.635-43.431c-24.119 0-43.634 19.424-43.634 43.431Z" fill="#fff"/></mask><g mask="url(#l)"><path d="M79.791 236.502h-.8c-.2 0-.3.1-.3.299v1.196c0 .099.1.298.3.298h.8c.1 0 .3-.099.3-.298v-1.196c-.1-.199-.2-.299-.3-.299Z" fill="#fff"/></g><mask id="m" style="mask-type:luminance" maskUnits="userSpaceOnUse" x="54" y="206" width="88" height="88"><path d="M54.172 249.95c0 24.007 19.515 43.432 43.634 43.432 24.12 0 43.635-19.425 43.635-43.432s-19.616-43.431-43.635-43.431c-24.119 0-43.634 19.424-43.634 43.431Z" fill="#fff"/></mask><g mask="url(#m)"><path d="M77.29 236.502h-.801c-.2 0-.3.1-.3.299v1.196c0 .099.1.298.3.298h.8c.1 0 .3-.099.3-.298v-1.196c0-.199-.1-.299-.3-.299Z" fill="#fff"/></g><mask id="n" style="mask-type:luminance" maskUnits="userSpaceOnUse" x="54" y="206" width="88" height="88"><path d="M54.172 249.95c0 24.007 19.515 43.432 43.634 43.432 24.12 0 43.635-19.425 43.635-43.432s-19.616-43.431-43.635-43.431c-24.119 0-43.634 19.424-43.634 43.431Z" fill="#fff"/></mask><g mask="url(#n)"><path d="M74.087 243.575h-.8c-.2 0-.3.099-.3.299V245.069c0 .1.1.299.3.299h.8c.1 0 .3-.1.3-.299V243.874c0-.2-.1-.299-.3-.299Z" fill="#fff"/></g><mask id="o" style="mask-type:luminance" maskUnits="userSpaceOnUse" x="54" y="206" width="88" height="88"><path d="M54.172 249.95c0 24.007 19.515 43.432 43.634 43.432 24.12 0 43.635-19.425 43.635-43.432s-19.616-43.431-43.635-43.431c-24.119 0-43.634 19.424-43.634 43.431Z" fill="#fff"/></mask><g mask="url(#o)"><path d="M71.686 243.575h-.8c-.201 0-.301.099-.301.299V245.069c0 .1.1.299.3.299h.8c.1 0 .301-.1.301-.299V243.874c-.1-.2-.2-.299-.3-.299Z" fill="#fff"/></g><mask id="p" style="mask-type:luminance" maskUnits="userSpaceOnUse" x="54" y="206" width="88" height="88"><path d="M54.172 249.95c0 24.007 19.515 43.432 43.634 43.432 24.12 0 43.635-19.425 43.635-43.432s-19.616-43.431-43.635-43.431c-24.119 0-43.634 19.424-43.634 43.431Z" fill="#fff"/></mask><g mask="url(#p)"><path d="M69.184 243.575h-.8c-.2 0-.301.099-.301.299V245.069c0 .1.1.299.3.299h.8c.101 0 .301-.1.301-.299V243.874c0-.2-.1-.299-.3-.299Z" fill="#fff"/></g><mask id="q" style="mask-type:luminance" maskUnits="userSpaceOnUse" x="54" y="206" width="88" height="88"><path d="M54.172 249.95c0 24.007 19.515 43.432 43.634 43.432 24.12 0 43.635-19.425 43.635-43.432s-19.616-43.431-43.635-43.431c-24.119 0-43.634 19.424-43.634 43.431Z" fill="#fff"/></mask><g mask="url(#q)"><path d="M99.107 235.108c-.1 0-.1.099-.1.099v.996s0 .299-.3.299h-.3c-.2 0-.3.1-.3.299V237.996c0 .1.1.299.2.299h.3c.3 0 .3.299.3.299v.897c0 .099.1.099.1.099h8.907c.1 0 .1-.099.1-.099v-2.889a1.614 1.614 0 0 0 1.001-.996c.1-.199 0-.498-.3-.498h-9.608Z" fill="#fff"/></g><mask id="r" style="mask-type:luminance" maskUnits="userSpaceOnUse" x="54" y="206" width="88" height="88"><path d="M54.172 249.95c0 24.007 19.515 43.432 43.634 43.432 24.12 0 43.635-19.425 43.635-43.432s-19.616-43.431-43.635-43.431c-24.119 0-43.634 19.424-43.634 43.431Z" fill="#fff"/></mask><g mask="url(#r)"><path d="M74.387 242.778v-5.977c0-.099-.2-.199-.2-.099-.5 1.793-1.801 5.976-1.801 5.976 0 .1 0 .2.1.2h1.801c.1 0 .1-.1.1-.1Z" fill="#fff"/></g><mask id="s" style="mask-type:luminance" maskUnits="userSpaceOnUse" x="54" y="206" width="88" height="88"><path d="M54.172 249.95c0 24.007 19.515 43.432 43.634 43.432 24.12 0 43.635-19.425 43.635-43.432s-19.616-43.431-43.635-43.431c-24.119 0-43.634 19.424-43.634 43.431Z" fill="#fff"/></mask><g mask="url(#s)"><path d="M95.204 248.157s0 .1-.1.1h-3.603c-.1 0-.1-.1-.1-.1v-4.084c0-1.096.901-1.893 1.902-1.893 1.1 0 1.901.897 1.901 1.893v4.084Zm-6.605 0s0 .1-.1.1h-3.603c-.1 0-.1-.1-.1-.1v-4.084c0-1.096.9-1.893 1.902-1.893 1.1 0 1.901.897 1.901 1.893v4.084Zm-6.605 0s0 .1-.1.1H78.29c-.1 0-.1-.1-.1-.1v-4.084c0-1.096.9-1.893 1.901-1.893 1.101 0 1.902.897 1.902 1.893v4.084Zm15.812-9.264H75.49c-.1 0-.1.1-.1.1v12.252s0 .1.1.1h22.317c.1 0 .1-.1.1-.1v-12.153s0-.199-.1-.199Z" fill="#fff"/></g><mask id="t" style="mask-type:luminance" maskUnits="userSpaceOnUse" x="54" y="206" width="88" height="88"><path d="M54.172 249.95c0 24.007 19.515 43.432 43.634 43.432 24.12 0 43.635-19.425 43.635-43.432s-19.616-43.431-43.635-43.431c-24.119 0-43.634 19.424-43.634 43.431Z" fill="#fff"/></mask><g mask="url(#t)"><path d="M99.107 259.613H104.712c.5-.299 1.001-.598 1.301-.698.1 0 .1-.099.1-.099v-.299s0-.1-.1-.1h-6.806c-.1 0-.1.1-.1.1v.996c-.1 0-.1.1 0 .1Z" fill="#fff"/></g><mask id="u" style="mask-type:luminance" maskUnits="userSpaceOnUse" x="54" y="206" width="88" height="88"><path d="M54.172 249.95c0 24.007 19.515 43.432 43.634 43.432 24.12 0 43.635-19.425 43.635-43.432s-19.616-43.431-43.635-43.431c-24.119 0-43.634 19.424-43.634 43.431Z" fill="#fff"/></mask><g mask="url(#u)"><path d="M99.107 261.904H100.608c.601-.399 1.201-.697 1.802-.996.1-.1.1-.2-.101-.2h-3.202c-.1 0-.1.1-.1.1v.996s0 .1.1.1Z" fill="#fff"/></g><mask id="v" style="mask-type:luminance" maskUnits="userSpaceOnUse" x="54" y="206" width="88" height="88"><path d="M54.172 249.95c0 24.007 19.515 43.432 43.634 43.432 24.12 0 43.635-19.425 43.635-43.432s-19.616-43.431-43.635-43.431c-24.119 0-43.634 19.424-43.634 43.431Z" fill="#fff"/></mask><g mask="url(#v)"><path d="M55.672 271.865c1.402-2.689 3.603-4.881 6.205-6.574 2.803-1.793 6.105-2.69 9.408-2.69 1 0 2.102.1 3.102.299v-16.635s0-.299-.3-.299h-6.805s-.3 0-.3-.299v-2.59c0-.1.1-.1.1-.1.2-.099.4-.299.4-.498s-.2-.398-.4-.498c0 0-.1 0-.1-.1v-.398c0-.1-.1-.299-.3-.299h-.801c-.1 0-.3.1-.3.299v.398c0 .1-.1.1-.1.1-.2.1-.401.299-.401.498s.2.399.4.498c0 0 .1 0 .1.1v2.092c-.7.299-1.2.996-1.2 1.793v9.961s-4.704 3.487-4.804 3.586c-.1.1-.2 0-.2-.099v-1.993c0-.099-.1-.298-.3-.298h-.601c-.1 0-.3.099-.3.298v3.188c0 .1-.1.1-.1.1l-4.504 3.287s-.1 0-.1.1V271.766h2.201v.099Z" fill="#fff"/></g><mask id="w" style="mask-type:luminance" maskUnits="userSpaceOnUse" x="54" y="206" width="88" height="88"><path d="M54.172 249.95c0 24.007 19.515 43.432 43.634 43.432 24.12 0 43.635-19.425 43.635-43.432s-19.616-43.431-43.635-43.431c-24.119 0-43.634 19.424-43.634 43.431Z" fill="#fff"/></mask><g mask="url(#w)"><path d="M72.786 269.475h1.201s.3-.2.3-.299c0 0 .1 0 .1-.1v-5.578h-.1c-1-.2-2.001-.299-3.002-.299-6.205 0-11.81 3.287-14.912 8.666h12.11s.1 0 .1-.099c0-1.196.1-2.291.1-2.291 0-.2.1-.399.2-.499l.3-.398v-.598c0-.299.1-.398.2-.498l.6-.697c.1-.1.301-.299.601-.299s.5.199.6.299l.601.697c.1.1.2.299.2.498v.598l.3.398c.1.1.1.2.2.399.1.1.201.1.301.1Z" fill="#fff"/></g><mask id="x" style="mask-type:luminance" maskUnits="userSpaceOnUse" x="54" y="206" width="88" height="88"><path d="M54.172 249.95c0 24.007 19.515 43.432 43.634 43.432 24.12 0 43.635-19.425 43.635-43.432s-19.616-43.431-43.635-43.431c-24.119 0-43.634 19.424-43.634 43.431Z" fill="#fff"/></mask><g mask="url(#x)"><path d="M76.29 267.681s.3-.298.6-.298.6.298.6.298l2.302 1.794h1.201c.1 0 .1-.1.1-.1 0-.199.1-.399.2-.399l.3-.398v-.598c0-.299.1-.398.2-.498l.601-.697c.1-.1.3-.299.6-.299s.501.199.601.299l.6.697c.1.1.2.299.2.498v.598l.301.398c.1.1.2.2.2.499v1.195c0 .1.1.1.1.1H89.1c.1 0 .1-.1.1-.1l2.301-3.686c0-.099.1-.199.3-.299 0 0 2.803-1.593 5.905-3.287.1 0 .1-.1.1-.1V252.54s0-.099-.1-.099H75.49c-.1 0-.1.099-.1.099v15.44c0 .1.1.2.2.1 0 .1.7-.399.7-.399Z" fill="#fff"/></g><mask id="y" style="mask-type:luminance" maskUnits="userSpaceOnUse" x="54" y="206" width="88" height="88"><path d="M54.172 249.95c0 24.007 19.515 43.432 43.634 43.432 24.12 0 43.635-19.425 43.635-43.432s-19.616-43.431-43.635-43.431c-24.119 0-43.634 19.424-43.634 43.431Z" fill="#fff"/></mask><g mask="url(#y)"><path d="M109.715 253.437s0 .099-.1.099h-2.802c-.1 0-.1-.099-.1-.099v-2.79s0-.099.1-.099h2.802c.1 0 .1.099.1.099v2.79Zm26.321-.399h-.901c-.1-.299-.5-.498-.8-.498-.3 0-.501.1-.701.399-.2-.2-.4-.399-.7-.399-.301 0-.501.1-.701.399-.2-.2-.4-.399-.7-.399-.301 0-.501.1-.701.399-.2-.2-.4-.399-.701-.399-.3 0-.5.1-.7.399-.2-.2-.4-.399-.701-.399-.3 0-.5.1-.7.399-.2-.2-.4-.399-.701-.399-.3 0-.5.1-.7.399-.2-.2-.401-.399-.701-.399-.3 0-.5.1-.7.399-.201-.2-.401-.399-.701-.399-.3 0-.5.1-.701.399-.2-.2-.4-.399-.7-.399-.3 0-.5.1-.701.399-.2-.2-.4-.399-.7-.399-.3 0-.501.1-.701.399-.2-.2-.4-.399-.7-.399-.2 0-.401.1-.601.199v-6.076c0-.399.3-.797.701-.897 0 0 .1 0 .1-.099 0-.199-.1-.399-.3-.598-.401-.398-.801-.299-1.001-.199h-.1l-8.407-4.284s-.3-.099-.6-.099h-11.01c-.1 0-.1.099-.1.099v16.736s0 .099.1.099h.902c.1 0 .1-.099.1-.099v-6.675c0-.099.1-.099.1-.099h4.103c.1 0 .1.099.1.099v6.475s0 .1.1.1h1.401c.1 0 .1-.1.1-.1v-.797c0-.498.401-.796.801-.796h1.501c.401 0 .701.298.801.697v1.992c0 .1.1.1.1.1 3.102 0 6.805.299 10.108.797 2.902.398 6.605 1.095 8.206 2.191.301.199.301.498.301.498v.1c0 .099 0 .099.1.099.2 0 .4.1.5.2 1.601 1.793 3.703 4.183 4.103 4.682.1.199.201.398.201.597v13.747l-.401.1-1.601.498 3.303 2.091h1.201v-29.884c.4-.199.9-.597 1-.996.2.199.1 0-.2 0Z" fill="#fff"/></g><mask id="z" style="mask-type:luminance" maskUnits="userSpaceOnUse" x="54" y="206" width="88" height="88"><path d="M54.172 249.95c0 24.007 19.515 43.432 43.634 43.432 24.12 0 43.635-19.425 43.635-43.432s-19.616-43.431-43.635-43.431c-24.119 0-43.634 19.424-43.634 43.431Z" fill="#fff"/></mask><g mask="url(#z)"><path d="M74.688 277.444v-6.077c0-.099.1-.099.1-.099h4.103c.1 0 .1.099.1.099v5.479c5.104-.697 9.408-1.295 11.61-1.693 8.506-1.395 23.518-4.881 34.126 1.195.801.498 1.602.896 2.402 1.395v-15.64s0-.099-.1-.099c-2.602-1.793-12.41-2.889-18.615-2.889-.1 0-.1-.1-.1-.1v-2.689s0-.1-.1-.1h-1.501s-.1 0-.1.1v2.789c0 .099 0 .099-.1.099-1.101.598-14.211 7.969-14.311 7.969-.1 0-.1.1-.1.1l-2.502 3.885s0 .1-.1.1h-5.004s-.1 0-.1-.1c0-.797-.1-1.693-.1-1.793v-.1l-.401-.597V267.781l-.6-.697s0-.1-.1-.1-.1.1-.1.1l-.601.697V268.678l-.5.597v.598c0 .1-.1.1-.1.1h-2.002l-2.602-1.993h-.2l-2.602 1.993h-2.002s-.1 0-.1-.1v-.598l-.5-.597V267.781l-.601-.697s0-.1-.1-.1-.1.1-.1.1l-.6.697V268.678l-.501.597v.1s-.1 2.291-.1 2.889c0 .099-.1.099-.1.099h-25.62s-.1 0-.1.1v9.065c2.902-.299 18.114-2.291 30.624-4.084Z" fill="#fff"/></g><mask id="A" style="mask-type:luminance" maskUnits="userSpaceOnUse" x="54" y="206" width="88" height="88"><path d="M54.172 249.95c0 24.007 19.515 43.432 43.634 43.432 24.12 0 43.635-19.425 43.635-43.432s-19.616-43.431-43.635-43.431c-24.119 0-43.634 19.424-43.634 43.431Z" fill="#fff"/></mask><g mask="url(#A)"><path d="M132.233 281.229v-13.448s0-.1-.1-.199c-.401-.399-2.502-2.889-4.104-4.682-.1-.1-.2 0-.2.1v15.041c1.601 1.096 3.103 2.092 4.404 3.188Z" fill="#fff"/></g><path d="M97.705 293.482c-24.32 0-44.035-19.525-44.035-43.532 0-24.007 19.715-43.531 44.035-43.531 24.319 0 44.035 19.524 44.035 43.531.1 24.007-19.716 43.532-44.035 43.532Zm0-86.266c-23.82 0-43.234 19.126-43.234 42.734 0 23.509 19.415 42.735 43.234 42.735 23.819 0 43.234-19.126 43.234-42.735.1-23.509-19.315-42.734-43.234-42.734Z" fill="#2F2B62"/><path d="M90.399 279.336h1v6.874c0 .099 0 .199.1.299.101.099.201.099.401.099.1 0 .3 0 .6.1v.398H88.799v-.398c.2 0 .3-.1.5-.1.3-.099.5-.099.5-.199.1-.1.1-.1.1-.199V280.631c-.3.2-.6.399-1 .598 0 0-.2.1-.5.199-.1-.199-.2-.299-.2-.398.4-.199.7-.399.8-.498.2-.2.5-.399.8-.598.3-.1.4-.299.601-.598ZM93.6 287.206c-.1-.1-.1-.1-.1-.199 0-.1 0-.1.1-.2 0 0 .101-.099.301-.199.4-.199.8-.299 1.101-.598.3-.199.5-.498.7-.796.2-.299.3-.698.4-.997.101-.398.101-.697.101-.896 0-.1 0-.199.1-.498v-.698c0-.996-.1-1.693-.4-1.992-.2-.299-.4-.398-.7-.398-.301 0-.501.099-.601.398-.2.299-.4.797-.4 1.395 0 .398 0 .697.1.996 0 .199.1.398.2.598.1.099.1.199.2.199.2.099.3.099.5.099h.4s.1 0 .1.1c0 0 .1.1.1.199 0 .1-.1.2-.2.299-.2.1-.5.1-.8.1h-.3c-.4-.1-.6-.199-.7-.299-.201-.199-.401-.299-.501-.498l-.3-.598c-.1-.299-.1-.598-.1-.896 0-.498.1-.897.3-1.295.2-.399.5-.698.9-.897.4-.199.801-.299 1.201-.299.7 0 1.401.299 1.902.797.5.598.7 1.395.7 2.491a5.5 5.5 0 0 1-.3 1.693c-.1.1-.2.398-.4.797-.2.398-.5.797-.9 1.096-.401.299-.802.597-1.302.697-.4.199-.8.199-1.1.199-.201.1-.201.1-.301.1ZM98.505 279.536H102.908v.398c0 .1-.1.399-.2.797l-.3.897c-.1.298-.2.498-.2.597-.1.299-.2.498-.301.698-.1.199-.1.398-.2.597l-.3.797c0 .1-.1.399-.3.797l-.501 1.295c0 .1-.1.199-.1.199 0 .1 0 .1.1.199.101.1.101.1.101.2 0 .099 0 .199-.101.199h-1.3c0-.1.1-.299.2-.598.1-.199.3-.697.6-1.394l1.001-2.69.3-.697c.1-.1.1-.299.2-.399 0-.099.1-.199.1-.299H99.206c-.2 0-.401 0-.401.1-.1.1-.1.199-.2.299 0 .199-.1.299-.1.299s-.1.099-.3.099c-.1 0-.1 0-.2-.099 0 0-.1-.1-.1-.199 0-.2 0-.499.1-.897 0-.199.1-.398.1-.598.4-.299.4-.398.4-.597ZM105.41 283.221v-.398s.1 0 .2-.1c.301-.099.501-.199.801-.199.5 0 1.001.199 1.301.598.4.398.5.896.5 1.593 0 .698-.2 1.295-.7 1.794-.4.398-1.101.697-1.802.697-.3 0-.7-.1-.9-.199-.3-.1-.501-.299-.701-.598-.2-.299-.4-.498-.5-.797-.2-.498-.3-.996-.3-1.494s.1-.996.2-1.494c.2-.499.4-.997.7-1.395.301-.398.701-.697 1.101-.996.4-.299.801-.399 1.101-.598.601-.199 1.101-.299 1.401-.299.1 0 .1 0 .1.1 0 0 .1.1.1.199v.199c-.1 0-.2.1-.5.1-.5.1-.901.299-1.301.598-.4.299-.601.597-.801.896-.2.399-.4.897-.5 1.395-.1.498-.1 1.096-.1 1.594 0 .597 0 1.095.1 1.394.1.399.2.598.4.797.1.1.3.199.501.199.1 0 .2 0 .3-.099.2-.1.3-.199.4-.299.1-.199.2-.399.3-.697 0-.299.1-.498.1-.797 0-.698-.1-1.196-.3-1.495-.2-.298-.4-.398-.7-.398-.1.1-.301.1-.501.199Z" fill="#fff"/><path d="M199.785 212.595c-1.501.1-2.102.498-2.202 1.494-.1.697-.2 1.793-.2 3.785v2.391c0 2.889-.5 4.981-1.902 6.575-1.201 1.195-2.902 1.793-4.703 1.793-1.602 0-3.203-.399-4.404-1.295-1.501-1.096-2.202-2.989-2.202-6.077v-6.076c0-2.391-.2-2.49-2.201-2.69v-.896h7.305v.896c-1.901.2-2.201.299-2.201 2.69v5.578c0 3.985 1.501 6.276 4.503 6.276 3.403 0 4.704-2.59 4.704-6.873v-2.292c0-1.992-.1-2.988-.2-3.785-.2-.896-.801-1.394-2.502-1.494v-.897h6.405v.897h-.2ZM227.908 212.595c-1.401.1-2.002.398-2.102 1.594-.1.797-.2 1.992-.2 4.283v10.161h-1.101l-11.009-13.05h-.1v5.977c0 2.291.1 3.387.2 4.184.101 1.195.601 1.594 2.502 1.693v.797h-6.104v-.797c1.501-.099 2.101-.498 2.201-1.693.1-.897.2-1.992.2-4.283v-5.38c0-1.693-.1-2.092-.5-2.689-.5-.598-1.101-.797-2.202-.897v-.797h4.404l10.408 11.854h.1v-5.18c0-2.291-.1-3.486-.2-4.183-.1-1.096-.701-1.494-2.602-1.594v-.797h6.205v.797h-.1ZM238.516 228.334v-.797c2.001-.199 2.201-.398 2.201-2.49v-9.962c0-2.191-.2-2.291-2.201-2.49v-.897h7.405v.897c-2.001.199-2.201.299-2.201 2.49v9.962c0 2.191.2 2.291 2.201 2.49v.797h-7.405ZM274.545 212.595c-1.702.199-2.202.498-3.203 2.789-.801 1.793-3.303 7.87-5.304 13.149h-1.001c-1.801-4.682-4.003-10.459-5.304-13.647-.801-1.893-1.201-2.191-2.802-2.391v-.896h7.105v.896c-1.901.299-1.901.498-1.501 1.594.701 1.992 2.702 7.073 4.003 10.26h.1c1.401-3.586 2.903-7.371 3.603-9.662.501-1.594.501-1.893-1.601-2.192v-.896h6.005v.996h-.1ZM298.463 224.15c-.2.996-.7 3.387-.9 4.184h-12.911v-.797c2.302-.199 2.502-.398 2.502-2.49v-9.862c0-2.291-.2-2.391-2.101-2.49v-.797h11.909c0 .597.1 2.291.2 3.785l-.9.1c-.301-.996-.601-1.694-1.001-2.192-.401-.498-1.101-.697-2.702-.697h-1.502c-.9 0-1 .099-1 .896v5.579h2.001c2.202 0 2.502-.199 2.802-1.993h.901v5.081h-.901c-.3-1.793-.6-1.992-2.802-1.992h-2.001v4.582c0 1.195.1 1.793.6 2.092.5.298 1.401.298 2.502.298 1.601 0 2.402-.199 3.002-.796.501-.498 1.001-1.395 1.402-2.491h.9ZM314.876 220.166c1.201 0 2.102-.2 2.702-.698.901-.797 1.301-1.793 1.301-3.088 0-2.789-1.701-3.685-3.302-3.685-.701 0-1.101.099-1.301.298-.2.2-.3.399-.3.996v6.177h.9Zm9.608 8.367c-.2 0-.5 0-.801-.099-2.702-.1-3.703-.797-4.804-2.391-.8-1.196-1.501-2.59-2.301-3.885-.501-.697-.901-1.096-2.002-1.096h-.6v3.785c0 2.092.2 2.292 2.201 2.491v.797h-7.406v-.797c2.002-.199 2.302-.399 2.302-2.491v-9.961c0-2.092-.2-2.291-2.201-2.391v-.896h6.905c2.102 0 3.403.199 4.404.896 1 .698 1.701 1.793 1.701 3.387 0 2.192-1.401 3.487-3.203 4.184.401.797 1.401 2.49 2.202 3.586.901 1.395 1.501 2.192 2.002 2.789.6.598 1.101.897 1.701 1.096l-.1.996ZM343.799 215.783c-.5-1.594-1.401-3.487-3.503-3.487-1.701 0-2.702 1.196-2.702 2.59 0 1.594 1.101 2.391 3.303 3.487 2.402 1.195 4.503 2.49 4.503 5.18 0 2.789-2.402 5.08-6.104 5.08-1.001 0-1.902-.199-2.603-.399-.7-.199-1.2-.398-1.401-.498-.2-.597-.6-2.789-.7-4.183l.8-.299c.501 1.594 1.802 4.383 4.404 4.383 1.701 0 2.802-1.096 2.802-2.889 0-1.694-1.201-2.59-3.202-3.586-2.202-1.196-4.404-2.491-4.404-5.08 0-2.69 2.102-4.782 5.605-4.782 1.501 0 2.802.399 3.502.598.1.996.301 1.992.501 3.586l-.801.299ZM356.009 228.334v-.797c2.001-.199 2.202-.398 2.202-2.49v-9.962c0-2.191-.201-2.291-2.202-2.49v-.897h7.406v.897c-2.002.199-2.202.299-2.202 2.49v9.962c0 2.191.2 2.291 2.202 2.49v.797h-7.406ZM379.628 224.748c0 1.892.6 2.49 2.502 2.49 4.103 0 6.405-3.088 6.405-7.371 0-2.491-.901-4.583-2.402-5.778-1.101-.896-2.602-1.394-4.403-1.394-1.001 0-1.602.199-1.802.398-.2.199-.3.598-.3 1.494v10.161Zm2.602-13.05c3.303 0 5.705.698 7.406 2.192 1.301 1.195 2.302 2.988 2.302 5.479 0 3.088-1.301 5.279-3.203 6.773-1.901 1.495-4.603 2.092-7.806 2.092h-6.505v-.797c2.101-.199 2.402-.398 2.402-2.49v-9.961c0-2.192-.3-2.291-2.102-2.491v-.896h7.506v.099ZM409.151 215.384c-.801 1.992-1.601 3.985-2.302 5.977h4.404l-2.102-5.977Zm2.402 12.95v-.797c1.601-.299 1.701-.498 1.401-1.594-.3-.896-.701-2.092-1.201-3.287h-5.204c-.3.996-.701 1.992-1.001 2.988-.5 1.395-.3 1.694 1.601 1.893v.797h-5.804v-.797c1.701-.299 2.001-.498 2.902-2.689l5.304-13.149 1.101-.299c1.601 4.482 3.303 8.965 5.004 13.448.801 2.191 1.201 2.49 2.802 2.689v.797h-6.905ZM434.171 224.748c0 1.892.6 2.49 2.502 2.49 4.103 0 6.405-3.088 6.405-7.371 0-2.491-.901-4.583-2.402-5.778-1.101-.896-2.602-1.394-4.403-1.394-1.001 0-1.602.199-1.802.398-.2.199-.3.598-.3 1.494v10.161Zm2.602-13.05c3.303 0 5.705.698 7.406 2.192 1.301 1.195 2.302 2.988 2.302 5.479 0 3.088-1.301 5.279-3.203 6.773-1.901 1.495-4.604 2.092-7.806 2.092h-6.505v-.797c2.101-.199 2.402-.398 2.402-2.49v-9.961c0-2.192-.301-2.291-2.102-2.491v-.896h7.506v.099ZM470.9 224.15c-.2.996-.701 3.387-.901 4.184h-12.91v-.797c2.302-.199 2.502-.398 2.502-2.49v-9.862c0-2.291-.2-2.391-2.102-2.49v-.797h11.91c0 .597.1 2.291.2 3.785l-.901.1c-.3-.996-.6-1.694-1.001-2.192-.4-.498-1.101-.697-2.702-.697h-1.601c-.901 0-1.001.099-1.001.896v5.579h2.002c2.201 0 2.502-.199 2.802-1.993h.901v5.081h-.901c-.3-1.793-.601-1.992-2.802-1.992h-2.002v4.582c0 1.195.1 1.793.601 2.092.5.298 1.401.298 2.502.298 1.601 0 2.401-.199 3.002-.796.5-.498 1.001-1.395 1.401-2.491h1.001ZM215.898 247.759c-3.303.299-4.203.896-6.105 5.479-1.501 3.486-6.405 15.24-10.208 25.401h-2.102c-3.402-8.965-7.806-20.222-10.308-26.198-1.501-3.686-2.302-4.284-5.304-4.583v-1.593h13.711v1.593c-3.603.498-3.603.996-2.802 3.088 1.401 3.786 5.204 13.548 7.706 19.724h.1c2.702-6.973 5.504-14.245 6.905-18.628 1.001-3.188.901-3.686-3.202-4.184v-1.593h11.509v1.494h.1ZM218.801 278.141v-1.594c3.903-.398 4.303-.697 4.303-4.781V252.54c0-4.184-.4-4.482-4.303-4.781v-1.594h14.211v1.594c-3.803.299-4.303.597-4.303 4.781v19.126c0 4.184.4 4.483 4.303 4.782v1.593h-14.211v.1ZM262.335 269.973c-.3 1.892-1.401 6.674-1.801 8.168h-23.619v-1.594c4.303-.398 4.804-.697 4.804-4.881V252.54c0-4.184-.4-4.482-4.404-4.781v-1.594h14.312v1.594c-3.803.299-4.304.498-4.304 4.781v19.226c0 2.49.2 3.287 1.201 3.785.901.398 2.402.498 4.103.498 2.402 0 4.204-.299 5.305-1.494.9-.996 1.801-2.59 2.702-4.981l1.701.399ZM280.048 253.237c-1.601 3.885-3.002 7.77-4.403 11.456h8.407l-4.004-11.456Zm4.504 24.904v-1.594c3.103-.498 3.303-.996 2.702-2.988-.6-1.694-1.401-3.985-2.402-6.475h-10.008c-.6 1.793-1.301 3.785-1.901 5.678-.901 2.689-.601 3.187 3.102 3.685v1.594h-11.108v-1.594c3.202-.498 3.903-.896 5.604-5.179l10.208-25.402 2.202-.498c3.202 8.567 6.305 17.333 9.607 25.9 1.602 4.283 2.302 4.881 5.505 5.279v1.594h-13.511ZM339.696 247.759c-3.303.299-4.203.896-6.105 5.479-1.501 3.486-6.405 15.24-10.208 25.401h-2.102c-3.402-8.965-7.806-20.222-10.308-26.198-1.501-3.686-2.302-4.284-5.304-4.583v-1.593h13.711v1.593c-3.603.498-3.603.996-2.802 3.088 1.401 3.786 5.204 13.548 7.706 19.724h.1c2.702-6.973 5.504-14.245 6.905-18.628 1.001-3.188.901-3.686-3.202-4.184v-1.593h11.509v1.494h.1ZM368.719 270.072c-.3 1.993-1.401 6.475-1.702 8.069h-24.919v-1.594c4.403-.398 4.904-.697 4.904-4.781V252.64c0-4.383-.401-4.582-4.104-4.881v-1.594h23.019c.1 1.096.2 4.483.4 7.272l-1.702.199c-.5-1.893-1.1-3.287-1.801-4.283-.801-.997-2.102-1.295-5.204-1.295h-3.103c-1.701 0-1.801.099-1.801 1.593v10.958h3.903c4.304 0 4.804-.299 5.404-3.785h1.602v9.762h-1.602c-.6-3.487-1.201-3.786-5.404-3.786h-3.903v8.766c0 2.292.2 3.487 1.201 3.985.901.498 2.702.498 4.804.498 3.102 0 4.704-.299 5.904-1.594.901-.996 1.802-2.689 2.703-4.781l1.401.398ZM396.741 269.973c-.3 1.892-1.401 6.674-1.801 8.168h-23.619v-1.594c4.304-.398 4.804-.697 4.804-4.881V252.54c0-4.184-.4-4.482-4.403-4.781v-1.594h14.311v1.594c-3.803.299-4.303.498-4.303 4.781v19.226c0 2.49.2 3.287 1.2 3.785.901.398 2.402.498 4.104.498 2.402 0 4.203-.299 5.304-1.494.901-.996 1.801-2.59 2.702-4.981l1.701.399ZM433.57 247.759c-4.003.299-4.303.597-4.303 4.781v19.226c0 4.084.4 4.383 4.303 4.781v1.594h-14.511v-1.594c4.103-.398 4.503-.697 4.503-4.781v-9.464H408.35v9.464c0 4.084.4 4.383 4.204 4.781v1.594h-14.112v-1.594c3.803-.398 4.204-.697 4.204-4.781V252.54c0-4.184-.401-4.482-4.404-4.781v-1.594h14.111v1.594c-3.703.299-4.103.597-4.103 4.781v7.471h15.212v-7.471c0-4.184-.4-4.482-4.203-4.781v-1.594h14.211v1.594h.1ZM452.986 253.237c-1.601 3.885-3.002 7.77-4.404 11.456h8.407l-4.003-11.456Zm4.504 24.904v-1.594c3.102-.498 3.302-.996 2.702-2.988-.601-1.694-1.401-3.985-2.402-6.475h-10.008c-.601 1.793-1.301 3.785-1.902 5.678-.9 2.689-.6 3.187 3.103 3.685v1.594h-11.109v-1.594c3.303-.498 3.903-.896 5.604-5.179l10.209-25.402 2.201-.498c3.203 8.567 6.305 17.333 9.608 25.9 1.601 4.283 2.302 4.881 5.504 5.279v1.594h-13.51ZM238.015 302.148c-.1.498-.3 1.693-.4 2.092h-6.405v-.399c1.101-.099 1.201-.199 1.201-1.195v-4.881c0-1.096-.1-1.195-1.101-1.295v-.398h5.905c0 .298.1 1.095.1 1.892l-.401.1c-.1-.498-.3-.797-.5-1.096-.2-.199-.5-.299-1.301-.299h-.801c-.4 0-.5 0-.5.399v2.789h1.001c1.101 0 1.201-.1 1.401-.996h.4v2.49h-.4c-.2-.896-.3-.996-1.401-.996h-1.001v2.291c0 .598.1.897.3.996.2.1.701.1 1.201.1.801 0 1.201-.1 1.501-.399.201-.298.501-.697.701-1.195h.5ZM250.125 297.964c-.2-.797-.7-1.693-1.701-1.693-.801 0-1.301.597-1.301 1.295 0 .797.5 1.195 1.601 1.693 1.201.598 2.202 1.195 2.202 2.59 0 1.395-1.201 2.49-3.003 2.49-.5 0-.9-.099-1.301-.199-.3-.099-.6-.199-.7-.299-.1-.299-.3-1.394-.401-2.092l.401-.099c.2.797.901 2.191 2.202 2.191.9 0 1.401-.597 1.401-1.394 0-.797-.601-1.295-1.602-1.793-1.1-.598-2.201-1.196-2.201-2.491 0-1.295 1.101-2.39 2.802-2.39.7 0 1.401.199 1.701.298 0 .498.1.997.2 1.793l-.3.1ZM261.133 300.255c.1.1.401.1.801.1.6 0 1.601-.399 1.601-1.992 0-1.395-.8-1.893-1.701-1.893-.3 0-.5.1-.601.1-.1.099-.1.199-.1.498v3.187Zm1.001-4.283c1.001 0 1.701.1 2.202.498.6.398.901.996.901 1.793 0 1.693-1.201 2.49-2.502 2.59h-.501l-.9-.199v1.793c0 1.096.1 1.096 1.2 1.195v.399h-3.803v-.399c1.001-.099 1.101-.199 1.101-1.195v-4.881c0-1.096-.1-1.196-1-1.196v-.398h3.302ZM276.646 294.776l-2.502.797-.2-.299c.701-.498 1.501-.996 2.102-1.394.2.099.6.598.6.896Zm-3.703 9.364v-.398c1.001-.1 1.101-.2 1.101-1.196v-4.881c0-1.096-.1-1.195-1.101-1.195v-.399h3.603v.399c-1.001.099-1.101.099-1.101 1.195v4.881c0 1.096.1 1.096 1.101 1.196v.398h-3.603ZM287.454 300.156c.601 0 1.001-.1 1.301-.299.4-.399.601-.897.601-1.494 0-1.395-.801-1.793-1.602-1.793-.3 0-.5 0-.6.099-.1.1-.1.199-.1.498v3.088h.4v-.099Zm4.804 4.084h-.4c-1.301 0-1.802-.399-2.402-1.195a18.32 18.32 0 0 1-1.101-1.893c-.2-.399-.401-.498-1.001-.498h-.3v1.892c0 1.096.1 1.196 1.101 1.295v.399h-3.603v-.399c1.001-.099 1.101-.199 1.101-1.295v-4.881c0-.996-.1-1.095-1.101-1.195v-.398h3.402c1.001 0 1.702.099 2.202.498.501.298.801.896.801 1.693 0 1.096-.701 1.693-1.601 2.092.2.398.7 1.195 1.1 1.793.401.697.701 1.096 1.001 1.395.3.298.501.498.801.597v.1ZM299.664 304.14v-.398c1.001-.1 1.101-.199 1.101-1.196v-4.881c0-1.095-.1-1.195-1.101-1.195v-.398h3.603v.398c-1.001.1-1.101.1-1.101 1.195v4.881c0 1.096.1 1.096 1.101 1.196v.398h-3.603ZM318.079 298.064c-.1-.598-.3-.996-.501-1.295-.2-.199-.5-.299-1.301-.299h-.7v5.977c0 .996.1 1.095 1.301 1.195v.399h-3.903v-.399c1.101-.1 1.201-.199 1.201-1.195v-5.977h-.601c-1.101 0-1.301.1-1.501.398-.2.2-.3.598-.5 1.196h-.501c.1-.897.1-1.694.2-2.391h.301c.2.299.4.299.7.299h5.104c.3 0 .501-.1.701-.299h.3c0 .598.1 1.594.1 2.391h-.4ZM330.288 296.271c-1.401 0-2.502 1.295-2.502 3.486 0 2.192 1.101 3.985 2.803 3.985 1.301 0 2.401-1.196 2.401-3.487.101-2.49-1.1-3.984-2.702-3.984Zm.301-.498c2.301 0 4.203 1.693 4.203 4.183 0 2.69-2.002 4.383-4.404 4.383-2.502 0-4.303-1.793-4.303-4.183 0-2.192 1.601-4.383 4.504-4.383ZM357.11 297.964c-.201-.797-.701-1.693-1.702-1.693-.8 0-1.301.597-1.301 1.295 0 .797.501 1.195 1.601 1.693 1.201.598 2.202 1.195 2.202 2.59 0 1.395-1.201 2.49-3.002 2.49-.501 0-.901-.099-1.301-.199-.301-.099-.601-.199-.701-.299-.1-.299-.3-1.394-.4-2.092l.4-.099c.2.797.901 2.191 2.202 2.191.901 0 1.401-.597 1.401-1.394 0-.797-.6-1.295-1.601-1.793-1.101-.598-2.202-1.196-2.202-2.491 0-1.295 1.101-2.39 2.802-2.39.701 0 1.401.199 1.702.298.1.498.1.997.2 1.793l-.3.1ZM369.32 297.765c-.401.996-.801 1.992-1.101 2.889h2.101l-1-2.889Zm1.201 6.375v-.398c.8-.1.9-.299.7-.797-.1-.399-.4-.996-.6-1.594h-2.602c-.201.498-.301.996-.501 1.494-.2.698-.1.797.801.996v.399h-2.802v-.399c.8-.099 1-.199 1.401-1.295l2.602-6.474.6-.1 2.402 6.574c.4 1.096.601 1.196 1.401 1.395v.398h-3.402v-.199ZM390.336 296.37c-.7 0-1.001.2-1.001.797 0 .399-.1.996-.1 2.092v4.981h-.5l-5.404-6.375v2.988c0 1.096.1 1.693.1 2.092.1.598.3.797 1.201.896v.399h-3.103v-.399c.701-.099 1.001-.199 1.101-.796.1-.399.1-.997.1-2.092v-2.69c0-.896 0-.996-.3-1.295-.3-.299-.5-.398-1.101-.498v-.398h2.202l5.104 5.877v-2.59c0-1.096 0-1.694-.1-2.092-.1-.598-.3-.797-1.301-.797v-.398h3.102v.298ZM404.947 298.064a3.18 3.18 0 0 0-.5-1.295c-.2-.199-.5-.299-1.301-.299h-.701v5.977c0 .996.101 1.095 1.302 1.195v.399h-3.904v-.399c1.101-.1 1.201-.199 1.201-1.195v-5.977h-.6c-1.101 0-1.301.1-1.501.398-.2.2-.301.598-.501 1.196h-.4c.1-.897.1-1.694.2-2.391h.3c.201.299.401.299.701.299h5.104c.3 0 .5-.1.701-.299h.3c0 .598.1 1.594.1 2.391h-.501ZM417.157 296.271c-1.401 0-2.502 1.295-2.502 3.486 0 2.192 1.101 3.985 2.802 3.985 1.301 0 2.402-1.196 2.402-3.487 0-2.49-1.201-3.984-2.702-3.984Zm.2-.498c2.302 0 4.203 1.693 4.203 4.183 0 2.69-2.001 4.383-4.403 4.383-2.502 0-4.303-1.793-4.303-4.183.1-2.192 1.701-4.383 4.503-4.383Z" fill="#2F2B62"/><path d="M470.199 236.502H182.572a.683.683 0 0 0-.701.698c0 .398.3.697.701.697h287.627a.682.682 0 0 0 .701-.697c.1-.299-.3-.698-.701-.698ZM470.199 286.309H182.572a.683.683 0 0 0-.701.698c0 .398.3.697.701.697h287.627a.682.682 0 0 0 .701-.697c.1-.299-.3-.698-.701-.698Z" fill="#E5B52C"/></svg>