<svg xmlns="http://www.w3.org/2000/svg" width="500" height="500" fill="none"><path fill="#000" d="M202.804 432.047h11.976v16.617a33.092 33.092 0 0 1-5.554 1.359c-1.891.297-4.008.446-6.352.446-3.562 0-6.57-.711-9.023-2.133-2.438-1.422-4.289-3.445-5.555-6.07-1.266-2.641-1.899-5.774-1.899-9.399 0-3.547.696-6.64 2.086-9.281 1.407-2.641 3.43-4.688 6.071-6.141 2.656-1.468 5.843-2.203 9.562-2.203 1.906 0 3.711.18 5.414.539 1.719.344 3.313.836 4.782 1.477l-1.524 3.469a28.119 28.119 0 0 0-4.195-1.407 18.832 18.832 0 0 0-4.711-.586c-2.797 0-5.195.578-7.195 1.735-1.985 1.156-3.508 2.789-4.571 4.898-1.047 2.11-1.57 4.61-1.57 7.5 0 2.86.461 5.352 1.383 7.477.922 2.109 2.359 3.75 4.312 4.922 1.953 1.172 4.469 1.757 7.547 1.757 1.547 0 2.875-.085 3.984-.257a30.68 30.68 0 0 0 3.024-.657v-10.5h-7.992v-3.562ZM244.64 437.109c0 2.11-.274 3.993-.821 5.649-.547 1.656-1.336 3.054-2.367 4.195a10.294 10.294 0 0 1-3.75 2.625c-1.453.594-3.101.891-4.945.891-1.719 0-3.297-.297-4.735-.891a10.683 10.683 0 0 1-3.703-2.625c-1.031-1.141-1.836-2.539-2.414-4.195-.562-1.656-.843-3.539-.843-5.649 0-2.812.476-5.203 1.429-7.171.953-1.985 2.313-3.493 4.078-4.524 1.782-1.047 3.899-1.57 6.352-1.57 2.344 0 4.391.523 6.141 1.57 1.765 1.047 3.132 2.563 4.101 4.547.984 1.969 1.477 4.351 1.477 7.148Zm-19.547 0c0 2.063.273 3.852.82 5.368.547 1.515 1.391 2.687 2.531 3.515 1.141.828 2.61 1.242 4.407 1.242 1.781 0 3.242-.414 4.382-1.242 1.157-.828 2.008-2 2.555-3.515.547-1.516.82-3.305.82-5.368 0-2.047-.273-3.812-.82-5.297-.547-1.5-1.391-2.656-2.531-3.468-1.141-.813-2.617-1.219-4.43-1.219-2.672 0-4.633.883-5.883 2.648-1.234 1.766-1.851 4.211-1.851 7.336ZM255.257 424.312V450h-3.891v-25.688h3.891Zm-1.899-9.609c.641 0 1.188.211 1.641.633.469.406.703 1.047.703 1.922 0 .859-.234 1.5-.703 1.922-.453.422-1 .632-1.641.632-.671 0-1.234-.21-1.687-.632-.438-.422-.656-1.063-.656-1.922 0-.875.218-1.516.656-1.922.453-.422 1.016-.633 1.687-.633ZM273.116 423.891c3.063 0 5.336.687 6.821 2.062 1.484 1.375 2.226 3.57 2.226 6.586V450h-2.836l-.75-3.797h-.187c-.719.938-1.469 1.727-2.25 2.367a8.374 8.374 0 0 1-2.719 1.43c-1.016.312-2.266.469-3.75.469-1.563 0-2.953-.274-4.172-.821a6.492 6.492 0 0 1-2.859-2.484c-.688-1.109-1.032-2.516-1.032-4.219 0-2.562 1.016-4.531 3.047-5.906 2.032-1.375 5.125-2.125 9.282-2.25l4.429-.187v-1.571c0-2.219-.476-3.773-1.429-4.664-.954-.89-2.297-1.336-4.032-1.336a12.53 12.53 0 0 0-3.843.586 26.392 26.392 0 0 0-3.469 1.383l-1.196-2.953c1.157-.594 2.485-1.102 3.985-1.524a17.44 17.44 0 0 1 4.734-.632Zm5.203 13.453-3.914.164c-3.203.125-5.461.648-6.773 1.57-1.313.922-1.969 2.227-1.969 3.914 0 1.469.445 2.555 1.336 3.258.891.703 2.07 1.055 3.539 1.055 2.281 0 4.149-.633 5.602-1.899 1.453-1.265 2.179-3.164 2.179-5.695v-2.367Zm1.219-24.117v.468c-.312.453-.742 1-1.289 1.641a57.688 57.688 0 0 1-1.781 1.992 47.251 47.251 0 0 1-1.992 1.969 29.746 29.746 0 0 1-1.829 1.617h-2.601v-.562c.5-.594 1.047-1.305 1.641-2.133a76.264 76.264 0 0 0 1.734-2.578 34.774 34.774 0 0 0 1.406-2.414h4.711ZM306.796 442.969c0 1.64-.414 3.023-1.242 4.148-.813 1.11-1.985 1.945-3.516 2.508-1.516.563-3.328.844-5.437.844-1.797 0-3.352-.141-4.664-.422-1.313-.281-2.461-.68-3.446-1.195v-3.586c1.047.515 2.297.984 3.75 1.406a15.89 15.89 0 0 0 4.453.633c2.219 0 3.828-.36 4.828-1.078 1-.719 1.5-1.696 1.5-2.93 0-.703-.203-1.32-.609-1.852-.391-.547-1.055-1.07-1.992-1.57-.938-.516-2.234-1.078-3.891-1.687-1.64-.626-3.062-1.243-4.265-1.852-1.188-.625-2.11-1.383-2.766-2.274-.641-.89-.961-2.046-.961-3.468 0-2.172.875-3.836 2.625-4.992 1.766-1.172 4.078-1.758 6.938-1.758 1.546 0 2.992.156 4.336.468 1.359.297 2.625.704 3.796 1.219l-1.312 3.117a24.033 24.033 0 0 0-3.399-1.148 14.594 14.594 0 0 0-3.679-.469c-1.797 0-3.18.297-4.149.891-.953.594-1.429 1.406-1.429 2.437 0 .797.218 1.453.656 1.969.453.516 1.172 1 2.156 1.453.985.453 2.281.985 3.891 1.594 1.609.594 3 1.211 4.172 1.852 1.172.625 2.07 1.39 2.695 2.296.641.891.961 2.039.961 3.446Z"/><path fill="#369837" d="M273.19 93.51c0 2.46-1.99 4.44-4.44 4.44h-36.78c-2.45 0-4.44-1.98-4.44-4.44V56.73c0-2.45 1.98-4.45 4.44-4.45h36.78c2.45 0 4.44 2 4.44 4.45v36.78Zm54.79 0c0 2.46-1.99 4.44-4.44 4.44h-36.78c-2.46 0-4.45-1.98-4.45-4.44V56.73c0-2.45 1.99-4.45 4.45-4.45h36.78c2.45 0 4.44 2 4.44 4.45v36.78Zm0 109.59c0 2.45-1.99 4.45-4.44 4.45h-36.78c-2.46 0-4.45-1.99-4.45-4.45v-36.77c0-2.46 1.99-4.45 4.45-4.45h36.78c2.45 0 4.44 1.99 4.44 4.45v36.77Zm-109.6-54.83c0 2.46-1.99 4.45-4.44 4.45h-36.78c-2.46 0-4.44-1.98-4.44-4.45v-36.78c0-2.45 1.98-4.44 4.44-4.44h36.78c2.45 0 4.44 1.99 4.44 4.44v36.78Zm54.81 0c0 2.46-1.99 4.45-4.44 4.45h-36.78c-2.45 0-4.44-1.98-4.44-4.45v-36.78c0-2.45 1.98-4.44 4.44-4.44h36.78c2.45 0 4.44 1.99 4.44 4.44v36.78Zm-54.81 54.83c0 2.45-1.99 4.45-4.44 4.45h-36.78c-2.46 0-4.44-1.99-4.44-4.45v-36.77c0-2.46 1.98-4.45 4.44-4.45h36.78c2.45 0 4.44 1.99 4.44 4.45v36.77Zm54.81 0c0 2.45-1.99 4.45-4.44 4.45h-36.78c-2.45 0-4.44-1.99-4.44-4.45v-36.77c0-2.46 1.98-4.45 4.44-4.45h36.78c2.45 0 4.44 1.99 4.44 4.45v36.77Zm-54.81 54.85c0 2.46-1.99 4.45-4.44 4.45h-36.78c-2.46 0-4.44-1.99-4.44-4.45v-36.77c0-2.45 1.98-4.45 4.44-4.45h36.78c2.45 0 4.44 1.99 4.44 4.45v36.77Zm54.81 0c0 2.46-1.99 4.45-4.44 4.45h-36.78c-2.45 0-4.44-1.99-4.44-4.45v-36.77c0-2.45 1.98-4.45 4.44-4.45h36.78c2.45 0 4.44 1.99 4.44 4.45v36.77Z"/><path fill="#C91517" d="M220.67 75.12c0 13.87-11.24 25.12-25.12 25.12-13.87 0-25.11-11.25-25.11-25.12.01-13.87 11.25-25.12 25.12-25.12 13.87 0 25.11 11.25 25.11 25.12Z"/><path fill="#281D16" d="M84.95 294.35h9.65v45.43h-9.65v-45.43Zm61.54 0h-8.69v21.5c0 2.45.15 6.62.47 12.52h-.22l-19.77-34.03h-12.17v45.43h8.62V318.4c0-2.59-.2-6.92-.59-12.99h.28l19.8 34.37h12.27v-45.43Zm36.08 25.31c-1.58-2.04-4.49-4.07-8.74-6.11-3.22-1.53-5.26-2.6-6.12-3.19-.86-.59-1.49-1.2-1.89-1.83-.39-.63-.59-1.37-.59-2.22 0-1.37.49-2.48 1.46-3.33.98-.85 2.37-1.27 4.2-1.27 1.54 0 3.1.2 4.69.59 1.59.39 3.6 1.09 6.02 2.08l3.11-7.49c-2.35-1.01-4.59-1.8-6.74-2.36-2.15-.56-4.4-.84-6.77-.84-4.82 0-8.59 1.15-11.31 3.45-2.73 2.3-4.1 5.46-4.1 9.48 0 2.14.41 4 1.25 5.59.83 1.6 1.94 3 3.33 4.2 1.39 1.2 3.48 2.45 6.26 3.76 2.97 1.41 4.94 2.44 5.9 3.08.97.64 1.7 1.31 2.2 2 .49.7.74 1.49.74 2.38 0 1.6-.57 2.8-1.7 3.61-1.12.81-2.75 1.21-4.87 1.21-1.76 0-3.71-.28-5.84-.84-2.12-.56-4.73-1.53-7.8-2.89v8.95c3.74 1.82 8.03 2.74 12.89 2.74 5.28 0 9.39-1.18 12.34-3.54 2.95-2.36 4.44-5.59 4.44-9.7.01-2.97-.79-5.47-2.36-7.51Zm86.34-17.3h12.36v-8.02H246.9v8.02h12.36v37.41h9.65v-37.41Zm-29.02-8.01h-9.65v45.43h9.65v-45.43Zm-29.01 8.01h12.36v-8.02h-34.37v8.02h12.36v37.41h9.65v-37.41Zm104.99-8.01v27.75c0 3.52-.71 6.1-2.13 7.75-1.42 1.65-3.71 2.47-6.86 2.47-3.26 0-5.59-.82-7-2.45-1.41-1.64-2.12-4.21-2.12-7.71v-27.81h-9.62v29.27c0 5.2 1.62 9.29 4.86 12.29s7.78 4.49 13.63 4.49c3.88 0 7.24-.67 10.09-2.02 2.84-1.35 5.02-3.29 6.52-5.81 1.51-2.53 2.26-5.47 2.26-8.83v-29.4h-9.63v.01Zm38.46 8.01h12.36v-8.01h-34.37v8.01h12.35v37.42h9.66v-37.42Zm30.43 3.16c1.95-2.58 4.84-3.87 8.68-3.87 7.66 0 11.48 5.12 11.48 15.35 0 10.21-3.85 15.32-11.54 15.32-3.84 0-6.73-1.28-8.66-3.85-1.93-2.57-2.89-6.39-2.89-11.47.01-5.07.98-8.9 2.93-11.48Zm24.74-5.86c-3.71-4.02-9.06-6.03-16.05-6.03s-12.36 2-16.11 5.98c-3.75 3.99-5.62 9.76-5.62 17.32 0 7.57 1.87 13.36 5.61 17.4 3.74 4.04 9.09 6.06 16.07 6.06 6.97 0 12.33-2.02 16.06-6.06 3.74-4.04 5.61-9.82 5.61-17.34-.02-7.53-1.87-13.31-5.57-17.33Zm-283.38 76.76h15.44v-7.86h-15.44v-11.71h16.59v-7.9h-26.08v45.43h9.49v-17.96Zm159.03.53 10.87 17.43h10.71c-2.07-2.98-6.54-9.58-13.39-19.8 2.69-1.18 4.79-2.81 6.25-4.9 1.48-2.08 2.21-4.46 2.21-7.13 0-4.58-1.48-7.99-4.45-10.24s-7.55-3.37-13.73-3.37h-13.26v45.44h9.65v-17.43h5.14Zm-5.14-20.11h2.92c3.11 0 5.42.46 6.89 1.37 1.48.91 2.23 2.44 2.23 4.6 0 2.18-.73 3.77-2.18 4.79-1.45 1.01-3.7 1.52-6.75 1.52h-3.11v-12.28Zm-19.14 29.59H244.3v-11.71h15.41v-7.89H244.3v-9.98h16.57v-7.89h-26.22v45.44h26.22v-7.97Zm-59.62 0h-4.14v-29.58h5.14c8.63 0 12.95 4.88 12.95 14.64 0 9.96-4.65 14.94-13.95 14.94Zm17.81-31.6c-4.11-3.92-9.88-5.88-17.31-5.88h-14.29v45.44h12.89c8.05 0 14.21-1.99 18.48-5.97 4.26-3.98 6.39-9.7 6.39-17.18 0-7.03-2.05-12.5-6.16-16.41Zm-41.09 31.6H161.4v-11.71h15.41v-7.89H161.4v-9.98h16.57v-7.89h-26.21v45.44h26.21v-7.97Zm145.1-10.94c3.23-10.46 5.2-17.02 5.88-19.67.16.75.44 1.77.82 3.05.38 1.29 2.1 6.83 5.15 16.63h-11.85v-.01Zm27.86 18.9-16.13-45.62H323l-16.06 45.62h10.4l3.3-10.81h16.6l3.3 10.81h10.39Zm33.97 0v-7.96h-18.46v-37.48h-9.65v45.44h28.11Z"/></svg>