<svg xmlns="http://www.w3.org/2000/svg" width="500" height="500" fill="none"><path fill="#000" d="M93.57 436.022c0 1.778-.444 3.295-1.333 4.553-.875 1.244-2.105 2.195-3.69 2.851-1.587.656-3.453.984-5.6.984a30.1 30.1 0 0 1-3.22-.164 21.922 21.922 0 0 1-2.788-.472 11.919 11.919 0 0 1-2.236-.758v-3.343c1.025.424 2.276.82 3.753 1.189a19.71 19.71 0 0 0 4.635.534c1.504 0 2.775-.199 3.814-.595 1.04-.41 1.826-.991 2.36-1.743.546-.766.82-1.682.82-2.748 0-1.026-.227-1.88-.678-2.564-.45-.697-1.203-1.326-2.256-1.887-1.039-.574-2.46-1.182-4.265-1.825-1.272-.451-2.393-.943-3.364-1.476-.97-.547-1.784-1.162-2.44-1.846a6.96 6.96 0 0 1-1.497-2.379c-.328-.902-.492-1.935-.492-3.097 0-1.599.403-2.966 1.21-4.101.82-1.149 1.948-2.024 3.383-2.625 1.45-.615 3.11-.923 4.984-.923 1.6 0 3.076.15 4.43.451 1.367.301 2.618.704 3.753 1.21l-1.087 2.994a23.7 23.7 0 0 0-3.446-1.128 15.34 15.34 0 0 0-3.732-.451c-1.285 0-2.372.191-3.26.574-.876.369-1.546.896-2.01 1.579-.465.684-.698 1.497-.698 2.441 0 1.053.22 1.928.656 2.625.452.697 1.163 1.319 2.133 1.866.985.533 2.283 1.094 3.897 1.682 1.763.642 3.26 1.326 4.49 2.05 1.231.711 2.168 1.586 2.81 2.625.643 1.026.964 2.332.964 3.917Zm24.179-14.499V444h-2.789l-.492-3.158h-.185a6.553 6.553 0 0 1-1.804 1.969 7.863 7.863 0 0 1-2.502 1.189c-.916.273-1.894.41-2.933.41-1.777 0-3.268-.287-4.471-.861-1.203-.574-2.112-1.463-2.727-2.666-.602-1.203-.903-2.748-.903-4.635v-14.725h3.446v14.479c0 1.873.423 3.274 1.271 4.204.848.916 2.14 1.374 3.876 1.374 1.668 0 2.994-.314 3.979-.943.998-.629 1.715-1.552 2.153-2.769.437-1.23.656-2.734.656-4.512v-11.833h3.425ZM128.372 444h-3.425v-31.91h3.425V444Zm5.291-9.762v-3.035h10.172v3.035h-10.172Zm25.655-13.125c.452 0 .923.028 1.415.082.493.041.93.103 1.313.185l-.431 3.158a10.821 10.821 0 0 0-2.502-.308c-.902 0-1.757.185-2.563.554a6.083 6.083 0 0 0-2.092 1.559c-.602.67-1.073 1.483-1.415 2.44-.342.944-.513 1.996-.513 3.158V444h-3.425v-22.477h2.831l.369 4.143h.143a11.032 11.032 0 0 1 1.682-2.276 7.55 7.55 0 0 1 2.276-1.661c.875-.411 1.846-.616 2.912-.616Zm10.377.41V444h-3.404v-22.477h3.404Zm-1.661-8.408c.561 0 1.039.185 1.436.554.41.355.615.916.615 1.682 0 .752-.205 1.312-.615 1.681a2.03 2.03 0 0 1-1.436.554c-.588 0-1.08-.185-1.476-.554-.383-.369-.575-.929-.575-1.681 0-.766.192-1.327.575-1.682.396-.369.888-.554 1.476-.554Zm28.26 19.606c0 1.845-.239 3.493-.718 4.942-.478 1.449-1.169 2.673-2.071 3.671a9.011 9.011 0 0 1-3.281 2.297c-1.272.519-2.714.779-4.328.779-1.503 0-2.884-.26-4.142-.779a9.35 9.35 0 0 1-3.24-2.297c-.903-.998-1.607-2.222-2.113-3.671-.492-1.449-.738-3.097-.738-4.942 0-2.461.417-4.553 1.251-6.276.834-1.736 2.024-3.055 3.568-3.958 1.559-.916 3.412-1.374 5.558-1.374 2.051 0 3.842.458 5.373 1.374 1.545.916 2.741 2.242 3.589 3.979.861 1.722 1.292 3.807 1.292 6.255Zm-17.104 0c0 1.804.24 3.37.718 4.696.479 1.326 1.217 2.352 2.215 3.076.998.725 2.283 1.087 3.856 1.087 1.558 0 2.836-.362 3.834-1.087 1.012-.724 1.757-1.75 2.236-3.076.478-1.326.718-2.892.718-4.696 0-1.791-.24-3.336-.718-4.635-.479-1.313-1.217-2.324-2.215-3.035-.998-.711-2.29-1.067-3.876-1.067-2.338 0-4.054.773-5.147 2.318-1.081 1.545-1.621 3.684-1.621 6.419Zm21.082 1.517v-3.035h10.172v3.035h-10.172Zm21.718 19.852c-2.953 0-5.229-.554-6.829-1.661-1.599-1.094-2.399-2.632-2.399-4.615 0-1.408.444-2.611 1.333-3.609.902-.998 2.146-1.661 3.732-1.989a4.09 4.09 0 0 1-1.517-1.231 3.06 3.06 0 0 1-.616-1.886c0-.821.226-1.538.677-2.154.465-.629 1.169-1.23 2.112-1.804-1.175-.479-2.132-1.286-2.871-2.42-.724-1.149-1.087-2.482-1.087-3.999 0-1.614.335-2.988 1.005-4.122.67-1.149 1.641-2.024 2.912-2.625 1.272-.602 2.81-.903 4.615-.903.396 0 .793.021 1.189.062.41.027.8.075 1.169.143.369.055.69.123.964.205h7.711v2.195l-4.143.512c.41.534.752 1.176 1.026 1.928.273.752.41 1.586.41 2.502 0 2.242-.759 4.027-2.277 5.353-1.517 1.312-3.602 1.968-6.254 1.968-.629 0-1.272-.054-1.928-.164-.67.37-1.183.78-1.538 1.231a2.51 2.51 0 0 0-.513 1.558c0 .438.13.787.39 1.046.273.26.663.451 1.169.575.506.109 1.114.164 1.825.164h3.958c2.447 0 4.32.512 5.619 1.538 1.312 1.025 1.969 2.522 1.969 4.491 0 2.488-1.012 4.395-3.035 5.722-2.024 1.326-4.95 1.989-8.778 1.989Zm.103-2.666c1.859 0 3.397-.192 4.614-.574 1.231-.37 2.147-.91 2.748-1.621.615-.697.923-1.531.923-2.501 0-.903-.205-1.586-.615-2.051-.41-.451-1.012-.752-1.805-.903-.793-.164-1.764-.246-2.912-.246h-3.897c-1.011 0-1.893.158-2.645.472-.752.314-1.333.779-1.743 1.395-.397.615-.595 1.38-.595 2.296 0 1.217.513 2.14 1.538 2.769 1.025.643 2.488.964 4.389.964Zm.882-17.965c1.627 0 2.85-.41 3.671-1.23.82-.821 1.23-2.017 1.23-3.589 0-1.682-.417-2.94-1.251-3.774-.834-.847-2.064-1.271-3.691-1.271-1.559 0-2.762.437-3.61 1.312-.834.862-1.251 2.126-1.251 3.794 0 1.531.424 2.707 1.272 3.528.847.82 2.057 1.23 3.63 1.23Zm25.757-12.346c.452 0 .923.028 1.415.082.493.041.93.103 1.313.185l-.431 3.158a10.821 10.821 0 0 0-2.502-.308c-.902 0-1.756.185-2.563.554a6.083 6.083 0 0 0-2.092 1.559c-.601.67-1.073 1.483-1.415 2.44-.342.944-.513 1.996-.513 3.158V444h-3.424v-22.477h2.83l.369 4.143h.143a11.032 11.032 0 0 1 1.682-2.276 7.55 7.55 0 0 1 2.276-1.661c.875-.411 1.846-.616 2.912-.616Zm15.381.041c2.68 0 4.669.602 5.968 1.805 1.299 1.203 1.948 3.124 1.948 5.763V444h-2.481l-.656-3.322h-.164a12.535 12.535 0 0 1-1.969 2.071A7.327 7.327 0 0 1 264.38 444c-.889.273-1.983.41-3.281.41-1.368 0-2.584-.239-3.651-.718a5.694 5.694 0 0 1-2.502-2.173c-.601-.971-.902-2.202-.902-3.692 0-2.242.889-3.965 2.666-5.168 1.777-1.203 4.484-1.859 8.121-1.969l3.876-.164v-1.374c0-1.941-.417-3.301-1.251-4.081-.834-.779-2.01-1.169-3.527-1.169-1.176 0-2.297.171-3.364.513a23.006 23.006 0 0 0-3.035 1.21l-1.046-2.584c1.012-.52 2.174-.964 3.487-1.333a15.22 15.22 0 0 1 4.142-.554Zm4.553 11.772-3.425.143c-2.803.11-4.778.568-5.927 1.374-1.148.807-1.722 1.949-1.722 3.425 0 1.285.389 2.236 1.169 2.851.779.615 1.811.923 3.096.923 1.997 0 3.63-.554 4.902-1.662 1.271-1.107 1.907-2.768 1.907-4.983v-2.071Zm21.021-11.813c2.666 0 4.682.657 6.049 1.969 1.368 1.299 2.051 3.391 2.051 6.275V444h-3.363v-14.417c0-1.873-.431-3.274-1.292-4.204-.848-.93-2.153-1.395-3.917-1.395-2.488 0-4.238.704-5.25 2.113-1.012 1.408-1.518 3.452-1.518 6.132V444h-3.404v-22.477h2.748l.513 3.241h.184a6.71 6.71 0 0 1 1.825-1.99 7.96 7.96 0 0 1 2.482-1.23 9.615 9.615 0 0 1 2.892-.431Zm23.112 23.297c-2.844 0-5.1-.971-6.768-2.912-1.654-1.941-2.481-4.826-2.481-8.654 0-3.869.847-6.788 2.543-8.757 1.695-1.983 3.951-2.974 6.767-2.974 1.19 0 2.229.158 3.118.472.888.314 1.654.738 2.296 1.271a7.693 7.693 0 0 1 1.621 1.785h.246c-.07-.58-.125-1.161-.164-1.744a25.26 25.26 0 0 1-.082-1.804v-9.003h3.404V444h-2.748l-.513-3.199h-.143a7.793 7.793 0 0 1-1.621 1.825c-.642.547-1.415.984-2.317 1.312-.889.315-1.941.472-3.158.472Zm.533-2.83c2.406 0 4.108-.684 5.106-2.051.999-1.367 1.498-3.397 1.498-6.091v-.615c0-2.857-.479-5.052-1.436-6.583-.943-1.531-2.666-2.297-5.168-2.297-2.092 0-3.657.807-4.696 2.42-1.039 1.6-1.559 3.787-1.559 6.563 0 2.762.513 4.894 1.538 6.398 1.039 1.504 2.612 2.256 4.717 2.256Zm25.84-20.467c1.914 0 3.555.424 4.922 1.272 1.367.847 2.413 2.037 3.137 3.568.725 1.518 1.087 3.295 1.087 5.332v2.112h-15.524c.041 2.639.697 4.649 1.969 6.03 1.271 1.381 3.062 2.071 5.373 2.071 1.422 0 2.679-.13 3.773-.39a20.619 20.619 0 0 0 3.404-1.148v2.994a16.58 16.58 0 0 1-3.383 1.108c-1.108.232-2.42.348-3.938.348-2.16 0-4.047-.437-5.66-1.312-1.6-.889-2.844-2.188-3.732-3.897-.889-1.709-1.333-3.801-1.333-6.275 0-2.42.403-4.512 1.21-6.276.82-1.777 1.968-3.144 3.445-4.101 1.49-.957 3.24-1.436 5.25-1.436Zm-.041 2.789c-1.819 0-3.268.595-4.348 1.785-1.08 1.189-1.722 2.85-1.928 4.983h11.895c-.014-1.34-.226-2.516-.636-3.527-.396-1.026-1.005-1.819-1.825-2.379-.82-.575-1.873-.862-3.158-.862Zm25.614-2.789c2.666 0 4.683.657 6.05 1.969 1.367 1.299 2.051 3.391 2.051 6.275V444h-3.364v-14.417c0-1.873-.43-3.274-1.292-4.204-.847-.93-2.153-1.395-3.917-1.395-2.488 0-4.238.704-5.25 2.113-1.011 1.408-1.517 3.452-1.517 6.132V444h-3.404v-22.477h2.748l.512 3.241h.185a6.71 6.71 0 0 1 1.825-1.99 7.96 7.96 0 0 1 2.482-1.23 9.604 9.604 0 0 1 2.891-.431Zm29.654 16.735c0 1.435-.362 2.645-1.087 3.63-.71.97-1.736 1.702-3.076 2.194-1.326.492-2.912.738-4.757.738-1.573 0-2.933-.123-4.082-.369-1.148-.246-2.153-.595-3.014-1.046v-3.138c.916.452 2.01.862 3.281 1.231 1.272.369 2.57.554 3.897.554 1.941 0 3.349-.315 4.224-.944s1.313-1.483 1.313-2.563c0-.615-.178-1.156-.534-1.62-.341-.479-.922-.937-1.743-1.374-.82-.452-1.955-.944-3.404-1.477-1.436-.547-2.68-1.087-3.732-1.62-1.039-.547-1.846-1.21-2.42-1.989-.561-.78-.841-1.791-.841-3.035 0-1.901.765-3.357 2.297-4.369 1.545-1.025 3.568-1.538 6.07-1.538 1.354 0 2.618.137 3.794.41 1.189.26 2.297.616 3.322 1.067l-1.148 2.727a21.185 21.185 0 0 0-2.974-1.005 12.76 12.76 0 0 0-3.22-.41c-1.572 0-2.782.26-3.629.78-.834.519-1.251 1.23-1.251 2.132 0 .698.191 1.272.574 1.723.396.451 1.025.875 1.887 1.272.861.396 1.996.861 3.404 1.394 1.408.52 2.625 1.06 3.65 1.62 1.026.547 1.812 1.217 2.359 2.01.56.779.84 1.784.84 3.015Zm14.13-16.735c1.914 0 3.555.424 4.922 1.272 1.367.847 2.413 2.037 3.138 3.568.724 1.518 1.087 3.295 1.087 5.332v2.112h-15.525c.041 2.639.698 4.649 1.969 6.03 1.272 1.381 3.063 2.071 5.373 2.071 1.422 0 2.68-.13 3.774-.39a20.807 20.807 0 0 0 3.404-1.148v2.994c-1.085.49-2.219.861-3.384 1.108-1.107.232-2.42.348-3.937.348-2.161 0-4.047-.437-5.661-1.312-1.599-.889-2.843-2.188-3.732-3.897-.889-1.709-1.333-3.801-1.333-6.275 0-2.42.403-4.512 1.21-6.276.82-1.777 1.969-3.144 3.445-4.101 1.491-.957 3.241-1.436 5.25-1.436Zm-.041 2.789c-1.818 0-3.267.595-4.347 1.785-1.08 1.189-1.723 2.85-1.928 4.983h11.894c-.013-1.34-.225-2.516-.635-3.527-.397-1.026-1.005-1.819-1.826-2.379-.82-.575-1.873-.862-3.158-.862Z"/><path fill="#369837" d="M273.19 93.51c0 2.46-1.99 4.44-4.44 4.44h-36.78c-2.45 0-4.44-1.98-4.44-4.44V56.73c0-2.45 1.98-4.45 4.44-4.45h36.78c2.45 0 4.44 2 4.44 4.45v36.78Zm54.79 0c0 2.46-1.99 4.44-4.44 4.44h-36.78c-2.46 0-4.45-1.98-4.45-4.44V56.73c0-2.45 1.99-4.45 4.45-4.45h36.78c2.45 0 4.44 2 4.44 4.45v36.78Zm0 109.59c0 2.45-1.99 4.45-4.44 4.45h-36.78c-2.46 0-4.45-1.99-4.45-4.45v-36.77c0-2.46 1.99-4.45 4.45-4.45h36.78c2.45 0 4.44 1.99 4.44 4.45v36.77Zm-109.6-54.83c0 2.46-1.99 4.45-4.44 4.45h-36.78c-2.46 0-4.44-1.98-4.44-4.45v-36.78c0-2.45 1.98-4.44 4.44-4.44h36.78c2.45 0 4.44 1.99 4.44 4.44v36.78Zm54.81 0c0 2.46-1.99 4.45-4.44 4.45h-36.78c-2.45 0-4.44-1.98-4.44-4.45v-36.78c0-2.45 1.98-4.44 4.44-4.44h36.78c2.45 0 4.44 1.99 4.44 4.44v36.78Zm-54.81 54.83c0 2.45-1.99 4.45-4.44 4.45h-36.78c-2.46 0-4.44-1.99-4.44-4.45v-36.77c0-2.46 1.98-4.45 4.44-4.45h36.78c2.45 0 4.44 1.99 4.44 4.45v36.77Zm54.81 0c0 2.45-1.99 4.45-4.44 4.45h-36.78c-2.45 0-4.44-1.99-4.44-4.45v-36.77c0-2.46 1.98-4.45 4.44-4.45h36.78c2.45 0 4.44 1.99 4.44 4.45v36.77Zm-54.81 54.85c0 2.46-1.99 4.45-4.44 4.45h-36.78c-2.46 0-4.44-1.99-4.44-4.45v-36.77c0-2.45 1.98-4.45 4.44-4.45h36.78c2.45 0 4.44 1.99 4.44 4.45v36.77Zm54.81 0c0 2.46-1.99 4.45-4.44 4.45h-36.78c-2.45 0-4.44-1.99-4.44-4.45v-36.77c0-2.45 1.98-4.45 4.44-4.45h36.78c2.45 0 4.44 1.99 4.44 4.45v36.77Z"/><path fill="#C91517" d="M220.67 75.12c0 13.87-11.24 25.12-25.12 25.12-13.87 0-25.11-11.25-25.11-25.12.01-13.87 11.25-25.12 25.12-25.12 13.87 0 25.11 11.25 25.11 25.12Z"/><path fill="#281D16" d="M84.95 294.35h9.65v45.43h-9.65v-45.43Zm61.54 0h-8.69v21.5c0 2.45.15 6.62.47 12.52h-.22l-19.77-34.03h-12.17v45.43h8.62V318.4c0-2.59-.2-6.92-.59-12.99h.28l19.8 34.37h12.27v-45.43Zm36.08 25.31c-1.58-2.04-4.49-4.07-8.74-6.11-3.22-1.53-5.26-2.6-6.12-3.19-.86-.59-1.49-1.2-1.89-1.83-.39-.63-.59-1.37-.59-2.22 0-1.37.49-2.48 1.46-3.33.98-.85 2.37-1.27 4.2-1.27 1.54 0 3.1.2 4.69.59 1.59.39 3.6 1.09 6.02 2.08l3.11-7.49c-2.35-1.01-4.59-1.8-6.74-2.36-2.15-.56-4.4-.84-6.77-.84-4.82 0-8.59 1.15-11.31 3.45-2.73 2.3-4.1 5.46-4.1 9.48 0 2.14.41 4 1.25 5.59.83 1.6 1.94 3 3.33 4.2 1.39 1.2 3.48 2.45 6.26 3.76 2.97 1.41 4.94 2.44 5.9 3.08.97.64 1.7 1.31 2.2 2 .49.7.74 1.49.74 2.38 0 1.6-.57 2.8-1.7 3.61-1.12.81-2.75 1.21-4.87 1.21-1.76 0-3.71-.28-5.84-.84-2.12-.56-4.73-1.53-7.8-2.89v8.95c3.74 1.82 8.03 2.74 12.89 2.74 5.28 0 9.39-1.18 12.34-3.54 2.95-2.36 4.44-5.59 4.44-9.7.01-2.97-.79-5.47-2.36-7.51Zm86.34-17.3h12.36v-8.02H246.9v8.02h12.36v37.41h9.65v-37.41Zm-29.02-8.01h-9.65v45.43h9.65v-45.43Zm-29.01 8.01h12.36v-8.02h-34.37v8.02h12.36v37.41h9.65v-37.41Zm104.99-8.01v27.75c0 3.52-.71 6.1-2.13 7.75-1.42 1.65-3.71 2.47-6.86 2.47-3.26 0-5.59-.82-7-2.45-1.41-1.64-2.12-4.21-2.12-7.71v-27.81h-9.62v29.27c0 5.2 1.62 9.29 4.86 12.29s7.78 4.49 13.63 4.49c3.88 0 7.24-.67 10.09-2.02 2.84-1.35 5.02-3.29 6.52-5.81 1.51-2.53 2.26-5.47 2.26-8.83v-29.4h-9.63v.01Zm38.46 8.01h12.36v-8.01h-34.37v8.01h12.35v37.42h9.66v-37.42Zm30.43 3.16c1.95-2.58 4.84-3.87 8.68-3.87 7.66 0 11.48 5.12 11.48 15.35 0 10.21-3.85 15.32-11.54 15.32-3.84 0-6.73-1.28-8.66-3.85-1.93-2.57-2.89-6.39-2.89-11.47.01-5.07.98-8.9 2.93-11.48Zm24.74-5.86c-3.71-4.02-9.06-6.03-16.05-6.03s-12.36 2-16.11 5.98c-3.75 3.99-5.62 9.76-5.62 17.32 0 7.57 1.87 13.36 5.61 17.4 3.74 4.04 9.09 6.06 16.07 6.06 6.97 0 12.33-2.02 16.06-6.06 3.74-4.04 5.61-9.82 5.61-17.34-.02-7.53-1.87-13.31-5.57-17.33Zm-283.38 76.76h15.44v-7.86h-15.44v-11.71h16.59v-7.9h-26.08v45.43h9.49v-17.96Zm159.03.53 10.87 17.43h10.71c-2.07-2.98-6.54-9.58-13.39-19.8 2.69-1.18 4.79-2.81 6.25-4.9 1.48-2.08 2.21-4.46 2.21-7.13 0-4.58-1.48-7.99-4.45-10.24s-7.55-3.37-13.73-3.37h-13.26v45.44h9.65v-17.43h5.14Zm-5.14-20.11h2.92c3.11 0 5.42.46 6.89 1.37 1.48.91 2.23 2.44 2.23 4.6 0 2.18-.73 3.77-2.18 4.79-1.45 1.01-3.7 1.52-6.75 1.52h-3.11v-12.28Zm-19.14 29.59H244.3v-11.71h15.41v-7.89H244.3v-9.98h16.57v-7.89h-26.22v45.44h26.22v-7.97Zm-59.62 0h-4.14v-29.58h5.14c8.63 0 12.95 4.88 12.95 14.64 0 9.96-4.65 14.94-13.95 14.94Zm17.81-31.6c-4.11-3.92-9.88-5.88-17.31-5.88h-14.29v45.44h12.89c8.05 0 14.21-1.99 18.48-5.97 4.26-3.98 6.39-9.7 6.39-17.18 0-7.03-2.05-12.5-6.16-16.41Zm-41.09 31.6H161.4v-11.71h15.41v-7.89H161.4v-9.98h16.57v-7.89h-26.21v45.44h26.21v-7.97Zm145.1-10.94c3.23-10.46 5.2-17.02 5.88-19.67.16.75.44 1.77.82 3.05.38 1.29 2.1 6.83 5.15 16.63h-11.85v-.01Zm27.86 18.9-16.13-45.62H323l-16.06 45.62h10.4l3.3-10.81h16.6l3.3 10.81h10.39Zm33.97 0v-7.96h-18.46v-37.48h-9.65v45.44h28.11Z"/></svg>
