<svg width="500" height="500" fill="none" xmlns="http://www.w3.org/2000/svg"><path fill-rule="evenodd" clip-rule="evenodd" d="M313.03 158.738h-22.916c-182.255 121.872 93.395 18.667-47.26 118.689h54.479c111.846-120.189-143.191-15.476 15.697-118.689Zm-119.279 151.18c-14.853 9.337-31.83 19.72-51.362 31.344l85.565-.019c13.714-11.46 25.635-21.839 36.074-31.321l-70.277-.004Zm103.578-32.495-33.309 32.495h-70.269l49.1-32.495h54.478Z" fill="#FF4853"/><path fill-rule="evenodd" clip-rule="evenodd" d="M50.02 185.906h21.597v45.806a16.166 16.166 0 0 0 3.255 10.512 14.551 14.551 0 0 0 10.929 3.994c8.685 0 12.995-4.612 13.018-13.821l.124-46.491h11.727v47.881a23.72 23.72 0 0 1-1.803 10.334 23.564 23.564 0 0 1-6.081 8.521 30.15 30.15 0 0 1-10.612 5.874 30.032 30.032 0 0 1-12.051 1.205c-10.995-.353-16.48-2.381-21.78-7.752a30.059 30.059 0 0 1-6.375-10.103 30.208 30.208 0 0 1-1.949-11.806v-44.154Zm72.112 73.161v-59.662c0-9.435 4.768-14.486 12.267-14.486 2.965-.122 5.9.641 8.436 2.193a23.339 23.339 0 0 1 6.612 6.742l22.62 34.472h.366v-42.334h11.847v61.251c0 8.32-3.085 12.47-8.347 12.47a10.78 10.78 0 0 1-5.581-1.44 10.867 10.867 0 0 1-4.057-4.12l-31.947-46.558h-.365v51.472h-11.851Zm74.516-73.161h21.461v73.161h-21.461v-73.161Zm207.691-.2h21.353v54.42a12.692 12.692 0 0 0 1.466 7.564 7.489 7.489 0 0 0 5.706 1.683H450v9.71h-27.295a20.599 20.599 0 0 1-14.255-3.876 14.807 14.807 0 0 1-3.255-5.225c-.708-1.952-1-4.032-.856-6.106v-58.17Zm-37.042 49.577-8.751-29.449h-.315l-9.257 29.449h18.323Zm-39.189 23.784 21.088-60.48a21.999 21.999 0 0 1 6.526-10.406 9.808 9.808 0 0 1 3.593-2.22 9.743 9.743 0 0 1 4.186-.497 10.672 10.672 0 0 1 7.541 2.349 21.756 21.756 0 0 1 6.371 10.406l21.78 60.86h-22.558l-4.558-13.484H345.33l-5.165 13.472h-12.057Z" fill="#4086F3"/></svg>