<svg xmlns="http://www.w3.org/2000/svg" width="500" height="500" fill="none"><path fill="#21409A" d="m405.701 387.785-7.268-3.858c-2.667-1.408-4.557-2.718-5.739-3.921-1.091-1.101-1.657-2.427-1.657-4.034 0-1.769.707-3.047 2.06-3.965 1.475-1.007 3.217-1.772 5.207-1.515 8.164 1.039 16.816 7.241 16.816 7.241v-12.144s-2.235 3.002-6.076 2.398c-.122-.024-1.371-.296-4.174-1.129-2.711-.828-5.106-1.269-7.171-1.269-4.834 0-8.824 1.267-11.856 3.873-3.009 2.584-4.501 5.835-4.501 9.666 0 2.989 1.305 5.704 3.816 8.11 1.354 1.262 3.145 2.493 5.331 3.683l7.069 3.787c4.08 2.18 6.625 3.753 7.78 4.746 1.731 1.53 2.568 3.29 2.568 5.327 0 2.336-.866 4.038-2.502 5.248-1.687 1.267-2.357 1.872-6.051 1.907-7.674.057-13.51-4.621-16.806-8.136v7.181c3.444 2.363 9.606 5.608 17.45 5.608 5.324 0 9.79-1.308 13.298-3.998 3.53-2.693 5.321-6.078 5.321-10.095 0-2.983-.993-5.621-2.996-7.843-1.984-2.155-5.327-4.443-9.919-6.868Zm-317.658 9.744c0 4.5.769 8.229 2.387 11.114 3.015 5.426 8.662 8.014 16.571 8.014 7.996 0 13.695-2.626 16.71-8.127 1.62-2.96 2.38-6.984 2.38-11.972v-29.976h-13.186c5.227 0 8.044 5.896 8.044 11.411v18.566c0 4.487-.559 7.648-1.554 9.605-1.762 3.439-5.223 5.284-10.8 5.284-5.028 0-8.208-1.771-9.888-5.135-.925-1.885-1.42-4.607-1.42-8.265l-.005-31.452H80c5.226 0 8.045 5.892 8.045 11.401l-.002 19.532Zm104.453-19.524v37.649h9.241v-49.059h-17.285c5.23 0 8.044 5.893 8.044 11.41Zm121.684 0v20.952l-25.893-32.362h-14.818c5.232 0 8.049 5.893 8.049 11.41v37.649h5.14V379.35l29.286 36.303h3.378v-49.058h-13.189c5.226 0 8.047 5.893 8.047 11.41Zm-46.525 37.648v-49.058h-17.283c5.23 0 8.045 5.892 8.045 11.41v37.647l9.238.001Zm-126.897-37.648v37.649h5.141V379.35l29.284 36.303h3.378v-49.058h-13.185c5.224 0 8.043 5.893 8.043 11.41v20.952l-25.893-32.362H132.71c5.232 0 8.048 5.893 8.048 11.41Zm211.417-12.415c-6.63 0-12.264 2.187-16.836 6.561-4.996 4.806-7.461 11.168-7.461 18.989 0 7.451 2.31 13.627 6.986 18.443 4.594 4.716 10.394 7.075 17.311 7.075 6.471 0 12.029-2.127 16.619-6.379 5.143-4.778 7.683-11.199 7.683-19.138 0-7.82-2.45-14.17-7.426-18.95-4.572-4.405-10.219-6.601-16.876-6.601Zm9.96 41.625c-2.792 3.274-6.096 4.857-9.96 4.857-3.954 0-7.287-1.627-10.051-4.979-2.722-3.327-4.175-8.577-4.175-15.953 0-7.402 1.453-12.65 4.175-15.952 2.792-3.376 6.127-5.01 10.051-5.01 3.793 0 7.091 1.573 9.932 4.826 2.767 3.176 4.262 8.476 4.262 16.136 0 7.57-1.48 12.854-4.234 16.075Zm-127.559 2.814c-1.686 1.27-2.356 1.873-6.055 1.908-7.671.057-13.507-4.619-16.809-8.137v7.181c3.449 2.364 9.611 5.612 17.456 5.612 5.324 0 9.787-1.312 13.297-4.003 3.531-2.692 5.319-6.077 5.319-10.095 0-2.984-.992-5.62-2.993-7.842-1.986-2.154-5.331-4.443-9.919-6.871l-7.266-3.853c-2.671-1.409-4.562-2.721-5.74-3.924-1.095-1.098-1.658-2.426-1.658-4.033 0-1.769.707-3.047 2.057-3.966 1.48-1.006 3.219-1.771 5.204-1.519 8.173 1.044 16.822 7.244 16.822 7.244V365.59s-2.234 3-6.078 2.395c-.12-.02-1.371-.294-4.174-1.125-2.709-.833-5.106-1.27-7.17-1.27-4.834 0-8.823 1.266-11.855 3.872-3.007 2.584-4.503 5.837-4.503 9.666 0 2.989 1.306 5.703 3.817 8.11 1.355 1.264 3.146 2.493 5.331 3.681l7.07 3.788c4.074 2.179 6.624 3.754 7.779 4.747 1.732 1.529 2.569 3.289 2.569 5.327 0 2.335-.865 4.038-2.501 5.248Zm14.761-82.859c40.399 0 73.143-32.747 73.143-73.147l.007-49.178c-.007-7.571.363-45.886 30.099-56.609 7.462-2.692 20.529-2.511 21.549-14.263.432-4.968 2.221-23.088 2.221-23.088C379.48 83.829 420 83.341 420 83.341h-48.711s-40.567.462-43.694 27.513c0 0-1.789 18.122-2.222 23.088-1.018 11.751-14.086 11.57-21.551 14.265-29.734 10.723-30.099 48.317-30.099 56.604v49.212c0 13.466-10.92 24.385-24.387 24.385-13.463 0-24.38-10.919-24.38-24.385v-85.34h-48.76v85.34c0 40.4 32.745 73.147 73.14 73.147"/></svg>
