<svg xmlns="http://www.w3.org/2000/svg" width="500" height="500" fill="none"><path fill="#005F36" d="M256.723 325.927v-72.943c0-23.045 27.293-43.084 50.372-44.086 19.868-.802 39.535 0 59.403 0 1.807 76.75-50.773 115.025-109.775 117.029Zm-13.848 0s.201-48.696 0-72.943c-.201-23.045-27.293-43.084-50.372-44.086-19.868-.802-39.536 0-59.404 0-1.605 76.75 50.975 115.025 109.776 117.029Z"/><path fill="#83C45B" d="M243.076 220.52c-12.041-13.827-25.889-22.644-42.947-25.65-5.218-1.002-10.637-1.402-16.055-1.402-21.273-.201-64.421 0-64.421 0V90.065h59.805c22.477-1.002 37.529 9.82 49.168 27.454 10.235 15.43 14.249 33.065 14.249 51.1.201 18.035.201 51.901.201 51.901Zm13.847 0c12.042-13.827 25.889-22.644 42.947-25.65 5.218-1.002 10.637-1.402 16.055-1.402 21.273-.201 64.421 0 64.421 0V90.065h-59.805c-22.477-1.002-37.528 9.619-49.168 27.253-10.235 15.431-13.647 33.065-14.249 51.1-.602 17.034-.201 52.102-.201 52.102Z"/><path fill="#005F36" d="M161.297 359.133v32.47c0 3.455-.775 6.578-2.325 9.37-1.527 2.769-3.852 4.965-6.975 6.59-3.1 1.625-7.01 2.437-11.73 2.437-6.709 0-11.822-1.693-15.339-5.08-3.516-3.387-5.275-7.871-5.275-13.455v-32.332h10.724v30.719c0 4.142.856 7.048 2.568 8.718 1.712 1.671 4.245 2.506 7.6 2.506 2.36 0 4.268-.401 5.726-1.201 1.481-.801 2.568-2.037 3.262-3.707.694-1.671 1.041-3.799 1.041-6.385v-30.65h10.723Zm33.628 11.086c4.141 0 7.473 1.121 9.995 3.364 2.522 2.219 3.782 5.789 3.782 10.709v25.021h-10.584V386.9c0-2.746-.509-4.816-1.527-6.212-.995-1.396-2.568-2.094-4.72-2.094-3.239 0-5.448 1.087-6.628 3.261-1.18 2.174-1.77 5.308-1.77 9.404v18.054h-10.585V370.94h8.086l1.423 4.908h.59c.833-1.327 1.863-2.402 3.089-3.226a13.66 13.66 0 0 1 4.129-1.819 19.07 19.07 0 0 1 4.72-.584Zm35.259.721v38.373h-10.585V370.94h10.585Zm-5.275-15.034c1.573 0 2.927.366 4.06 1.099 1.134.709 1.701 2.048 1.701 4.015 0 1.945-.567 3.295-1.701 4.051-1.133.732-2.487 1.098-4.06 1.098-1.596 0-2.961-.366-4.095-1.098-1.111-.756-1.666-2.106-1.666-4.051 0-1.967.555-3.306 1.666-4.015 1.134-.733 2.499-1.099 4.095-1.099Zm25.646 53.407-14.784-38.373h11.071l7.495 21.864c.417 1.281.741 2.631.972 4.05.255 1.419.428 2.689.521 3.81h.277c.07-1.213.232-2.506.486-3.879.278-1.373.636-2.7 1.076-3.981l7.461-21.864h11.071l-14.784 38.373h-10.862Zm41.817-38.373v38.373h-10.584V370.94h10.584Zm-5.274-15.034c1.573 0 2.926.366 4.06 1.099 1.134.709 1.7 2.048 1.7 4.015 0 1.945-.566 3.295-1.7 4.051-1.134.732-2.487 1.098-4.06 1.098-1.597 0-2.962-.366-4.095-1.098-1.111-.756-1.666-2.106-1.666-4.051 0-1.967.555-3.306 1.666-4.015 1.133-.733 2.498-1.099 4.095-1.099Zm26.999 53.407h-10.585v-53.407h10.585v53.407Zm21.724 0h-10.584v-53.407h10.584v53.407Zm27.138-39.094c3.586 0 6.675.687 9.266 2.06 2.591 1.35 4.593 3.317 6.004 5.903 1.411 2.586 2.117 5.744 2.117 9.473v5.08h-25.021c.115 2.952 1.006 5.275 2.672 6.968 1.689 1.67 4.025 2.506 7.01 2.506 2.475 0 4.743-.252 6.802-.756 2.059-.503 4.176-1.258 6.35-2.265v8.1a25.366 25.366 0 0 1-6.038 2.06c-2.082.435-4.615.652-7.6.652-3.887 0-7.334-.709-10.342-2.128-2.984-1.419-5.332-3.581-7.044-6.487-1.689-2.906-2.534-6.567-2.534-10.984 0-4.485.764-8.214 2.291-11.189 1.55-2.998 3.701-5.24 6.454-6.728 2.754-1.51 5.958-2.265 9.613-2.265Zm.07 7.448c-2.059 0-3.771.652-5.136 1.957-1.342 1.304-2.117 3.352-2.325 6.144h14.853c-.024-1.556-.313-2.941-.868-4.154a6.467 6.467 0 0 0-2.429-2.883c-1.064-.709-2.429-1.064-4.095-1.064Z"/></svg>
