<svg width="3000" height="900" xmlns="http://www.w3.org/2000/svg"><path fill="#3d9970" fill-opacity=".1" d="M166.667 284.7 0 258v384l166.667-26.7 13.895-2.195C351.375 586.113 675.688 534.865 1000 530c200.854-3.013 401.71 11.039 602.565 25.091C1735.044 564.36 1867.52 573.628 2000 578c320.25 10.569 640.52-9.325 812.958-20.037 7.042-.437 13.834-.859 20.375-1.263L3000 546V354l-166.667-10.7c-6.541-.404-13.333-.826-20.375-1.263C2640.521 331.325 2320.25 311.431 2000 322c-132.48 4.372-264.956 13.64-397.435 22.909C1401.71 358.961 1200.855 373.013 1000 370c-324.313-4.865-648.625-56.113-819.438-83.105l-13.895-2.195Z"/><path fill="#3d9970" fill-opacity=".2" d="M125 303.14 0 352.189v195.848l125 49.047c125 49.048 375 147.143 625 171.667s500-24.524 750-81.695c26.477-6.12 52.956-12.314 79.433-18.508C1802.956 616.26 2026.477 563.97 2250 556.16c250-8.123 500 40.924 625 65.448l125 24.524V254.093l-125 24.524c-125 24.524-375 73.571-625 65.448-223.523-7.813-447.044-60.1-670.567-112.388A30829.377 30829.377 0 0 0 1500 213.169c-250-57.171-500-106.22-750-81.695-250 24.524-500 122.619-625 171.667Z"/><path fill="#3d9970" fill-opacity=".2" d="M166.667 140.525 0 125v650l166.667-15.525c7.68-.689 15.716-1.413 24.09-2.169 173.301-15.632 491.272-44.313 809.243-36.424 111.25 2.566 222.5 9.448 333.75 16.33 222.083 13.737 444.167 27.474 666.25 6.884 333.333-31.484 666.667-138.85 833.333-193.55L3000 496.43V403.57l-166.667-54.118c-166.666-54.699-500-162.065-833.333-193.549-222.083-20.59-444.167-6.853-666.25 6.885-111.25 6.881-222.5 13.763-333.75 16.33-317.97 7.888-635.942-20.793-809.244-36.425-8.373-.755-16.408-1.48-24.09-2.17Z"/></svg>