<svg width="1440" height="448" fill="none" xmlns="http://www.w3.org/2000/svg"><path d="M80 58.7L0 32v384l80-26.7 6.67-2.195C168.66 360.113 324.33 308.865 480 304c96.41-3.013 192.821 11.039 289.231 25.091C832.821 338.36 896.41 347.628 960 352c153.72 10.569 307.45-9.325 390.22-20.037 3.38-.437 6.64-.859 9.78-1.263l80-10.7V128l-80-10.7c-3.14-.404-6.4-.826-9.78-1.263C1267.45 105.325 1113.72 85.431 960 96c-63.59 4.372-127.179 13.64-190.769 22.909C672.821 132.961 576.41 147.013 480 144c-155.67-4.865-311.34-56.113-393.33-83.105L80 58.7z" fill="#3D9970" fill-opacity=".1"/><path d="M60 128.224l-60 32V288l60 32c60 32 180 96 300 112s240-16 360-53.3c12.709-3.993 25.419-8.034 38.128-12.075C865.419 332.511 972.709 298.396 1080 293.3c120-5.3 240 26.7 300 42.7l60 16V96.224l-60 16c-60 16-180 48-300 42.7-107.291-5.097-214.581-39.211-321.872-73.325A11603.385 11603.385 0 00720 69.524c-120-37.3-240-69.3-360-53.3s-240 80-300 112z" fill="#3D9970" fill-opacity=".2"/><path d="M80 10.7L0 0v448l80-10.7c3.687-.475 7.544-.974 11.563-1.495C174.748 425.031 327.374 405.263 480 410.7c53.4 1.769 106.8 6.512 160.2 11.255 106.6 9.468 213.2 18.936 319.8 4.745 160-21.7 320-95.7 400-133.4l80-37.3v-64l-80-37.3C1280 117 1120 43 960 21.3c-106.6-14.191-213.2-4.723-319.8 4.745C586.8 30.788 533.4 35.531 480 37.3 327.374 42.737 174.748 22.969 91.563 12.195c-4.019-.52-7.876-1.02-11.563-1.495z" fill="#3D9970" fill-opacity=".2"/></svg>